<svg xmlns="http://www.w3.org/2000/svg" xmlns:xlink="http://www.w3.org/1999/xlink" width="500" zoomAndPan="magnify" viewBox="0 0 375 374.999991" height="500" preserveAspectRatio="xMidYMid meet" version="1.2"><defs><clipPath id="dc283bc0f1"><path d="M 38 16.097656 L 344.496094 16.097656 L 344.496094 371.761719 L 38 371.761719 Z M 38 16.097656 "/></clipPath><clipPath id="c9690bd305"><path d="M 38.121094 16.191406 L 344.496094 16.191406 L 344.496094 371.671875 L 38.121094 371.671875 Z M 38.121094 16.191406 "/></clipPath><clipPath id="dcff56a205"><path d="M 344.238281 26.71875 C 292.03125 67.34375 255.554688 102.335938 234.808594 131.628906 C 215.238281 159.25 209.976562 181.234375 218.957031 197.585938 L 219.140625 198.019531 C 227.378906 215.914062 231.339844 232.390625 231.09375 247.4375 C 230.90625 258.894531 229.605469 270.289062 223.226562 279.148438 C 196.597656 316.179688 181.425781 360.335938 190.777344 371.671875 C 183.777344 363.246094 183.46875 345.472656 186.875 327.699219 C 193.625 292.214844 217.34375 275.183594 217.839844 247.191406 C 218.089844 234.183594 214.496094 219.695312 207.1875 203.714844 C 195.730469 182.535156 201.304688 155.96875 224.035156 123.886719 C 245.585938 93.480469 288.503906 53.101562 344.238281 26.71875 Z M 134.421875 165.007812 C 112.1875 122.523438 78.003906 117.445312 51.992188 85.429688 C 52.921875 126.613281 59.363281 156.464844 71.375 175.105469 C 84.441406 195.417969 108.285156 214.675781 136.03125 207.183594 C 119.929688 220.25 100.421875 219.261719 88.902344 211.269531 C 84.132812 220.871094 82.523438 227.375 80.664062 237.964844 C 78.808594 248.304688 78.375 258.832031 79.488281 269.363281 C 93.113281 270.230469 130.269531 248.863281 132.75 244.28125 C 121.105469 266.265625 99.246094 281.003906 74.535156 283.667969 L 68.277344 284.347656 L 67.226562 278.03125 C 64.933594 263.851562 65.058594 249.480469 67.535156 235.609375 C 69.640625 223.90625 73.417969 212.449219 78.746094 201.671875 C 71.625 197.027344 65.429688 190.523438 60.167969 182.289062 C 44.621094 158.136719 37.5 118.191406 38.738281 62.390625 L 39.296875 38.796875 C 54.59375 92.800781 127.296875 111.378906 134.421875 165.007812 Z M 189.105469 47.464844 C 203.96875 47.464844 215.984375 59.480469 215.984375 74.34375 C 215.984375 89.207031 203.96875 101.222656 189.105469 101.222656 C 174.242188 101.222656 162.226562 89.207031 162.226562 74.34375 C 162.226562 59.480469 174.242188 47.464844 189.105469 47.464844 Z M 241.621094 165.007812 C 263.855469 122.523438 298.039062 117.445312 324.050781 85.429688 C 323.121094 126.613281 316.679688 156.464844 304.667969 175.105469 C 291.597656 195.417969 267.757812 214.675781 240.011719 207.183594 C 256.113281 220.25 275.621094 219.261719 287.140625 211.269531 C 291.910156 220.871094 293.519531 227.375 295.378906 237.964844 C 297.234375 248.304688 297.667969 258.832031 296.554688 269.363281 C 282.929688 270.230469 245.769531 248.863281 243.292969 244.28125 C 254.9375 266.265625 276.796875 281.003906 301.507812 283.667969 L 307.761719 284.347656 L 308.753906 278.09375 C 311.046875 263.910156 310.921875 249.542969 308.445312 235.671875 C 306.339844 223.96875 302.5625 212.511719 297.234375 201.734375 C 304.355469 197.089844 310.550781 190.585938 315.8125 182.351562 C 331.359375 158.195312 338.480469 118.191406 337.242188 62.453125 L 336.683594 38.859375 C 321.449219 92.800781 248.742188 111.378906 241.621094 165.007812 Z M 44.992188 16.191406 C 82.214844 53.535156 207.933594 141.042969 173.871094 203.777344 C 166.5 219.753906 162.96875 234.246094 163.21875 247.253906 C 161.113281 298.65625 207.375 278.28125 166.5 336.988281 L 166.5625 335.8125 C 190.53125 306.953125 150.523438 282.304688 149.902344 247.5 C 149.65625 232.390625 153.617188 215.914062 161.855469 198.082031 L 162.042969 197.648438 C 187.929688 150.578125 73.046875 55.949219 44.992188 16.191406 Z M 44.992188 16.191406 "/></clipPath><clipPath id="dbf6f23a1a"><path d="M 226.109375 2.542969 L 276.214844 2.542969 L 276.214844 53 L 226.109375 53 Z M 226.109375 2.542969 "/></clipPath><clipPath id="b8870520a2"><path d="M 226.109375 42 L 252 42 L 252 67.972656 L 226.109375 67.972656 Z M 226.109375 42 "/></clipPath></defs><g id="5490a36713"><g clip-rule="nonzero" clip-path="url(#dc283bc0f1)"><path style=" stroke:none;fill-rule:nonzero;fill:#ffbed3;fill-opacity:1;" d="M 344.238281 26.71875 C 292.03125 67.34375 255.554688 102.335938 234.808594 131.628906 C 215.238281 159.25 209.976562 181.234375 218.957031 197.585938 L 219.140625 198.019531 C 227.378906 215.914062 231.339844 232.390625 231.09375 247.4375 C 230.90625 258.894531 229.605469 270.289062 223.226562 279.148438 C 196.597656 316.179688 181.425781 360.335938 190.777344 371.671875 C 183.777344 363.246094 183.46875 345.472656 186.875 327.699219 C 193.625 292.214844 217.34375 275.183594 217.839844 247.191406 C 218.089844 234.183594 214.496094 219.695312 207.1875 203.714844 C 195.730469 182.535156 201.304688 155.96875 224.035156 123.886719 C 245.585938 93.480469 288.503906 53.101562 344.238281 26.71875 Z M 134.421875 165.007812 C 112.1875 122.523438 78.003906 117.445312 51.992188 85.429688 C 52.921875 126.613281 59.363281 156.464844 71.375 175.105469 C 84.441406 195.417969 108.285156 214.675781 136.03125 207.183594 C 119.929688 220.25 100.421875 219.261719 88.902344 211.269531 C 84.132812 220.871094 82.523438 227.375 80.664062 237.964844 C 78.808594 248.304688 78.375 258.832031 79.488281 269.363281 C 93.113281 270.230469 130.269531 248.863281 132.75 244.28125 C 121.105469 266.265625 99.246094 281.003906 74.535156 283.667969 L 68.277344 284.347656 L 67.226562 278.03125 C 64.933594 263.851562 65.058594 249.480469 67.535156 235.609375 C 69.640625 223.90625 73.417969 212.449219 78.746094 201.671875 C 71.625 197.027344 65.429688 190.523438 60.167969 182.289062 C 44.621094 158.136719 37.5 118.191406 38.738281 62.390625 L 39.296875 38.796875 C 54.59375 92.800781 127.296875 111.378906 134.421875 165.007812 Z M 189.105469 47.464844 C 203.96875 47.464844 215.984375 59.480469 215.984375 74.34375 C 215.984375 89.207031 203.96875 101.222656 189.105469 101.222656 C 174.242188 101.222656 162.226562 89.207031 162.226562 74.34375 C 162.226562 59.480469 174.242188 47.464844 189.105469 47.464844 Z M 241.621094 165.007812 C 263.855469 122.523438 298.039062 117.445312 324.050781 85.429688 C 323.121094 126.613281 316.679688 156.464844 304.667969 175.105469 C 291.597656 195.417969 267.757812 214.675781 240.011719 207.183594 C 256.113281 220.25 275.621094 219.261719 287.140625 211.269531 C 291.910156 220.871094 293.519531 227.375 295.378906 237.964844 C 297.234375 248.304688 297.667969 258.832031 296.554688 269.363281 C 282.929688 270.230469 245.769531 248.863281 243.292969 244.28125 C 254.9375 266.265625 276.796875 281.003906 301.507812 283.667969 L 307.761719 284.347656 L 308.753906 278.09375 C 311.046875 263.910156 310.921875 249.542969 308.445312 235.671875 C 306.339844 223.96875 302.5625 212.511719 297.234375 201.734375 C 304.355469 197.089844 310.550781 190.585938 315.8125 182.351562 C 331.359375 158.195312 338.480469 118.191406 337.242188 62.453125 L 336.683594 38.859375 C 321.449219 92.800781 248.742188 111.378906 241.621094 165.007812 Z M 44.992188 16.191406 C 82.214844 53.535156 207.933594 141.042969 173.871094 203.777344 C 166.5 219.753906 162.96875 234.246094 163.21875 247.253906 C 161.113281 298.65625 207.375 278.28125 166.5 336.988281 L 166.5625 335.8125 C 190.53125 306.953125 150.523438 282.304688 149.902344 247.5 C 149.65625 232.390625 153.617188 215.914062 161.855469 198.082031 L 162.042969 197.648438 C 187.929688 150.578125 73.046875 55.949219 44.992188 16.191406 Z M 44.992188 16.191406 "/></g><g clip-rule="nonzero" clip-path="url(#c9690bd305)"><g clip-rule="nonzero" clip-path="url(#dcff56a205)"><path style=" stroke:none;fill-rule:nonzero;fill:#ffbed3;fill-opacity:1;" d="M 37.5 16.191406 L 344.238281 16.191406 L 344.238281 371.671875 L 37.5 371.671875 Z M 37.5 16.191406 "/></g></g><g clip-rule="nonzero" clip-path="url(#dbf6f23a1a)"><path style=" stroke:none;fill-rule:nonzero;fill:#ffe8e8;fill-opacity:1;" d="M 262.863281 27.988281 C 262.167969 28.066406 261.484375 28.199219 260.8125 28.390625 C 260.140625 28.582031 259.492188 28.828125 258.863281 29.128906 C 258.230469 29.433594 257.632812 29.785156 257.0625 30.1875 C 256.492188 30.59375 255.960938 31.042969 255.46875 31.535156 C 254.972656 32.027344 254.523438 32.5625 254.121094 33.132812 C 253.71875 33.699219 253.363281 34.300781 253.0625 34.929688 C 252.761719 35.558594 252.511719 36.210938 252.320312 36.882812 C 252.128906 37.554688 251.996094 38.238281 251.921875 38.929688 C 251.480469 43.351562 251.277344 47.78125 251.316406 52.222656 C 251.351562 47.78125 251.148438 43.351562 250.707031 38.929688 C 250.632812 38.238281 250.5 37.554688 250.308594 36.882812 C 250.117188 36.210938 249.871094 35.558594 249.566406 34.929688 C 249.265625 34.300781 248.914062 33.699219 248.507812 33.132812 C 248.105469 32.5625 247.65625 32.027344 247.164062 31.535156 C 246.667969 31.042969 246.136719 30.59375 245.566406 30.1875 C 244.996094 29.785156 244.398438 29.433594 243.765625 29.128906 C 243.136719 28.828125 242.488281 28.582031 241.816406 28.390625 C 241.144531 28.199219 240.460938 28.066406 239.765625 27.988281 C 235.347656 27.550781 230.914062 27.347656 226.472656 27.382812 C 230.914062 27.417969 235.347656 27.21875 239.765625 26.777344 C 240.460938 26.703125 241.144531 26.566406 241.816406 26.375 C 242.488281 26.183594 243.136719 25.9375 243.765625 25.636719 C 244.398438 25.335938 244.996094 24.980469 245.566406 24.578125 C 246.136719 24.175781 246.667969 23.726562 247.164062 23.230469 C 247.65625 22.738281 248.105469 22.207031 248.507812 21.636719 C 248.914062 21.066406 249.265625 20.464844 249.566406 19.835938 C 249.871094 19.207031 250.117188 18.554688 250.308594 17.882812 C 250.5 17.210938 250.632812 16.53125 250.710938 15.835938 C 251.148438 11.414062 251.351562 6.984375 251.316406 2.542969 C 251.277344 6.984375 251.480469 11.414062 251.921875 15.835938 C 251.996094 16.53125 252.128906 17.210938 252.320312 17.882812 C 252.515625 18.554688 252.761719 19.207031 253.0625 19.835938 C 253.363281 20.464844 253.71875 21.066406 254.121094 21.636719 C 254.523438 22.207031 254.972656 22.738281 255.46875 23.230469 C 255.960938 23.726562 256.492188 24.171875 257.0625 24.578125 C 257.632812 24.980469 258.234375 25.332031 258.863281 25.636719 C 259.492188 25.9375 260.144531 26.183594 260.8125 26.375 C 261.484375 26.566406 262.167969 26.703125 262.863281 26.777344 C 267.28125 27.21875 271.714844 27.417969 276.15625 27.382812 C 271.714844 27.347656 267.28125 27.550781 262.863281 27.988281 Z M 262.863281 27.988281 "/></g><g clip-rule="nonzero" clip-path="url(#b8870520a2)"><path style=" stroke:none;fill-rule:nonzero;fill:#ffe8e8;fill-opacity:1;" d="M 244.589844 55.722656 C 243.878906 55.800781 243.207031 55.992188 242.5625 56.300781 C 241.921875 56.609375 241.347656 57.011719 240.84375 57.515625 C 240.34375 58.019531 239.9375 58.59375 239.628906 59.234375 C 239.320312 59.875 239.128906 60.550781 239.050781 61.257812 C 238.828125 63.496094 238.726562 65.738281 238.746094 67.984375 C 238.761719 65.738281 238.660156 63.496094 238.4375 61.257812 C 238.359375 60.550781 238.167969 59.875 237.859375 59.234375 C 237.550781 58.59375 237.148438 58.019531 236.644531 57.515625 C 236.140625 57.011719 235.566406 56.609375 234.925781 56.300781 C 234.285156 55.992188 233.609375 55.800781 232.902344 55.722656 C 230.664062 55.5 228.421875 55.398438 226.175781 55.414062 C 228.421875 55.433594 230.664062 55.332031 232.902344 55.109375 C 233.609375 55.03125 234.285156 54.839844 234.925781 54.53125 C 235.566406 54.222656 236.140625 53.816406 236.644531 53.3125 C 237.148438 52.8125 237.550781 52.238281 237.859375 51.597656 C 238.167969 50.953125 238.359375 50.277344 238.4375 49.570312 C 238.660156 47.335938 238.761719 45.09375 238.746094 42.84375 C 238.726562 45.09375 238.828125 47.335938 239.050781 49.570312 C 239.128906 50.277344 239.320312 50.953125 239.628906 51.597656 C 239.9375 52.238281 240.34375 52.8125 240.84375 53.3125 C 241.347656 53.816406 241.921875 54.222656 242.5625 54.53125 C 243.207031 54.839844 243.878906 55.03125 244.589844 55.109375 C 246.824219 55.332031 249.066406 55.433594 251.316406 55.417969 C 249.066406 55.398438 246.824219 55.5 244.589844 55.722656 Z M 244.589844 55.722656 "/></g><path style=" stroke:none;fill-rule:nonzero;fill:#ffe8e8;fill-opacity:1;" d="M 269.394531 46.273438 C 268.960938 46.320312 268.550781 46.4375 268.160156 46.625 C 267.765625 46.8125 267.417969 47.0625 267.109375 47.367188 C 266.800781 47.675781 266.554688 48.027344 266.367188 48.417969 C 266.179688 48.808594 266.0625 49.222656 266.011719 49.652344 C 265.878906 51.019531 265.816406 52.386719 265.828125 53.761719 C 265.835938 52.386719 265.773438 51.019531 265.640625 49.652344 C 265.59375 49.222656 265.472656 48.808594 265.285156 48.417969 C 265.097656 48.027344 264.851562 47.675781 264.542969 47.367188 C 264.234375 47.0625 263.886719 46.8125 263.496094 46.625 C 263.101562 46.4375 262.691406 46.320312 262.257812 46.273438 C 260.894531 46.136719 259.523438 46.074219 258.152344 46.085938 C 259.523438 46.097656 260.894531 46.035156 262.257812 45.898438 C 262.691406 45.851562 263.101562 45.734375 263.496094 45.546875 C 263.886719 45.359375 264.234375 45.109375 264.542969 44.804688 C 264.851562 44.496094 265.097656 44.144531 265.285156 43.753906 C 265.472656 43.363281 265.59375 42.949219 265.640625 42.519531 C 265.773438 41.152344 265.835938 39.78125 265.828125 38.410156 C 265.816406 39.78125 265.878906 41.152344 266.011719 42.519531 C 266.0625 42.949219 266.179688 43.363281 266.367188 43.753906 C 266.554688 44.144531 266.800781 44.496094 267.109375 44.800781 C 267.417969 45.109375 267.765625 45.355469 268.160156 45.542969 C 268.550781 45.734375 268.960938 45.851562 269.394531 45.898438 C 270.761719 46.035156 272.128906 46.097656 273.503906 46.085938 C 272.128906 46.074219 270.761719 46.136719 269.394531 46.273438 Z M 269.394531 46.273438 "/></g></svg>