<svg xmlns="http://www.w3.org/2000/svg" xmlns:xlink="http://www.w3.org/1999/xlink" width="500" zoomAndPan="magnify" viewBox="0 0 375 374.999991" height="500" preserveAspectRatio="xMidYMid meet" version="1.2"><defs/><g id="d6473d75df"><g style="fill:#c24b79;fill-opacity:1;"><g transform="translate(1.228279, 243.606444)"><path style="stroke:none" d="M 32.28125 -37.796875 C 31.945312 -37.796875 31.671875 -37.6875 31.453125 -37.46875 C 31.234375 -37.25 31.125 -36.972656 31.125 -36.640625 L 31.125 -1.359375 C 31.125 -1.035156 31.234375 -0.765625 31.453125 -0.546875 C 31.671875 -0.328125 31.945312 -0.21875 32.28125 -0.21875 C 32.425781 -0.21875 32.5 -0.144531 32.5 0 C 32.5 0.144531 32.425781 0.21875 32.28125 0.21875 L 23.09375 0.21875 C 22.988281 0.21875 22.9375 0.144531 22.9375 0 C 22.9375 -0.144531 22.988281 -0.21875 23.09375 -0.21875 C 23.425781 -0.21875 23.703125 -0.328125 23.921875 -0.546875 C 24.140625 -0.765625 24.25 -1.035156 24.25 -1.359375 L 24.25 -18.78125 L 11.796875 -18.78125 L 11.796875 -1.359375 C 11.796875 -1.035156 11.90625 -0.765625 12.125 -0.546875 C 12.34375 -0.328125 12.597656 -0.21875 12.890625 -0.21875 C 13.035156 -0.21875 13.109375 -0.144531 13.109375 0 C 13.109375 0.144531 13.035156 0.21875 12.890625 0.21875 L 3.765625 0.21875 C 3.617188 0.21875 3.546875 0.144531 3.546875 0 C 3.546875 -0.144531 3.617188 -0.21875 3.765625 -0.21875 C 4.097656 -0.21875 4.375 -0.328125 4.59375 -0.546875 C 4.8125 -0.765625 4.921875 -1.035156 4.921875 -1.359375 L 4.921875 -36.640625 C 4.921875 -36.972656 4.8125 -37.25 4.59375 -37.46875 C 4.375 -37.6875 4.097656 -37.796875 3.765625 -37.796875 C 3.617188 -37.796875 3.546875 -37.867188 3.546875 -38.015625 C 3.546875 -38.148438 3.617188 -38.21875 3.765625 -38.21875 L 12.890625 -38.21875 C 13.035156 -38.21875 13.109375 -38.148438 13.109375 -38.015625 C 13.109375 -37.867188 13.035156 -37.796875 12.890625 -37.796875 C 12.597656 -37.796875 12.34375 -37.6875 12.125 -37.46875 C 11.90625 -37.25 11.796875 -36.972656 11.796875 -36.640625 L 11.796875 -19.21875 L 24.25 -19.21875 L 24.25 -36.640625 C 24.25 -36.972656 24.140625 -37.25 23.921875 -37.46875 C 23.703125 -37.6875 23.425781 -37.796875 23.09375 -37.796875 C 22.988281 -37.796875 22.9375 -37.867188 22.9375 -38.015625 C 22.9375 -38.148438 22.988281 -38.21875 23.09375 -38.21875 L 32.28125 -38.21875 C 32.425781 -38.21875 32.5 -38.148438 32.5 -38.015625 C 32.5 -37.867188 32.425781 -37.796875 32.28125 -37.796875 Z M 32.28125 -37.796875 "/></g></g><g style="fill:#c24b79;fill-opacity:1;"><g transform="translate(35.581438, 243.606444)"><path style="stroke:none" d="M 24.953125 -3.984375 C 25.066406 -4.054688 25.160156 -4.054688 25.234375 -3.984375 C 25.335938 -3.878906 25.335938 -3.769531 25.234375 -3.65625 C 22.648438 -1.070312 19.535156 0.21875 15.890625 0.21875 C 12.210938 0.21875 9.082031 -1.070312 6.5 -3.65625 C 4.789062 -5.40625 3.644531 -7.40625 3.0625 -9.65625 C 2.476562 -11.914062 2.476562 -14.175781 3.0625 -16.4375 C 3.644531 -18.695312 4.789062 -20.695312 6.5 -22.4375 C 8.207031 -24.15625 10.195312 -25.296875 12.46875 -25.859375 C 14.75 -26.421875 17.015625 -26.421875 19.265625 -25.859375 C 21.523438 -25.296875 23.515625 -24.15625 25.234375 -22.4375 C 25.335938 -22.332031 25.335938 -22.222656 25.234375 -22.109375 L 13.59375 -10.484375 C 13.5625 -10.453125 13.507812 -10.4375 13.4375 -10.4375 C 13.394531 -10.4375 13.359375 -10.453125 13.328125 -10.484375 C 13.210938 -10.597656 13.210938 -10.691406 13.328125 -10.765625 L 20.265625 -17.6875 C 17.742188 -20.164062 15.175781 -21.820312 12.5625 -22.65625 C 9.9375 -23.53125 8.003906 -23.347656 6.765625 -22.109375 C 5.960938 -21.273438 5.625 -20.109375 5.75 -18.609375 C 5.882812 -17.117188 6.429688 -15.484375 7.390625 -13.703125 C 8.359375 -11.921875 9.679688 -10.191406 11.359375 -8.515625 C 13.867188 -6.003906 16.472656 -4.3125 19.171875 -3.4375 C 21.785156 -2.5625 23.710938 -2.742188 24.953125 -3.984375 Z M 24.953125 -3.984375 "/></g></g><g style="fill:#c24b79;fill-opacity:1;"><g transform="translate(62.06997, 243.606444)"><path style="stroke:none" d="M 21.625 -25.671875 C 21.625 -25.597656 21.644531 -25.578125 21.6875 -25.609375 C 21.6875 -25.648438 21.664062 -25.648438 21.625 -25.609375 C 21.59375 -25.535156 21.59375 -25.519531 21.625 -25.5625 L 20.265625 -23.421875 C 20.191406 -23.347656 20.117188 -23.3125 20.046875 -23.3125 C 19.972656 -23.3125 19.914062 -23.347656 19.875 -23.421875 C 19.476562 -24.296875 18.785156 -24.878906 17.796875 -25.171875 C 16.816406 -25.503906 15.816406 -25.453125 14.796875 -25.015625 C 14.722656 -24.972656 14.640625 -24.929688 14.546875 -24.890625 C 14.460938 -24.859375 14.382812 -24.804688 14.3125 -24.734375 C 14.269531 -24.734375 14.25 -24.734375 14.25 -24.734375 C 13.050781 -24.078125 12.03125 -23.164062 11.1875 -22 L 11.1875 -1.359375 C 11.1875 -1.035156 11.296875 -0.765625 11.515625 -0.546875 C 11.734375 -0.328125 11.988281 -0.21875 12.28125 -0.21875 C 12.425781 -0.21875 12.5 -0.144531 12.5 0 C 12.5 0.144531 12.425781 0.21875 12.28125 0.21875 L 3.171875 0.21875 C 3.023438 0.21875 2.953125 0.144531 2.953125 0 C 2.953125 -0.144531 3.023438 -0.21875 3.171875 -0.21875 C 3.492188 -0.21875 3.765625 -0.328125 3.984375 -0.546875 C 4.203125 -0.765625 4.3125 -1.019531 4.3125 -1.3125 L 4.3125 -20.921875 C 4.3125 -21.140625 4.238281 -21.285156 4.09375 -21.359375 C 3.914062 -21.429688 3.644531 -21.335938 3.28125 -21.078125 C 3.164062 -21.003906 3.070312 -21.023438 3 -21.140625 C 2.894531 -21.242188 2.914062 -21.351562 3.0625 -21.46875 L 4.375 -22.390625 C 4.375 -22.421875 4.375 -22.4375 4.375 -22.4375 L 10.8125 -27.09375 C 10.882812 -27.164062 10.957031 -27.179688 11.03125 -27.140625 C 11.132812 -27.109375 11.1875 -27.035156 11.1875 -26.921875 L 11.1875 -22.71875 C 11.957031 -23.664062 12.867188 -24.445312 13.921875 -25.0625 C 13.992188 -25.101562 14.015625 -25.101562 13.984375 -25.0625 C 13.984375 -25.0625 13.988281 -25.070312 14 -25.09375 C 14.019531 -25.113281 14.03125 -25.125 14.03125 -25.125 C 14.070312 -25.125 14.09375 -25.125 14.09375 -25.125 C 14.269531 -25.226562 14.453125 -25.316406 14.640625 -25.390625 C 15.941406 -26.015625 17.304688 -26.328125 18.734375 -26.328125 C 19.679688 -26.328125 20.609375 -26.179688 21.515625 -25.890625 C 21.484375 -25.890625 21.484375 -25.890625 21.515625 -25.890625 C 21.585938 -25.847656 21.609375 -25.847656 21.578125 -25.890625 C 21.578125 -25.890625 21.578125 -25.867188 21.578125 -25.828125 C 21.609375 -25.796875 21.625 -25.78125 21.625 -25.78125 C 21.625 -25.738281 21.625 -25.703125 21.625 -25.671875 Z M 21.625 -25.671875 "/></g></g><g style="fill:#c24b79;fill-opacity:1;"><g transform="translate(84.844655, 243.606444)"><path style="stroke:none" d="M 32.28125 -0.21875 C 32.425781 -0.21875 32.5 -0.144531 32.5 0 C 32.5 0.144531 32.425781 0.21875 32.28125 0.21875 L 25.0625 0.21875 C 24.664062 0.21875 24.253906 0.0703125 23.828125 -0.21875 C 23.410156 -0.507812 23.09375 -0.851562 22.875 -1.25 L 15.5625 -16.171875 L 11.796875 -16.171875 L 11.796875 -1.359375 C 11.796875 -1.035156 11.90625 -0.765625 12.125 -0.546875 C 12.34375 -0.328125 12.597656 -0.21875 12.890625 -0.21875 C 13.035156 -0.21875 13.109375 -0.144531 13.109375 0 C 13.109375 0.144531 13.035156 0.21875 12.890625 0.21875 L 3.765625 0.21875 C 3.617188 0.21875 3.546875 0.144531 3.546875 0 C 3.546875 -0.144531 3.617188 -0.21875 3.765625 -0.21875 C 4.097656 -0.21875 4.375 -0.328125 4.59375 -0.546875 C 4.8125 -0.765625 4.921875 -1.035156 4.921875 -1.359375 L 4.921875 -36.640625 C 4.921875 -36.972656 4.8125 -37.25 4.59375 -37.46875 C 4.375 -37.6875 4.097656 -37.796875 3.765625 -37.796875 C 3.617188 -37.796875 3.546875 -37.867188 3.546875 -38.015625 C 3.546875 -38.148438 3.617188 -38.21875 3.765625 -38.21875 L 20.09375 -38.21875 C 20.132812 -38.21875 20.171875 -38.21875 20.203125 -38.21875 C 20.242188 -38.21875 20.300781 -38.21875 20.375 -38.21875 C 20.40625 -38.21875 20.421875 -38.21875 20.421875 -38.21875 C 22.421875 -38.21875 24.257812 -37.71875 25.9375 -36.71875 C 27.613281 -35.71875 28.941406 -34.390625 29.921875 -32.734375 C 30.910156 -31.078125 31.40625 -29.234375 31.40625 -27.203125 C 31.40625 -25.484375 31.039062 -23.882812 30.3125 -22.40625 C 29.582031 -20.9375 28.585938 -19.679688 27.328125 -18.640625 C 26.078125 -17.609375 24.648438 -16.910156 23.046875 -16.546875 L 30.46875 -1.421875 C 30.613281 -1.085938 30.867188 -0.800781 31.234375 -0.5625 C 31.597656 -0.332031 31.945312 -0.21875 32.28125 -0.21875 Z M 11.796875 -37.796875 L 11.796875 -16.59375 L 20.09375 -16.59375 C 20.863281 -16.59375 21.554688 -17.078125 22.171875 -18.046875 C 22.785156 -19.015625 23.285156 -20.304688 23.671875 -21.921875 C 24.054688 -23.546875 24.25 -25.304688 24.25 -27.203125 C 24.25 -29.128906 24.054688 -30.890625 23.671875 -32.484375 C 23.285156 -34.085938 22.785156 -35.375 22.171875 -36.34375 C 21.554688 -37.3125 20.863281 -37.796875 20.09375 -37.796875 Z M 11.796875 -37.796875 "/></g></g><g style="fill:#c24b79;fill-opacity:1;"><g transform="translate(116.576237, 243.606444)"><path style="stroke:none" d="M 24.953125 -3.984375 C 25.066406 -4.054688 25.160156 -4.054688 25.234375 -3.984375 C 25.335938 -3.878906 25.335938 -3.769531 25.234375 -3.65625 C 22.648438 -1.070312 19.535156 0.21875 15.890625 0.21875 C 12.210938 0.21875 9.082031 -1.070312 6.5 -3.65625 C 4.789062 -5.40625 3.644531 -7.40625 3.0625 -9.65625 C 2.476562 -11.914062 2.476562 -14.175781 3.0625 -16.4375 C 3.644531 -18.695312 4.789062 -20.695312 6.5 -22.4375 C 8.207031 -24.15625 10.195312 -25.296875 12.46875 -25.859375 C 14.75 -26.421875 17.015625 -26.421875 19.265625 -25.859375 C 21.523438 -25.296875 23.515625 -24.15625 25.234375 -22.4375 C 25.335938 -22.332031 25.335938 -22.222656 25.234375 -22.109375 L 13.59375 -10.484375 C 13.5625 -10.453125 13.507812 -10.4375 13.4375 -10.4375 C 13.394531 -10.4375 13.359375 -10.453125 13.328125 -10.484375 C 13.210938 -10.597656 13.210938 -10.691406 13.328125 -10.765625 L 20.265625 -17.6875 C 17.742188 -20.164062 15.175781 -21.820312 12.5625 -22.65625 C 9.9375 -23.53125 8.003906 -23.347656 6.765625 -22.109375 C 5.960938 -21.273438 5.625 -20.109375 5.75 -18.609375 C 5.882812 -17.117188 6.429688 -15.484375 7.390625 -13.703125 C 8.359375 -11.921875 9.679688 -10.191406 11.359375 -8.515625 C 13.867188 -6.003906 16.472656 -4.3125 19.171875 -3.4375 C 21.785156 -2.5625 23.710938 -2.742188 24.953125 -3.984375 Z M 24.953125 -3.984375 "/></g></g><g style="fill:#c24b79;fill-opacity:1;"><g transform="translate(143.064769, 243.606444)"><path style="stroke:none" d="M 29.15625 -4.59375 C 29.300781 -4.59375 29.375 -4.519531 29.375 -4.375 C 29.375 -3.132812 28.921875 -2.054688 28.015625 -1.140625 C 27.109375 -0.234375 26.035156 0.21875 24.796875 0.21875 C 23.515625 0.21875 22.421875 -0.234375 21.515625 -1.140625 C 20.609375 -2.054688 20.15625 -3.132812 20.15625 -4.375 L 20.15625 -16.546875 C 20.15625 -19.347656 19.851562 -21.601562 19.25 -23.3125 C 18.644531 -25.03125 18 -25.890625 17.3125 -25.890625 C 16.113281 -25.890625 14.992188 -25.675781 13.953125 -25.25 C 12.910156 -24.832031 11.988281 -24.257812 11.1875 -23.53125 L 11.1875 -1.359375 C 11.1875 -1.035156 11.296875 -0.765625 11.515625 -0.546875 C 11.734375 -0.328125 11.988281 -0.21875 12.28125 -0.21875 C 12.425781 -0.21875 12.5 -0.144531 12.5 0 C 12.5 0.144531 12.425781 0.21875 12.28125 0.21875 L 3.171875 0.21875 C 3.023438 0.21875 2.953125 0.144531 2.953125 0 C 2.953125 -0.144531 3.023438 -0.21875 3.171875 -0.21875 C 3.460938 -0.21875 3.722656 -0.328125 3.953125 -0.546875 C 4.191406 -0.765625 4.3125 -1.035156 4.3125 -1.359375 L 4.3125 -20.921875 C 4.3125 -21.140625 4.238281 -21.285156 4.09375 -21.359375 C 3.914062 -21.429688 3.644531 -21.335938 3.28125 -21.078125 C 3.164062 -21.003906 3.070312 -21.023438 3 -21.140625 C 2.894531 -21.242188 2.914062 -21.351562 3.0625 -21.46875 L 4.375 -22.390625 C 4.375 -22.421875 4.375 -22.4375 4.375 -22.4375 L 10.8125 -27.09375 C 10.882812 -27.164062 10.957031 -27.179688 11.03125 -27.140625 C 11.132812 -27.109375 11.1875 -27.035156 11.1875 -26.921875 L 11.1875 -24.140625 C 12.03125 -24.796875 12.96875 -25.3125 14 -25.6875 C 15.039062 -26.070312 16.144531 -26.265625 17.3125 -26.265625 C 19.09375 -26.265625 20.71875 -25.828125 22.1875 -24.953125 C 23.664062 -24.078125 24.84375 -22.898438 25.71875 -21.421875 C 26.59375 -19.953125 27.03125 -18.328125 27.03125 -16.546875 L 27.03125 -12.890625 L 27.09375 -4.421875 C 27.09375 -4.128906 27.179688 -3.890625 27.359375 -3.703125 C 27.535156 -3.523438 27.753906 -3.4375 28.015625 -3.4375 C 28.265625 -3.4375 28.476562 -3.523438 28.65625 -3.703125 C 28.84375 -3.890625 28.9375 -4.113281 28.9375 -4.375 C 28.9375 -4.519531 29.007812 -4.59375 29.15625 -4.59375 Z M 29.15625 -4.59375 "/></g></g><g style="fill:#c24b79;fill-opacity:1;"><g transform="translate(173.867923, 243.606444)"><path style="stroke:none" d="M 26 -4.59375 C 26.144531 -4.59375 26.21875 -4.519531 26.21875 -4.375 C 26.21875 -3.132812 25.757812 -2.054688 24.84375 -1.140625 C 23.9375 -0.234375 22.847656 0.21875 21.578125 0.21875 C 20.367188 0.21875 19.328125 -0.179688 18.453125 -0.984375 C 17.578125 -1.785156 17.085938 -2.769531 16.984375 -3.9375 C 16.398438 -2.726562 15.503906 -1.734375 14.296875 -0.953125 C 13.097656 -0.171875 11.773438 0.21875 10.328125 0.21875 C 8.941406 0.21875 7.679688 -0.113281 6.546875 -0.78125 C 5.421875 -1.457031 4.519531 -2.359375 3.84375 -3.484375 C 3.175781 -4.617188 2.84375 -5.878906 2.84375 -7.265625 C 2.84375 -8.648438 3.175781 -9.90625 3.84375 -11.03125 C 4.519531 -12.15625 5.421875 -13.054688 6.546875 -13.734375 C 7.679688 -14.410156 8.941406 -14.75 10.328125 -14.75 L 13.546875 -14.75 C 13.691406 -14.75 13.765625 -14.675781 13.765625 -14.53125 C 13.765625 -14.382812 13.691406 -14.3125 13.546875 -14.3125 L 10.375 -14.3125 C 10.226562 -14.125 10.082031 -13.421875 9.9375 -12.203125 C 9.789062 -10.984375 9.71875 -9.335938 9.71875 -7.265625 C 9.71875 -5.191406 9.789062 -3.535156 9.9375 -2.296875 C 10.082031 -1.054688 10.226562 -0.363281 10.375 -0.21875 C 11.90625 -0.21875 13.269531 -0.671875 14.46875 -1.578125 C 15.675781 -2.492188 16.515625 -3.644531 16.984375 -5.03125 L 16.984375 -14.96875 C 16.984375 -16.96875 16.78125 -18.796875 16.375 -20.453125 C 15.976562 -22.109375 15.441406 -23.425781 14.765625 -24.40625 C 14.097656 -25.394531 13.34375 -25.890625 12.5 -25.890625 C 11.375 -25.890625 10.265625 -25.613281 9.171875 -25.0625 C 8.078125 -24.519531 7.128906 -23.875 6.328125 -23.125 C 5.535156 -22.375 5.03125 -21.675781 4.8125 -21.03125 C 4.769531 -20.957031 4.710938 -20.921875 4.640625 -20.921875 C 4.640625 -20.921875 4.625 -20.921875 4.59375 -20.921875 C 4.550781 -20.921875 4.515625 -20.9375 4.484375 -20.96875 L 3.109375 -22.109375 C 3.148438 -22.109375 3.148438 -22.109375 3.109375 -22.109375 C 3.109375 -22.109375 3.109375 -22.128906 3.109375 -22.171875 C 3.078125 -22.242188 3.0625 -22.28125 3.0625 -22.28125 C 3.0625 -22.28125 3.078125 -22.296875 3.109375 -22.328125 C 3.109375 -22.367188 3.109375 -22.390625 3.109375 -22.390625 C 3.109375 -22.390625 3.109375 -22.40625 3.109375 -22.4375 C 5.691406 -25.03125 8.820312 -26.328125 12.5 -26.328125 C 14.582031 -26.328125 16.488281 -25.804688 18.21875 -24.765625 C 19.945312 -23.722656 21.316406 -22.347656 22.328125 -20.640625 C 23.347656 -18.929688 23.859375 -17.039062 23.859375 -14.96875 L 23.859375 -4.375 C 23.859375 -4.113281 23.957031 -3.890625 24.15625 -3.703125 C 24.363281 -3.523438 24.59375 -3.4375 24.84375 -3.4375 C 25.101562 -3.4375 25.320312 -3.523438 25.5 -3.703125 C 25.6875 -3.890625 25.78125 -4.113281 25.78125 -4.375 C 25.78125 -4.519531 25.851562 -4.59375 26 -4.59375 Z M 26 -4.59375 "/></g></g><g style="fill:#c24b79;fill-opacity:1;"><g transform="translate(201.175697, 243.606444)"><path style="stroke:none" d="M 7.75 -31.34375 C 6.800781 -31.34375 5.988281 -31.675781 5.3125 -32.34375 C 4.644531 -33.019531 4.3125 -33.832031 4.3125 -34.78125 C 4.3125 -35.726562 4.644531 -36.535156 5.3125 -37.203125 C 5.988281 -37.878906 6.800781 -38.21875 7.75 -38.21875 C 8.695312 -38.21875 9.503906 -37.878906 10.171875 -37.203125 C 10.847656 -36.535156 11.1875 -35.726562 11.1875 -34.78125 C 11.1875 -33.832031 10.847656 -33.019531 10.171875 -32.34375 C 9.503906 -31.675781 8.695312 -31.34375 7.75 -31.34375 Z M 12.28125 -0.21875 C 12.425781 -0.21875 12.5 -0.144531 12.5 0 C 12.5 0.144531 12.425781 0.21875 12.28125 0.21875 L 3.171875 0.21875 C 3.023438 0.21875 2.953125 0.144531 2.953125 0 C 2.953125 -0.144531 3.023438 -0.21875 3.171875 -0.21875 C 3.460938 -0.21875 3.722656 -0.328125 3.953125 -0.546875 C 4.191406 -0.765625 4.3125 -1.035156 4.3125 -1.359375 L 4.3125 -20.921875 C 4.3125 -21.140625 4.238281 -21.285156 4.09375 -21.359375 C 3.914062 -21.429688 3.644531 -21.335938 3.28125 -21.078125 C 3.164062 -21.003906 3.070312 -21.023438 3 -21.140625 C 2.894531 -21.242188 2.914062 -21.351562 3.0625 -21.46875 L 4.375 -22.390625 C 4.375 -22.421875 4.375 -22.4375 4.375 -22.4375 L 10.8125 -27.09375 C 10.882812 -27.164062 10.957031 -27.179688 11.03125 -27.140625 C 11.132812 -27.109375 11.1875 -27.035156 11.1875 -26.921875 L 11.1875 -1.359375 C 11.1875 -1.035156 11.296875 -0.765625 11.515625 -0.546875 C 11.734375 -0.328125 11.988281 -0.21875 12.28125 -0.21875 Z M 12.28125 -0.21875 "/></g></g><g style="fill:#c24b79;fill-opacity:1;"><g transform="translate(215.53956, 243.606444)"><path style="stroke:none" d="M 16.21875 -15.1875 C 17.75 -14.5625 18.96875 -13.578125 19.875 -12.234375 C 20.789062 -10.890625 21.25 -9.394531 21.25 -7.75 C 21.25 -6.289062 20.882812 -4.960938 20.15625 -3.765625 C 19.425781 -2.566406 18.457031 -1.601562 17.25 -0.875 C 16.050781 -0.144531 14.722656 0.21875 13.265625 0.21875 L 10.21875 0.21875 C 7.519531 0.21875 5.078125 -0.5625 2.890625 -2.125 C 2.816406 -2.164062 2.78125 -2.222656 2.78125 -2.296875 C 2.78125 -2.367188 2.816406 -2.421875 2.890625 -2.453125 L 5.734375 -4.046875 C 5.804688 -4.078125 5.859375 -4.078125 5.890625 -4.046875 C 5.960938 -4.046875 6.019531 -4.007812 6.0625 -3.9375 C 7.1875 -1.457031 8.570312 -0.21875 10.21875 -0.21875 L 13.265625 -0.21875 C 14.429688 -0.21875 15.429688 -0.625 16.265625 -1.4375 C 17.109375 -2.257812 17.53125 -3.273438 17.53125 -4.484375 C 17.53125 -5.390625 17.25 -6.210938 16.6875 -6.953125 C 16.125 -7.703125 15.40625 -8.222656 14.53125 -8.515625 L 9.453125 -10.328125 C 8.503906 -10.648438 7.566406 -11.066406 6.640625 -11.578125 C 5.710938 -12.085938 4.921875 -12.78125 4.265625 -13.65625 C 3.273438 -15.039062 2.78125 -16.585938 2.78125 -18.296875 C 2.78125 -19.785156 3.132812 -21.128906 3.84375 -22.328125 C 4.5625 -23.535156 5.53125 -24.492188 6.75 -25.203125 C 7.96875 -25.910156 9.304688 -26.265625 10.765625 -26.265625 L 13.8125 -26.265625 C 16.507812 -26.265625 18.953125 -25.5 21.140625 -23.96875 C 21.210938 -23.9375 21.25 -23.863281 21.25 -23.75 C 21.25 -23.675781 21.210938 -23.625 21.140625 -23.59375 L 18.296875 -22.0625 C 18.253906 -22.019531 18.21875 -22 18.1875 -22 C 18.144531 -22 18.125 -22 18.125 -22 C 18.050781 -22.039062 18 -22.078125 17.96875 -22.109375 C 16.84375 -24.628906 15.457031 -25.890625 13.8125 -25.890625 L 10.765625 -25.890625 C 9.597656 -25.890625 8.59375 -25.46875 7.75 -24.625 C 6.914062 -23.789062 6.5 -22.789062 6.5 -21.625 C 6.5 -20.601562 6.828125 -19.710938 7.484375 -18.953125 C 7.921875 -18.367188 8.507812 -17.929688 9.25 -17.640625 C 10 -17.347656 10.738281 -17.070312 11.46875 -16.8125 C 11.644531 -16.78125 11.820312 -16.734375 12 -16.671875 C 12.1875 -16.617188 12.351562 -16.554688 12.5 -16.484375 Z M 16.21875 -15.1875 "/></g></g><g style="fill:#c24b79;fill-opacity:1;"><g transform="translate(239.570418, 243.606444)"><path style="stroke:none" d="M 16.21875 -15.1875 C 17.75 -14.5625 18.96875 -13.578125 19.875 -12.234375 C 20.789062 -10.890625 21.25 -9.394531 21.25 -7.75 C 21.25 -6.289062 20.882812 -4.960938 20.15625 -3.765625 C 19.425781 -2.566406 18.457031 -1.601562 17.25 -0.875 C 16.050781 -0.144531 14.722656 0.21875 13.265625 0.21875 L 10.21875 0.21875 C 7.519531 0.21875 5.078125 -0.5625 2.890625 -2.125 C 2.816406 -2.164062 2.78125 -2.222656 2.78125 -2.296875 C 2.78125 -2.367188 2.816406 -2.421875 2.890625 -2.453125 L 5.734375 -4.046875 C 5.804688 -4.078125 5.859375 -4.078125 5.890625 -4.046875 C 5.960938 -4.046875 6.019531 -4.007812 6.0625 -3.9375 C 7.1875 -1.457031 8.570312 -0.21875 10.21875 -0.21875 L 13.265625 -0.21875 C 14.429688 -0.21875 15.429688 -0.625 16.265625 -1.4375 C 17.109375 -2.257812 17.53125 -3.273438 17.53125 -4.484375 C 17.53125 -5.390625 17.25 -6.210938 16.6875 -6.953125 C 16.125 -7.703125 15.40625 -8.222656 14.53125 -8.515625 L 9.453125 -10.328125 C 8.503906 -10.648438 7.566406 -11.066406 6.640625 -11.578125 C 5.710938 -12.085938 4.921875 -12.78125 4.265625 -13.65625 C 3.273438 -15.039062 2.78125 -16.585938 2.78125 -18.296875 C 2.78125 -19.785156 3.132812 -21.128906 3.84375 -22.328125 C 4.5625 -23.535156 5.53125 -24.492188 6.75 -25.203125 C 7.96875 -25.910156 9.304688 -26.265625 10.765625 -26.265625 L 13.8125 -26.265625 C 16.507812 -26.265625 18.953125 -25.5 21.140625 -23.96875 C 21.210938 -23.9375 21.25 -23.863281 21.25 -23.75 C 21.25 -23.675781 21.210938 -23.625 21.140625 -23.59375 L 18.296875 -22.0625 C 18.253906 -22.019531 18.21875 -22 18.1875 -22 C 18.144531 -22 18.125 -22 18.125 -22 C 18.050781 -22.039062 18 -22.078125 17.96875 -22.109375 C 16.84375 -24.628906 15.457031 -25.890625 13.8125 -25.890625 L 10.765625 -25.890625 C 9.597656 -25.890625 8.59375 -25.46875 7.75 -24.625 C 6.914062 -23.789062 6.5 -22.789062 6.5 -21.625 C 6.5 -20.601562 6.828125 -19.710938 7.484375 -18.953125 C 7.921875 -18.367188 8.507812 -17.929688 9.25 -17.640625 C 10 -17.347656 10.738281 -17.070312 11.46875 -16.8125 C 11.644531 -16.78125 11.820312 -16.734375 12 -16.671875 C 12.1875 -16.617188 12.351562 -16.554688 12.5 -16.484375 Z M 16.21875 -15.1875 "/></g></g><g style="fill:#c24b79;fill-opacity:1;"><g transform="translate(263.218968, 243.606444)"><path style="stroke:none" d="M 26 -4.59375 C 26.144531 -4.59375 26.21875 -4.519531 26.21875 -4.375 C 26.21875 -3.132812 25.757812 -2.054688 24.84375 -1.140625 C 23.9375 -0.234375 22.847656 0.21875 21.578125 0.21875 C 20.367188 0.21875 19.328125 -0.179688 18.453125 -0.984375 C 17.578125 -1.785156 17.085938 -2.769531 16.984375 -3.9375 C 16.398438 -2.726562 15.503906 -1.734375 14.296875 -0.953125 C 13.097656 -0.171875 11.773438 0.21875 10.328125 0.21875 C 8.941406 0.21875 7.679688 -0.113281 6.546875 -0.78125 C 5.421875 -1.457031 4.519531 -2.359375 3.84375 -3.484375 C 3.175781 -4.617188 2.84375 -5.878906 2.84375 -7.265625 C 2.84375 -8.648438 3.175781 -9.90625 3.84375 -11.03125 C 4.519531 -12.15625 5.421875 -13.054688 6.546875 -13.734375 C 7.679688 -14.410156 8.941406 -14.75 10.328125 -14.75 L 13.546875 -14.75 C 13.691406 -14.75 13.765625 -14.675781 13.765625 -14.53125 C 13.765625 -14.382812 13.691406 -14.3125 13.546875 -14.3125 L 10.375 -14.3125 C 10.226562 -14.125 10.082031 -13.421875 9.9375 -12.203125 C 9.789062 -10.984375 9.71875 -9.335938 9.71875 -7.265625 C 9.71875 -5.191406 9.789062 -3.535156 9.9375 -2.296875 C 10.082031 -1.054688 10.226562 -0.363281 10.375 -0.21875 C 11.90625 -0.21875 13.269531 -0.671875 14.46875 -1.578125 C 15.675781 -2.492188 16.515625 -3.644531 16.984375 -5.03125 L 16.984375 -14.96875 C 16.984375 -16.96875 16.78125 -18.796875 16.375 -20.453125 C 15.976562 -22.109375 15.441406 -23.425781 14.765625 -24.40625 C 14.097656 -25.394531 13.34375 -25.890625 12.5 -25.890625 C 11.375 -25.890625 10.265625 -25.613281 9.171875 -25.0625 C 8.078125 -24.519531 7.128906 -23.875 6.328125 -23.125 C 5.535156 -22.375 5.03125 -21.675781 4.8125 -21.03125 C 4.769531 -20.957031 4.710938 -20.921875 4.640625 -20.921875 C 4.640625 -20.921875 4.625 -20.921875 4.59375 -20.921875 C 4.550781 -20.921875 4.515625 -20.9375 4.484375 -20.96875 L 3.109375 -22.109375 C 3.148438 -22.109375 3.148438 -22.109375 3.109375 -22.109375 C 3.109375 -22.109375 3.109375 -22.128906 3.109375 -22.171875 C 3.078125 -22.242188 3.0625 -22.28125 3.0625 -22.28125 C 3.0625 -22.28125 3.078125 -22.296875 3.109375 -22.328125 C 3.109375 -22.367188 3.109375 -22.390625 3.109375 -22.390625 C 3.109375 -22.390625 3.109375 -22.40625 3.109375 -22.4375 C 5.691406 -25.03125 8.820312 -26.328125 12.5 -26.328125 C 14.582031 -26.328125 16.488281 -25.804688 18.21875 -24.765625 C 19.945312 -23.722656 21.316406 -22.347656 22.328125 -20.640625 C 23.347656 -18.929688 23.859375 -17.039062 23.859375 -14.96875 L 23.859375 -4.375 C 23.859375 -4.113281 23.957031 -3.890625 24.15625 -3.703125 C 24.363281 -3.523438 24.59375 -3.4375 24.84375 -3.4375 C 25.101562 -3.4375 25.320312 -3.523438 25.5 -3.703125 C 25.6875 -3.890625 25.78125 -4.113281 25.78125 -4.375 C 25.78125 -4.519531 25.851562 -4.59375 26 -4.59375 Z M 26 -4.59375 "/></g></g><g style="fill:#c24b79;fill-opacity:1;"><g transform="translate(290.52671, 243.606444)"><path style="stroke:none" d="M 29.15625 -4.59375 C 29.300781 -4.59375 29.375 -4.519531 29.375 -4.375 C 29.375 -3.132812 28.921875 -2.054688 28.015625 -1.140625 C 27.109375 -0.234375 26.035156 0.21875 24.796875 0.21875 C 23.515625 0.21875 22.421875 -0.234375 21.515625 -1.140625 C 20.609375 -2.054688 20.15625 -3.132812 20.15625 -4.375 L 20.15625 -16.546875 C 20.15625 -19.347656 19.851562 -21.601562 19.25 -23.3125 C 18.644531 -25.03125 18 -25.890625 17.3125 -25.890625 C 16.113281 -25.890625 14.992188 -25.675781 13.953125 -25.25 C 12.910156 -24.832031 11.988281 -24.257812 11.1875 -23.53125 L 11.1875 -1.359375 C 11.1875 -1.035156 11.296875 -0.765625 11.515625 -0.546875 C 11.734375 -0.328125 11.988281 -0.21875 12.28125 -0.21875 C 12.425781 -0.21875 12.5 -0.144531 12.5 0 C 12.5 0.144531 12.425781 0.21875 12.28125 0.21875 L 3.171875 0.21875 C 3.023438 0.21875 2.953125 0.144531 2.953125 0 C 2.953125 -0.144531 3.023438 -0.21875 3.171875 -0.21875 C 3.460938 -0.21875 3.722656 -0.328125 3.953125 -0.546875 C 4.191406 -0.765625 4.3125 -1.035156 4.3125 -1.359375 L 4.3125 -20.921875 C 4.3125 -21.140625 4.238281 -21.285156 4.09375 -21.359375 C 3.914062 -21.429688 3.644531 -21.335938 3.28125 -21.078125 C 3.164062 -21.003906 3.070312 -21.023438 3 -21.140625 C 2.894531 -21.242188 2.914062 -21.351562 3.0625 -21.46875 L 4.375 -22.390625 C 4.375 -22.421875 4.375 -22.4375 4.375 -22.4375 L 10.8125 -27.09375 C 10.882812 -27.164062 10.957031 -27.179688 11.03125 -27.140625 C 11.132812 -27.109375 11.1875 -27.035156 11.1875 -26.921875 L 11.1875 -24.140625 C 12.03125 -24.796875 12.96875 -25.3125 14 -25.6875 C 15.039062 -26.070312 16.144531 -26.265625 17.3125 -26.265625 C 19.09375 -26.265625 20.71875 -25.828125 22.1875 -24.953125 C 23.664062 -24.078125 24.84375 -22.898438 25.71875 -21.421875 C 26.59375 -19.953125 27.03125 -18.328125 27.03125 -16.546875 L 27.03125 -12.890625 L 27.09375 -4.421875 C 27.09375 -4.128906 27.179688 -3.890625 27.359375 -3.703125 C 27.535156 -3.523438 27.753906 -3.4375 28.015625 -3.4375 C 28.265625 -3.4375 28.476562 -3.523438 28.65625 -3.703125 C 28.84375 -3.890625 28.9375 -4.113281 28.9375 -4.375 C 28.9375 -4.519531 29.007812 -4.59375 29.15625 -4.59375 Z M 29.15625 -4.59375 "/></g></g><g style="fill:#c24b79;fill-opacity:1;"><g transform="translate(320.892947, 243.606444)"><path style="stroke:none" d="M 24.953125 -3.984375 C 25.066406 -4.054688 25.160156 -4.054688 25.234375 -3.984375 C 25.335938 -3.878906 25.335938 -3.769531 25.234375 -3.65625 C 22.648438 -1.070312 19.535156 0.21875 15.890625 0.21875 C 12.210938 0.21875 9.082031 -1.070312 6.5 -3.65625 C 4.789062 -5.40625 3.644531 -7.40625 3.0625 -9.65625 C 2.476562 -11.914062 2.476562 -14.175781 3.0625 -16.4375 C 3.644531 -18.695312 4.789062 -20.695312 6.5 -22.4375 C 8.207031 -24.15625 10.195312 -25.296875 12.46875 -25.859375 C 14.75 -26.421875 17.015625 -26.421875 19.265625 -25.859375 C 21.523438 -25.296875 23.515625 -24.15625 25.234375 -22.4375 C 25.335938 -22.332031 25.335938 -22.222656 25.234375 -22.109375 L 20.703125 -17.578125 C 20.585938 -17.472656 20.476562 -17.472656 20.375 -17.578125 C 18.726562 -19.222656 17.015625 -20.523438 15.234375 -21.484375 C 13.453125 -22.453125 11.804688 -23.007812 10.296875 -23.15625 C 8.785156 -23.300781 7.609375 -22.953125 6.765625 -22.109375 C 5.960938 -21.273438 5.625 -20.109375 5.75 -18.609375 C 5.882812 -17.117188 6.429688 -15.484375 7.390625 -13.703125 C 8.359375 -11.921875 9.679688 -10.191406 11.359375 -8.515625 C 13.867188 -6.003906 16.472656 -4.3125 19.171875 -3.4375 C 21.785156 -2.5625 23.710938 -2.742188 24.953125 -3.984375 Z M 24.953125 -3.984375 "/></g></g><g style="fill:#c24b79;fill-opacity:1;"><g transform="translate(346.343774, 243.606444)"><path style="stroke:none" d="M 24.953125 -3.984375 C 25.066406 -4.054688 25.160156 -4.054688 25.234375 -3.984375 C 25.335938 -3.878906 25.335938 -3.769531 25.234375 -3.65625 C 22.648438 -1.070312 19.535156 0.21875 15.890625 0.21875 C 12.210938 0.21875 9.082031 -1.070312 6.5 -3.65625 C 4.789062 -5.40625 3.644531 -7.40625 3.0625 -9.65625 C 2.476562 -11.914062 2.476562 -14.175781 3.0625 -16.4375 C 3.644531 -18.695312 4.789062 -20.695312 6.5 -22.4375 C 8.207031 -24.15625 10.195312 -25.296875 12.46875 -25.859375 C 14.75 -26.421875 17.015625 -26.421875 19.265625 -25.859375 C 21.523438 -25.296875 23.515625 -24.15625 25.234375 -22.4375 C 25.335938 -22.332031 25.335938 -22.222656 25.234375 -22.109375 L 13.59375 -10.484375 C 13.5625 -10.453125 13.507812 -10.4375 13.4375 -10.4375 C 13.394531 -10.4375 13.359375 -10.453125 13.328125 -10.484375 C 13.210938 -10.597656 13.210938 -10.691406 13.328125 -10.765625 L 20.265625 -17.6875 C 17.742188 -20.164062 15.175781 -21.820312 12.5625 -22.65625 C 9.9375 -23.53125 8.003906 -23.347656 6.765625 -22.109375 C 5.960938 -21.273438 5.625 -20.109375 5.75 -18.609375 C 5.882812 -17.117188 6.429688 -15.484375 7.390625 -13.703125 C 8.359375 -11.921875 9.679688 -10.191406 11.359375 -8.515625 C 13.867188 -6.003906 16.472656 -4.3125 19.171875 -3.4375 C 21.785156 -2.5625 23.710938 -2.742188 24.953125 -3.984375 Z M 24.953125 -3.984375 "/></g></g><path style="fill:none;stroke-width:2;stroke-linecap:butt;stroke-linejoin:miter;stroke:#c24b79;stroke-opacity:1;stroke-miterlimit:4;" d="M -0.00049818 1.001537 L 358.026886 1.001537 " transform="matrix(0.99353,0,0,0.99353,9.637214,259.008849)"/><g style="fill:#ffcccc;fill-opacity:1;"><g transform="translate(30.764901, 289.28692)"><path style="stroke:none" d="M 12.546875 -9.265625 C 12.460938 -8.847656 12.320312 -8.484375 12.125 -8.171875 C 11.925781 -7.859375 11.6875 -7.59375 11.40625 -7.375 C 11.132812 -7.15625 10.84375 -6.976562 10.53125 -6.84375 C 10.21875 -6.707031 9.910156 -6.601562 9.609375 -6.53125 C 9.960938 -6.445312 10.300781 -6.320312 10.625 -6.15625 C 10.957031 -5.988281 11.242188 -5.769531 11.484375 -5.5 C 11.722656 -5.238281 11.894531 -4.921875 12 -4.546875 C 12.113281 -4.179688 12.117188 -3.757812 12.015625 -3.28125 C 11.921875 -2.789062 11.75 -2.363281 11.5 -2 C 11.257812 -1.644531 10.960938 -1.335938 10.609375 -1.078125 C 10.265625 -0.816406 9.882812 -0.609375 9.46875 -0.453125 C 9.0625 -0.296875 8.640625 -0.179688 8.203125 -0.109375 C 7.765625 -0.046875 7.332031 -0.015625 6.90625 -0.015625 L 0.953125 -0.015625 L 1.0625 -0.59375 L 2.015625 -0.59375 C 2.273438 -0.59375 2.46875 -0.671875 2.59375 -0.828125 C 2.726562 -0.984375 2.820312 -1.191406 2.875 -1.453125 L 4.515625 -10.734375 C 4.546875 -10.984375 4.53125 -11.1875 4.46875 -11.34375 C 4.40625 -11.507812 4.25 -11.59375 4 -11.59375 L 3 -11.59375 L 3.109375 -12.203125 L 9.1875 -12.1875 C 10.019531 -12.1875 10.707031 -12.066406 11.25 -11.828125 C 11.789062 -11.585938 12.171875 -11.25 12.390625 -10.8125 C 12.617188 -10.375 12.671875 -9.859375 12.546875 -9.265625 Z M 11.140625 -9.171875 C 11.316406 -9.984375 11.164062 -10.597656 10.6875 -11.015625 C 10.21875 -11.429688 9.484375 -11.640625 8.484375 -11.640625 L 5.953125 -11.640625 L 5.125 -6.828125 L 7.796875 -6.828125 C 8.785156 -6.828125 9.546875 -7.015625 10.078125 -7.390625 C 10.617188 -7.765625 10.972656 -8.359375 11.140625 -9.171875 Z M 10.625 -3.359375 C 10.769531 -4.054688 10.726562 -4.613281 10.5 -5.03125 C 10.28125 -5.445312 9.921875 -5.75 9.421875 -5.9375 C 8.921875 -6.125 8.328125 -6.21875 7.640625 -6.21875 L 5.015625 -6.21875 L 4.171875 -1.4375 C 4.148438 -1.3125 4.144531 -1.1875 4.15625 -1.0625 C 4.164062 -0.9375 4.207031 -0.832031 4.28125 -0.75 C 4.363281 -0.664062 4.488281 -0.625 4.65625 -0.625 L 6.90625 -0.625 C 7.625 -0.625 8.238281 -0.742188 8.75 -0.984375 C 9.269531 -1.222656 9.6875 -1.550781 10 -1.96875 C 10.320312 -2.382812 10.53125 -2.847656 10.625 -3.359375 Z M 10.625 -3.359375 "/></g></g><g style="fill:#ffcccc;fill-opacity:1;"><g transform="translate(44.527641, 289.28692)"><path style="stroke:none" d="M 1.140625 4.234375 C 0.953125 4.242188 0.804688 4.203125 0.703125 4.109375 C 0.609375 4.015625 0.570312 3.890625 0.59375 3.734375 C 0.613281 3.554688 0.695312 3.425781 0.84375 3.34375 C 0.988281 3.269531 1.117188 3.222656 1.234375 3.203125 C 1.597656 3.128906 1.945312 3.007812 2.28125 2.84375 C 2.625 2.675781 2.960938 2.4375 3.296875 2.125 C 3.628906 1.820312 3.96875 1.40625 4.3125 0.875 L 4.8125 0.078125 L 2.3125 -6.40625 C 2.226562 -6.65625 2.132812 -6.828125 2.03125 -6.921875 C 1.9375 -7.015625 1.800781 -7.0625 1.625 -7.0625 L 1.171875 -7.0625 L 1.25 -7.640625 L 4.984375 -7.640625 L 4.890625 -7.0625 L 4.171875 -7.0625 C 3.898438 -7.0625 3.734375 -6.984375 3.671875 -6.828125 C 3.609375 -6.671875 3.617188 -6.476562 3.703125 -6.25 L 5.625 -1.171875 L 8.765625 -6.078125 C 8.929688 -6.359375 9.015625 -6.59375 9.015625 -6.78125 C 9.023438 -6.96875 8.882812 -7.0625 8.59375 -7.0625 L 7.765625 -7.0625 L 7.875 -7.640625 L 10.84375 -7.640625 L 10.75 -7.0625 L 10.515625 -7.0625 C 10.335938 -7.0625 10.171875 -7.003906 10.015625 -6.890625 C 9.859375 -6.773438 9.6875 -6.554688 9.5 -6.234375 L 4.734375 1.234375 C 4.316406 1.890625 3.914062 2.425781 3.53125 2.84375 C 3.15625 3.257812 2.773438 3.578125 2.390625 3.796875 C 2.003906 4.023438 1.585938 4.171875 1.140625 4.234375 Z M 1.140625 4.234375 "/></g></g><g style="fill:#ffcccc;fill-opacity:1;"><g transform="translate(55.139543, 289.28692)"><path style="stroke:none" d=""/></g></g><g style="fill:#ffcccc;fill-opacity:1;"><g transform="translate(60.62342, 289.28692)"><path style="stroke:none" d="M 0.953125 0 L 1.0625 -0.578125 L 2.390625 -0.578125 C 2.722656 -0.578125 2.957031 -0.648438 3.09375 -0.796875 C 3.238281 -0.953125 3.335938 -1.164062 3.390625 -1.4375 L 5.03125 -10.765625 C 5.082031 -11.046875 5.0625 -11.257812 4.96875 -11.40625 C 4.882812 -11.5625 4.675781 -11.640625 4.34375 -11.640625 L 3 -11.640625 L 3.109375 -12.21875 L 8.765625 -12.21875 L 8.671875 -11.640625 L 7.34375 -11.640625 C 7.007812 -11.640625 6.769531 -11.566406 6.625 -11.421875 C 6.476562 -11.273438 6.378906 -11.054688 6.328125 -10.765625 L 4.6875 -1.4375 C 4.632812 -1.144531 4.65625 -0.925781 4.75 -0.78125 C 4.84375 -0.644531 5.054688 -0.578125 5.390625 -0.578125 L 6.71875 -0.578125 L 6.609375 0 Z M 0.953125 0 "/></g></g><g style="fill:#ffcccc;fill-opacity:1;"><g transform="translate(69.664413, 289.28692)"><path style="stroke:none" d="M 4.71875 -4.640625 C 5.050781 -4.597656 5.378906 -4.546875 5.703125 -4.484375 C 6.035156 -4.421875 6.34375 -4.335938 6.625 -4.234375 C 6.914062 -4.128906 7.164062 -3.988281 7.375 -3.8125 C 7.582031 -3.644531 7.726562 -3.429688 7.8125 -3.171875 C 7.90625 -2.921875 7.921875 -2.613281 7.859375 -2.25 C 7.785156 -1.84375 7.632812 -1.484375 7.40625 -1.171875 C 7.175781 -0.859375 6.890625 -0.597656 6.546875 -0.390625 C 6.203125 -0.179688 5.816406 -0.03125 5.390625 0.0625 C 4.960938 0.164062 4.515625 0.21875 4.046875 0.21875 C 3.367188 0.21875 2.789062 0.125 2.3125 -0.0625 C 1.84375 -0.257812 1.503906 -0.503906 1.296875 -0.796875 L 0.84375 0.21875 L 0.390625 0.21875 L 0.796875 -2.15625 L 1.34375 -2.15625 C 1.507812 -1.550781 1.84375 -1.097656 2.34375 -0.796875 C 2.84375 -0.503906 3.457031 -0.359375 4.1875 -0.359375 C 4.644531 -0.359375 5.066406 -0.414062 5.453125 -0.53125 C 5.835938 -0.65625 6.15625 -0.835938 6.40625 -1.078125 C 6.664062 -1.316406 6.828125 -1.609375 6.890625 -1.953125 C 6.941406 -2.242188 6.90625 -2.476562 6.78125 -2.65625 C 6.664062 -2.84375 6.488281 -2.984375 6.25 -3.078125 C 6.019531 -3.179688 5.75 -3.257812 5.4375 -3.3125 C 5.132812 -3.375 4.8125 -3.425781 4.46875 -3.46875 C 4.132812 -3.519531 3.804688 -3.570312 3.484375 -3.625 C 3.160156 -3.6875 2.851562 -3.765625 2.5625 -3.859375 C 2.28125 -3.953125 2.039062 -4.070312 1.84375 -4.21875 C 1.644531 -4.375 1.5 -4.566406 1.40625 -4.796875 C 1.320312 -5.035156 1.3125 -5.328125 1.375 -5.671875 C 1.457031 -6.128906 1.648438 -6.519531 1.953125 -6.84375 C 2.265625 -7.175781 2.664062 -7.425781 3.15625 -7.59375 C 3.65625 -7.769531 4.222656 -7.859375 4.859375 -7.859375 C 5.515625 -7.859375 6.050781 -7.769531 6.46875 -7.59375 C 6.894531 -7.425781 7.21875 -7.195312 7.4375 -6.90625 L 7.8125 -7.859375 L 8.25 -7.859375 L 7.875 -5.5625 L 7.40625 -5.5625 C 7.320312 -6.082031 7.054688 -6.5 6.609375 -6.8125 C 6.171875 -7.125 5.550781 -7.28125 4.75 -7.28125 C 4.320312 -7.28125 3.929688 -7.234375 3.578125 -7.140625 C 3.234375 -7.046875 2.953125 -6.898438 2.734375 -6.703125 C 2.515625 -6.515625 2.375 -6.269531 2.3125 -5.96875 C 2.269531 -5.71875 2.300781 -5.515625 2.40625 -5.359375 C 2.507812 -5.210938 2.671875 -5.09375 2.890625 -5 C 3.109375 -4.914062 3.375 -4.847656 3.6875 -4.796875 C 4 -4.742188 4.34375 -4.691406 4.71875 -4.640625 Z M 4.71875 -4.640625 "/></g></g><g style="fill:#ffcccc;fill-opacity:1;"><g transform="translate(79.581135, 289.28692)"><path style="stroke:none" d="M 2.015625 0.1875 C 1.578125 0.1875 1.234375 0.113281 0.984375 -0.03125 C 0.742188 -0.1875 0.582031 -0.390625 0.5 -0.640625 C 0.425781 -0.898438 0.414062 -1.1875 0.46875 -1.5 C 0.539062 -1.914062 0.695312 -2.265625 0.9375 -2.546875 C 1.175781 -2.835938 1.472656 -3.09375 1.828125 -3.3125 C 2.179688 -3.53125 2.570312 -3.734375 3 -3.921875 L 6.34375 -5.421875 C 6.394531 -5.910156 6.375 -6.285156 6.28125 -6.546875 C 6.1875 -6.816406 6.015625 -7.003906 5.765625 -7.109375 C 5.515625 -7.222656 5.179688 -7.28125 4.765625 -7.28125 C 4.265625 -7.28125 3.851562 -7.210938 3.53125 -7.078125 C 3.21875 -6.941406 2.960938 -6.765625 2.765625 -6.546875 C 2.578125 -6.328125 2.421875 -6.097656 2.296875 -5.859375 C 2.234375 -5.722656 2.148438 -5.609375 2.046875 -5.515625 C 1.941406 -5.421875 1.804688 -5.378906 1.640625 -5.390625 C 1.472656 -5.398438 1.363281 -5.457031 1.3125 -5.5625 C 1.269531 -5.664062 1.269531 -5.789062 1.3125 -5.9375 C 1.40625 -6.15625 1.546875 -6.378906 1.734375 -6.609375 C 1.921875 -6.835938 2.164062 -7.046875 2.46875 -7.234375 C 2.769531 -7.421875 3.132812 -7.570312 3.5625 -7.6875 C 4 -7.800781 4.515625 -7.859375 5.109375 -7.859375 C 5.546875 -7.859375 5.929688 -7.816406 6.265625 -7.734375 C 6.609375 -7.660156 6.890625 -7.523438 7.109375 -7.328125 C 7.335938 -7.128906 7.488281 -6.859375 7.5625 -6.515625 C 7.632812 -6.171875 7.625 -5.738281 7.53125 -5.21875 L 6.9375 -2.015625 C 6.84375 -1.492188 6.835938 -1.117188 6.921875 -0.890625 C 7.003906 -0.660156 7.164062 -0.546875 7.40625 -0.546875 C 7.613281 -0.546875 7.800781 -0.632812 7.96875 -0.8125 C 8.132812 -1 8.253906 -1.296875 8.328125 -1.703125 L 8.84375 -1.703125 C 8.726562 -1.078125 8.5 -0.613281 8.15625 -0.3125 C 7.8125 -0.0078125 7.398438 0.140625 6.921875 0.140625 C 6.429688 0.140625 6.097656 -0.0078125 5.921875 -0.3125 C 5.753906 -0.613281 5.691406 -1.0625 5.734375 -1.65625 C 5.148438 -1.101562 4.535156 -0.65625 3.890625 -0.3125 C 3.253906 0.0195312 2.628906 0.1875 2.015625 0.1875 Z M 2.59375 -0.5 C 3.070312 -0.5 3.585938 -0.660156 4.140625 -0.984375 C 4.703125 -1.316406 5.253906 -1.78125 5.796875 -2.375 L 6.25 -4.8125 L 3.1875 -3.34375 C 2.832031 -3.175781 2.550781 -3.003906 2.34375 -2.828125 C 2.132812 -2.648438 1.976562 -2.46875 1.875 -2.28125 C 1.769531 -2.101562 1.703125 -1.910156 1.671875 -1.703125 C 1.609375 -1.316406 1.65625 -1.019531 1.8125 -0.8125 C 1.96875 -0.601562 2.226562 -0.5 2.59375 -0.5 Z M 2.59375 -0.5 "/></g></g><g style="fill:#ffcccc;fill-opacity:1;"><g transform="translate(90.283319, 289.28692)"><path style="stroke:none" d="M 4.625 0.203125 C 4.09375 0.203125 3.601562 0.09375 3.15625 -0.125 C 2.707031 -0.34375 2.332031 -0.644531 2.03125 -1.03125 L 1.296875 0.0625 L 0.796875 0.0625 L 2.71875 -10.78125 C 2.757812 -11.039062 2.738281 -11.238281 2.65625 -11.375 C 2.582031 -11.519531 2.410156 -11.570312 2.140625 -11.53125 L 1.234375 -11.3125 L 1.25 -11.875 L 4.234375 -12.515625 L 3.21875 -6.78125 C 3.582031 -7.082031 4.003906 -7.335938 4.484375 -7.546875 C 4.972656 -7.753906 5.503906 -7.859375 6.078125 -7.859375 C 6.585938 -7.859375 7.050781 -7.757812 7.46875 -7.5625 C 7.882812 -7.363281 8.234375 -7.082031 8.515625 -6.71875 C 8.804688 -6.351562 9.003906 -5.925781 9.109375 -5.4375 C 9.222656 -4.945312 9.234375 -4.410156 9.140625 -3.828125 C 9.035156 -3.242188 8.835938 -2.703125 8.546875 -2.203125 C 8.253906 -1.710938 7.898438 -1.285156 7.484375 -0.921875 C 7.066406 -0.566406 6.613281 -0.289062 6.125 -0.09375 C 5.632812 0.101562 5.132812 0.203125 4.625 0.203125 Z M 4.453125 -0.46875 C 4.898438 -0.46875 5.3125 -0.566406 5.6875 -0.765625 C 6.070312 -0.960938 6.410156 -1.222656 6.703125 -1.546875 C 7.003906 -1.867188 7.253906 -2.226562 7.453125 -2.625 C 7.648438 -3.019531 7.785156 -3.421875 7.859375 -3.828125 C 7.941406 -4.273438 7.953125 -4.695312 7.890625 -5.09375 C 7.828125 -5.488281 7.703125 -5.84375 7.515625 -6.15625 C 7.328125 -6.476562 7.078125 -6.726562 6.765625 -6.90625 C 6.453125 -7.09375 6.085938 -7.1875 5.671875 -7.1875 C 5.328125 -7.1875 5 -7.128906 4.6875 -7.015625 C 4.375 -6.910156 4.078125 -6.765625 3.796875 -6.578125 C 3.523438 -6.398438 3.285156 -6.203125 3.078125 -5.984375 L 2.328125 -1.71875 C 2.523438 -1.375 2.804688 -1.078125 3.171875 -0.828125 C 3.535156 -0.585938 3.960938 -0.46875 4.453125 -0.46875 Z M 4.453125 -0.46875 "/></g></g><g style="fill:#ffcccc;fill-opacity:1;"><g transform="translate(101.075785, 289.28692)"><path style="stroke:none" d="M 3.875 0.21875 C 3.332031 0.21875 2.847656 0.117188 2.421875 -0.078125 C 1.992188 -0.273438 1.640625 -0.550781 1.359375 -0.90625 C 1.085938 -1.269531 0.898438 -1.703125 0.796875 -2.203125 C 0.691406 -2.703125 0.691406 -3.25 0.796875 -3.84375 C 0.898438 -4.4375 1.085938 -4.976562 1.359375 -5.46875 C 1.640625 -5.96875 1.984375 -6.394531 2.390625 -6.75 C 2.796875 -7.101562 3.242188 -7.375 3.734375 -7.5625 C 4.234375 -7.757812 4.742188 -7.859375 5.265625 -7.859375 C 5.734375 -7.859375 6.171875 -7.773438 6.578125 -7.609375 C 6.984375 -7.441406 7.328125 -7.191406 7.609375 -6.859375 C 7.898438 -6.535156 8.109375 -6.128906 8.234375 -5.640625 C 8.359375 -5.160156 8.367188 -4.597656 8.265625 -3.953125 L 2.078125 -3.953125 C 1.992188 -3.503906 1.972656 -3.066406 2.015625 -2.640625 C 2.054688 -2.222656 2.160156 -1.84375 2.328125 -1.5 C 2.492188 -1.164062 2.734375 -0.898438 3.046875 -0.703125 C 3.367188 -0.503906 3.769531 -0.40625 4.25 -0.40625 C 4.8125 -0.40625 5.347656 -0.554688 5.859375 -0.859375 C 6.367188 -1.171875 6.796875 -1.59375 7.140625 -2.125 L 7.59375 -1.859375 C 7.320312 -1.441406 6.988281 -1.078125 6.59375 -0.765625 C 6.207031 -0.453125 5.785156 -0.207031 5.328125 -0.03125 C 4.867188 0.132812 4.382812 0.21875 3.875 0.21875 Z M 2.1875 -4.515625 L 7.203125 -4.515625 C 7.234375 -4.867188 7.210938 -5.207031 7.140625 -5.53125 C 7.078125 -5.863281 6.960938 -6.160156 6.796875 -6.421875 C 6.628906 -6.691406 6.410156 -6.898438 6.140625 -7.046875 C 5.878906 -7.203125 5.5625 -7.28125 5.1875 -7.28125 C 4.800781 -7.28125 4.445312 -7.203125 4.125 -7.046875 C 3.8125 -6.890625 3.523438 -6.679688 3.265625 -6.421875 C 3.003906 -6.160156 2.785156 -5.863281 2.609375 -5.53125 C 2.429688 -5.207031 2.289062 -4.867188 2.1875 -4.515625 Z M 2.1875 -4.515625 "/></g></g><g style="fill:#ffcccc;fill-opacity:1;"><g transform="translate(110.947373, 289.28692)"><path style="stroke:none" d="M -0.484375 0 L -0.375 -0.578125 L 0.53125 -0.578125 C 0.789062 -0.578125 0.976562 -0.644531 1.09375 -0.78125 C 1.21875 -0.925781 1.304688 -1.117188 1.359375 -1.359375 L 3.015625 -10.78125 C 3.066406 -11.039062 3.046875 -11.238281 2.953125 -11.375 C 2.867188 -11.519531 2.6875 -11.566406 2.40625 -11.515625 L 1.515625 -11.296875 L 1.53125 -11.875 L 4.53125 -12.515625 L 2.5625 -1.359375 C 2.519531 -1.148438 2.53125 -0.96875 2.59375 -0.8125 C 2.65625 -0.65625 2.789062 -0.578125 3 -0.578125 L 4.015625 -0.578125 L 3.921875 0 Z M -0.484375 0 "/></g></g><g style="fill:#ffcccc;fill-opacity:1;"><g transform="translate(117.108359, 289.28692)"><path style="stroke:none" d="M -0.484375 0 L -0.375 -0.578125 L 0.53125 -0.578125 C 0.789062 -0.578125 0.976562 -0.644531 1.09375 -0.78125 C 1.21875 -0.925781 1.304688 -1.117188 1.359375 -1.359375 L 3.015625 -10.78125 C 3.066406 -11.039062 3.046875 -11.238281 2.953125 -11.375 C 2.867188 -11.519531 2.6875 -11.566406 2.40625 -11.515625 L 1.515625 -11.296875 L 1.53125 -11.875 L 4.53125 -12.515625 L 2.5625 -1.359375 C 2.519531 -1.148438 2.53125 -0.96875 2.59375 -0.8125 C 2.65625 -0.65625 2.789062 -0.578125 3 -0.578125 L 4.015625 -0.578125 L 3.921875 0 Z M -0.484375 0 "/></g></g><g style="fill:#ffcccc;fill-opacity:1;"><g transform="translate(123.269344, 289.28692)"><path style="stroke:none" d="M 2.015625 0.1875 C 1.578125 0.1875 1.234375 0.113281 0.984375 -0.03125 C 0.742188 -0.1875 0.582031 -0.390625 0.5 -0.640625 C 0.425781 -0.898438 0.414062 -1.1875 0.46875 -1.5 C 0.539062 -1.914062 0.695312 -2.265625 0.9375 -2.546875 C 1.175781 -2.835938 1.472656 -3.09375 1.828125 -3.3125 C 2.179688 -3.53125 2.570312 -3.734375 3 -3.921875 L 6.34375 -5.421875 C 6.394531 -5.910156 6.375 -6.285156 6.28125 -6.546875 C 6.1875 -6.816406 6.015625 -7.003906 5.765625 -7.109375 C 5.515625 -7.222656 5.179688 -7.28125 4.765625 -7.28125 C 4.265625 -7.28125 3.851562 -7.210938 3.53125 -7.078125 C 3.21875 -6.941406 2.960938 -6.765625 2.765625 -6.546875 C 2.578125 -6.328125 2.421875 -6.097656 2.296875 -5.859375 C 2.234375 -5.722656 2.148438 -5.609375 2.046875 -5.515625 C 1.941406 -5.421875 1.804688 -5.378906 1.640625 -5.390625 C 1.472656 -5.398438 1.363281 -5.457031 1.3125 -5.5625 C 1.269531 -5.664062 1.269531 -5.789062 1.3125 -5.9375 C 1.40625 -6.15625 1.546875 -6.378906 1.734375 -6.609375 C 1.921875 -6.835938 2.164062 -7.046875 2.46875 -7.234375 C 2.769531 -7.421875 3.132812 -7.570312 3.5625 -7.6875 C 4 -7.800781 4.515625 -7.859375 5.109375 -7.859375 C 5.546875 -7.859375 5.929688 -7.816406 6.265625 -7.734375 C 6.609375 -7.660156 6.890625 -7.523438 7.109375 -7.328125 C 7.335938 -7.128906 7.488281 -6.859375 7.5625 -6.515625 C 7.632812 -6.171875 7.625 -5.738281 7.53125 -5.21875 L 6.9375 -2.015625 C 6.84375 -1.492188 6.835938 -1.117188 6.921875 -0.890625 C 7.003906 -0.660156 7.164062 -0.546875 7.40625 -0.546875 C 7.613281 -0.546875 7.800781 -0.632812 7.96875 -0.8125 C 8.132812 -1 8.253906 -1.296875 8.328125 -1.703125 L 8.84375 -1.703125 C 8.726562 -1.078125 8.5 -0.613281 8.15625 -0.3125 C 7.8125 -0.0078125 7.398438 0.140625 6.921875 0.140625 C 6.429688 0.140625 6.097656 -0.0078125 5.921875 -0.3125 C 5.753906 -0.613281 5.691406 -1.0625 5.734375 -1.65625 C 5.148438 -1.101562 4.535156 -0.65625 3.890625 -0.3125 C 3.253906 0.0195312 2.628906 0.1875 2.015625 0.1875 Z M 2.59375 -0.5 C 3.070312 -0.5 3.585938 -0.660156 4.140625 -0.984375 C 4.703125 -1.316406 5.253906 -1.78125 5.796875 -2.375 L 6.25 -4.8125 L 3.1875 -3.34375 C 2.832031 -3.175781 2.550781 -3.003906 2.34375 -2.828125 C 2.132812 -2.648438 1.976562 -2.46875 1.875 -2.28125 C 1.769531 -2.101562 1.703125 -1.910156 1.671875 -1.703125 C 1.609375 -1.316406 1.65625 -1.019531 1.8125 -0.8125 C 1.96875 -0.601562 2.226562 -0.5 2.59375 -0.5 Z M 2.59375 -0.5 "/></g></g><g style="fill:#ffcccc;fill-opacity:1;"><g transform="translate(133.971528, 289.28692)"><path style="stroke:none" d=""/></g></g><g style="fill:#ffcccc;fill-opacity:1;"><g transform="translate(139.455405, 289.28692)"><path style="stroke:none" d="M 12.890625 -9.046875 L 12.3125 -9.03125 L 12.421875 -10.828125 C 12.398438 -11.140625 12.3125 -11.34375 12.15625 -11.4375 C 12.007812 -11.539062 11.796875 -11.59375 11.515625 -11.59375 L 6.125 -11.59375 L 5.265625 -6.703125 L 8.8125 -6.703125 C 9.03125 -6.703125 9.226562 -6.75 9.40625 -6.84375 C 9.582031 -6.9375 9.691406 -7.101562 9.734375 -7.34375 L 9.921875 -8.421875 L 10.5 -8.421875 L 9.765625 -4.265625 L 9.1875 -4.265625 L 9.390625 -5.390625 C 9.429688 -5.660156 9.382812 -5.84375 9.25 -5.9375 C 9.113281 -6.039062 8.929688 -6.09375 8.703125 -6.09375 L 5.15625 -6.09375 L 4.359375 -1.546875 C 4.304688 -1.265625 4.316406 -1.035156 4.390625 -0.859375 C 4.460938 -0.691406 4.660156 -0.609375 4.984375 -0.609375 L 9.8125 -0.609375 C 10.226562 -0.609375 10.53125 -0.675781 10.71875 -0.8125 C 10.914062 -0.945312 11.070312 -1.148438 11.1875 -1.421875 L 12.03125 -4.03125 L 12.59375 -4 L 11.609375 0 L 0.953125 0 L 1.0625 -0.578125 L 2.125 -0.578125 C 2.414062 -0.578125 2.628906 -0.65625 2.765625 -0.8125 C 2.910156 -0.976562 3.003906 -1.1875 3.046875 -1.4375 L 4.6875 -10.765625 C 4.726562 -11.046875 4.707031 -11.257812 4.625 -11.40625 C 4.539062 -11.550781 4.332031 -11.625 4 -11.625 L 3 -11.625 L 3.109375 -12.203125 L 13.265625 -12.203125 Z M 12.890625 -9.046875 "/></g></g><g style="fill:#ffcccc;fill-opacity:1;"><g transform="translate(153.895269, 289.28692)"><path style="stroke:none" d="M -0.46875 0 L -0.375 -0.578125 L 0.5 -0.578125 C 0.78125 -0.578125 0.976562 -0.644531 1.09375 -0.78125 C 1.21875 -0.925781 1.304688 -1.117188 1.359375 -1.359375 L 3.015625 -10.765625 C 3.054688 -11.015625 3.035156 -11.210938 2.953125 -11.359375 C 2.867188 -11.503906 2.691406 -11.550781 2.421875 -11.5 L 1.53125 -11.28125 L 1.546875 -11.84375 L 4.53125 -12.515625 L 3.28125 -5.453125 C 3.507812 -5.765625 3.765625 -6.0625 4.046875 -6.34375 C 4.335938 -6.632812 4.640625 -6.894531 4.953125 -7.125 C 5.273438 -7.351562 5.601562 -7.53125 5.9375 -7.65625 C 6.269531 -7.789062 6.601562 -7.859375 6.9375 -7.859375 C 7.769531 -7.859375 8.359375 -7.628906 8.703125 -7.171875 C 9.046875 -6.710938 9.128906 -5.992188 8.953125 -5.015625 L 8.328125 -1.359375 C 8.222656 -0.835938 8.398438 -0.578125 8.859375 -0.578125 L 9.71875 -0.578125 L 9.609375 0 L 5.25 0 L 5.359375 -0.578125 L 6.34375 -0.578125 C 6.5625 -0.578125 6.734375 -0.648438 6.859375 -0.796875 C 6.984375 -0.941406 7.066406 -1.132812 7.109375 -1.375 L 7.75 -4.984375 C 7.875 -5.703125 7.84375 -6.234375 7.65625 -6.578125 C 7.46875 -6.929688 7.0625 -7.109375 6.4375 -7.109375 C 6.113281 -7.109375 5.785156 -7.019531 5.453125 -6.84375 C 5.128906 -6.664062 4.816406 -6.4375 4.515625 -6.15625 C 4.222656 -5.875 3.953125 -5.566406 3.703125 -5.234375 C 3.453125 -4.910156 3.242188 -4.597656 3.078125 -4.296875 L 2.5625 -1.359375 C 2.519531 -1.140625 2.53125 -0.953125 2.59375 -0.796875 C 2.664062 -0.648438 2.8125 -0.578125 3.03125 -0.578125 L 3.984375 -0.578125 L 3.890625 0 Z M -0.46875 0 "/></g></g><g style="fill:#ffcccc;fill-opacity:1;"><g transform="translate(165.725972, 289.28692)"><path style="stroke:none" d="M 4.140625 -10.40625 C 3.941406 -10.40625 3.78125 -10.457031 3.65625 -10.5625 C 3.539062 -10.664062 3.460938 -10.796875 3.421875 -10.953125 C 3.378906 -11.109375 3.367188 -11.265625 3.390625 -11.421875 C 3.441406 -11.648438 3.5625 -11.84375 3.75 -12 C 3.945312 -12.15625 4.164062 -12.234375 4.40625 -12.234375 C 4.664062 -12.234375 4.863281 -12.128906 5 -11.921875 C 5.144531 -11.722656 5.195312 -11.488281 5.15625 -11.21875 C 5.101562 -10.957031 4.972656 -10.753906 4.765625 -10.609375 C 4.566406 -10.472656 4.359375 -10.40625 4.140625 -10.40625 Z M -0.1875 0 L -0.0625 -0.578125 L 0.828125 -0.578125 C 1.097656 -0.578125 1.300781 -0.648438 1.4375 -0.796875 C 1.570312 -0.941406 1.664062 -1.148438 1.71875 -1.421875 L 2.65625 -6.25 C 2.71875 -6.53125 2.703125 -6.722656 2.609375 -6.828125 C 2.523438 -6.941406 2.34375 -6.976562 2.0625 -6.9375 L 1.125 -6.71875 L 1.171875 -7.28125 L 4.203125 -7.921875 L 2.921875 -1.3125 C 2.878906 -1.070312 2.882812 -0.890625 2.9375 -0.765625 C 3 -0.640625 3.160156 -0.578125 3.421875 -0.578125 L 4.203125 -0.578125 L 4.09375 0 Z M -0.1875 0 "/></g></g><g style="fill:#ffcccc;fill-opacity:1;"><g transform="translate(171.814732, 289.28692)"><path style="stroke:none" d="M 8.53125 -7.640625 L 8.40625 -6.890625 L 1.578125 -0.578125 L 5.765625 -0.578125 C 5.941406 -0.578125 6.109375 -0.617188 6.265625 -0.703125 C 6.421875 -0.796875 6.570312 -0.992188 6.71875 -1.296875 L 7.125 -2.5 L 7.6875 -2.46875 L 7.015625 0 L 0.09375 0 L 0.21875 -0.75 L 7.046875 -7.0625 L 3.0625 -7.0625 C 2.875 -7.0625 2.71875 -7.019531 2.59375 -6.9375 C 2.46875 -6.851562 2.34375 -6.664062 2.21875 -6.375 L 1.828125 -5.25 L 1.25 -5.28125 L 1.9375 -7.640625 Z M 8.53125 -7.640625 "/></g></g><g style="fill:#ffcccc;fill-opacity:1;"><g transform="translate(181.605059, 289.28692)"><path style="stroke:none" d="M 4 0.21875 C 3.8125 0.21875 3.585938 0.195312 3.328125 0.15625 C 3.078125 0.113281 2.8125 0.0390625 2.53125 -0.0625 C 2.257812 -0.164062 2 -0.3125 1.75 -0.5 C 1.5 -0.695312 1.28125 -0.945312 1.09375 -1.25 C 0.914062 -1.550781 0.796875 -1.914062 0.734375 -2.34375 C 0.671875 -2.769531 0.6875 -3.265625 0.78125 -3.828125 C 0.882812 -4.421875 1.054688 -4.9375 1.296875 -5.375 C 1.535156 -5.820312 1.816406 -6.203125 2.140625 -6.515625 C 2.472656 -6.828125 2.828125 -7.082031 3.203125 -7.28125 C 3.578125 -7.476562 3.953125 -7.625 4.328125 -7.71875 C 4.710938 -7.8125 5.078125 -7.859375 5.421875 -7.859375 C 5.742188 -7.859375 6.078125 -7.8125 6.421875 -7.71875 C 6.765625 -7.632812 7.085938 -7.492188 7.390625 -7.296875 C 7.703125 -7.109375 7.96875 -6.859375 8.1875 -6.546875 C 8.414062 -6.234375 8.570312 -5.851562 8.65625 -5.40625 C 8.75 -4.957031 8.742188 -4.429688 8.640625 -3.828125 C 8.523438 -3.191406 8.335938 -2.640625 8.078125 -2.171875 C 7.816406 -1.703125 7.507812 -1.3125 7.15625 -1 C 6.8125 -0.695312 6.445312 -0.453125 6.0625 -0.265625 C 5.6875 -0.0859375 5.316406 0.0351562 4.953125 0.109375 C 4.585938 0.179688 4.269531 0.21875 4 0.21875 Z M 4.109375 -0.359375 C 4.390625 -0.359375 4.695312 -0.421875 5.03125 -0.546875 C 5.363281 -0.679688 5.6875 -0.890625 6 -1.171875 C 6.3125 -1.453125 6.59375 -1.8125 6.84375 -2.25 C 7.09375 -2.6875 7.269531 -3.210938 7.375 -3.828125 C 7.507812 -4.554688 7.5 -5.175781 7.34375 -5.6875 C 7.195312 -6.207031 6.945312 -6.601562 6.59375 -6.875 C 6.238281 -7.144531 5.816406 -7.28125 5.328125 -7.28125 C 4.835938 -7.28125 4.363281 -7.140625 3.90625 -6.859375 C 3.457031 -6.585938 3.066406 -6.195312 2.734375 -5.6875 C 2.410156 -5.175781 2.1875 -4.570312 2.0625 -3.875 C 1.945312 -3.25 1.929688 -2.710938 2.015625 -2.265625 C 2.109375 -1.816406 2.265625 -1.453125 2.484375 -1.171875 C 2.703125 -0.898438 2.953125 -0.695312 3.234375 -0.5625 C 3.523438 -0.425781 3.816406 -0.359375 4.109375 -0.359375 Z M 4.109375 -0.359375 "/></g></g><g style="fill:#ffcccc;fill-opacity:1;"><g transform="translate(191.955135, 289.28692)"><path style="stroke:none" d="M 0.09375 0 L 0.1875 -0.578125 L 1.078125 -0.578125 C 1.347656 -0.578125 1.539062 -0.644531 1.65625 -0.78125 C 1.78125 -0.925781 1.867188 -1.117188 1.921875 -1.359375 L 2.75 -6.140625 C 2.800781 -6.378906 2.785156 -6.570312 2.703125 -6.71875 C 2.617188 -6.863281 2.441406 -6.914062 2.171875 -6.875 L 1.265625 -6.65625 L 1.296875 -7.234375 L 4.28125 -7.890625 L 3.84375 -5.453125 C 4.09375 -5.765625 4.367188 -6.0625 4.671875 -6.34375 C 4.972656 -6.632812 5.289062 -6.894531 5.625 -7.125 C 5.96875 -7.351562 6.3125 -7.53125 6.65625 -7.65625 C 7.007812 -7.789062 7.351562 -7.859375 7.6875 -7.859375 C 8.4375 -7.859375 8.976562 -7.671875 9.3125 -7.296875 C 9.644531 -6.921875 9.78125 -6.320312 9.71875 -5.5 C 9.96875 -5.8125 10.242188 -6.109375 10.546875 -6.390625 C 10.859375 -6.671875 11.179688 -6.921875 11.515625 -7.140625 C 11.847656 -7.367188 12.1875 -7.546875 12.53125 -7.671875 C 12.882812 -7.796875 13.226562 -7.859375 13.5625 -7.859375 C 14.394531 -7.859375 14.984375 -7.628906 15.328125 -7.171875 C 15.671875 -6.710938 15.757812 -5.992188 15.59375 -5.015625 L 14.953125 -1.359375 C 14.910156 -1.109375 14.925781 -0.914062 15 -0.78125 C 15.082031 -0.644531 15.242188 -0.578125 15.484375 -0.578125 L 16.34375 -0.578125 L 16.234375 0 L 11.875 0 L 11.984375 -0.578125 L 12.96875 -0.578125 C 13.195312 -0.578125 13.367188 -0.648438 13.484375 -0.796875 C 13.609375 -0.941406 13.691406 -1.132812 13.734375 -1.375 L 14.375 -4.984375 C 14.5 -5.703125 14.46875 -6.234375 14.28125 -6.578125 C 14.09375 -6.929688 13.6875 -7.109375 13.0625 -7.109375 C 12.738281 -7.109375 12.410156 -7.023438 12.078125 -6.859375 C 11.742188 -6.703125 11.421875 -6.492188 11.109375 -6.234375 C 10.804688 -5.972656 10.523438 -5.6875 10.265625 -5.375 C 10.003906 -5.0625 9.785156 -4.753906 9.609375 -4.453125 L 9.0625 -1.359375 C 8.957031 -0.835938 9.132812 -0.578125 9.59375 -0.578125 L 10.453125 -0.578125 L 10.359375 0 L 6 0 L 6.09375 -0.578125 L 7.078125 -0.578125 C 7.304688 -0.578125 7.484375 -0.648438 7.609375 -0.796875 C 7.734375 -0.941406 7.816406 -1.132812 7.859375 -1.375 L 8.5 -4.984375 C 8.625 -5.703125 8.59375 -6.234375 8.40625 -6.578125 C 8.21875 -6.929688 7.8125 -7.109375 7.1875 -7.109375 C 6.84375 -7.109375 6.492188 -7.019531 6.140625 -6.84375 C 5.796875 -6.664062 5.460938 -6.4375 5.140625 -6.15625 C 4.828125 -5.875 4.539062 -5.566406 4.28125 -5.234375 C 4.019531 -4.910156 3.804688 -4.597656 3.640625 -4.296875 L 3.125 -1.359375 C 3.082031 -1.140625 3.09375 -0.953125 3.15625 -0.796875 C 3.226562 -0.648438 3.367188 -0.578125 3.578125 -0.578125 L 4.609375 -0.578125 L 4.515625 0 Z M 0.09375 0 "/></g></g><g style="fill:#ffcccc;fill-opacity:1;"><g transform="translate(210.421582, 289.28692)"><path style="stroke:none" d="M 4 0.21875 C 3.8125 0.21875 3.585938 0.195312 3.328125 0.15625 C 3.078125 0.113281 2.8125 0.0390625 2.53125 -0.0625 C 2.257812 -0.164062 2 -0.3125 1.75 -0.5 C 1.5 -0.695312 1.28125 -0.945312 1.09375 -1.25 C 0.914062 -1.550781 0.796875 -1.914062 0.734375 -2.34375 C 0.671875 -2.769531 0.6875 -3.265625 0.78125 -3.828125 C 0.882812 -4.421875 1.054688 -4.9375 1.296875 -5.375 C 1.535156 -5.820312 1.816406 -6.203125 2.140625 -6.515625 C 2.472656 -6.828125 2.828125 -7.082031 3.203125 -7.28125 C 3.578125 -7.476562 3.953125 -7.625 4.328125 -7.71875 C 4.710938 -7.8125 5.078125 -7.859375 5.421875 -7.859375 C 5.742188 -7.859375 6.078125 -7.8125 6.421875 -7.71875 C 6.765625 -7.632812 7.085938 -7.492188 7.390625 -7.296875 C 7.703125 -7.109375 7.96875 -6.859375 8.1875 -6.546875 C 8.414062 -6.234375 8.570312 -5.851562 8.65625 -5.40625 C 8.75 -4.957031 8.742188 -4.429688 8.640625 -3.828125 C 8.523438 -3.191406 8.335938 -2.640625 8.078125 -2.171875 C 7.816406 -1.703125 7.507812 -1.3125 7.15625 -1 C 6.8125 -0.695312 6.445312 -0.453125 6.0625 -0.265625 C 5.6875 -0.0859375 5.316406 0.0351562 4.953125 0.109375 C 4.585938 0.179688 4.269531 0.21875 4 0.21875 Z M 4.109375 -0.359375 C 4.390625 -0.359375 4.695312 -0.421875 5.03125 -0.546875 C 5.363281 -0.679688 5.6875 -0.890625 6 -1.171875 C 6.3125 -1.453125 6.59375 -1.8125 6.84375 -2.25 C 7.09375 -2.6875 7.269531 -3.210938 7.375 -3.828125 C 7.507812 -4.554688 7.5 -5.175781 7.34375 -5.6875 C 7.195312 -6.207031 6.945312 -6.601562 6.59375 -6.875 C 6.238281 -7.144531 5.816406 -7.28125 5.328125 -7.28125 C 4.835938 -7.28125 4.363281 -7.140625 3.90625 -6.859375 C 3.457031 -6.585938 3.066406 -6.195312 2.734375 -5.6875 C 2.410156 -5.175781 2.1875 -4.570312 2.0625 -3.875 C 1.945312 -3.25 1.929688 -2.710938 2.015625 -2.265625 C 2.109375 -1.816406 2.265625 -1.453125 2.484375 -1.171875 C 2.703125 -0.898438 2.953125 -0.695312 3.234375 -0.5625 C 3.523438 -0.425781 3.816406 -0.359375 4.109375 -0.359375 Z M 4.109375 -0.359375 "/></g></g><g style="fill:#ffcccc;fill-opacity:1;"><g transform="translate(220.771658, 289.28692)"><path style="stroke:none" d="M -0.46875 0 L -0.375 -0.578125 L 0.5 -0.578125 C 0.78125 -0.578125 0.976562 -0.644531 1.09375 -0.78125 C 1.21875 -0.925781 1.304688 -1.117188 1.359375 -1.359375 L 3.015625 -10.765625 C 3.054688 -11.015625 3.035156 -11.210938 2.953125 -11.359375 C 2.867188 -11.503906 2.691406 -11.550781 2.421875 -11.5 L 1.53125 -11.28125 L 1.546875 -11.84375 L 4.53125 -12.515625 L 3.28125 -5.453125 C 3.507812 -5.765625 3.765625 -6.0625 4.046875 -6.34375 C 4.335938 -6.632812 4.640625 -6.894531 4.953125 -7.125 C 5.273438 -7.351562 5.601562 -7.53125 5.9375 -7.65625 C 6.269531 -7.789062 6.601562 -7.859375 6.9375 -7.859375 C 7.769531 -7.859375 8.359375 -7.628906 8.703125 -7.171875 C 9.046875 -6.710938 9.128906 -5.992188 8.953125 -5.015625 L 8.328125 -1.359375 C 8.222656 -0.835938 8.398438 -0.578125 8.859375 -0.578125 L 9.71875 -0.578125 L 9.609375 0 L 5.25 0 L 5.359375 -0.578125 L 6.34375 -0.578125 C 6.5625 -0.578125 6.734375 -0.648438 6.859375 -0.796875 C 6.984375 -0.941406 7.066406 -1.132812 7.109375 -1.375 L 7.75 -4.984375 C 7.875 -5.703125 7.84375 -6.234375 7.65625 -6.578125 C 7.46875 -6.929688 7.0625 -7.109375 6.4375 -7.109375 C 6.113281 -7.109375 5.785156 -7.019531 5.453125 -6.84375 C 5.128906 -6.664062 4.816406 -6.4375 4.515625 -6.15625 C 4.222656 -5.875 3.953125 -5.566406 3.703125 -5.234375 C 3.453125 -4.910156 3.242188 -4.597656 3.078125 -4.296875 L 2.5625 -1.359375 C 2.519531 -1.140625 2.53125 -0.953125 2.59375 -0.796875 C 2.664062 -0.648438 2.8125 -0.578125 3.03125 -0.578125 L 3.984375 -0.578125 L 3.890625 0 Z M -0.46875 0 "/></g></g><g style="fill:#ffcccc;fill-opacity:1;"><g transform="translate(232.602361, 289.28692)"><path style="stroke:none" d=""/></g></g><g style="fill:#ffcccc;fill-opacity:1;"><g transform="translate(238.086238, 289.28692)"><path style="stroke:none" d="M 0.96875 0 L 1.0625 -0.578125 L 2.0625 -0.578125 C 2.382812 -0.578125 2.613281 -0.648438 2.75 -0.796875 C 2.882812 -0.941406 2.984375 -1.15625 3.046875 -1.4375 L 4.6875 -10.765625 C 4.738281 -11.046875 4.71875 -11.257812 4.625 -11.40625 C 4.53125 -11.550781 4.320312 -11.625 4 -11.625 L 3 -11.625 L 3.109375 -12.203125 L 13.203125 -12.203125 L 12.8125 -9.03125 L 12.234375 -9 L 12.359375 -10.75 C 12.347656 -11 12.289062 -11.179688 12.1875 -11.296875 C 12.09375 -11.421875 11.972656 -11.5 11.828125 -11.53125 C 11.691406 -11.570312 11.550781 -11.59375 11.40625 -11.59375 L 6.125 -11.59375 L 5.265625 -6.71875 L 8.75 -6.71875 C 8.988281 -6.71875 9.191406 -6.773438 9.359375 -6.890625 C 9.523438 -7.003906 9.628906 -7.195312 9.671875 -7.46875 L 9.84375 -8.4375 L 10.40625 -8.4375 L 9.671875 -4.265625 L 9.09375 -4.265625 L 9.28125 -5.296875 C 9.320312 -5.554688 9.289062 -5.753906 9.1875 -5.890625 C 9.09375 -6.035156 8.90625 -6.109375 8.625 -6.109375 L 5.15625 -6.109375 L 4.34375 -1.4375 C 4.289062 -1.175781 4.304688 -0.96875 4.390625 -0.8125 C 4.484375 -0.65625 4.703125 -0.578125 5.046875 -0.578125 L 6.265625 -0.578125 L 6.171875 0 Z M 0.96875 0 "/></g></g><g style="fill:#ffcccc;fill-opacity:1;"><g transform="translate(250.512803, 289.28692)"><path style="stroke:none" d="M 4 0.21875 C 3.8125 0.21875 3.585938 0.195312 3.328125 0.15625 C 3.078125 0.113281 2.8125 0.0390625 2.53125 -0.0625 C 2.257812 -0.164062 2 -0.3125 1.75 -0.5 C 1.5 -0.695312 1.28125 -0.945312 1.09375 -1.25 C 0.914062 -1.550781 0.796875 -1.914062 0.734375 -2.34375 C 0.671875 -2.769531 0.6875 -3.265625 0.78125 -3.828125 C 0.882812 -4.421875 1.054688 -4.9375 1.296875 -5.375 C 1.535156 -5.820312 1.816406 -6.203125 2.140625 -6.515625 C 2.472656 -6.828125 2.828125 -7.082031 3.203125 -7.28125 C 3.578125 -7.476562 3.953125 -7.625 4.328125 -7.71875 C 4.710938 -7.8125 5.078125 -7.859375 5.421875 -7.859375 C 5.742188 -7.859375 6.078125 -7.8125 6.421875 -7.71875 C 6.765625 -7.632812 7.085938 -7.492188 7.390625 -7.296875 C 7.703125 -7.109375 7.96875 -6.859375 8.1875 -6.546875 C 8.414062 -6.234375 8.570312 -5.851562 8.65625 -5.40625 C 8.75 -4.957031 8.742188 -4.429688 8.640625 -3.828125 C 8.523438 -3.191406 8.335938 -2.640625 8.078125 -2.171875 C 7.816406 -1.703125 7.507812 -1.3125 7.15625 -1 C 6.8125 -0.695312 6.445312 -0.453125 6.0625 -0.265625 C 5.6875 -0.0859375 5.316406 0.0351562 4.953125 0.109375 C 4.585938 0.179688 4.269531 0.21875 4 0.21875 Z M 4.109375 -0.359375 C 4.390625 -0.359375 4.695312 -0.421875 5.03125 -0.546875 C 5.363281 -0.679688 5.6875 -0.890625 6 -1.171875 C 6.3125 -1.453125 6.59375 -1.8125 6.84375 -2.25 C 7.09375 -2.6875 7.269531 -3.210938 7.375 -3.828125 C 7.507812 -4.554688 7.5 -5.175781 7.34375 -5.6875 C 7.195312 -6.207031 6.945312 -6.601562 6.59375 -6.875 C 6.238281 -7.144531 5.816406 -7.28125 5.328125 -7.28125 C 4.835938 -7.28125 4.363281 -7.140625 3.90625 -6.859375 C 3.457031 -6.585938 3.066406 -6.195312 2.734375 -5.6875 C 2.410156 -5.175781 2.1875 -4.570312 2.0625 -3.875 C 1.945312 -3.25 1.929688 -2.710938 2.015625 -2.265625 C 2.109375 -1.816406 2.265625 -1.453125 2.484375 -1.171875 C 2.703125 -0.898438 2.953125 -0.695312 3.234375 -0.5625 C 3.523438 -0.425781 3.816406 -0.359375 4.109375 -0.359375 Z M 4.109375 -0.359375 "/></g></g><g style="fill:#ffcccc;fill-opacity:1;"><g transform="translate(260.862879, 289.28692)"><path style="stroke:none" d="M 3.96875 0.21875 C 3.132812 0.21875 2.546875 -0.00390625 2.203125 -0.453125 C 1.859375 -0.910156 1.773438 -1.632812 1.953125 -2.625 L 2.578125 -6.265625 C 2.628906 -6.523438 2.613281 -6.722656 2.53125 -6.859375 C 2.445312 -6.992188 2.285156 -7.0625 2.046875 -7.0625 L 1.203125 -7.0625 L 1.296875 -7.640625 L 4.046875 -7.640625 L 3.15625 -2.640625 C 3.039062 -1.929688 3.070312 -1.40625 3.25 -1.0625 C 3.4375 -0.71875 3.84375 -0.546875 4.46875 -0.546875 C 4.800781 -0.546875 5.128906 -0.628906 5.453125 -0.796875 C 5.785156 -0.972656 6.097656 -1.195312 6.390625 -1.46875 C 6.691406 -1.75 6.960938 -2.050781 7.203125 -2.375 C 7.453125 -2.707031 7.660156 -3.03125 7.828125 -3.34375 L 8.34375 -6.265625 C 8.382812 -6.492188 8.375 -6.679688 8.3125 -6.828125 C 8.25 -6.984375 8.109375 -7.0625 7.890625 -7.0625 L 6.90625 -7.0625 L 7.015625 -7.640625 L 9.796875 -7.640625 L 8.703125 -1.375 C 8.660156 -1.132812 8.675781 -0.941406 8.75 -0.796875 C 8.832031 -0.660156 9.007812 -0.613281 9.28125 -0.65625 L 10.1875 -0.859375 L 10.15625 -0.28125 L 7.203125 0.203125 L 7.625 -2.1875 C 7.394531 -1.875 7.140625 -1.570312 6.859375 -1.28125 C 6.578125 -1 6.273438 -0.742188 5.953125 -0.515625 C 5.640625 -0.296875 5.316406 -0.117188 4.984375 0.015625 C 4.648438 0.148438 4.3125 0.21875 3.96875 0.21875 Z M 3.96875 0.21875 "/></g></g><g style="fill:#ffcccc;fill-opacity:1;"><g transform="translate(273.163049, 289.28692)"><path style="stroke:none" d="M 0.09375 0 L 0.1875 -0.578125 L 1.078125 -0.578125 C 1.347656 -0.578125 1.539062 -0.644531 1.65625 -0.78125 C 1.78125 -0.925781 1.867188 -1.117188 1.921875 -1.359375 L 2.75 -6.140625 C 2.800781 -6.378906 2.785156 -6.570312 2.703125 -6.71875 C 2.617188 -6.863281 2.441406 -6.914062 2.171875 -6.875 L 1.265625 -6.65625 L 1.296875 -7.234375 L 4.28125 -7.890625 L 3.84375 -5.453125 C 4.070312 -5.765625 4.328125 -6.0625 4.609375 -6.34375 C 4.890625 -6.632812 5.1875 -6.894531 5.5 -7.125 C 5.820312 -7.351562 6.148438 -7.53125 6.484375 -7.65625 C 6.828125 -7.789062 7.164062 -7.859375 7.5 -7.859375 C 8.332031 -7.859375 8.921875 -7.628906 9.265625 -7.171875 C 9.609375 -6.710938 9.691406 -5.992188 9.515625 -5.015625 L 8.875 -1.359375 C 8.78125 -0.835938 8.957031 -0.578125 9.40625 -0.578125 L 10.265625 -0.578125 L 10.171875 0 L 5.8125 0 L 5.90625 -0.578125 L 6.90625 -0.578125 C 7.125 -0.578125 7.296875 -0.648438 7.421875 -0.796875 C 7.546875 -0.941406 7.632812 -1.132812 7.6875 -1.375 L 8.3125 -4.984375 C 8.4375 -5.703125 8.40625 -6.234375 8.21875 -6.578125 C 8.03125 -6.929688 7.625 -7.109375 7 -7.109375 C 6.664062 -7.109375 6.335938 -7.019531 6.015625 -6.84375 C 5.691406 -6.664062 5.378906 -6.4375 5.078125 -6.15625 C 4.773438 -5.875 4.5 -5.566406 4.25 -5.234375 C 4.007812 -4.910156 3.804688 -4.597656 3.640625 -4.296875 L 3.125 -1.359375 C 3.082031 -1.140625 3.09375 -0.953125 3.15625 -0.796875 C 3.226562 -0.648438 3.367188 -0.578125 3.578125 -0.578125 L 4.546875 -0.578125 L 4.453125 0 Z M 0.09375 0 "/></g></g><g style="fill:#ffcccc;fill-opacity:1;"><g transform="translate(285.553516, 289.28692)"><path style="stroke:none" d="M 3.703125 0.203125 C 3.171875 0.203125 2.695312 0.0976562 2.28125 -0.109375 C 1.875 -0.316406 1.539062 -0.601562 1.28125 -0.96875 C 1.019531 -1.332031 0.84375 -1.753906 0.75 -2.234375 C 0.65625 -2.710938 0.65625 -3.234375 0.75 -3.796875 C 0.84375 -4.347656 1.003906 -4.84375 1.234375 -5.28125 C 1.472656 -5.71875 1.75 -6.097656 2.0625 -6.421875 C 2.375 -6.742188 2.710938 -7.007812 3.078125 -7.21875 C 3.441406 -7.4375 3.804688 -7.597656 4.171875 -7.703125 C 4.546875 -7.804688 4.894531 -7.859375 5.21875 -7.859375 C 5.5 -7.859375 5.789062 -7.820312 6.09375 -7.75 C 6.394531 -7.675781 6.679688 -7.554688 6.953125 -7.390625 C 7.234375 -7.234375 7.476562 -7.023438 7.6875 -6.765625 L 8.390625 -10.78125 C 8.441406 -11.019531 8.425781 -11.210938 8.34375 -11.359375 C 8.257812 -11.515625 8.078125 -11.566406 7.796875 -11.515625 L 6.90625 -11.296875 L 6.921875 -11.875 L 9.90625 -12.515625 L 7.921875 -1.234375 C 7.890625 -1.054688 7.894531 -0.90625 7.9375 -0.78125 C 7.976562 -0.65625 8.097656 -0.59375 8.296875 -0.59375 L 9.140625 -0.59375 L 9.03125 0 L 6.609375 0 L 6.734375 -0.96875 C 6.304688 -0.644531 5.84375 -0.367188 5.34375 -0.140625 C 4.851562 0.0859375 4.304688 0.203125 3.703125 0.203125 Z M 4.203125 -0.5 C 4.472656 -0.5 4.757812 -0.546875 5.0625 -0.640625 C 5.375 -0.734375 5.679688 -0.867188 5.984375 -1.046875 C 6.285156 -1.234375 6.5625 -1.472656 6.8125 -1.765625 L 7.546875 -6.03125 C 7.335938 -6.375 7.050781 -6.644531 6.6875 -6.84375 C 6.320312 -7.050781 5.90625 -7.15625 5.4375 -7.15625 C 5.007812 -7.15625 4.609375 -7.066406 4.234375 -6.890625 C 3.859375 -6.722656 3.519531 -6.484375 3.21875 -6.171875 C 2.914062 -5.867188 2.660156 -5.519531 2.453125 -5.125 C 2.253906 -4.726562 2.113281 -4.304688 2.03125 -3.859375 C 1.945312 -3.390625 1.9375 -2.953125 2 -2.546875 C 2.0625 -2.140625 2.1875 -1.78125 2.375 -1.46875 C 2.570312 -1.164062 2.820312 -0.925781 3.125 -0.75 C 3.4375 -0.582031 3.796875 -0.5 4.203125 -0.5 Z M 4.203125 -0.5 "/></g></g><g style="fill:#ffcccc;fill-opacity:1;"><g transform="translate(296.806413, 289.28692)"><path style="stroke:none" d="M 2.015625 0.1875 C 1.578125 0.1875 1.234375 0.113281 0.984375 -0.03125 C 0.742188 -0.1875 0.582031 -0.390625 0.5 -0.640625 C 0.425781 -0.898438 0.414062 -1.1875 0.46875 -1.5 C 0.539062 -1.914062 0.695312 -2.265625 0.9375 -2.546875 C 1.175781 -2.835938 1.472656 -3.09375 1.828125 -3.3125 C 2.179688 -3.53125 2.570312 -3.734375 3 -3.921875 L 6.34375 -5.421875 C 6.394531 -5.910156 6.375 -6.285156 6.28125 -6.546875 C 6.1875 -6.816406 6.015625 -7.003906 5.765625 -7.109375 C 5.515625 -7.222656 5.179688 -7.28125 4.765625 -7.28125 C 4.265625 -7.28125 3.851562 -7.210938 3.53125 -7.078125 C 3.21875 -6.941406 2.960938 -6.765625 2.765625 -6.546875 C 2.578125 -6.328125 2.421875 -6.097656 2.296875 -5.859375 C 2.234375 -5.722656 2.148438 -5.609375 2.046875 -5.515625 C 1.941406 -5.421875 1.804688 -5.378906 1.640625 -5.390625 C 1.472656 -5.398438 1.363281 -5.457031 1.3125 -5.5625 C 1.269531 -5.664062 1.269531 -5.789062 1.3125 -5.9375 C 1.40625 -6.15625 1.546875 -6.378906 1.734375 -6.609375 C 1.921875 -6.835938 2.164062 -7.046875 2.46875 -7.234375 C 2.769531 -7.421875 3.132812 -7.570312 3.5625 -7.6875 C 4 -7.800781 4.515625 -7.859375 5.109375 -7.859375 C 5.546875 -7.859375 5.929688 -7.816406 6.265625 -7.734375 C 6.609375 -7.660156 6.890625 -7.523438 7.109375 -7.328125 C 7.335938 -7.128906 7.488281 -6.859375 7.5625 -6.515625 C 7.632812 -6.171875 7.625 -5.738281 7.53125 -5.21875 L 6.9375 -2.015625 C 6.84375 -1.492188 6.835938 -1.117188 6.921875 -0.890625 C 7.003906 -0.660156 7.164062 -0.546875 7.40625 -0.546875 C 7.613281 -0.546875 7.800781 -0.632812 7.96875 -0.8125 C 8.132812 -1 8.253906 -1.296875 8.328125 -1.703125 L 8.84375 -1.703125 C 8.726562 -1.078125 8.5 -0.613281 8.15625 -0.3125 C 7.8125 -0.0078125 7.398438 0.140625 6.921875 0.140625 C 6.429688 0.140625 6.097656 -0.0078125 5.921875 -0.3125 C 5.753906 -0.613281 5.691406 -1.0625 5.734375 -1.65625 C 5.148438 -1.101562 4.535156 -0.65625 3.890625 -0.3125 C 3.253906 0.0195312 2.628906 0.1875 2.015625 0.1875 Z M 2.59375 -0.5 C 3.070312 -0.5 3.585938 -0.660156 4.140625 -0.984375 C 4.703125 -1.316406 5.253906 -1.78125 5.796875 -2.375 L 6.25 -4.8125 L 3.1875 -3.34375 C 2.832031 -3.175781 2.550781 -3.003906 2.34375 -2.828125 C 2.132812 -2.648438 1.976562 -2.46875 1.875 -2.28125 C 1.769531 -2.101562 1.703125 -1.910156 1.671875 -1.703125 C 1.609375 -1.316406 1.65625 -1.019531 1.8125 -0.8125 C 1.96875 -0.601562 2.226562 -0.5 2.59375 -0.5 Z M 2.59375 -0.5 "/></g></g><g style="fill:#ffcccc;fill-opacity:1;"><g transform="translate(307.508582, 289.28692)"><path style="stroke:none" d="M 4.296875 0.21875 C 3.515625 0.21875 2.9375 -0.00390625 2.5625 -0.453125 C 2.195312 -0.910156 2.085938 -1.59375 2.234375 -2.5 L 3.046875 -7.0625 L 1.21875 -7.0625 L 1.3125 -7.640625 L 2.53125 -7.640625 C 2.90625 -7.640625 3.226562 -7.75 3.5 -7.96875 C 3.78125 -8.1875 3.953125 -8.488281 4.015625 -8.875 L 4.265625 -10.296875 L 4.828125 -10.296875 L 4.34375 -7.640625 L 7.34375 -7.640625 L 7.25 -7.0625 L 4.25 -7.0625 L 3.46875 -2.65625 C 3.34375 -1.9375 3.382812 -1.390625 3.59375 -1.015625 C 3.800781 -0.640625 4.1875 -0.453125 4.75 -0.453125 C 5.09375 -0.453125 5.40625 -0.523438 5.6875 -0.671875 C 5.976562 -0.816406 6.234375 -1.046875 6.453125 -1.359375 L 6.90625 -1.125 C 6.695312 -0.789062 6.445312 -0.523438 6.15625 -0.328125 C 5.863281 -0.128906 5.554688 0.0078125 5.234375 0.09375 C 4.910156 0.175781 4.597656 0.21875 4.296875 0.21875 Z M 4.296875 0.21875 "/></g></g><g style="fill:#ffcccc;fill-opacity:1;"><g transform="translate(316.323847, 289.28692)"><path style="stroke:none" d="M 4.140625 -10.40625 C 3.941406 -10.40625 3.78125 -10.457031 3.65625 -10.5625 C 3.539062 -10.664062 3.460938 -10.796875 3.421875 -10.953125 C 3.378906 -11.109375 3.367188 -11.265625 3.390625 -11.421875 C 3.441406 -11.648438 3.5625 -11.84375 3.75 -12 C 3.945312 -12.15625 4.164062 -12.234375 4.40625 -12.234375 C 4.664062 -12.234375 4.863281 -12.128906 5 -11.921875 C 5.144531 -11.722656 5.195312 -11.488281 5.15625 -11.21875 C 5.101562 -10.957031 4.972656 -10.753906 4.765625 -10.609375 C 4.566406 -10.472656 4.359375 -10.40625 4.140625 -10.40625 Z M -0.1875 0 L -0.0625 -0.578125 L 0.828125 -0.578125 C 1.097656 -0.578125 1.300781 -0.648438 1.4375 -0.796875 C 1.570312 -0.941406 1.664062 -1.148438 1.71875 -1.421875 L 2.65625 -6.25 C 2.71875 -6.53125 2.703125 -6.722656 2.609375 -6.828125 C 2.523438 -6.941406 2.34375 -6.976562 2.0625 -6.9375 L 1.125 -6.71875 L 1.171875 -7.28125 L 4.203125 -7.921875 L 2.921875 -1.3125 C 2.878906 -1.070312 2.882812 -0.890625 2.9375 -0.765625 C 3 -0.640625 3.160156 -0.578125 3.421875 -0.578125 L 4.203125 -0.578125 L 4.09375 0 Z M -0.1875 0 "/></g></g><g style="fill:#ffcccc;fill-opacity:1;"><g transform="translate(322.412637, 289.28692)"><path style="stroke:none" d="M 4 0.21875 C 3.8125 0.21875 3.585938 0.195312 3.328125 0.15625 C 3.078125 0.113281 2.8125 0.0390625 2.53125 -0.0625 C 2.257812 -0.164062 2 -0.3125 1.75 -0.5 C 1.5 -0.695312 1.28125 -0.945312 1.09375 -1.25 C 0.914062 -1.550781 0.796875 -1.914062 0.734375 -2.34375 C 0.671875 -2.769531 0.6875 -3.265625 0.78125 -3.828125 C 0.882812 -4.421875 1.054688 -4.9375 1.296875 -5.375 C 1.535156 -5.820312 1.816406 -6.203125 2.140625 -6.515625 C 2.472656 -6.828125 2.828125 -7.082031 3.203125 -7.28125 C 3.578125 -7.476562 3.953125 -7.625 4.328125 -7.71875 C 4.710938 -7.8125 5.078125 -7.859375 5.421875 -7.859375 C 5.742188 -7.859375 6.078125 -7.8125 6.421875 -7.71875 C 6.765625 -7.632812 7.085938 -7.492188 7.390625 -7.296875 C 7.703125 -7.109375 7.96875 -6.859375 8.1875 -6.546875 C 8.414062 -6.234375 8.570312 -5.851562 8.65625 -5.40625 C 8.75 -4.957031 8.742188 -4.429688 8.640625 -3.828125 C 8.523438 -3.191406 8.335938 -2.640625 8.078125 -2.171875 C 7.816406 -1.703125 7.507812 -1.3125 7.15625 -1 C 6.8125 -0.695312 6.445312 -0.453125 6.0625 -0.265625 C 5.6875 -0.0859375 5.316406 0.0351562 4.953125 0.109375 C 4.585938 0.179688 4.269531 0.21875 4 0.21875 Z M 4.109375 -0.359375 C 4.390625 -0.359375 4.695312 -0.421875 5.03125 -0.546875 C 5.363281 -0.679688 5.6875 -0.890625 6 -1.171875 C 6.3125 -1.453125 6.59375 -1.8125 6.84375 -2.25 C 7.09375 -2.6875 7.269531 -3.210938 7.375 -3.828125 C 7.507812 -4.554688 7.5 -5.175781 7.34375 -5.6875 C 7.195312 -6.207031 6.945312 -6.601562 6.59375 -6.875 C 6.238281 -7.144531 5.816406 -7.28125 5.328125 -7.28125 C 4.835938 -7.28125 4.363281 -7.140625 3.90625 -6.859375 C 3.457031 -6.585938 3.066406 -6.195312 2.734375 -5.6875 C 2.410156 -5.175781 2.1875 -4.570312 2.0625 -3.875 C 1.945312 -3.25 1.929688 -2.710938 2.015625 -2.265625 C 2.109375 -1.816406 2.265625 -1.453125 2.484375 -1.171875 C 2.703125 -0.898438 2.953125 -0.695312 3.234375 -0.5625 C 3.523438 -0.425781 3.816406 -0.359375 4.109375 -0.359375 Z M 4.109375 -0.359375 "/></g></g><g style="fill:#ffcccc;fill-opacity:1;"><g transform="translate(332.762683, 289.28692)"><path style="stroke:none" d="M 0.09375 0 L 0.1875 -0.578125 L 1.078125 -0.578125 C 1.347656 -0.578125 1.539062 -0.644531 1.65625 -0.78125 C 1.78125 -0.925781 1.867188 -1.117188 1.921875 -1.359375 L 2.75 -6.140625 C 2.800781 -6.378906 2.785156 -6.570312 2.703125 -6.71875 C 2.617188 -6.863281 2.441406 -6.914062 2.171875 -6.875 L 1.265625 -6.65625 L 1.296875 -7.234375 L 4.28125 -7.890625 L 3.84375 -5.453125 C 4.070312 -5.765625 4.328125 -6.0625 4.609375 -6.34375 C 4.890625 -6.632812 5.1875 -6.894531 5.5 -7.125 C 5.820312 -7.351562 6.148438 -7.53125 6.484375 -7.65625 C 6.828125 -7.789062 7.164062 -7.859375 7.5 -7.859375 C 8.332031 -7.859375 8.921875 -7.628906 9.265625 -7.171875 C 9.609375 -6.710938 9.691406 -5.992188 9.515625 -5.015625 L 8.875 -1.359375 C 8.78125 -0.835938 8.957031 -0.578125 9.40625 -0.578125 L 10.265625 -0.578125 L 10.171875 0 L 5.8125 0 L 5.90625 -0.578125 L 6.90625 -0.578125 C 7.125 -0.578125 7.296875 -0.648438 7.421875 -0.796875 C 7.546875 -0.941406 7.632812 -1.132812 7.6875 -1.375 L 8.3125 -4.984375 C 8.4375 -5.703125 8.40625 -6.234375 8.21875 -6.578125 C 8.03125 -6.929688 7.625 -7.109375 7 -7.109375 C 6.664062 -7.109375 6.335938 -7.019531 6.015625 -6.84375 C 5.691406 -6.664062 5.378906 -6.4375 5.078125 -6.15625 C 4.773438 -5.875 4.5 -5.566406 4.25 -5.234375 C 4.007812 -4.910156 3.804688 -4.597656 3.640625 -4.296875 L 3.125 -1.359375 C 3.082031 -1.140625 3.09375 -0.953125 3.15625 -0.796875 C 3.226562 -0.648438 3.367188 -0.578125 3.578125 -0.578125 L 4.546875 -0.578125 L 4.453125 0 Z M 0.09375 0 "/></g></g></g></svg>