<svg xmlns="http://www.w3.org/2000/svg" xmlns:xlink="http://www.w3.org/1999/xlink" width="5000" zoomAndPan="magnify" viewBox="0 0 3750 3749.999967" height="5000" preserveAspectRatio="xMidYMid meet" version="1.2"><defs><clipPath id="a16b7ae930"><path d="M 328 138.484375 L 3427 138.484375 L 3427 3741.890625 L 328 3741.890625 Z M 328 138.484375 "/></clipPath><clipPath id="7e2c8df735"><path d="M 3426.480469 245.207031 C 2897.269531 657.023438 2527.511719 1011.714844 2317.207031 1308.648438 C 2118.832031 1588.636719 2065.472656 1811.496094 2156.5 1977.226562 L 2158.382812 1981.621094 C 2241.875 2163.046875 2282.050781 2330.035156 2279.542969 2482.582031 C 2277.65625 2598.71875 2264.476562 2714.230469 2199.8125 2804 C 1929.871094 3179.40625 1776.070312 3627.007812 1870.863281 3741.890625 C 1799.925781 3656.515625 1796.785156 3476.34375 1831.3125 3296.171875 C 1899.738281 2936.460938 2140.175781 2763.824219 2145.199219 2480.070312 C 2147.710938 2348.238281 2111.296875 2201.339844 2037.222656 2039.375 C 1921.082031 1824.675781 1977.582031 1555.363281 2207.976562 1230.179688 C 2426.441406 921.941406 2861.484375 512.636719 3426.480469 245.207031 Z M 1299.589844 1647.019531 C 1074.222656 1216.367188 727.691406 1164.890625 464.027344 840.332031 C 473.445312 1257.800781 538.730469 1560.386719 660.519531 1749.34375 C 792.980469 1955.253906 1034.671875 2150.492188 1315.914062 2074.53125 C 1152.691406 2206.992188 954.945312 2196.945312 838.179688 2115.964844 C 789.839844 2213.269531 773.519531 2279.183594 754.683594 2386.53125 C 735.851562 2491.371094 731.457031 2598.09375 742.757812 2704.8125 C 880.867188 2713.601562 1257.53125 2497.019531 1282.640625 2450.566406 C 1164.621094 2673.425781 943.015625 2822.835938 692.535156 2849.828125 L 629.132812 2856.734375 L 618.460938 2792.699219 C 595.230469 2648.941406 596.488281 2503.296875 621.597656 2362.675781 C 642.941406 2244.027344 681.238281 2127.890625 735.226562 2018.660156 C 663.03125 1971.578125 600.253906 1905.660156 546.894531 1822.167969 C 389.324219 1577.335938 317.128906 1172.421875 329.683594 606.800781 L 335.335938 367.621094 C 490.394531 915.039062 1227.398438 1103.367188 1299.589844 1647.019531 Z M 1853.914062 455.507812 C 2004.578125 455.507812 2126.367188 577.296875 2126.367188 727.960938 C 2126.367188 878.625 2004.578125 1000.414062 1853.914062 1000.414062 C 1703.246094 1000.414062 1581.460938 878.625 1581.460938 727.960938 C 1581.460938 577.296875 1703.246094 455.507812 1853.914062 455.507812 Z M 2386.261719 1647.019531 C 2611.632812 1216.367188 2958.160156 1164.890625 3221.824219 840.332031 C 3212.410156 1257.800781 3147.121094 1560.386719 3025.332031 1749.34375 C 2892.875 1955.253906 2651.183594 2150.492188 2369.941406 2074.53125 C 2533.160156 2206.992188 2730.910156 2196.945312 2847.675781 2115.964844 C 2896.011719 2213.269531 2912.335938 2279.183594 2931.167969 2386.53125 C 2950 2491.371094 2954.394531 2598.09375 2943.09375 2704.8125 C 2804.984375 2713.601562 2428.324219 2497.019531 2403.210938 2450.566406 C 2521.234375 2673.425781 2742.835938 2822.835938 2993.316406 2849.828125 L 3056.722656 2856.734375 L 3066.765625 2793.328125 C 3089.996094 2649.570312 3088.738281 2503.925781 3063.628906 2363.304688 C 3042.285156 2244.65625 3003.988281 2128.519531 2950 2019.289062 C 3022.195312 1972.203125 3084.972656 1906.289062 3138.332031 1822.792969 C 3295.902344 1577.964844 3368.097656 1172.425781 3355.542969 607.429688 L 3349.890625 368.25 C 3195.460938 915.039062 2458.457031 1103.367188 2386.261719 1647.019531 Z M 393.089844 138.484375 C 770.378906 517.03125 2044.753906 1404.070312 1699.480469 2040.003906 C 1624.777344 2201.96875 1588.992188 2348.867188 1591.503906 2480.699219 C 1570.160156 3001.75 2039.105469 2795.210938 1624.777344 3390.339844 L 1625.402344 3378.410156 C 1868.351562 3085.871094 1462.8125 2836.015625 1456.535156 2483.210938 C 1454.023438 2330.035156 1494.199219 2163.046875 1577.695312 1982.25 L 1579.578125 1977.855469 C 1841.984375 1500.746094 677.46875 541.515625 393.089844 138.484375 Z M 393.089844 138.484375 "/></clipPath><clipPath id="d200f616dd"><path d="M 2232 0.136719 L 2736.914062 0.136719 L 2736.914062 504 L 2232 504 Z M 2232 0.136719 "/></clipPath><clipPath id="553110102b"><path d="M 2229.03125 408 L 2485 408 L 2485 663.375 L 2229.03125 663.375 Z M 2229.03125 408 "/></clipPath></defs><g id="921a93dacc"><path style=" stroke:none;fill-rule:nonzero;fill:#ffbed3;fill-opacity:1;" d="M 3426.480469 245.207031 C 2897.269531 657.023438 2527.511719 1011.714844 2317.207031 1308.648438 C 2118.832031 1588.636719 2065.472656 1811.496094 2156.5 1977.226562 L 2158.382812 1981.621094 C 2241.875 2163.046875 2282.050781 2330.035156 2279.542969 2482.582031 C 2277.65625 2598.71875 2264.476562 2714.230469 2199.8125 2804 C 1929.871094 3179.40625 1776.070312 3627.007812 1870.863281 3741.890625 C 1799.925781 3656.515625 1796.785156 3476.34375 1831.3125 3296.171875 C 1899.738281 2936.460938 2140.175781 2763.824219 2145.199219 2480.070312 C 2147.710938 2348.238281 2111.296875 2201.339844 2037.222656 2039.375 C 1921.082031 1824.679688 1977.582031 1555.363281 2207.976562 1230.179688 C 2426.441406 921.941406 2861.484375 512.636719 3426.480469 245.207031 Z M 1299.589844 1647.019531 C 1074.222656 1216.367188 727.691406 1164.890625 464.027344 840.332031 C 473.445312 1257.800781 538.730469 1560.386719 660.519531 1749.34375 C 792.980469 1955.253906 1034.671875 2150.492188 1315.914062 2074.53125 C 1152.691406 2206.992188 954.945312 2196.945312 838.179688 2115.964844 C 789.839844 2213.269531 773.519531 2279.183594 754.683594 2386.53125 C 735.851562 2491.371094 731.457031 2598.09375 742.757812 2704.8125 C 880.867188 2713.601562 1257.53125 2497.019531 1282.640625 2450.566406 C 1164.621094 2673.425781 943.015625 2822.832031 692.535156 2849.828125 L 629.132812 2856.734375 L 618.460938 2792.699219 C 595.230469 2648.941406 596.488281 2503.296875 621.597656 2362.675781 C 642.941406 2244.027344 681.238281 2127.890625 735.226562 2018.660156 C 663.03125 1971.578125 600.253906 1905.660156 546.894531 1822.167969 C 389.324219 1577.335938 317.128906 1172.421875 329.683594 606.800781 L 335.335938 367.621094 C 490.394531 915.039062 1227.398438 1103.367188 1299.589844 1647.019531 Z M 1853.914062 455.507812 C 2004.578125 455.507812 2126.367188 577.296875 2126.367188 727.960938 C 2126.367188 878.625 2004.578125 1000.414062 1853.914062 1000.414062 C 1703.246094 1000.414062 1581.460938 878.625 1581.460938 727.960938 C 1581.460938 577.296875 1703.246094 455.507812 1853.914062 455.507812 Z M 2386.261719 1647.019531 C 2611.632812 1216.367188 2958.160156 1164.890625 3221.824219 840.332031 C 3212.410156 1257.800781 3147.121094 1560.386719 3025.332031 1749.34375 C 2892.875 1955.253906 2651.183594 2150.492188 2369.941406 2074.53125 C 2533.160156 2206.992188 2730.910156 2196.945312 2847.675781 2115.964844 C 2896.011719 2213.269531 2912.335938 2279.183594 2931.167969 2386.53125 C 2950 2491.371094 2954.394531 2598.09375 2943.09375 2704.8125 C 2804.984375 2713.601562 2428.324219 2497.019531 2403.210938 2450.566406 C 2521.234375 2673.425781 2742.835938 2822.832031 2993.316406 2849.828125 L 3056.722656 2856.734375 L 3066.765625 2793.328125 C 3089.996094 2649.570312 3088.738281 2503.925781 3063.628906 2363.304688 C 3042.285156 2244.65625 3003.988281 2128.519531 2950 2019.289062 C 3022.195312 1972.203125 3084.972656 1906.289062 3138.332031 1822.792969 C 3295.902344 1577.964844 3368.097656 1172.425781 3355.542969 607.429688 L 3349.890625 368.25 C 3195.460938 915.039062 2458.457031 1103.367188 2386.261719 1647.019531 Z M 393.089844 138.484375 C 770.378906 517.03125 2044.753906 1404.070312 1699.480469 2040.003906 C 1624.777344 2201.96875 1588.992188 2348.867188 1591.503906 2480.699219 C 1570.160156 3001.75 2039.105469 2795.210938 1624.777344 3390.339844 L 1625.402344 3378.410156 C 1868.351562 3085.871094 1462.8125 2836.015625 1456.535156 2483.210938 C 1454.023438 2330.035156 1494.199219 2163.046875 1577.695312 1982.25 L 1579.578125 1977.855469 C 1841.984375 1500.746094 677.46875 541.515625 393.089844 138.484375 Z M 393.089844 138.484375 "/><g clip-rule="nonzero" clip-path="url(#a16b7ae930)"><g clip-rule="nonzero" clip-path="url(#7e2c8df735)"><path style=" stroke:none;fill-rule:nonzero;fill:#ffbed3;fill-opacity:1;" d="M 317.128906 138.484375 L 3426.480469 138.484375 L 3426.480469 3741.890625 L 317.128906 3741.890625 Z M 317.128906 138.484375 "/></g></g><g clip-rule="nonzero" clip-path="url(#d200f616dd)"><path style=" stroke:none;fill-rule:nonzero;fill:#ffe8e8;fill-opacity:1;" d="M 2601.582031 258.078125 C 2599.824219 258.269531 2598.074219 258.496094 2596.328125 258.761719 C 2594.582031 259.027344 2592.84375 259.332031 2591.109375 259.667969 C 2589.378906 260.007812 2587.652344 260.386719 2585.933594 260.796875 C 2584.21875 261.210938 2582.511719 261.65625 2580.8125 262.140625 C 2579.113281 262.625 2577.425781 263.148438 2575.75 263.703125 C 2574.074219 264.257812 2572.410156 264.847656 2570.757812 265.476562 C 2569.109375 266.101562 2567.472656 266.761719 2565.847656 267.457031 C 2564.222656 268.152344 2562.617188 268.882812 2561.023438 269.648438 C 2559.433594 270.410156 2557.855469 271.207031 2556.296875 272.035156 C 2554.738281 272.867188 2553.199219 273.730469 2551.675781 274.625 C 2550.152344 275.519531 2548.652344 276.449219 2547.167969 277.40625 C 2545.6875 278.363281 2544.222656 279.355469 2542.78125 280.375 C 2541.339844 281.394531 2539.921875 282.445312 2538.527344 283.527344 C 2537.128906 284.609375 2535.757812 285.71875 2534.40625 286.855469 C 2533.054688 287.996094 2531.730469 289.164062 2530.429688 290.355469 C 2529.128906 291.550781 2527.855469 292.773438 2526.605469 294.023438 C 2525.359375 295.269531 2524.136719 296.546875 2522.941406 297.847656 C 2521.746094 299.144531 2520.582031 300.472656 2519.441406 301.820312 C 2518.304688 303.171875 2517.191406 304.542969 2516.113281 305.941406 C 2515.03125 307.335938 2513.980469 308.757812 2512.960938 310.199219 C 2511.941406 311.636719 2510.949219 313.101562 2509.992188 314.582031 C 2509.03125 316.066406 2508.105469 317.570312 2507.210938 319.089844 C 2506.316406 320.613281 2505.453125 322.152344 2504.621094 323.710938 C 2503.792969 325.273438 2502.996094 326.847656 2502.230469 328.4375 C 2501.46875 330.03125 2500.738281 331.640625 2500.042969 333.261719 C 2499.347656 334.886719 2498.6875 336.523438 2498.0625 338.175781 C 2497.433594 339.824219 2496.84375 341.488281 2496.289062 343.164062 C 2495.730469 344.839844 2495.210938 346.527344 2494.726562 348.226562 C 2494.242188 349.925781 2493.792969 351.632812 2493.382812 353.351562 C 2492.96875 355.066406 2492.59375 356.792969 2492.253906 358.527344 C 2491.914062 360.257812 2491.613281 361.996094 2491.347656 363.742188 C 2491.082031 365.488281 2490.851562 367.242188 2490.660156 368.996094 C 2486.195312 413.800781 2484.148438 458.710938 2484.519531 503.734375 C 2484.886719 458.710938 2482.839844 413.800781 2478.375 368.996094 C 2478.183594 367.242188 2477.957031 365.488281 2477.691406 363.742188 C 2477.425781 362 2477.121094 360.257812 2476.78125 358.527344 C 2476.441406 356.792969 2476.066406 355.066406 2475.65625 353.351562 C 2475.242188 351.632812 2474.792969 349.925781 2474.308594 348.226562 C 2473.824219 346.527344 2473.304688 344.84375 2472.75 343.164062 C 2472.195312 341.488281 2471.601562 339.824219 2470.976562 338.175781 C 2470.351562 336.523438 2469.6875 334.886719 2468.992188 333.261719 C 2468.296875 331.640625 2467.570312 330.03125 2466.804688 328.441406 C 2466.042969 326.847656 2465.246094 325.273438 2464.414062 323.714844 C 2463.585938 322.15625 2462.722656 320.613281 2461.828125 319.09375 C 2460.929688 317.570312 2460.003906 316.066406 2459.046875 314.585938 C 2458.085938 313.101562 2457.097656 311.640625 2456.078125 310.199219 C 2455.054688 308.757812 2454.003906 307.339844 2452.925781 305.941406 C 2451.84375 304.542969 2450.734375 303.171875 2449.59375 301.820312 C 2448.457031 300.472656 2447.289062 299.148438 2446.09375 297.847656 C 2444.898438 296.546875 2443.679688 295.273438 2442.429688 294.023438 C 2441.179688 292.773438 2439.90625 291.550781 2438.605469 290.359375 C 2437.304688 289.164062 2435.980469 287.996094 2434.628906 286.855469 C 2433.28125 285.71875 2431.90625 284.609375 2430.511719 283.527344 C 2429.113281 282.449219 2427.695312 281.398438 2426.253906 280.375 C 2424.8125 279.355469 2423.351562 278.367188 2421.867188 277.40625 C 2420.386719 276.449219 2418.882812 275.519531 2417.359375 274.625 C 2415.839844 273.730469 2414.296875 272.867188 2412.738281 272.039062 C 2411.179688 271.207031 2409.605469 270.410156 2408.011719 269.648438 C 2406.421875 268.882812 2404.8125 268.15625 2403.1875 267.457031 C 2401.566406 266.761719 2399.929688 266.101562 2398.277344 265.476562 C 2396.625 264.851562 2394.960938 264.257812 2393.285156 263.703125 C 2391.609375 263.148438 2389.921875 262.628906 2388.226562 262.140625 C 2386.527344 261.65625 2384.820312 261.210938 2383.101562 260.796875 C 2381.386719 260.386719 2379.660156 260.007812 2377.925781 259.671875 C 2376.195312 259.332031 2374.453125 259.027344 2372.707031 258.761719 C 2370.960938 258.496094 2369.210938 258.269531 2367.457031 258.078125 C 2322.652344 253.613281 2277.738281 251.566406 2232.71875 251.933594 C 2277.742188 252.304688 2322.652344 250.257812 2367.457031 245.792969 C 2369.210938 245.601562 2370.960938 245.371094 2372.707031 245.105469 C 2374.453125 244.839844 2376.195312 244.539062 2377.925781 244.199219 C 2379.660156 243.859375 2381.386719 243.484375 2383.101562 243.070312 C 2384.820312 242.660156 2386.527344 242.210938 2388.226562 241.726562 C 2389.921875 241.242188 2391.609375 240.722656 2393.285156 240.164062 C 2394.964844 239.609375 2396.625 239.019531 2398.277344 238.390625 C 2399.929688 237.765625 2401.566406 237.105469 2403.191406 236.410156 C 2404.8125 235.714844 2406.421875 234.984375 2408.011719 234.222656 C 2409.605469 233.457031 2411.179688 232.660156 2412.738281 231.832031 C 2414.296875 231 2415.839844 230.140625 2417.363281 229.242188 C 2418.882812 228.347656 2420.386719 227.421875 2421.871094 226.460938 C 2423.351562 225.503906 2424.8125 224.515625 2426.253906 223.492188 C 2427.695312 222.472656 2429.117188 221.421875 2430.511719 220.339844 C 2431.910156 219.261719 2433.28125 218.152344 2434.632812 217.011719 C 2435.980469 215.875 2437.308594 214.707031 2438.605469 213.511719 C 2439.90625 212.316406 2441.183594 211.097656 2442.429688 209.847656 C 2443.679688 208.597656 2444.902344 207.324219 2446.097656 206.023438 C 2447.292969 204.722656 2448.457031 203.398438 2449.597656 202.046875 C 2450.734375 200.699219 2451.84375 199.324219 2452.925781 197.929688 C 2454.007812 196.53125 2455.058594 195.113281 2456.078125 193.671875 C 2457.097656 192.230469 2458.089844 190.769531 2459.046875 189.285156 C 2460.007812 187.804688 2460.933594 186.300781 2461.828125 184.777344 C 2462.722656 183.257812 2463.585938 181.714844 2464.417969 180.15625 C 2465.246094 178.597656 2466.042969 177.023438 2466.808594 175.429688 C 2467.570312 173.839844 2468.300781 172.230469 2468.996094 170.605469 C 2469.691406 168.984375 2470.351562 167.347656 2470.980469 165.695312 C 2471.605469 164.042969 2472.195312 162.382812 2472.753906 160.703125 C 2473.308594 159.027344 2473.828125 157.339844 2474.3125 155.644531 C 2474.796875 153.945312 2475.246094 152.238281 2475.65625 150.519531 C 2476.070312 148.804688 2476.445312 147.078125 2476.785156 145.34375 C 2477.125 143.613281 2477.425781 141.871094 2477.691406 140.125 C 2477.957031 138.378906 2478.1875 136.628906 2478.378906 134.875 C 2482.84375 90.070312 2484.890625 45.160156 2484.523438 0.136719 C 2484.152344 45.160156 2486.199219 90.070312 2490.664062 134.875 C 2490.855469 136.628906 2491.085938 138.378906 2491.351562 140.125 C 2491.617188 141.871094 2491.917969 143.613281 2492.257812 145.34375 C 2492.597656 147.078125 2492.972656 148.800781 2493.386719 150.519531 C 2493.796875 152.238281 2494.246094 153.945312 2494.730469 155.644531 C 2495.214844 157.339844 2495.734375 159.027344 2496.289062 160.703125 C 2496.847656 162.378906 2497.4375 164.042969 2498.0625 165.695312 C 2498.691406 167.347656 2499.351562 168.984375 2500.046875 170.605469 C 2500.742188 172.230469 2501.472656 173.835938 2502.234375 175.429688 C 2502.996094 177.023438 2503.792969 178.597656 2504.625 180.15625 C 2505.453125 181.714844 2506.316406 183.253906 2507.210938 184.777344 C 2508.109375 186.300781 2509.035156 187.800781 2509.992188 189.285156 C 2510.953125 190.769531 2511.941406 192.230469 2512.964844 193.671875 C 2513.984375 195.113281 2515.035156 196.53125 2516.113281 197.929688 C 2517.195312 199.324219 2518.304688 200.699219 2519.445312 202.046875 C 2520.582031 203.398438 2521.75 204.722656 2522.945312 206.023438 C 2524.140625 207.324219 2525.359375 208.597656 2526.609375 209.847656 C 2527.859375 211.09375 2529.132812 212.316406 2530.433594 213.511719 C 2531.734375 214.707031 2533.058594 215.871094 2534.40625 217.011719 C 2535.757812 218.148438 2537.132812 219.261719 2538.527344 220.339844 C 2539.925781 221.421875 2541.34375 222.472656 2542.785156 223.492188 C 2544.226562 224.511719 2545.6875 225.503906 2547.171875 226.460938 C 2548.652344 227.421875 2550.15625 228.347656 2551.679688 229.242188 C 2553.199219 230.136719 2554.742188 231 2556.300781 231.832031 C 2557.859375 232.660156 2559.433594 233.457031 2561.027344 234.222656 C 2562.617188 234.984375 2564.226562 235.714844 2565.847656 236.410156 C 2567.472656 237.105469 2569.109375 237.765625 2570.761719 238.390625 C 2572.410156 239.019531 2574.074219 239.609375 2575.75 240.164062 C 2577.425781 240.71875 2579.113281 241.242188 2580.8125 241.726562 C 2582.511719 242.210938 2584.21875 242.65625 2585.9375 243.070312 C 2587.652344 243.484375 2589.378906 243.859375 2591.109375 244.199219 C 2592.84375 244.535156 2594.582031 244.839844 2596.328125 245.105469 C 2598.074219 245.371094 2599.824219 245.597656 2601.582031 245.792969 C 2646.382812 250.257812 2691.296875 252.304688 2736.320312 251.933594 C 2691.296875 251.566406 2646.382812 253.613281 2601.582031 258.078125 Z M 2601.582031 258.078125 "/></g><g clip-rule="nonzero" clip-path="url(#553110102b)"><path style=" stroke:none;fill-rule:nonzero;fill:#ffe8e8;fill-opacity:1;" d="M 2416.335938 539.199219 C 2414.558594 539.390625 2412.792969 539.660156 2411.039062 540.003906 C 2409.28125 540.347656 2407.546875 540.765625 2405.828125 541.257812 C 2404.105469 541.746094 2402.410156 542.308594 2400.738281 542.941406 C 2399.066406 543.578125 2397.425781 544.28125 2395.8125 545.054688 C 2394.199219 545.828125 2392.625 546.667969 2391.082031 547.574219 C 2389.542969 548.480469 2388.042969 549.449219 2386.582031 550.484375 C 2385.121094 551.515625 2383.710938 552.609375 2382.34375 553.761719 C 2380.976562 554.917969 2379.660156 556.125 2378.398438 557.390625 C 2377.132812 558.652344 2375.921875 559.96875 2374.769531 561.335938 C 2373.617188 562.703125 2372.523438 564.113281 2371.492188 565.574219 C 2370.457031 567.035156 2369.488281 568.535156 2368.582031 570.074219 C 2367.675781 571.617188 2366.835938 573.191406 2366.0625 574.804688 C 2365.289062 576.417969 2364.585938 578.058594 2363.949219 579.730469 C 2363.316406 581.402344 2362.753906 583.097656 2362.261719 584.820312 C 2361.773438 586.539062 2361.355469 588.273438 2361.011719 590.03125 C 2360.667969 591.785156 2360.398438 593.550781 2360.207031 595.328125 C 2357.949219 618 2356.914062 640.726562 2357.097656 663.511719 C 2357.285156 640.726562 2356.25 618 2353.992188 595.328125 C 2353.796875 593.550781 2353.527344 591.785156 2353.183594 590.03125 C 2352.839844 588.273438 2352.425781 586.539062 2351.933594 584.820312 C 2351.441406 583.097656 2350.878906 581.402344 2350.246094 579.730469 C 2349.613281 578.058594 2348.910156 576.417969 2348.136719 574.804688 C 2347.363281 573.191406 2346.523438 571.617188 2345.617188 570.074219 C 2344.710938 568.535156 2343.738281 567.035156 2342.707031 565.574219 C 2341.671875 564.113281 2340.578125 562.703125 2339.425781 561.335938 C 2338.273438 559.96875 2337.066406 558.652344 2335.800781 557.390625 C 2334.535156 556.125 2333.21875 554.914062 2331.855469 553.761719 C 2330.488281 552.609375 2329.074219 551.515625 2327.613281 550.484375 C 2326.15625 549.449219 2324.65625 548.480469 2323.113281 547.574219 C 2321.574219 546.667969 2319.996094 545.828125 2318.382812 545.054688 C 2316.773438 544.28125 2315.128906 543.578125 2313.457031 542.941406 C 2311.785156 542.308594 2310.089844 541.746094 2308.371094 541.257812 C 2306.652344 540.765625 2304.914062 540.347656 2303.160156 540.003906 C 2301.40625 539.660156 2299.636719 539.390625 2297.859375 539.199219 C 2275.1875 536.9375 2252.460938 535.902344 2229.675781 536.089844 C 2252.460938 536.277344 2275.1875 535.242188 2297.859375 532.980469 C 2299.636719 532.785156 2301.40625 532.519531 2303.160156 532.175781 C 2304.914062 531.832031 2306.652344 531.414062 2308.371094 530.921875 C 2310.089844 530.433594 2311.785156 529.871094 2313.457031 529.238281 C 2315.128906 528.601562 2316.773438 527.898438 2318.382812 527.125 C 2319.996094 526.351562 2321.574219 525.511719 2323.113281 524.605469 C 2324.65625 523.699219 2326.15625 522.730469 2327.617188 521.695312 C 2329.074219 520.664062 2330.488281 519.570312 2331.855469 518.417969 C 2333.222656 517.261719 2334.535156 516.054688 2335.800781 514.789062 C 2337.066406 513.527344 2338.273438 512.210938 2339.425781 510.84375 C 2340.582031 509.476562 2341.671875 508.0625 2342.707031 506.605469 C 2343.742188 505.144531 2344.710938 503.644531 2345.617188 502.105469 C 2346.523438 500.5625 2347.363281 498.984375 2348.136719 497.375 C 2348.910156 495.761719 2349.613281 494.121094 2350.246094 492.449219 C 2350.882812 490.777344 2351.445312 489.078125 2351.933594 487.359375 C 2352.425781 485.640625 2352.839844 483.902344 2353.183594 482.148438 C 2353.527344 480.394531 2353.796875 478.628906 2353.992188 476.851562 C 2356.25 454.179688 2357.285156 431.449219 2357.097656 408.667969 C 2356.914062 431.449219 2357.949219 454.179688 2360.207031 476.851562 C 2360.398438 478.628906 2360.667969 480.394531 2361.011719 482.148438 C 2361.355469 483.902344 2361.773438 485.640625 2362.261719 487.359375 C 2362.753906 489.078125 2363.316406 490.777344 2363.949219 492.449219 C 2364.585938 494.121094 2365.289062 495.761719 2366.0625 497.375 C 2366.832031 498.984375 2367.671875 500.5625 2368.582031 502.105469 C 2369.488281 503.644531 2370.457031 505.144531 2371.488281 506.605469 C 2372.523438 508.0625 2373.617188 509.476562 2374.769531 510.84375 C 2375.921875 512.210938 2377.132812 513.527344 2378.394531 514.789062 C 2379.660156 516.054688 2380.976562 517.261719 2382.34375 518.417969 C 2383.710938 519.570312 2385.121094 520.664062 2386.582031 521.695312 C 2388.039062 522.730469 2389.539062 523.699219 2391.082031 524.605469 C 2392.625 525.511719 2394.199219 526.351562 2395.8125 527.125 C 2397.425781 527.898438 2399.066406 528.601562 2400.738281 529.238281 C 2402.410156 529.871094 2404.105469 530.433594 2405.828125 530.921875 C 2407.546875 531.414062 2409.28125 531.832031 2411.039062 532.175781 C 2412.792969 532.519531 2414.558594 532.785156 2416.335938 532.980469 C 2439.007812 535.246094 2461.738281 536.289062 2484.523438 536.105469 C 2461.738281 535.914062 2439.007812 536.945312 2416.335938 539.199219 Z M 2416.335938 539.199219 "/></g><path style=" stroke:none;fill-rule:nonzero;fill:#ffe8e8;fill-opacity:1;" d="M 2667.789062 443.417969 C 2666.703125 443.535156 2665.625 443.699219 2664.554688 443.910156 C 2663.480469 444.117188 2662.421875 444.371094 2661.371094 444.671875 C 2660.320312 444.972656 2659.285156 445.316406 2658.265625 445.703125 C 2657.246094 446.089844 2656.242188 446.519531 2655.257812 446.992188 C 2654.273438 447.464844 2653.3125 447.976562 2652.371094 448.527344 C 2651.429688 449.082031 2650.511719 449.675781 2649.621094 450.304688 C 2648.730469 450.9375 2647.867188 451.605469 2647.035156 452.308594 C 2646.199219 453.011719 2645.394531 453.75 2644.625 454.523438 C 2643.851562 455.292969 2643.113281 456.097656 2642.410156 456.933594 C 2641.707031 457.765625 2641.039062 458.628906 2640.40625 459.519531 C 2639.777344 460.410156 2639.183594 461.328125 2638.632812 462.269531 C 2638.078125 463.207031 2637.566406 464.171875 2637.09375 465.15625 C 2636.621094 466.140625 2636.191406 467.144531 2635.804688 468.164062 C 2635.417969 469.183594 2635.074219 470.21875 2634.773438 471.269531 C 2634.476562 472.320312 2634.21875 473.378906 2634.011719 474.453125 C 2633.800781 475.523438 2633.636719 476.601562 2633.519531 477.6875 C 2632.136719 491.53125 2631.507812 505.40625 2631.621094 519.320312 C 2631.734375 505.40625 2631.101562 491.53125 2629.722656 477.6875 C 2629.605469 476.601562 2629.441406 475.523438 2629.230469 474.453125 C 2629.023438 473.378906 2628.765625 472.320312 2628.46875 471.269531 C 2628.167969 470.21875 2627.824219 469.183594 2627.4375 468.164062 C 2627.050781 467.144531 2626.621094 466.140625 2626.148438 465.15625 C 2625.675781 464.171875 2625.164062 463.207031 2624.609375 462.269531 C 2624.054688 461.328125 2623.464844 460.410156 2622.832031 459.519531 C 2622.203125 458.628906 2621.535156 457.765625 2620.832031 456.929688 C 2620.125 456.097656 2619.386719 455.292969 2618.617188 454.523438 C 2617.84375 453.75 2617.039062 453.011719 2616.207031 452.308594 C 2615.371094 451.605469 2614.507812 450.9375 2613.617188 450.304688 C 2612.726562 449.675781 2611.8125 449.082031 2610.871094 448.527344 C 2609.929688 447.976562 2608.964844 447.460938 2607.980469 446.992188 C 2606.996094 446.519531 2605.996094 446.089844 2604.972656 445.703125 C 2603.953125 445.316406 2602.917969 444.972656 2601.867188 444.671875 C 2600.816406 444.371094 2599.757812 444.117188 2598.683594 443.910156 C 2597.613281 443.699219 2596.535156 443.535156 2595.449219 443.417969 C 2581.609375 442.035156 2567.730469 441.40625 2553.820312 441.519531 C 2567.730469 441.632812 2581.609375 441 2595.449219 439.621094 C 2596.535156 439.5 2597.613281 439.335938 2598.683594 439.128906 C 2599.757812 438.917969 2600.816406 438.664062 2601.867188 438.363281 C 2602.917969 438.0625 2603.953125 437.71875 2604.972656 437.332031 C 2605.996094 436.945312 2606.996094 436.515625 2607.980469 436.042969 C 2608.964844 435.574219 2609.929688 435.058594 2610.871094 434.507812 C 2611.8125 433.953125 2612.726562 433.359375 2613.617188 432.730469 C 2614.507812 432.097656 2615.371094 431.429688 2616.207031 430.726562 C 2617.039062 430.023438 2617.84375 429.285156 2618.617188 428.511719 C 2619.386719 427.742188 2620.125 426.9375 2620.832031 426.105469 C 2621.535156 425.269531 2622.203125 424.40625 2622.832031 423.515625 C 2623.464844 422.625 2624.054688 421.710938 2624.609375 420.769531 C 2625.164062 419.828125 2625.675781 418.863281 2626.148438 417.878906 C 2626.621094 416.894531 2627.050781 415.894531 2627.4375 414.871094 C 2627.824219 413.851562 2628.167969 412.816406 2628.46875 411.765625 C 2628.765625 410.714844 2629.019531 409.65625 2629.230469 408.582031 C 2629.441406 407.511719 2629.605469 406.433594 2629.722656 405.347656 C 2631.101562 391.503906 2631.734375 377.628906 2631.621094 363.71875 C 2631.507812 377.628906 2632.136719 391.503906 2633.519531 405.347656 C 2633.636719 406.433594 2633.800781 407.511719 2634.011719 408.582031 C 2634.222656 409.652344 2634.476562 410.714844 2634.777344 411.765625 C 2635.074219 412.8125 2635.417969 413.847656 2635.804688 414.867188 C 2636.195312 415.890625 2636.625 416.890625 2637.09375 417.875 C 2637.566406 418.859375 2638.082031 419.824219 2638.632812 420.761719 C 2639.1875 421.703125 2639.78125 422.621094 2640.410156 423.511719 C 2641.042969 424.402344 2641.710938 425.261719 2642.414062 426.097656 C 2643.117188 426.929688 2643.855469 427.734375 2644.628906 428.507812 C 2645.398438 429.277344 2646.203125 430.015625 2647.035156 430.71875 C 2647.871094 431.421875 2648.734375 432.089844 2649.625 432.722656 C 2650.515625 433.351562 2651.429688 433.945312 2652.371094 434.496094 C 2653.3125 435.050781 2654.277344 435.5625 2655.261719 436.035156 C 2656.246094 436.507812 2657.246094 436.933594 2658.265625 437.320312 C 2659.289062 437.710938 2660.324219 438.050781 2661.371094 438.351562 C 2662.421875 438.652344 2663.484375 438.90625 2664.554688 439.117188 C 2665.625 439.324219 2666.703125 439.488281 2667.789062 439.605469 C 2681.636719 440.992188 2695.515625 441.628906 2709.433594 441.519531 C 2695.515625 441.402344 2681.636719 442.035156 2667.789062 443.417969 Z M 2667.789062 443.417969 "/></g></svg>