<svg xmlns="http://www.w3.org/2000/svg" xmlns:xlink="http://www.w3.org/1999/xlink" width="2000" zoomAndPan="magnify" viewBox="0 0 1500 525.000007" height="700" preserveAspectRatio="xMidYMid meet" version="1.2"><defs><clipPath id="0e3e52085d"><path d="M 106 28.386719 L 523 28.386719 L 523 513.144531 L 106 513.144531 Z M 106 28.386719 "/></clipPath><clipPath id="2479397d74"><path d="M 106 28.511719 L 523 28.511719 L 523 513.019531 L 106 513.019531 Z M 106 28.511719 "/></clipPath><clipPath id="d871ed0275"><path d="M 522.75 42.863281 C 451.59375 98.234375 401.878906 145.925781 373.601562 185.851562 C 346.925781 223.496094 339.753906 253.460938 351.992188 275.746094 L 352.246094 276.335938 C 363.472656 300.730469 368.875 323.183594 368.535156 343.695312 C 368.28125 359.308594 366.511719 374.839844 357.816406 386.910156 C 321.519531 437.386719 300.839844 497.570312 313.585938 513.019531 C 304.046875 501.539062 303.625 477.3125 308.269531 453.089844 C 317.46875 404.722656 349.796875 381.511719 350.472656 343.355469 C 350.808594 325.632812 345.914062 305.878906 335.953125 284.101562 C 320.339844 255.234375 327.9375 219.023438 358.914062 175.300781 C 388.289062 133.855469 446.78125 78.820312 522.75 42.863281 Z M 236.773438 231.347656 C 206.472656 173.441406 159.878906 166.519531 124.425781 122.882812 C 125.691406 179.015625 134.472656 219.699219 150.847656 245.105469 C 168.65625 272.792969 201.152344 299.042969 238.96875 288.828125 C 217.023438 306.640625 190.433594 305.289062 174.734375 294.398438 C 168.234375 307.484375 166.039062 316.347656 163.507812 330.78125 C 160.976562 344.875 160.386719 359.226562 161.902344 373.574219 C 180.472656 374.757812 231.117188 345.636719 234.496094 339.390625 C 218.625 369.355469 188.832031 389.445312 155.152344 393.074219 L 146.625 394.003906 L 145.191406 385.394531 C 142.066406 366.0625 142.238281 346.480469 145.613281 327.574219 C 148.484375 311.621094 153.632812 296.003906 160.890625 281.316406 C 151.183594 274.988281 142.742188 266.125 135.570312 254.898438 C 114.382812 221.976562 104.675781 167.535156 106.363281 91.480469 L 107.121094 59.324219 C 127.972656 132.925781 227.066406 158.25 236.773438 231.347656 Z M 311.308594 71.140625 C 331.566406 71.140625 347.941406 87.515625 347.941406 107.773438 C 347.941406 128.03125 331.566406 144.40625 311.308594 144.40625 C 291.050781 144.40625 274.675781 128.03125 274.675781 107.773438 C 274.675781 87.515625 291.050781 71.140625 311.308594 71.140625 Z M 382.886719 231.347656 C 413.1875 173.441406 459.78125 166.519531 495.234375 122.882812 C 493.96875 179.015625 485.1875 219.699219 468.8125 245.105469 C 451.003906 272.792969 418.507812 299.042969 380.691406 288.828125 C 402.636719 306.640625 429.226562 305.289062 444.925781 294.398438 C 451.425781 307.484375 453.621094 316.347656 456.152344 330.78125 C 458.683594 344.875 459.277344 359.226562 457.757812 373.574219 C 439.1875 374.757812 388.542969 345.636719 385.164062 339.390625 C 401.035156 369.355469 430.828125 389.445312 464.507812 393.074219 L 473.035156 394.003906 L 474.382812 385.476562 C 477.507812 366.148438 477.339844 346.566406 473.960938 327.65625 C 471.09375 311.703125 465.945312 296.089844 458.683594 281.402344 C 468.390625 275.070312 476.832031 266.207031 484.007812 254.980469 C 505.195312 222.0625 514.902344 167.535156 513.210938 91.566406 L 512.453125 59.40625 C 491.6875 132.925781 392.59375 158.25 382.886719 231.347656 Z M 114.886719 28.511719 C 165.617188 79.410156 336.96875 198.679688 290.542969 284.1875 C 280.5 305.964844 275.6875 325.714844 276.023438 343.441406 C 273.15625 413.5 336.207031 385.730469 280.5 465.75 L 280.582031 464.144531 C 313.25 424.8125 258.722656 391.21875 257.875 343.777344 C 257.539062 323.183594 262.941406 300.730469 274.167969 276.421875 L 274.421875 275.832031 C 309.703125 211.679688 153.125 82.703125 114.886719 28.511719 Z M 114.886719 28.511719 "/></clipPath><clipPath id="89289204af"><path d="M 362 9.910156 L 430 9.910156 L 430 78 L 362 78 Z M 362 9.910156 "/></clipPath><clipPath id="8c8bade989"><path d="M 361.746094 64 L 397 64 L 397 99.089844 L 361.746094 99.089844 Z M 361.746094 64 "/></clipPath></defs><g id="2b3cf58bfd"><g clip-rule="nonzero" clip-path="url(#0e3e52085d)"><path style=" stroke:none;fill-rule:nonzero;fill:#ffbed3;fill-opacity:1;" d="M 522.75 42.863281 C 451.59375 98.234375 401.878906 145.925781 373.601562 185.851562 C 346.925781 223.496094 339.753906 253.460938 351.992188 275.746094 L 352.246094 276.335938 C 363.472656 300.730469 368.875 323.183594 368.535156 343.695312 C 368.28125 359.308594 366.511719 374.839844 357.816406 386.910156 C 321.519531 437.386719 300.839844 497.570312 313.585938 513.019531 C 304.046875 501.539062 303.625 477.3125 308.269531 453.089844 C 317.46875 404.722656 349.796875 381.511719 350.472656 343.355469 C 350.808594 325.632812 345.914062 305.878906 335.953125 284.101562 C 320.339844 255.234375 327.9375 219.023438 358.914062 175.300781 C 388.289062 133.855469 446.78125 78.820312 522.75 42.863281 Z M 236.773438 231.347656 C 206.472656 173.441406 159.878906 166.519531 124.425781 122.882812 C 125.691406 179.015625 134.472656 219.699219 150.847656 245.105469 C 168.65625 272.792969 201.152344 299.042969 238.96875 288.828125 C 217.023438 306.640625 190.433594 305.289062 174.734375 294.398438 C 168.234375 307.484375 166.039062 316.347656 163.507812 330.78125 C 160.976562 344.875 160.386719 359.226562 161.902344 373.574219 C 180.472656 374.757812 231.117188 345.636719 234.496094 339.390625 C 218.625 369.355469 188.832031 389.445312 155.152344 393.074219 L 146.625 394.003906 L 145.191406 385.394531 C 142.066406 366.0625 142.238281 346.480469 145.613281 327.574219 C 148.484375 311.621094 153.632812 296.003906 160.890625 281.316406 C 151.183594 274.988281 142.742188 266.125 135.570312 254.898438 C 114.382812 221.976562 104.675781 167.535156 106.363281 91.480469 L 107.121094 59.324219 C 127.972656 132.925781 227.066406 158.25 236.773438 231.347656 Z M 311.308594 71.140625 C 331.566406 71.140625 347.941406 87.515625 347.941406 107.773438 C 347.941406 128.03125 331.566406 144.40625 311.308594 144.40625 C 291.050781 144.40625 274.675781 128.03125 274.675781 107.773438 C 274.675781 87.515625 291.050781 71.140625 311.308594 71.140625 Z M 382.886719 231.347656 C 413.1875 173.441406 459.78125 166.519531 495.234375 122.882812 C 493.96875 179.015625 485.1875 219.699219 468.8125 245.105469 C 451.003906 272.792969 418.507812 299.042969 380.691406 288.828125 C 402.636719 306.640625 429.226562 305.289062 444.925781 294.398438 C 451.425781 307.484375 453.621094 316.347656 456.152344 330.78125 C 458.683594 344.875 459.277344 359.226562 457.757812 373.574219 C 439.1875 374.757812 388.542969 345.636719 385.164062 339.390625 C 401.035156 369.355469 430.828125 389.445312 464.507812 393.074219 L 473.035156 394.003906 L 474.382812 385.476562 C 477.507812 366.148438 477.339844 346.566406 473.960938 327.65625 C 471.09375 311.703125 465.945312 296.089844 458.683594 281.402344 C 468.390625 275.070312 476.832031 266.207031 484.007812 254.980469 C 505.195312 222.0625 514.902344 167.535156 513.210938 91.566406 L 512.453125 59.40625 C 491.6875 132.925781 392.59375 158.25 382.886719 231.347656 Z M 114.886719 28.511719 C 165.617188 79.410156 336.96875 198.679688 290.542969 284.1875 C 280.5 305.964844 275.6875 325.714844 276.023438 343.441406 C 273.15625 413.5 336.207031 385.730469 280.5 465.75 L 280.582031 464.144531 C 313.25 424.8125 258.722656 391.21875 257.875 343.777344 C 257.539062 323.183594 262.941406 300.730469 274.167969 276.421875 L 274.421875 275.832031 C 309.703125 211.679688 153.125 82.703125 114.886719 28.511719 Z M 114.886719 28.511719 "/></g><g clip-rule="nonzero" clip-path="url(#2479397d74)"><g clip-rule="nonzero" clip-path="url(#d871ed0275)"><path style=" stroke:none;fill-rule:nonzero;fill:#ffbed3;fill-opacity:1;" d="M 104.675781 28.511719 L 522.75 28.511719 L 522.75 513.019531 L 104.675781 513.019531 Z M 104.675781 28.511719 "/></g></g><g clip-rule="nonzero" clip-path="url(#89289204af)"><path style=" stroke:none;fill-rule:nonzero;fill:#ffe8e8;fill-opacity:1;" d="M 411.835938 44.59375 C 410.890625 44.695312 409.960938 44.878906 409.042969 45.140625 C 408.128906 45.402344 407.242188 45.738281 406.382812 46.148438 C 405.527344 46.5625 404.707031 47.042969 403.929688 47.589844 C 403.152344 48.140625 402.429688 48.753906 401.757812 49.425781 C 401.082031 50.101562 400.472656 50.824219 399.921875 51.601562 C 399.371094 52.378906 398.890625 53.195312 398.480469 54.054688 C 398.066406 54.914062 397.730469 55.800781 397.46875 56.714844 C 397.207031 57.628906 397.027344 58.5625 396.921875 59.507812 C 396.324219 65.53125 396.046875 71.570312 396.097656 77.625 C 396.148438 71.570312 395.871094 65.53125 395.269531 59.507812 C 395.167969 58.5625 394.984375 57.628906 394.722656 56.714844 C 394.464844 55.800781 394.125 54.914062 393.714844 54.054688 C 393.304688 53.195312 392.824219 52.378906 392.273438 51.601562 C 391.722656 50.824219 391.109375 50.101562 390.4375 49.425781 C 389.765625 48.753906 389.039062 48.140625 388.261719 47.589844 C 387.484375 47.042969 386.667969 46.5625 385.808594 46.148438 C 384.953125 45.738281 384.066406 45.402344 383.148438 45.140625 C 382.234375 44.878906 381.304688 44.695312 380.355469 44.59375 C 374.332031 43.992188 368.292969 43.71875 362.242188 43.765625 C 368.292969 43.816406 374.332031 43.542969 380.355469 42.941406 C 381.304688 42.839844 382.234375 42.65625 383.148438 42.394531 C 384.066406 42.132812 384.953125 41.796875 385.808594 41.386719 C 386.667969 40.972656 387.484375 40.492188 388.261719 39.945312 C 389.039062 39.394531 389.765625 38.78125 390.4375 38.109375 C 391.109375 37.4375 391.722656 36.710938 392.273438 35.933594 C 392.824219 35.15625 393.304688 34.339844 393.714844 33.480469 C 394.128906 32.621094 394.464844 31.734375 394.726562 30.820312 C 394.984375 29.90625 395.167969 28.972656 395.273438 28.027344 C 395.871094 22.003906 396.148438 15.964844 396.097656 9.910156 C 396.046875 15.964844 396.324219 22.003906 396.921875 28.027344 C 397.027344 28.972656 397.207031 29.90625 397.46875 30.820312 C 397.730469 31.734375 398.066406 32.621094 398.480469 33.480469 C 398.890625 34.339844 399.371094 35.15625 399.921875 35.933594 C 400.472656 36.710938 401.082031 37.433594 401.757812 38.109375 C 402.429688 38.78125 403.15625 39.394531 403.929688 39.941406 C 404.707031 40.492188 405.527344 40.972656 406.382812 41.386719 C 407.242188 41.796875 408.128906 42.132812 409.042969 42.394531 C 409.960938 42.65625 410.890625 42.839844 411.835938 42.941406 C 417.859375 43.542969 423.898438 43.816406 429.953125 43.765625 C 423.898438 43.71875 417.859375 43.992188 411.835938 44.59375 Z M 411.835938 44.59375 "/></g><g clip-rule="nonzero" clip-path="url(#8c8bade989)"><path style=" stroke:none;fill-rule:nonzero;fill:#ffe8e8;fill-opacity:1;" d="M 386.929688 82.390625 C 386.449219 82.445312 385.980469 82.535156 385.515625 82.667969 C 385.054688 82.800781 384.605469 82.972656 384.167969 83.179688 C 383.734375 83.386719 383.320312 83.632812 382.929688 83.910156 C 382.535156 84.1875 382.167969 84.496094 381.828125 84.839844 C 381.488281 85.179688 381.179688 85.546875 380.898438 85.9375 C 380.621094 86.332031 380.378906 86.746094 380.167969 87.179688 C 379.960938 87.613281 379.792969 88.0625 379.660156 88.527344 C 379.527344 88.988281 379.433594 89.460938 379.382812 89.941406 C 379.078125 92.988281 378.9375 96.042969 378.964844 99.105469 C 378.988281 96.042969 378.851562 92.988281 378.546875 89.941406 C 378.496094 89.460938 378.402344 88.988281 378.269531 88.527344 C 378.136719 88.0625 377.96875 87.613281 377.757812 87.179688 C 377.550781 86.746094 377.308594 86.332031 377.027344 85.9375 C 376.75 85.546875 376.441406 85.179688 376.101562 84.839844 C 375.761719 84.496094 375.394531 84.1875 375 83.910156 C 374.605469 83.632812 374.191406 83.386719 373.757812 83.179688 C 373.324219 82.972656 372.875 82.800781 372.414062 82.667969 C 371.949219 82.535156 371.476562 82.445312 371 82.390625 C 367.949219 82.089844 364.894531 81.949219 361.832031 81.972656 C 364.894531 82 367.949219 81.859375 371 81.554688 C 371.476562 81.503906 371.949219 81.410156 372.414062 81.28125 C 372.875 81.148438 373.324219 80.976562 373.757812 80.769531 C 374.191406 80.5625 374.605469 80.316406 375 80.039062 C 375.394531 79.761719 375.761719 79.453125 376.101562 79.109375 C 376.441406 78.769531 376.75 78.402344 377.03125 78.011719 C 377.308594 77.617188 377.550781 77.203125 377.757812 76.769531 C 377.96875 76.335938 378.136719 75.886719 378.269531 75.421875 C 378.402344 74.960938 378.496094 74.488281 378.546875 74.007812 C 378.851562 70.960938 378.988281 67.90625 378.964844 64.839844 C 378.9375 67.90625 379.078125 70.960938 379.382812 74.007812 C 379.433594 74.488281 379.527344 74.960938 379.660156 75.421875 C 379.789062 75.886719 379.960938 76.335938 380.167969 76.769531 C 380.378906 77.203125 380.621094 77.617188 380.898438 78.011719 C 381.179688 78.402344 381.488281 78.769531 381.828125 79.109375 C 382.167969 79.453125 382.535156 79.761719 382.929688 80.039062 C 383.320312 80.316406 383.734375 80.5625 384.167969 80.769531 C 384.605469 80.976562 385.054688 81.148438 385.515625 81.28125 C 385.980469 81.410156 386.449219 81.503906 386.929688 81.554688 C 389.976562 81.859375 393.035156 82 396.097656 81.976562 C 393.035156 81.949219 389.976562 82.089844 386.929688 82.390625 Z M 386.929688 82.390625 "/></g><path style=" stroke:none;fill-rule:nonzero;fill:#ffe8e8;fill-opacity:1;" d="M 420.738281 69.515625 C 420.148438 69.578125 419.589844 69.738281 419.054688 69.996094 C 418.519531 70.25 418.042969 70.589844 417.625 71.007812 C 417.207031 71.425781 416.867188 71.902344 416.613281 72.4375 C 416.355469 72.972656 416.195312 73.53125 416.132812 74.121094 C 415.945312 75.984375 415.859375 77.847656 415.875 79.71875 C 415.890625 77.847656 415.804688 75.984375 415.621094 74.121094 C 415.554688 73.53125 415.394531 72.972656 415.140625 72.4375 C 414.882812 71.902344 414.546875 71.425781 414.128906 71.007812 C 413.707031 70.589844 413.230469 70.25 412.699219 69.996094 C 412.164062 69.738281 411.601562 69.578125 411.011719 69.515625 C 409.152344 69.328125 407.285156 69.242188 405.414062 69.257812 C 407.285156 69.273438 409.152344 69.1875 411.011719 69.003906 C 411.601562 68.9375 412.164062 68.777344 412.699219 68.523438 C 413.230469 68.265625 413.707031 67.929688 414.128906 67.511719 C 414.546875 67.089844 414.882812 66.613281 415.140625 66.082031 C 415.394531 65.546875 415.554688 64.984375 415.621094 64.394531 C 415.804688 62.535156 415.890625 60.667969 415.875 58.796875 C 415.859375 60.667969 415.945312 62.535156 416.132812 64.394531 C 416.195312 64.984375 416.355469 65.546875 416.613281 66.078125 C 416.867188 66.613281 417.207031 67.089844 417.625 67.507812 C 418.042969 67.929688 418.519531 68.265625 419.054688 68.519531 C 419.589844 68.777344 420.148438 68.9375 420.738281 69 C 422.601562 69.1875 424.46875 69.273438 426.339844 69.257812 C 424.46875 69.242188 422.601562 69.328125 420.738281 69.515625 Z M 420.738281 69.515625 "/><g style="fill:#c24b79;fill-opacity:1;"><g transform="translate(531.984546, 258.976388)"><path style="stroke:none" d="M 75.21875 -88.078125 C 74.457031 -88.078125 73.820312 -87.820312 73.3125 -87.3125 C 72.800781 -86.800781 72.546875 -86.164062 72.546875 -85.40625 L 72.546875 -3.1875 C 72.546875 -2.414062 72.800781 -1.773438 73.3125 -1.265625 C 73.820312 -0.765625 74.457031 -0.515625 75.21875 -0.515625 C 75.5625 -0.515625 75.734375 -0.34375 75.734375 0 C 75.734375 0.34375 75.5625 0.515625 75.21875 0.515625 L 53.84375 0.515625 C 53.582031 0.515625 53.453125 0.34375 53.453125 0 C 53.453125 -0.34375 53.582031 -0.515625 53.84375 -0.515625 C 54.601562 -0.515625 55.238281 -0.765625 55.75 -1.265625 C 56.257812 -1.773438 56.515625 -2.414062 56.515625 -3.1875 L 56.515625 -43.78125 L 27.5 -43.78125 L 27.5 -3.1875 C 27.5 -2.414062 27.75 -1.773438 28.25 -1.265625 C 28.757812 -0.765625 29.351562 -0.515625 30.03125 -0.515625 C 30.375 -0.515625 30.546875 -0.34375 30.546875 0 C 30.546875 0.34375 30.375 0.515625 30.03125 0.515625 L 8.78125 0.515625 C 8.4375 0.515625 8.265625 0.34375 8.265625 0 C 8.265625 -0.34375 8.4375 -0.515625 8.78125 -0.515625 C 9.539062 -0.515625 10.175781 -0.765625 10.6875 -1.265625 C 11.195312 -1.773438 11.453125 -2.414062 11.453125 -3.1875 L 11.453125 -85.40625 C 11.453125 -86.164062 11.195312 -86.800781 10.6875 -87.3125 C 10.175781 -87.820312 9.539062 -88.078125 8.78125 -88.078125 C 8.4375 -88.078125 8.265625 -88.25 8.265625 -88.59375 C 8.265625 -88.925781 8.4375 -89.09375 8.78125 -89.09375 L 30.03125 -89.09375 C 30.375 -89.09375 30.546875 -88.925781 30.546875 -88.59375 C 30.546875 -88.25 30.375 -88.078125 30.03125 -88.078125 C 29.351562 -88.078125 28.757812 -87.820312 28.25 -87.3125 C 27.75 -86.800781 27.5 -86.164062 27.5 -85.40625 L 27.5 -44.796875 L 56.515625 -44.796875 L 56.515625 -85.40625 C 56.515625 -86.164062 56.257812 -86.800781 55.75 -87.3125 C 55.238281 -87.820312 54.601562 -88.078125 53.84375 -88.078125 C 53.582031 -88.078125 53.453125 -88.25 53.453125 -88.59375 C 53.453125 -88.925781 53.582031 -89.09375 53.84375 -89.09375 L 75.21875 -89.09375 C 75.5625 -89.09375 75.734375 -88.925781 75.734375 -88.59375 C 75.734375 -88.25 75.5625 -88.078125 75.21875 -88.078125 Z M 75.21875 -88.078125 "/></g></g><g style="fill:#c24b79;fill-opacity:1;"><g transform="translate(612.041266, 258.976388)"><path style="stroke:none" d="M 58.171875 -9.296875 C 58.421875 -9.460938 58.628906 -9.460938 58.796875 -9.296875 C 59.054688 -9.035156 59.054688 -8.78125 58.796875 -8.53125 C 52.773438 -2.5 45.519531 0.515625 37.03125 0.515625 C 28.46875 0.515625 21.171875 -2.5 15.140625 -8.53125 C 11.160156 -12.601562 8.488281 -17.269531 7.125 -22.53125 C 5.769531 -27.789062 5.769531 -33.050781 7.125 -38.3125 C 8.488281 -43.570312 11.160156 -48.238281 15.140625 -52.3125 C 19.128906 -56.300781 23.773438 -58.953125 29.078125 -60.265625 C 34.378906 -61.578125 39.660156 -61.578125 44.921875 -60.265625 C 50.191406 -58.953125 54.816406 -56.300781 58.796875 -52.3125 C 59.054688 -52.0625 59.054688 -51.804688 58.796875 -51.546875 L 31.6875 -24.4375 C 31.601562 -24.351562 31.476562 -24.3125 31.3125 -24.3125 C 31.226562 -24.3125 31.144531 -24.351562 31.0625 -24.4375 C 30.800781 -24.6875 30.800781 -24.898438 31.0625 -25.078125 L 47.21875 -41.234375 C 41.363281 -47.003906 35.382812 -50.867188 29.28125 -52.828125 C 23.164062 -54.859375 18.664062 -54.429688 15.78125 -51.546875 C 13.914062 -49.597656 13.128906 -46.882812 13.421875 -43.40625 C 13.722656 -39.925781 15 -36.101562 17.25 -31.9375 C 19.5 -27.78125 22.570312 -23.753906 26.46875 -19.859375 C 32.320312 -14.003906 38.390625 -10.054688 44.671875 -8.015625 C 50.785156 -5.984375 55.285156 -6.410156 58.171875 -9.296875 Z M 58.171875 -9.296875 "/></g></g><g style="fill:#c24b79;fill-opacity:1;"><g transform="translate(673.770232, 258.976388)"><path style="stroke:none" d="M 50.40625 -59.828125 C 50.40625 -59.648438 50.445312 -59.601562 50.53125 -59.6875 C 50.53125 -59.78125 50.488281 -59.78125 50.40625 -59.6875 C 50.320312 -59.519531 50.320312 -59.476562 50.40625 -59.5625 L 47.21875 -54.609375 C 47.050781 -54.429688 46.882812 -54.34375 46.71875 -54.34375 C 46.539062 -54.34375 46.410156 -54.429688 46.328125 -54.609375 C 45.398438 -56.640625 43.789062 -57.992188 41.5 -58.671875 C 39.207031 -59.441406 36.875 -59.316406 34.5 -58.296875 C 34.320312 -58.210938 34.128906 -58.125 33.921875 -58.03125 C 33.710938 -57.945312 33.519531 -57.820312 33.34375 -57.65625 C 33.257812 -57.65625 33.21875 -57.65625 33.21875 -57.65625 C 30.414062 -56.132812 28.039062 -54.015625 26.09375 -51.296875 L 26.09375 -3.1875 C 26.09375 -2.414062 26.347656 -1.773438 26.859375 -1.265625 C 27.367188 -0.765625 27.960938 -0.515625 28.640625 -0.515625 C 28.972656 -0.515625 29.140625 -0.34375 29.140625 0 C 29.140625 0.34375 28.972656 0.515625 28.640625 0.515625 L 7.375 0.515625 C 7.039062 0.515625 6.875 0.34375 6.875 0 C 6.875 -0.34375 7.039062 -0.515625 7.375 -0.515625 C 8.144531 -0.515625 8.785156 -0.765625 9.296875 -1.265625 C 9.804688 -1.773438 10.0625 -2.375 10.0625 -3.0625 L 10.0625 -48.75 C 10.0625 -49.257812 9.890625 -49.597656 9.546875 -49.765625 C 9.117188 -49.929688 8.484375 -49.71875 7.640625 -49.125 C 7.378906 -48.957031 7.164062 -49.003906 7 -49.265625 C 6.75 -49.515625 6.789062 -49.765625 7.125 -50.015625 L 10.1875 -52.1875 C 10.1875 -52.269531 10.1875 -52.3125 10.1875 -52.3125 L 25.203125 -63.125 C 25.367188 -63.300781 25.535156 -63.347656 25.703125 -63.265625 C 25.960938 -63.171875 26.09375 -63 26.09375 -62.75 L 26.09375 -52.953125 C 27.875 -55.160156 29.992188 -56.984375 32.453125 -58.421875 C 32.628906 -58.503906 32.671875 -58.503906 32.578125 -58.421875 C 32.578125 -58.421875 32.597656 -58.441406 32.640625 -58.484375 C 32.691406 -58.523438 32.71875 -58.546875 32.71875 -58.546875 C 32.800781 -58.546875 32.84375 -58.546875 32.84375 -58.546875 C 33.257812 -58.804688 33.679688 -59.019531 34.109375 -59.1875 C 37.160156 -60.625 40.34375 -61.34375 43.65625 -61.34375 C 45.863281 -61.34375 48.03125 -61.003906 50.15625 -60.328125 C 50.0625 -60.328125 50.0625 -60.328125 50.15625 -60.328125 C 50.320312 -60.242188 50.363281 -60.242188 50.28125 -60.328125 C 50.28125 -60.328125 50.28125 -60.285156 50.28125 -60.203125 C 50.363281 -60.117188 50.40625 -60.078125 50.40625 -60.078125 C 50.40625 -59.992188 50.40625 -59.910156 50.40625 -59.828125 Z M 50.40625 -59.828125 "/></g></g><g style="fill:#c24b79;fill-opacity:1;"><g transform="translate(726.844436, 258.976388)"><path style="stroke:none" d="M 75.21875 -0.515625 C 75.5625 -0.515625 75.734375 -0.34375 75.734375 0 C 75.734375 0.34375 75.5625 0.515625 75.21875 0.515625 L 58.421875 0.515625 C 57.484375 0.515625 56.523438 0.175781 55.546875 -0.5 C 54.578125 -1.1875 53.835938 -1.992188 53.328125 -2.921875 L 36.28125 -37.671875 L 27.5 -37.671875 L 27.5 -3.1875 C 27.5 -2.414062 27.75 -1.773438 28.25 -1.265625 C 28.757812 -0.765625 29.351562 -0.515625 30.03125 -0.515625 C 30.375 -0.515625 30.546875 -0.34375 30.546875 0 C 30.546875 0.34375 30.375 0.515625 30.03125 0.515625 L 8.78125 0.515625 C 8.4375 0.515625 8.265625 0.34375 8.265625 0 C 8.265625 -0.34375 8.4375 -0.515625 8.78125 -0.515625 C 9.539062 -0.515625 10.175781 -0.765625 10.6875 -1.265625 C 11.195312 -1.773438 11.453125 -2.414062 11.453125 -3.1875 L 11.453125 -85.40625 C 11.453125 -86.164062 11.195312 -86.800781 10.6875 -87.3125 C 10.175781 -87.820312 9.539062 -88.078125 8.78125 -88.078125 C 8.4375 -88.078125 8.265625 -88.25 8.265625 -88.59375 C 8.265625 -88.925781 8.4375 -89.09375 8.78125 -89.09375 L 46.84375 -89.09375 C 46.925781 -89.09375 47.007812 -89.09375 47.09375 -89.09375 C 47.175781 -89.09375 47.300781 -89.09375 47.46875 -89.09375 C 47.5625 -89.09375 47.609375 -89.09375 47.609375 -89.09375 C 52.273438 -89.09375 56.554688 -87.925781 60.453125 -85.59375 C 64.359375 -83.257812 67.457031 -80.160156 69.75 -76.296875 C 72.039062 -72.441406 73.1875 -68.140625 73.1875 -63.390625 C 73.1875 -59.398438 72.335938 -55.6875 70.640625 -52.25 C 68.941406 -48.8125 66.628906 -45.882812 63.703125 -43.46875 C 60.773438 -41.050781 57.445312 -39.414062 53.71875 -38.5625 L 71.015625 -3.3125 C 71.359375 -2.539062 71.953125 -1.878906 72.796875 -1.328125 C 73.648438 -0.785156 74.457031 -0.515625 75.21875 -0.515625 Z M 27.5 -88.078125 L 27.5 -38.6875 L 46.84375 -38.6875 C 48.625 -38.6875 50.234375 -39.8125 51.671875 -42.0625 C 53.117188 -44.3125 54.285156 -47.320312 55.171875 -51.09375 C 56.066406 -54.875 56.515625 -58.972656 56.515625 -63.390625 C 56.515625 -67.878906 56.066406 -71.988281 55.171875 -75.71875 C 54.285156 -79.457031 53.117188 -82.453125 51.671875 -84.703125 C 50.234375 -86.953125 48.625 -88.078125 46.84375 -88.078125 Z M 27.5 -88.078125 "/></g></g><g style="fill:#c24b79;fill-opacity:1;"><g transform="translate(800.791823, 258.976388)"><path style="stroke:none" d="M 58.171875 -9.296875 C 58.421875 -9.460938 58.628906 -9.460938 58.796875 -9.296875 C 59.054688 -9.035156 59.054688 -8.78125 58.796875 -8.53125 C 52.773438 -2.5 45.519531 0.515625 37.03125 0.515625 C 28.46875 0.515625 21.171875 -2.5 15.140625 -8.53125 C 11.160156 -12.601562 8.488281 -17.269531 7.125 -22.53125 C 5.769531 -27.789062 5.769531 -33.050781 7.125 -38.3125 C 8.488281 -43.570312 11.160156 -48.238281 15.140625 -52.3125 C 19.128906 -56.300781 23.773438 -58.953125 29.078125 -60.265625 C 34.378906 -61.578125 39.660156 -61.578125 44.921875 -60.265625 C 50.191406 -58.953125 54.816406 -56.300781 58.796875 -52.3125 C 59.054688 -52.0625 59.054688 -51.804688 58.796875 -51.546875 L 31.6875 -24.4375 C 31.601562 -24.351562 31.476562 -24.3125 31.3125 -24.3125 C 31.226562 -24.3125 31.144531 -24.351562 31.0625 -24.4375 C 30.800781 -24.6875 30.800781 -24.898438 31.0625 -25.078125 L 47.21875 -41.234375 C 41.363281 -47.003906 35.382812 -50.867188 29.28125 -52.828125 C 23.164062 -54.859375 18.664062 -54.429688 15.78125 -51.546875 C 13.914062 -49.597656 13.128906 -46.882812 13.421875 -43.40625 C 13.722656 -39.925781 15 -36.101562 17.25 -31.9375 C 19.5 -27.78125 22.570312 -23.753906 26.46875 -19.859375 C 32.320312 -14.003906 38.390625 -10.054688 44.671875 -8.015625 C 50.785156 -5.984375 55.285156 -6.410156 58.171875 -9.296875 Z M 58.171875 -9.296875 "/></g></g><g style="fill:#c24b79;fill-opacity:1;"><g transform="translate(862.520789, 258.976388)"><path style="stroke:none" d="M 67.96875 -10.6875 C 68.3125 -10.6875 68.484375 -10.519531 68.484375 -10.1875 C 68.484375 -7.300781 67.421875 -4.796875 65.296875 -2.671875 C 63.171875 -0.546875 60.664062 0.515625 57.78125 0.515625 C 54.8125 0.515625 52.265625 -0.546875 50.140625 -2.671875 C 48.023438 -4.796875 46.96875 -7.300781 46.96875 -10.1875 L 46.96875 -38.5625 C 46.96875 -45.09375 46.265625 -50.351562 44.859375 -54.34375 C 43.460938 -58.332031 41.957031 -60.328125 40.34375 -60.328125 C 37.539062 -60.328125 34.929688 -59.835938 32.515625 -58.859375 C 30.097656 -57.890625 27.957031 -56.554688 26.09375 -54.859375 L 26.09375 -3.1875 C 26.09375 -2.414062 26.347656 -1.773438 26.859375 -1.265625 C 27.367188 -0.765625 27.960938 -0.515625 28.640625 -0.515625 C 28.972656 -0.515625 29.140625 -0.34375 29.140625 0 C 29.140625 0.34375 28.972656 0.515625 28.640625 0.515625 L 7.375 0.515625 C 7.039062 0.515625 6.875 0.34375 6.875 0 C 6.875 -0.34375 7.039062 -0.515625 7.375 -0.515625 C 8.0625 -0.515625 8.679688 -0.765625 9.234375 -1.265625 C 9.785156 -1.773438 10.0625 -2.414062 10.0625 -3.1875 L 10.0625 -48.75 C 10.0625 -49.257812 9.890625 -49.597656 9.546875 -49.765625 C 9.117188 -49.929688 8.484375 -49.71875 7.640625 -49.125 C 7.378906 -48.957031 7.164062 -49.003906 7 -49.265625 C 6.75 -49.515625 6.789062 -49.765625 7.125 -50.015625 L 10.1875 -52.1875 C 10.1875 -52.269531 10.1875 -52.3125 10.1875 -52.3125 L 25.203125 -63.125 C 25.367188 -63.300781 25.535156 -63.347656 25.703125 -63.265625 C 25.960938 -63.171875 26.09375 -63 26.09375 -62.75 L 26.09375 -56.265625 C 28.039062 -57.785156 30.222656 -58.988281 32.640625 -59.875 C 35.066406 -60.769531 37.632812 -61.21875 40.34375 -61.21875 C 44.5 -61.21875 48.296875 -60.195312 51.734375 -58.15625 C 55.171875 -56.125 57.90625 -53.390625 59.9375 -49.953125 C 61.976562 -46.515625 63 -42.71875 63 -38.5625 L 63 -30.03125 L 63.125 -10.3125 C 63.125 -9.632812 63.335938 -9.082031 63.765625 -8.65625 C 64.191406 -8.226562 64.703125 -8.015625 65.296875 -8.015625 C 65.890625 -8.015625 66.394531 -8.226562 66.8125 -8.65625 C 67.238281 -9.082031 67.453125 -9.59375 67.453125 -10.1875 C 67.453125 -10.519531 67.625 -10.6875 67.96875 -10.6875 Z M 67.96875 -10.6875 "/></g></g><g style="fill:#c24b79;fill-opacity:1;"><g transform="translate(934.304565, 258.976388)"><path style="stroke:none" d="M 60.578125 -10.6875 C 60.921875 -10.6875 61.09375 -10.519531 61.09375 -10.1875 C 61.09375 -7.300781 60.03125 -4.796875 57.90625 -2.671875 C 55.789062 -0.546875 53.25 0.515625 50.28125 0.515625 C 47.476562 0.515625 45.054688 -0.414062 43.015625 -2.28125 C 40.984375 -4.15625 39.835938 -6.453125 39.578125 -9.171875 C 38.222656 -6.367188 36.144531 -4.050781 33.34375 -2.21875 C 30.539062 -0.394531 27.445312 0.515625 24.0625 0.515625 C 20.832031 0.515625 17.898438 -0.269531 15.265625 -1.84375 C 12.640625 -3.414062 10.539062 -5.515625 8.96875 -8.140625 C 7.40625 -10.773438 6.625 -13.703125 6.625 -16.921875 C 6.625 -20.148438 7.40625 -23.078125 8.96875 -25.703125 C 10.539062 -28.335938 12.640625 -30.4375 15.265625 -32 C 17.898438 -33.570312 20.832031 -34.359375 24.0625 -34.359375 L 31.5625 -34.359375 C 31.90625 -34.359375 32.078125 -34.191406 32.078125 -33.859375 C 32.078125 -33.515625 31.90625 -33.34375 31.5625 -33.34375 L 24.1875 -33.34375 C 23.84375 -32.925781 23.5 -31.296875 23.15625 -28.453125 C 22.820312 -25.609375 22.65625 -21.765625 22.65625 -16.921875 C 22.65625 -12.085938 22.820312 -8.226562 23.15625 -5.34375 C 23.5 -2.457031 23.84375 -0.847656 24.1875 -0.515625 C 27.75 -0.515625 30.929688 -1.570312 33.734375 -3.6875 C 36.535156 -5.8125 38.484375 -8.484375 39.578125 -11.703125 L 39.578125 -34.875 C 39.578125 -39.539062 39.109375 -43.800781 38.171875 -47.65625 C 37.242188 -51.519531 35.992188 -54.597656 34.421875 -56.890625 C 32.859375 -59.179688 31.097656 -60.328125 29.140625 -60.328125 C 26.515625 -60.328125 23.925781 -59.691406 21.375 -58.421875 C 18.832031 -57.148438 16.628906 -55.644531 14.765625 -53.90625 C 12.898438 -52.164062 11.710938 -50.53125 11.203125 -49 C 11.117188 -48.832031 10.988281 -48.75 10.8125 -48.75 C 10.8125 -48.75 10.769531 -48.75 10.6875 -48.75 C 10.601562 -48.75 10.519531 -48.789062 10.4375 -48.875 L 7.25 -51.546875 C 7.332031 -51.546875 7.332031 -51.546875 7.25 -51.546875 C 7.25 -51.546875 7.25 -51.585938 7.25 -51.671875 C 7.164062 -51.847656 7.125 -51.9375 7.125 -51.9375 C 7.125 -51.9375 7.164062 -51.976562 7.25 -52.0625 C 7.25 -52.144531 7.25 -52.1875 7.25 -52.1875 C 7.25 -52.1875 7.25 -52.226562 7.25 -52.3125 C 13.28125 -58.332031 20.578125 -61.34375 29.140625 -61.34375 C 33.984375 -61.34375 38.421875 -60.132812 42.453125 -57.71875 C 46.484375 -55.300781 49.6875 -52.097656 52.0625 -48.109375 C 54.4375 -44.117188 55.625 -39.707031 55.625 -34.875 L 55.625 -10.1875 C 55.625 -9.59375 55.851562 -9.082031 56.3125 -8.65625 C 56.78125 -8.226562 57.3125 -8.015625 57.90625 -8.015625 C 58.5 -8.015625 59.007812 -8.226562 59.4375 -8.65625 C 59.863281 -9.082031 60.078125 -9.59375 60.078125 -10.1875 C 60.078125 -10.519531 60.242188 -10.6875 60.578125 -10.6875 Z M 60.578125 -10.6875 "/></g></g><g style="fill:#c24b79;fill-opacity:1;"><g transform="translate(997.942693, 258.976388)"><path style="stroke:none" d="M 18.078125 -73.0625 C 15.867188 -73.0625 13.976562 -73.84375 12.40625 -75.40625 C 10.84375 -76.976562 10.0625 -78.867188 10.0625 -81.078125 C 10.0625 -83.285156 10.84375 -85.171875 12.40625 -86.734375 C 13.976562 -88.304688 15.867188 -89.09375 18.078125 -89.09375 C 20.285156 -89.09375 22.171875 -88.304688 23.734375 -86.734375 C 25.304688 -85.171875 26.09375 -83.285156 26.09375 -81.078125 C 26.09375 -78.867188 25.304688 -76.976562 23.734375 -75.40625 C 22.171875 -73.84375 20.285156 -73.0625 18.078125 -73.0625 Z M 28.640625 -0.515625 C 28.972656 -0.515625 29.140625 -0.34375 29.140625 0 C 29.140625 0.34375 28.972656 0.515625 28.640625 0.515625 L 7.375 0.515625 C 7.039062 0.515625 6.875 0.34375 6.875 0 C 6.875 -0.34375 7.039062 -0.515625 7.375 -0.515625 C 8.0625 -0.515625 8.679688 -0.765625 9.234375 -1.265625 C 9.785156 -1.773438 10.0625 -2.414062 10.0625 -3.1875 L 10.0625 -48.75 C 10.0625 -49.257812 9.890625 -49.597656 9.546875 -49.765625 C 9.117188 -49.929688 8.484375 -49.71875 7.640625 -49.125 C 7.378906 -48.957031 7.164062 -49.003906 7 -49.265625 C 6.75 -49.515625 6.789062 -49.765625 7.125 -50.015625 L 10.1875 -52.1875 C 10.1875 -52.269531 10.1875 -52.3125 10.1875 -52.3125 L 25.203125 -63.125 C 25.367188 -63.300781 25.535156 -63.347656 25.703125 -63.265625 C 25.960938 -63.171875 26.09375 -63 26.09375 -62.75 L 26.09375 -3.1875 C 26.09375 -2.414062 26.347656 -1.773438 26.859375 -1.265625 C 27.367188 -0.765625 27.960938 -0.515625 28.640625 -0.515625 Z M 28.640625 -0.515625 "/></g></g><g style="fill:#c24b79;fill-opacity:1;"><g transform="translate(1031.416289, 258.976388)"><path style="stroke:none" d="M 37.796875 -35.390625 C 41.359375 -33.941406 44.203125 -31.644531 46.328125 -28.5 C 48.453125 -25.363281 49.515625 -21.890625 49.515625 -18.078125 C 49.515625 -14.679688 48.664062 -11.582031 46.96875 -8.78125 C 45.269531 -5.976562 43.019531 -3.726562 40.21875 -2.03125 C 37.414062 -0.332031 34.316406 0.515625 30.921875 0.515625 L 23.796875 0.515625 C 17.515625 0.515625 11.832031 -1.3125 6.75 -4.96875 C 6.570312 -5.050781 6.484375 -5.175781 6.484375 -5.34375 C 6.484375 -5.507812 6.570312 -5.640625 6.75 -5.734375 L 13.359375 -9.421875 C 13.535156 -9.503906 13.664062 -9.503906 13.75 -9.421875 C 13.914062 -9.421875 14.039062 -9.335938 14.125 -9.171875 C 16.757812 -3.398438 19.984375 -0.515625 23.796875 -0.515625 L 30.921875 -0.515625 C 33.640625 -0.515625 35.972656 -1.46875 37.921875 -3.375 C 39.878906 -5.28125 40.859375 -7.632812 40.859375 -10.4375 C 40.859375 -12.5625 40.195312 -14.492188 38.875 -16.234375 C 37.5625 -17.972656 35.890625 -19.179688 33.859375 -19.859375 L 22.015625 -24.0625 C 19.804688 -24.820312 17.617188 -25.796875 15.453125 -26.984375 C 13.296875 -28.171875 11.453125 -29.78125 9.921875 -31.8125 C 7.628906 -35.039062 6.484375 -38.648438 6.484375 -42.640625 C 6.484375 -46.117188 7.3125 -49.257812 8.96875 -52.0625 C 10.625 -54.863281 12.875 -57.085938 15.71875 -58.734375 C 18.5625 -60.390625 21.679688 -61.21875 25.078125 -61.21875 L 32.203125 -61.21875 C 38.484375 -61.21875 44.171875 -59.4375 49.265625 -55.875 C 49.429688 -55.789062 49.515625 -55.625 49.515625 -55.375 C 49.515625 -55.195312 49.429688 -55.066406 49.265625 -54.984375 L 42.640625 -51.421875 C 42.554688 -51.335938 42.472656 -51.296875 42.390625 -51.296875 C 42.296875 -51.296875 42.25 -51.296875 42.25 -51.296875 C 42.082031 -51.378906 41.957031 -51.460938 41.875 -51.546875 C 39.25 -57.398438 36.023438 -60.328125 32.203125 -60.328125 L 25.078125 -60.328125 C 22.359375 -60.328125 20.019531 -59.347656 18.0625 -57.390625 C 16.113281 -55.441406 15.140625 -53.113281 15.140625 -50.40625 C 15.140625 -48.03125 15.90625 -45.953125 17.4375 -44.171875 C 18.457031 -42.804688 19.835938 -41.785156 21.578125 -41.109375 C 23.316406 -40.429688 25.035156 -39.796875 26.734375 -39.203125 C 27.148438 -39.117188 27.570312 -39.007812 28 -38.875 C 28.425781 -38.75 28.804688 -38.601562 29.140625 -38.4375 Z M 37.796875 -35.390625 "/></g></g><g style="fill:#c24b79;fill-opacity:1;"><g transform="translate(1087.417883, 258.976388)"><path style="stroke:none" d="M 37.796875 -35.390625 C 41.359375 -33.941406 44.203125 -31.644531 46.328125 -28.5 C 48.453125 -25.363281 49.515625 -21.890625 49.515625 -18.078125 C 49.515625 -14.679688 48.664062 -11.582031 46.96875 -8.78125 C 45.269531 -5.976562 43.019531 -3.726562 40.21875 -2.03125 C 37.414062 -0.332031 34.316406 0.515625 30.921875 0.515625 L 23.796875 0.515625 C 17.515625 0.515625 11.832031 -1.3125 6.75 -4.96875 C 6.570312 -5.050781 6.484375 -5.175781 6.484375 -5.34375 C 6.484375 -5.507812 6.570312 -5.640625 6.75 -5.734375 L 13.359375 -9.421875 C 13.535156 -9.503906 13.664062 -9.503906 13.75 -9.421875 C 13.914062 -9.421875 14.039062 -9.335938 14.125 -9.171875 C 16.757812 -3.398438 19.984375 -0.515625 23.796875 -0.515625 L 30.921875 -0.515625 C 33.640625 -0.515625 35.972656 -1.46875 37.921875 -3.375 C 39.878906 -5.28125 40.859375 -7.632812 40.859375 -10.4375 C 40.859375 -12.5625 40.195312 -14.492188 38.875 -16.234375 C 37.5625 -17.972656 35.890625 -19.179688 33.859375 -19.859375 L 22.015625 -24.0625 C 19.804688 -24.820312 17.617188 -25.796875 15.453125 -26.984375 C 13.296875 -28.171875 11.453125 -29.78125 9.921875 -31.8125 C 7.628906 -35.039062 6.484375 -38.648438 6.484375 -42.640625 C 6.484375 -46.117188 7.3125 -49.257812 8.96875 -52.0625 C 10.625 -54.863281 12.875 -57.085938 15.71875 -58.734375 C 18.5625 -60.390625 21.679688 -61.21875 25.078125 -61.21875 L 32.203125 -61.21875 C 38.484375 -61.21875 44.171875 -59.4375 49.265625 -55.875 C 49.429688 -55.789062 49.515625 -55.625 49.515625 -55.375 C 49.515625 -55.195312 49.429688 -55.066406 49.265625 -54.984375 L 42.640625 -51.421875 C 42.554688 -51.335938 42.472656 -51.296875 42.390625 -51.296875 C 42.296875 -51.296875 42.25 -51.296875 42.25 -51.296875 C 42.082031 -51.378906 41.957031 -51.460938 41.875 -51.546875 C 39.25 -57.398438 36.023438 -60.328125 32.203125 -60.328125 L 25.078125 -60.328125 C 22.359375 -60.328125 20.019531 -59.347656 18.0625 -57.390625 C 16.113281 -55.441406 15.140625 -53.113281 15.140625 -50.40625 C 15.140625 -48.03125 15.90625 -45.953125 17.4375 -44.171875 C 18.457031 -42.804688 19.835938 -41.785156 21.578125 -41.109375 C 23.316406 -40.429688 25.035156 -39.796875 26.734375 -39.203125 C 27.148438 -39.117188 27.570312 -39.007812 28 -38.875 C 28.425781 -38.75 28.804688 -38.601562 29.140625 -38.4375 Z M 37.796875 -35.390625 "/></g></g><g style="fill:#c24b79;fill-opacity:1;"><g transform="translate(1142.528544, 258.976388)"><path style="stroke:none" d="M 60.578125 -10.6875 C 60.921875 -10.6875 61.09375 -10.519531 61.09375 -10.1875 C 61.09375 -7.300781 60.03125 -4.796875 57.90625 -2.671875 C 55.789062 -0.546875 53.25 0.515625 50.28125 0.515625 C 47.476562 0.515625 45.054688 -0.414062 43.015625 -2.28125 C 40.984375 -4.15625 39.835938 -6.453125 39.578125 -9.171875 C 38.222656 -6.367188 36.144531 -4.050781 33.34375 -2.21875 C 30.539062 -0.394531 27.445312 0.515625 24.0625 0.515625 C 20.832031 0.515625 17.898438 -0.269531 15.265625 -1.84375 C 12.640625 -3.414062 10.539062 -5.515625 8.96875 -8.140625 C 7.40625 -10.773438 6.625 -13.703125 6.625 -16.921875 C 6.625 -20.148438 7.40625 -23.078125 8.96875 -25.703125 C 10.539062 -28.335938 12.640625 -30.4375 15.265625 -32 C 17.898438 -33.570312 20.832031 -34.359375 24.0625 -34.359375 L 31.5625 -34.359375 C 31.90625 -34.359375 32.078125 -34.191406 32.078125 -33.859375 C 32.078125 -33.515625 31.90625 -33.34375 31.5625 -33.34375 L 24.1875 -33.34375 C 23.84375 -32.925781 23.5 -31.296875 23.15625 -28.453125 C 22.820312 -25.609375 22.65625 -21.765625 22.65625 -16.921875 C 22.65625 -12.085938 22.820312 -8.226562 23.15625 -5.34375 C 23.5 -2.457031 23.84375 -0.847656 24.1875 -0.515625 C 27.75 -0.515625 30.929688 -1.570312 33.734375 -3.6875 C 36.535156 -5.8125 38.484375 -8.484375 39.578125 -11.703125 L 39.578125 -34.875 C 39.578125 -39.539062 39.109375 -43.800781 38.171875 -47.65625 C 37.242188 -51.519531 35.992188 -54.597656 34.421875 -56.890625 C 32.859375 -59.179688 31.097656 -60.328125 29.140625 -60.328125 C 26.515625 -60.328125 23.925781 -59.691406 21.375 -58.421875 C 18.832031 -57.148438 16.628906 -55.644531 14.765625 -53.90625 C 12.898438 -52.164062 11.710938 -50.53125 11.203125 -49 C 11.117188 -48.832031 10.988281 -48.75 10.8125 -48.75 C 10.8125 -48.75 10.769531 -48.75 10.6875 -48.75 C 10.601562 -48.75 10.519531 -48.789062 10.4375 -48.875 L 7.25 -51.546875 C 7.332031 -51.546875 7.332031 -51.546875 7.25 -51.546875 C 7.25 -51.546875 7.25 -51.585938 7.25 -51.671875 C 7.164062 -51.847656 7.125 -51.9375 7.125 -51.9375 C 7.125 -51.9375 7.164062 -51.976562 7.25 -52.0625 C 7.25 -52.144531 7.25 -52.1875 7.25 -52.1875 C 7.25 -52.1875 7.25 -52.226562 7.25 -52.3125 C 13.28125 -58.332031 20.578125 -61.34375 29.140625 -61.34375 C 33.984375 -61.34375 38.421875 -60.132812 42.453125 -57.71875 C 46.484375 -55.300781 49.6875 -52.097656 52.0625 -48.109375 C 54.4375 -44.117188 55.625 -39.707031 55.625 -34.875 L 55.625 -10.1875 C 55.625 -9.59375 55.851562 -9.082031 56.3125 -8.65625 C 56.78125 -8.226562 57.3125 -8.015625 57.90625 -8.015625 C 58.5 -8.015625 59.007812 -8.226562 59.4375 -8.65625 C 59.863281 -9.082031 60.078125 -9.59375 60.078125 -10.1875 C 60.078125 -10.519531 60.242188 -10.6875 60.578125 -10.6875 Z M 60.578125 -10.6875 "/></g></g><g style="fill:#c24b79;fill-opacity:1;"><g transform="translate(1206.1666, 258.976388)"><path style="stroke:none" d="M 67.96875 -10.6875 C 68.3125 -10.6875 68.484375 -10.519531 68.484375 -10.1875 C 68.484375 -7.300781 67.421875 -4.796875 65.296875 -2.671875 C 63.171875 -0.546875 60.664062 0.515625 57.78125 0.515625 C 54.8125 0.515625 52.265625 -0.546875 50.140625 -2.671875 C 48.023438 -4.796875 46.96875 -7.300781 46.96875 -10.1875 L 46.96875 -38.5625 C 46.96875 -45.09375 46.265625 -50.351562 44.859375 -54.34375 C 43.460938 -58.332031 41.957031 -60.328125 40.34375 -60.328125 C 37.539062 -60.328125 34.929688 -59.835938 32.515625 -58.859375 C 30.097656 -57.890625 27.957031 -56.554688 26.09375 -54.859375 L 26.09375 -3.1875 C 26.09375 -2.414062 26.347656 -1.773438 26.859375 -1.265625 C 27.367188 -0.765625 27.960938 -0.515625 28.640625 -0.515625 C 28.972656 -0.515625 29.140625 -0.34375 29.140625 0 C 29.140625 0.34375 28.972656 0.515625 28.640625 0.515625 L 7.375 0.515625 C 7.039062 0.515625 6.875 0.34375 6.875 0 C 6.875 -0.34375 7.039062 -0.515625 7.375 -0.515625 C 8.0625 -0.515625 8.679688 -0.765625 9.234375 -1.265625 C 9.785156 -1.773438 10.0625 -2.414062 10.0625 -3.1875 L 10.0625 -48.75 C 10.0625 -49.257812 9.890625 -49.597656 9.546875 -49.765625 C 9.117188 -49.929688 8.484375 -49.71875 7.640625 -49.125 C 7.378906 -48.957031 7.164062 -49.003906 7 -49.265625 C 6.75 -49.515625 6.789062 -49.765625 7.125 -50.015625 L 10.1875 -52.1875 C 10.1875 -52.269531 10.1875 -52.3125 10.1875 -52.3125 L 25.203125 -63.125 C 25.367188 -63.300781 25.535156 -63.347656 25.703125 -63.265625 C 25.960938 -63.171875 26.09375 -63 26.09375 -62.75 L 26.09375 -56.265625 C 28.039062 -57.785156 30.222656 -58.988281 32.640625 -59.875 C 35.066406 -60.769531 37.632812 -61.21875 40.34375 -61.21875 C 44.5 -61.21875 48.296875 -60.195312 51.734375 -58.15625 C 55.171875 -56.125 57.90625 -53.390625 59.9375 -49.953125 C 61.976562 -46.515625 63 -42.71875 63 -38.5625 L 63 -30.03125 L 63.125 -10.3125 C 63.125 -9.632812 63.335938 -9.082031 63.765625 -8.65625 C 64.191406 -8.226562 64.703125 -8.015625 65.296875 -8.015625 C 65.890625 -8.015625 66.394531 -8.226562 66.8125 -8.65625 C 67.238281 -9.082031 67.453125 -9.59375 67.453125 -10.1875 C 67.453125 -10.519531 67.625 -10.6875 67.96875 -10.6875 Z M 67.96875 -10.6875 "/></g></g><g style="fill:#c24b79;fill-opacity:1;"><g transform="translate(1276.932184, 258.976388)"><path style="stroke:none" d="M 58.171875 -9.296875 C 58.421875 -9.460938 58.628906 -9.460938 58.796875 -9.296875 C 59.054688 -9.035156 59.054688 -8.78125 58.796875 -8.53125 C 52.773438 -2.5 45.519531 0.515625 37.03125 0.515625 C 28.46875 0.515625 21.171875 -2.5 15.140625 -8.53125 C 11.160156 -12.601562 8.488281 -17.269531 7.125 -22.53125 C 5.769531 -27.789062 5.769531 -33.050781 7.125 -38.3125 C 8.488281 -43.570312 11.160156 -48.238281 15.140625 -52.3125 C 19.128906 -56.300781 23.773438 -58.953125 29.078125 -60.265625 C 34.378906 -61.578125 39.660156 -61.578125 44.921875 -60.265625 C 50.191406 -58.953125 54.816406 -56.300781 58.796875 -52.3125 C 59.054688 -52.0625 59.054688 -51.804688 58.796875 -51.546875 L 48.234375 -40.984375 C 47.984375 -40.734375 47.726562 -40.734375 47.46875 -40.984375 C 43.65625 -44.804688 39.671875 -47.835938 35.515625 -50.078125 C 31.359375 -52.328125 27.515625 -53.617188 23.984375 -53.953125 C 20.460938 -54.296875 17.726562 -53.492188 15.78125 -51.546875 C 13.914062 -49.597656 13.128906 -46.882812 13.421875 -43.40625 C 13.722656 -39.925781 15 -36.101562 17.25 -31.9375 C 19.5 -27.78125 22.570312 -23.753906 26.46875 -19.859375 C 32.320312 -14.003906 38.390625 -10.054688 44.671875 -8.015625 C 50.785156 -5.984375 55.285156 -6.410156 58.171875 -9.296875 Z M 58.171875 -9.296875 "/></g></g><g style="fill:#c24b79;fill-opacity:1;"><g transform="translate(1336.242876, 258.976388)"><path style="stroke:none" d="M 58.171875 -9.296875 C 58.421875 -9.460938 58.628906 -9.460938 58.796875 -9.296875 C 59.054688 -9.035156 59.054688 -8.78125 58.796875 -8.53125 C 52.773438 -2.5 45.519531 0.515625 37.03125 0.515625 C 28.46875 0.515625 21.171875 -2.5 15.140625 -8.53125 C 11.160156 -12.601562 8.488281 -17.269531 7.125 -22.53125 C 5.769531 -27.789062 5.769531 -33.050781 7.125 -38.3125 C 8.488281 -43.570312 11.160156 -48.238281 15.140625 -52.3125 C 19.128906 -56.300781 23.773438 -58.953125 29.078125 -60.265625 C 34.378906 -61.578125 39.660156 -61.578125 44.921875 -60.265625 C 50.191406 -58.953125 54.816406 -56.300781 58.796875 -52.3125 C 59.054688 -52.0625 59.054688 -51.804688 58.796875 -51.546875 L 31.6875 -24.4375 C 31.601562 -24.351562 31.476562 -24.3125 31.3125 -24.3125 C 31.226562 -24.3125 31.144531 -24.351562 31.0625 -24.4375 C 30.800781 -24.6875 30.800781 -24.898438 31.0625 -25.078125 L 47.21875 -41.234375 C 41.363281 -47.003906 35.382812 -50.867188 29.28125 -52.828125 C 23.164062 -54.859375 18.664062 -54.429688 15.78125 -51.546875 C 13.914062 -49.597656 13.128906 -46.882812 13.421875 -43.40625 C 13.722656 -39.925781 15 -36.101562 17.25 -31.9375 C 19.5 -27.78125 22.570312 -23.753906 26.46875 -19.859375 C 32.320312 -14.003906 38.390625 -10.054688 44.671875 -8.015625 C 50.785156 -5.984375 55.285156 -6.410156 58.171875 -9.296875 Z M 58.171875 -9.296875 "/></g></g><path style="fill:none;stroke-width:2;stroke-linecap:butt;stroke-linejoin:miter;stroke:#c24b79;stroke-opacity:1;stroke-miterlimit:4;" d="M 0.000581911 1.000672 L 358.025969 1.000672 " transform="matrix(2.315326,0,0,2.315326,551.580684,294.870618)"/><g style="fill:#ffcccc;fill-opacity:1;"><g transform="translate(600.81678, 365.430366)"><path style="stroke:none" d="M 29.265625 -21.59375 C 29.066406 -20.625 28.734375 -19.773438 28.265625 -19.046875 C 27.796875 -18.328125 27.242188 -17.710938 26.609375 -17.203125 C 25.972656 -16.691406 25.289062 -16.273438 24.5625 -15.953125 C 23.832031 -15.628906 23.113281 -15.390625 22.40625 -15.234375 C 23.238281 -15.035156 24.03125 -14.738281 24.78125 -14.34375 C 25.539062 -13.957031 26.203125 -13.453125 26.765625 -12.828125 C 27.335938 -12.210938 27.742188 -11.476562 27.984375 -10.625 C 28.234375 -9.769531 28.25 -8.773438 28.03125 -7.640625 C 27.800781 -6.503906 27.398438 -5.515625 26.828125 -4.671875 C 26.265625 -3.828125 25.578125 -3.109375 24.765625 -2.515625 C 23.953125 -1.921875 23.0625 -1.441406 22.09375 -1.078125 C 21.132812 -0.710938 20.144531 -0.441406 19.125 -0.265625 C 18.101562 -0.0976562 17.09375 -0.015625 16.09375 -0.015625 L 2.234375 -0.015625 L 2.46875 -1.375 L 4.6875 -1.375 C 5.3125 -1.375 5.769531 -1.554688 6.0625 -1.921875 C 6.363281 -2.296875 6.570312 -2.785156 6.6875 -3.390625 L 10.515625 -25.046875 C 10.597656 -25.617188 10.5625 -26.09375 10.40625 -26.46875 C 10.257812 -26.84375 9.90625 -27.03125 9.34375 -27.03125 L 6.984375 -27.03125 L 7.234375 -28.453125 L 21.421875 -28.40625 C 23.367188 -28.40625 24.972656 -28.128906 26.234375 -27.578125 C 27.503906 -27.023438 28.394531 -26.238281 28.90625 -25.21875 C 29.425781 -24.195312 29.546875 -22.988281 29.265625 -21.59375 Z M 25.984375 -21.40625 C 26.378906 -23.28125 26.03125 -24.703125 24.9375 -25.671875 C 23.84375 -26.640625 22.125 -27.125 19.78125 -27.125 L 13.890625 -27.125 L 11.9375 -15.90625 L 18.15625 -15.90625 C 20.488281 -15.90625 22.273438 -16.34375 23.515625 -17.21875 C 24.765625 -18.09375 25.585938 -19.488281 25.984375 -21.40625 Z M 24.78125 -7.84375 C 25.101562 -9.457031 25.003906 -10.75 24.484375 -11.71875 C 23.972656 -12.6875 23.132812 -13.390625 21.96875 -13.828125 C 20.800781 -14.273438 19.410156 -14.5 17.796875 -14.5 L 11.671875 -14.5 L 9.71875 -3.359375 C 9.664062 -3.066406 9.648438 -2.773438 9.671875 -2.484375 C 9.703125 -2.191406 9.804688 -1.945312 9.984375 -1.75 C 10.171875 -1.550781 10.460938 -1.453125 10.859375 -1.453125 L 16.125 -1.453125 C 17.769531 -1.453125 19.195312 -1.734375 20.40625 -2.296875 C 21.613281 -2.859375 22.582031 -3.617188 23.3125 -4.578125 C 24.050781 -5.546875 24.539062 -6.632812 24.78125 -7.84375 Z M 24.78125 -7.84375 "/></g></g><g style="fill:#ffcccc;fill-opacity:1;"><g transform="translate(632.889518, 365.430366)"><path style="stroke:none" d="M 2.65625 9.875 C 2.21875 9.894531 1.878906 9.789062 1.640625 9.5625 C 1.410156 9.34375 1.320312 9.0625 1.375 8.71875 C 1.4375 8.289062 1.632812 7.988281 1.96875 7.8125 C 2.3125 7.632812 2.613281 7.519531 2.875 7.46875 C 3.71875 7.289062 4.535156 7.007812 5.328125 6.625 C 6.117188 6.25 6.90625 5.695312 7.6875 4.96875 C 8.46875 4.25 9.257812 3.273438 10.0625 2.046875 L 11.21875 0.1875 L 5.390625 -14.921875 C 5.191406 -15.503906 4.972656 -15.90625 4.734375 -16.125 C 4.503906 -16.34375 4.1875 -16.453125 3.78125 -16.453125 L 2.71875 -16.453125 L 2.921875 -17.796875 L 11.609375 -17.796875 L 11.40625 -16.453125 L 9.71875 -16.453125 C 9.101562 -16.453125 8.722656 -16.269531 8.578125 -15.90625 C 8.429688 -15.550781 8.445312 -15.109375 8.625 -14.578125 L 13.125 -2.734375 L 20.4375 -14.1875 C 20.820312 -14.84375 21.019531 -15.382812 21.03125 -15.8125 C 21.039062 -16.238281 20.710938 -16.453125 20.046875 -16.453125 L 18.109375 -16.453125 L 18.34375 -17.796875 L 25.296875 -17.796875 L 25.0625 -16.453125 L 24.515625 -16.453125 C 24.085938 -16.453125 23.695312 -16.320312 23.34375 -16.0625 C 22.988281 -15.800781 22.585938 -15.285156 22.140625 -14.515625 L 11.046875 2.875 C 10.066406 4.40625 9.132812 5.65625 8.25 6.625 C 7.363281 7.601562 6.46875 8.347656 5.5625 8.859375 C 4.65625 9.378906 3.6875 9.71875 2.65625 9.875 Z M 2.65625 9.875 "/></g></g><g style="fill:#ffcccc;fill-opacity:1;"><g transform="translate(657.61953, 365.430366)"><path style="stroke:none" d=""/></g></g><g style="fill:#ffcccc;fill-opacity:1;"><g transform="translate(670.399176, 365.430366)"><path style="stroke:none" d="M 2.234375 0 L 2.46875 -1.34375 L 5.578125 -1.34375 C 6.359375 -1.34375 6.910156 -1.519531 7.234375 -1.875 C 7.554688 -2.226562 7.78125 -2.722656 7.90625 -3.359375 L 11.71875 -25.109375 C 11.84375 -25.753906 11.800781 -26.25 11.59375 -26.59375 C 11.394531 -26.945312 10.90625 -27.125 10.125 -27.125 L 7 -27.125 L 7.234375 -28.46875 L 20.4375 -28.46875 L 20.203125 -27.125 L 17.125 -27.125 C 16.34375 -27.125 15.78125 -26.957031 15.4375 -26.625 C 15.101562 -26.300781 14.875 -25.796875 14.75 -25.109375 L 10.9375 -3.359375 C 10.800781 -2.671875 10.84375 -2.160156 11.0625 -1.828125 C 11.28125 -1.503906 11.78125 -1.34375 12.5625 -1.34375 L 15.65625 -1.34375 L 15.421875 0 Z M 2.234375 0 "/></g></g><g style="fill:#ffcccc;fill-opacity:1;"><g transform="translate(691.468337, 365.430366)"><path style="stroke:none" d="M 11 -10.8125 C 11.769531 -10.71875 12.535156 -10.59375 13.296875 -10.4375 C 14.066406 -10.289062 14.785156 -10.09375 15.453125 -9.84375 C 16.117188 -9.601562 16.691406 -9.285156 17.171875 -8.890625 C 17.660156 -8.503906 18.007812 -8.007812 18.21875 -7.40625 C 18.425781 -6.8125 18.457031 -6.085938 18.3125 -5.234375 C 18.132812 -4.285156 17.78125 -3.445312 17.25 -2.71875 C 16.726562 -2 16.066406 -1.394531 15.265625 -0.90625 C 14.460938 -0.425781 13.566406 -0.0664062 12.578125 0.171875 C 11.585938 0.410156 10.546875 0.53125 9.453125 0.53125 C 7.847656 0.53125 6.5 0.300781 5.40625 -0.15625 C 4.3125 -0.613281 3.515625 -1.179688 3.015625 -1.859375 L 1.984375 0.53125 L 0.921875 0.53125 L 1.875 -5.03125 L 3.140625 -5.03125 C 3.515625 -3.625 4.285156 -2.570312 5.453125 -1.875 C 6.628906 -1.175781 8.066406 -0.828125 9.765625 -0.828125 C 10.828125 -0.828125 11.804688 -0.96875 12.703125 -1.25 C 13.609375 -1.539062 14.359375 -1.960938 14.953125 -2.515625 C 15.546875 -3.078125 15.914062 -3.757812 16.0625 -4.5625 C 16.1875 -5.238281 16.109375 -5.785156 15.828125 -6.203125 C 15.554688 -6.628906 15.144531 -6.957031 14.59375 -7.1875 C 14.050781 -7.425781 13.414062 -7.613281 12.6875 -7.75 C 11.96875 -7.882812 11.210938 -8 10.421875 -8.09375 C 9.648438 -8.207031 8.882812 -8.332031 8.125 -8.46875 C 7.363281 -8.601562 6.65625 -8.78125 6 -9 C 5.34375 -9.21875 4.773438 -9.503906 4.296875 -9.859375 C 3.828125 -10.210938 3.488281 -10.660156 3.28125 -11.203125 C 3.082031 -11.753906 3.054688 -12.425781 3.203125 -13.21875 C 3.398438 -14.289062 3.851562 -15.207031 4.5625 -15.96875 C 5.28125 -16.738281 6.21875 -17.320312 7.375 -17.71875 C 8.53125 -18.125 9.851562 -18.328125 11.34375 -18.328125 C 12.851562 -18.328125 14.097656 -18.125 15.078125 -17.71875 C 16.066406 -17.320312 16.820312 -16.789062 17.34375 -16.125 L 18.21875 -18.328125 L 19.234375 -18.328125 L 18.34375 -12.984375 L 17.25 -12.984375 C 17.050781 -14.191406 16.441406 -15.160156 15.421875 -15.890625 C 14.398438 -16.617188 12.945312 -16.984375 11.0625 -16.984375 C 10.070312 -16.984375 9.171875 -16.867188 8.359375 -16.640625 C 7.546875 -16.421875 6.878906 -16.082031 6.359375 -15.625 C 5.847656 -15.175781 5.53125 -14.601562 5.40625 -13.90625 C 5.3125 -13.332031 5.378906 -12.863281 5.609375 -12.5 C 5.847656 -12.144531 6.222656 -11.863281 6.734375 -11.65625 C 7.253906 -11.457031 7.875 -11.296875 8.59375 -11.171875 C 9.3125 -11.046875 10.113281 -10.925781 11 -10.8125 Z M 11 -10.8125 "/></g></g><g style="fill:#ffcccc;fill-opacity:1;"><g transform="translate(714.578299, 365.430366)"><path style="stroke:none" d="M 4.6875 0.421875 C 3.675781 0.421875 2.882812 0.25 2.3125 -0.09375 C 1.75 -0.4375 1.375 -0.90625 1.1875 -1.5 C 1 -2.101562 0.96875 -2.773438 1.09375 -3.515625 C 1.257812 -4.460938 1.617188 -5.269531 2.171875 -5.9375 C 2.734375 -6.601562 3.425781 -7.191406 4.25 -7.703125 C 5.070312 -8.222656 5.988281 -8.707031 7 -9.15625 L 14.796875 -12.640625 C 14.921875 -13.773438 14.875 -14.65625 14.65625 -15.28125 C 14.4375 -15.90625 14.035156 -16.34375 13.453125 -16.59375 C 12.867188 -16.851562 12.085938 -16.984375 11.109375 -16.984375 C 9.941406 -16.984375 8.988281 -16.820312 8.25 -16.5 C 7.507812 -16.175781 6.910156 -15.757812 6.453125 -15.25 C 6.003906 -14.75 5.632812 -14.222656 5.34375 -13.671875 C 5.207031 -13.335938 5.019531 -13.0625 4.78125 -12.84375 C 4.539062 -12.625 4.222656 -12.53125 3.828125 -12.5625 C 3.429688 -12.59375 3.175781 -12.726562 3.0625 -12.96875 C 2.957031 -13.21875 2.960938 -13.503906 3.078125 -13.828125 C 3.285156 -14.359375 3.601562 -14.882812 4.03125 -15.40625 C 4.46875 -15.9375 5.035156 -16.421875 5.734375 -16.859375 C 6.441406 -17.304688 7.300781 -17.660156 8.3125 -17.921875 C 9.320312 -18.191406 10.519531 -18.328125 11.90625 -18.328125 C 12.914062 -18.328125 13.820312 -18.234375 14.625 -18.046875 C 15.425781 -17.859375 16.082031 -17.535156 16.59375 -17.078125 C 17.101562 -16.617188 17.445312 -15.988281 17.625 -15.1875 C 17.800781 -14.394531 17.773438 -13.394531 17.546875 -12.1875 L 16.1875 -4.6875 C 15.957031 -3.46875 15.9375 -2.59375 16.125 -2.0625 C 16.3125 -1.53125 16.6875 -1.265625 17.25 -1.265625 C 17.757812 -1.265625 18.203125 -1.476562 18.578125 -1.90625 C 18.953125 -2.332031 19.234375 -3.015625 19.421875 -3.953125 L 20.59375 -3.953125 C 20.332031 -2.503906 19.800781 -1.425781 19 -0.71875 C 18.195312 -0.0078125 17.242188 0.34375 16.140625 0.34375 C 15.003906 0.34375 14.234375 -0.0078125 13.828125 -0.71875 C 13.429688 -1.425781 13.28125 -2.46875 13.375 -3.84375 C 12.019531 -2.570312 10.59375 -1.539062 9.09375 -0.75 C 7.601562 0.03125 6.132812 0.421875 4.6875 0.421875 Z M 6.03125 -1.171875 C 7.15625 -1.171875 8.363281 -1.550781 9.65625 -2.3125 C 10.957031 -3.082031 12.25 -4.164062 13.53125 -5.5625 L 14.5625 -11.234375 L 7.421875 -7.78125 C 6.597656 -7.394531 5.941406 -6.992188 5.453125 -6.578125 C 4.972656 -6.171875 4.613281 -5.753906 4.375 -5.328125 C 4.132812 -4.898438 3.972656 -4.453125 3.890625 -3.984375 C 3.734375 -3.078125 3.835938 -2.378906 4.203125 -1.890625 C 4.566406 -1.410156 5.175781 -1.171875 6.03125 -1.171875 Z M 6.03125 -1.171875 "/></g></g><g style="fill:#ffcccc;fill-opacity:1;"><g transform="translate(739.518705, 365.430366)"><path style="stroke:none" d="M 10.796875 0.484375 C 9.554688 0.484375 8.410156 0.226562 7.359375 -0.28125 C 6.304688 -0.789062 5.429688 -1.5 4.734375 -2.40625 L 3.03125 0.140625 L 1.875 0.140625 L 6.328125 -25.140625 C 6.441406 -25.742188 6.40625 -26.207031 6.21875 -26.53125 C 6.03125 -26.863281 5.617188 -26.976562 4.984375 -26.875 L 2.859375 -26.359375 L 2.90625 -27.6875 L 9.875 -29.15625 L 7.484375 -15.796875 C 8.347656 -16.503906 9.347656 -17.101562 10.484375 -17.59375 C 11.617188 -18.082031 12.84375 -18.328125 14.15625 -18.328125 C 15.351562 -18.328125 16.4375 -18.09375 17.40625 -17.625 C 18.382812 -17.164062 19.207031 -16.507812 19.875 -15.65625 C 20.539062 -14.8125 21.003906 -13.816406 21.265625 -12.671875 C 21.523438 -11.535156 21.535156 -10.289062 21.296875 -8.9375 C 21.054688 -7.5625 20.597656 -6.300781 19.921875 -5.15625 C 19.253906 -4.007812 18.429688 -3.015625 17.453125 -2.171875 C 16.472656 -1.328125 15.410156 -0.671875 14.265625 -0.203125 C 13.128906 0.253906 11.972656 0.484375 10.796875 0.484375 Z M 10.390625 -1.09375 C 11.421875 -1.09375 12.378906 -1.320312 13.265625 -1.78125 C 14.160156 -2.238281 14.953125 -2.84375 15.640625 -3.59375 C 16.335938 -4.351562 16.914062 -5.195312 17.375 -6.125 C 17.84375 -7.050781 18.160156 -7.984375 18.328125 -8.921875 C 18.523438 -9.960938 18.550781 -10.945312 18.40625 -11.875 C 18.257812 -12.8125 17.960938 -13.644531 17.515625 -14.375 C 17.078125 -15.113281 16.492188 -15.691406 15.765625 -16.109375 C 15.035156 -16.535156 14.1875 -16.75 13.21875 -16.75 C 12.425781 -16.75 11.660156 -16.617188 10.921875 -16.359375 C 10.191406 -16.109375 9.503906 -15.769531 8.859375 -15.34375 C 8.222656 -14.914062 7.660156 -14.453125 7.171875 -13.953125 L 5.421875 -4.015625 C 5.890625 -3.203125 6.546875 -2.507812 7.390625 -1.9375 C 8.242188 -1.375 9.242188 -1.09375 10.390625 -1.09375 Z M 10.390625 -1.09375 "/></g></g><g style="fill:#ffcccc;fill-opacity:1;"><g transform="translate(764.669505, 365.430366)"><path style="stroke:none" d="M 9.046875 0.53125 C 7.785156 0.53125 6.65625 0.300781 5.65625 -0.15625 C 4.664062 -0.625 3.84375 -1.28125 3.1875 -2.125 C 2.53125 -2.96875 2.082031 -3.96875 1.84375 -5.125 C 1.613281 -6.289062 1.617188 -7.570312 1.859375 -8.96875 C 2.109375 -10.351562 2.554688 -11.617188 3.203125 -12.765625 C 3.847656 -13.921875 4.640625 -14.910156 5.578125 -15.734375 C 6.523438 -16.566406 7.570312 -17.207031 8.71875 -17.65625 C 9.863281 -18.101562 11.050781 -18.328125 12.28125 -18.328125 C 13.363281 -18.328125 14.378906 -18.132812 15.328125 -17.75 C 16.273438 -17.363281 17.082031 -16.785156 17.75 -16.015625 C 18.425781 -15.242188 18.90625 -14.289062 19.1875 -13.15625 C 19.476562 -12.03125 19.507812 -10.71875 19.28125 -9.21875 L 4.84375 -9.21875 C 4.65625 -8.175781 4.609375 -7.160156 4.703125 -6.171875 C 4.796875 -5.179688 5.035156 -4.289062 5.421875 -3.5 C 5.816406 -2.71875 6.382812 -2.097656 7.125 -1.640625 C 7.875 -1.179688 8.800781 -0.953125 9.90625 -0.953125 C 11.226562 -0.953125 12.476562 -1.3125 13.65625 -2.03125 C 14.84375 -2.75 15.835938 -3.726562 16.640625 -4.96875 L 17.71875 -4.328125 C 17.070312 -3.359375 16.296875 -2.507812 15.390625 -1.78125 C 14.484375 -1.050781 13.492188 -0.484375 12.421875 -0.078125 C 11.347656 0.328125 10.222656 0.53125 9.046875 0.53125 Z M 5.109375 -10.515625 L 16.796875 -10.515625 C 16.859375 -11.359375 16.8125 -12.160156 16.65625 -12.921875 C 16.507812 -13.691406 16.242188 -14.378906 15.859375 -14.984375 C 15.472656 -15.597656 14.96875 -16.078125 14.34375 -16.421875 C 13.71875 -16.773438 12.960938 -16.953125 12.078125 -16.953125 C 11.191406 -16.953125 10.375 -16.773438 9.625 -16.421875 C 8.882812 -16.066406 8.210938 -15.582031 7.609375 -14.96875 C 7.015625 -14.363281 6.503906 -13.675781 6.078125 -12.90625 C 5.660156 -12.144531 5.335938 -11.347656 5.109375 -10.515625 Z M 5.109375 -10.515625 "/></g></g><g style="fill:#ffcccc;fill-opacity:1;"><g transform="translate(787.674289, 365.430366)"><path style="stroke:none" d="M -1.109375 0 L -0.890625 -1.34375 L 1.21875 -1.34375 C 1.851562 -1.34375 2.304688 -1.503906 2.578125 -1.828125 C 2.847656 -2.148438 3.039062 -2.597656 3.15625 -3.171875 L 7.03125 -25.140625 C 7.144531 -25.742188 7.101562 -26.207031 6.90625 -26.53125 C 6.707031 -26.851562 6.28125 -26.957031 5.625 -26.84375 L 3.53125 -26.34375 L 3.578125 -27.6875 L 10.5625 -29.15625 L 5.96875 -3.171875 C 5.875 -2.679688 5.894531 -2.253906 6.03125 -1.890625 C 6.175781 -1.523438 6.5 -1.34375 7 -1.34375 L 9.359375 -1.34375 L 9.125 0 Z M -1.109375 0 "/></g></g><g style="fill:#ffcccc;fill-opacity:1;"><g transform="translate(802.03187, 365.430366)"><path style="stroke:none" d="M -1.109375 0 L -0.890625 -1.34375 L 1.21875 -1.34375 C 1.851562 -1.34375 2.304688 -1.503906 2.578125 -1.828125 C 2.847656 -2.148438 3.039062 -2.597656 3.15625 -3.171875 L 7.03125 -25.140625 C 7.144531 -25.742188 7.101562 -26.207031 6.90625 -26.53125 C 6.707031 -26.851562 6.28125 -26.957031 5.625 -26.84375 L 3.53125 -26.34375 L 3.578125 -27.6875 L 10.5625 -29.15625 L 5.96875 -3.171875 C 5.875 -2.679688 5.894531 -2.253906 6.03125 -1.890625 C 6.175781 -1.523438 6.5 -1.34375 7 -1.34375 L 9.359375 -1.34375 L 9.125 0 Z M -1.109375 0 "/></g></g><g style="fill:#ffcccc;fill-opacity:1;"><g transform="translate(816.389452, 365.430366)"><path style="stroke:none" d="M 4.6875 0.421875 C 3.675781 0.421875 2.882812 0.25 2.3125 -0.09375 C 1.75 -0.4375 1.375 -0.90625 1.1875 -1.5 C 1 -2.101562 0.96875 -2.773438 1.09375 -3.515625 C 1.257812 -4.460938 1.617188 -5.269531 2.171875 -5.9375 C 2.734375 -6.601562 3.425781 -7.191406 4.25 -7.703125 C 5.070312 -8.222656 5.988281 -8.707031 7 -9.15625 L 14.796875 -12.640625 C 14.921875 -13.773438 14.875 -14.65625 14.65625 -15.28125 C 14.4375 -15.90625 14.035156 -16.34375 13.453125 -16.59375 C 12.867188 -16.851562 12.085938 -16.984375 11.109375 -16.984375 C 9.941406 -16.984375 8.988281 -16.820312 8.25 -16.5 C 7.507812 -16.175781 6.910156 -15.757812 6.453125 -15.25 C 6.003906 -14.75 5.632812 -14.222656 5.34375 -13.671875 C 5.207031 -13.335938 5.019531 -13.0625 4.78125 -12.84375 C 4.539062 -12.625 4.222656 -12.53125 3.828125 -12.5625 C 3.429688 -12.59375 3.175781 -12.726562 3.0625 -12.96875 C 2.957031 -13.21875 2.960938 -13.503906 3.078125 -13.828125 C 3.285156 -14.359375 3.601562 -14.882812 4.03125 -15.40625 C 4.46875 -15.9375 5.035156 -16.421875 5.734375 -16.859375 C 6.441406 -17.304688 7.300781 -17.660156 8.3125 -17.921875 C 9.320312 -18.191406 10.519531 -18.328125 11.90625 -18.328125 C 12.914062 -18.328125 13.820312 -18.234375 14.625 -18.046875 C 15.425781 -17.859375 16.082031 -17.535156 16.59375 -17.078125 C 17.101562 -16.617188 17.445312 -15.988281 17.625 -15.1875 C 17.800781 -14.394531 17.773438 -13.394531 17.546875 -12.1875 L 16.1875 -4.6875 C 15.957031 -3.46875 15.9375 -2.59375 16.125 -2.0625 C 16.3125 -1.53125 16.6875 -1.265625 17.25 -1.265625 C 17.757812 -1.265625 18.203125 -1.476562 18.578125 -1.90625 C 18.953125 -2.332031 19.234375 -3.015625 19.421875 -3.953125 L 20.59375 -3.953125 C 20.332031 -2.503906 19.800781 -1.425781 19 -0.71875 C 18.195312 -0.0078125 17.242188 0.34375 16.140625 0.34375 C 15.003906 0.34375 14.234375 -0.0078125 13.828125 -0.71875 C 13.429688 -1.425781 13.28125 -2.46875 13.375 -3.84375 C 12.019531 -2.570312 10.59375 -1.539062 9.09375 -0.75 C 7.601562 0.03125 6.132812 0.421875 4.6875 0.421875 Z M 6.03125 -1.171875 C 7.15625 -1.171875 8.363281 -1.550781 9.65625 -2.3125 C 10.957031 -3.082031 12.25 -4.164062 13.53125 -5.5625 L 14.5625 -11.234375 L 7.421875 -7.78125 C 6.597656 -7.394531 5.941406 -6.992188 5.453125 -6.578125 C 4.972656 -6.171875 4.613281 -5.753906 4.375 -5.328125 C 4.132812 -4.898438 3.972656 -4.453125 3.890625 -3.984375 C 3.734375 -3.078125 3.835938 -2.378906 4.203125 -1.890625 C 4.566406 -1.410156 5.175781 -1.171875 6.03125 -1.171875 Z M 6.03125 -1.171875 "/></g></g><g style="fill:#ffcccc;fill-opacity:1;"><g transform="translate(841.329858, 365.430366)"><path style="stroke:none" d=""/></g></g><g style="fill:#ffcccc;fill-opacity:1;"><g transform="translate(854.109504, 365.430366)"><path style="stroke:none" d="M 30.046875 -21.109375 L 28.71875 -21.046875 L 28.953125 -25.234375 C 28.898438 -25.972656 28.703125 -26.453125 28.359375 -26.671875 C 28.015625 -26.898438 27.507812 -27.015625 26.84375 -27.015625 L 14.28125 -27.015625 L 12.28125 -15.640625 L 20.53125 -15.640625 C 21.050781 -15.640625 21.519531 -15.742188 21.9375 -15.953125 C 22.351562 -16.171875 22.601562 -16.5625 22.6875 -17.125 L 23.125 -19.625 L 24.5 -19.625 L 22.765625 -9.953125 L 21.421875 -9.953125 L 21.890625 -12.5625 C 21.992188 -13.207031 21.890625 -13.640625 21.578125 -13.859375 C 21.265625 -14.085938 20.84375 -14.203125 20.3125 -14.203125 L 12.03125 -14.203125 L 10.15625 -3.625 C 10.03125 -2.957031 10.050781 -2.421875 10.21875 -2.015625 C 10.394531 -1.609375 10.867188 -1.40625 11.640625 -1.40625 L 22.890625 -1.40625 C 23.847656 -1.40625 24.550781 -1.5625 25 -1.875 C 25.457031 -2.195312 25.820312 -2.679688 26.09375 -3.328125 L 28.046875 -9.40625 L 29.375 -9.34375 L 27.0625 0 L 2.234375 0 L 2.46875 -1.34375 L 4.9375 -1.34375 C 5.625 -1.34375 6.128906 -1.53125 6.453125 -1.90625 C 6.773438 -2.28125 6.992188 -2.765625 7.109375 -3.359375 L 10.921875 -25.078125 C 11.035156 -25.742188 10.988281 -26.25 10.78125 -26.59375 C 10.582031 -26.9375 10.101562 -27.109375 9.34375 -27.109375 L 7 -27.109375 L 7.234375 -28.453125 L 30.90625 -28.453125 Z M 30.046875 -21.109375 "/></g></g><g style="fill:#ffcccc;fill-opacity:1;"><g transform="translate(887.760213, 365.430366)"><path style="stroke:none" d="M -1.09375 0 L -0.859375 -1.34375 L 1.171875 -1.34375 C 1.835938 -1.34375 2.304688 -1.503906 2.578125 -1.828125 C 2.847656 -2.160156 3.039062 -2.609375 3.15625 -3.171875 L 7.03125 -25.109375 C 7.125 -25.679688 7.078125 -26.132812 6.890625 -26.46875 C 6.703125 -26.800781 6.289062 -26.914062 5.65625 -26.8125 L 3.5625 -26.296875 L 3.59375 -27.625 L 10.5625 -29.15625 L 7.65625 -12.734375 C 8.1875 -13.441406 8.78125 -14.132812 9.4375 -14.8125 C 10.101562 -15.488281 10.804688 -16.085938 11.546875 -16.609375 C 12.296875 -17.140625 13.0625 -17.554688 13.84375 -17.859375 C 14.632812 -18.171875 15.414062 -18.328125 16.1875 -18.328125 C 18.113281 -18.328125 19.476562 -17.789062 20.28125 -16.71875 C 21.082031 -15.65625 21.28125 -13.972656 20.875 -11.671875 L 19.40625 -3.171875 C 19.164062 -1.953125 19.578125 -1.34375 20.640625 -1.34375 L 22.640625 -1.34375 L 22.40625 0 L 12.25 0 L 12.484375 -1.34375 L 14.765625 -1.34375 C 15.304688 -1.34375 15.71875 -1.507812 16 -1.84375 C 16.289062 -2.1875 16.484375 -2.640625 16.578125 -3.203125 L 18.078125 -11.640625 C 18.359375 -13.304688 18.28125 -14.539062 17.84375 -15.34375 C 17.40625 -16.15625 16.46875 -16.5625 15.03125 -16.5625 C 14.25 -16.5625 13.476562 -16.359375 12.71875 -15.953125 C 11.957031 -15.546875 11.226562 -15.015625 10.53125 -14.359375 C 9.832031 -13.703125 9.195312 -12.992188 8.625 -12.234375 C 8.050781 -11.472656 7.566406 -10.734375 7.171875 -10.015625 L 5.96875 -3.171875 C 5.875 -2.671875 5.90625 -2.238281 6.0625 -1.875 C 6.226562 -1.519531 6.554688 -1.34375 7.046875 -1.34375 L 9.296875 -1.34375 L 9.0625 0 Z M -1.09375 0 "/></g></g><g style="fill:#ffcccc;fill-opacity:1;"><g transform="translate(915.330523, 365.430366)"><path style="stroke:none" d="M 9.640625 -24.265625 C 9.191406 -24.265625 8.828125 -24.382812 8.546875 -24.625 C 8.265625 -24.875 8.070312 -25.179688 7.96875 -25.546875 C 7.875 -25.910156 7.851562 -26.273438 7.90625 -26.640625 C 8.019531 -27.171875 8.304688 -27.613281 8.765625 -27.96875 C 9.222656 -28.332031 9.722656 -28.515625 10.265625 -28.515625 C 10.867188 -28.515625 11.335938 -28.28125 11.671875 -27.8125 C 12.015625 -27.34375 12.128906 -26.789062 12.015625 -26.15625 C 11.890625 -25.550781 11.59375 -25.082031 11.125 -24.75 C 10.65625 -24.425781 10.160156 -24.265625 9.640625 -24.265625 Z M -0.421875 0 L -0.140625 -1.34375 L 1.921875 -1.34375 C 2.546875 -1.34375 3.019531 -1.507812 3.34375 -1.84375 C 3.664062 -2.1875 3.890625 -2.671875 4.015625 -3.296875 L 6.203125 -14.578125 C 6.328125 -15.242188 6.289062 -15.703125 6.09375 -15.953125 C 5.90625 -16.203125 5.476562 -16.269531 4.8125 -16.15625 L 2.625 -15.65625 L 2.71875 -16.984375 L 9.8125 -18.46875 L 6.8125 -3.046875 C 6.707031 -2.484375 6.722656 -2.054688 6.859375 -1.765625 C 6.992188 -1.484375 7.363281 -1.34375 7.96875 -1.34375 L 9.8125 -1.34375 L 9.53125 0 Z M -0.421875 0 "/></g></g><g style="fill:#ffcccc;fill-opacity:1;"><g transform="translate(929.51979, 365.430366)"><path style="stroke:none" d="M 19.890625 -17.796875 L 19.59375 -16.0625 L 3.65625 -1.34375 L 13.421875 -1.34375 C 13.859375 -1.34375 14.257812 -1.445312 14.625 -1.65625 C 14.988281 -1.875 15.332031 -2.328125 15.65625 -3.015625 L 16.625 -5.828125 L 17.921875 -5.765625 L 16.34375 0 L 0.203125 0 L 0.5 -1.75 L 16.40625 -16.453125 L 7.15625 -16.453125 C 6.71875 -16.453125 6.351562 -16.351562 6.0625 -16.15625 C 5.769531 -15.957031 5.472656 -15.53125 5.171875 -14.875 L 4.25 -12.21875 L 2.921875 -12.3125 L 4.53125 -17.796875 Z M 19.890625 -17.796875 "/></g></g><g style="fill:#ffcccc;fill-opacity:1;"><g transform="translate(952.335201, 365.430366)"><path style="stroke:none" d="M 9.328125 0.53125 C 8.890625 0.53125 8.367188 0.476562 7.765625 0.375 C 7.171875 0.28125 6.550781 0.109375 5.90625 -0.140625 C 5.257812 -0.398438 4.644531 -0.753906 4.0625 -1.203125 C 3.488281 -1.648438 2.988281 -2.222656 2.5625 -2.921875 C 2.144531 -3.628906 1.863281 -4.472656 1.71875 -5.453125 C 1.570312 -6.441406 1.609375 -7.601562 1.828125 -8.9375 C 2.066406 -10.300781 2.46875 -11.5 3.03125 -12.53125 C 3.59375 -13.570312 4.253906 -14.457031 5.015625 -15.1875 C 5.785156 -15.914062 6.609375 -16.507812 7.484375 -16.96875 C 8.359375 -17.4375 9.238281 -17.78125 10.125 -18 C 11.007812 -18.21875 11.847656 -18.328125 12.640625 -18.328125 C 13.390625 -18.328125 14.160156 -18.222656 14.953125 -18.015625 C 15.753906 -17.804688 16.515625 -17.472656 17.234375 -17.015625 C 17.960938 -16.566406 18.585938 -15.976562 19.109375 -15.25 C 19.640625 -14.519531 20.003906 -13.632812 20.203125 -12.59375 C 20.410156 -11.550781 20.390625 -10.332031 20.140625 -8.9375 C 19.867188 -7.4375 19.429688 -6.144531 18.828125 -5.0625 C 18.222656 -3.976562 17.515625 -3.070312 16.703125 -2.34375 C 15.890625 -1.625 15.035156 -1.050781 14.140625 -0.625 C 13.253906 -0.207031 12.390625 0.0859375 11.546875 0.265625 C 10.710938 0.441406 9.972656 0.53125 9.328125 0.53125 Z M 9.578125 -0.84375 C 10.234375 -0.84375 10.945312 -0.992188 11.71875 -1.296875 C 12.488281 -1.597656 13.242188 -2.070312 13.984375 -2.71875 C 14.722656 -3.375 15.378906 -4.210938 15.953125 -5.234375 C 16.523438 -6.265625 16.9375 -7.492188 17.1875 -8.921875 C 17.5 -10.617188 17.476562 -12.066406 17.125 -13.265625 C 16.78125 -14.460938 16.195312 -15.375 15.375 -16 C 14.550781 -16.632812 13.566406 -16.953125 12.421875 -16.953125 C 11.273438 -16.953125 10.175781 -16.632812 9.125 -16 C 8.070312 -15.363281 7.160156 -14.453125 6.390625 -13.265625 C 5.617188 -12.078125 5.085938 -10.664062 4.796875 -9.03125 C 4.546875 -7.570312 4.519531 -6.320312 4.71875 -5.28125 C 4.925781 -4.238281 5.285156 -3.390625 5.796875 -2.734375 C 6.304688 -2.085938 6.894531 -1.609375 7.5625 -1.296875 C 8.226562 -0.992188 8.898438 -0.84375 9.578125 -0.84375 Z M 9.578125 -0.84375 "/></g></g><g style="fill:#ffcccc;fill-opacity:1;"><g transform="translate(976.455054, 365.430366)"><path style="stroke:none" d="M 0.203125 0 L 0.4375 -1.34375 L 2.5 -1.34375 C 3.144531 -1.34375 3.609375 -1.503906 3.890625 -1.828125 C 4.171875 -2.160156 4.367188 -2.609375 4.484375 -3.171875 L 6.421875 -14.3125 C 6.535156 -14.882812 6.492188 -15.335938 6.296875 -15.671875 C 6.109375 -16.015625 5.703125 -16.128906 5.078125 -16.015625 L 2.96875 -15.515625 L 3.015625 -16.859375 L 9.96875 -18.390625 L 8.96875 -12.734375 C 9.539062 -13.441406 10.179688 -14.132812 10.890625 -14.8125 C 11.597656 -15.488281 12.34375 -16.085938 13.125 -16.609375 C 13.914062 -17.140625 14.71875 -17.554688 15.53125 -17.859375 C 16.34375 -18.171875 17.132812 -18.328125 17.90625 -18.328125 C 19.65625 -18.328125 20.921875 -17.890625 21.703125 -17.015625 C 22.492188 -16.148438 22.8125 -14.753906 22.65625 -12.828125 C 23.25 -13.546875 23.898438 -14.234375 24.609375 -14.890625 C 25.316406 -15.554688 26.0625 -16.144531 26.84375 -16.65625 C 27.632812 -17.175781 28.4375 -17.582031 29.25 -17.875 C 30.0625 -18.175781 30.851562 -18.328125 31.625 -18.328125 C 33.570312 -18.328125 34.945312 -17.789062 35.75 -16.71875 C 36.550781 -15.65625 36.75 -13.972656 36.34375 -11.671875 L 34.859375 -3.171875 C 34.753906 -2.585938 34.796875 -2.132812 34.984375 -1.8125 C 35.171875 -1.5 35.546875 -1.34375 36.109375 -1.34375 L 38.078125 -1.34375 L 37.859375 0 L 27.6875 0 L 27.921875 -1.34375 L 30.234375 -1.34375 C 30.765625 -1.34375 31.171875 -1.507812 31.453125 -1.84375 C 31.734375 -2.1875 31.925781 -2.640625 32.03125 -3.203125 L 33.5 -11.640625 C 33.789062 -13.304688 33.71875 -14.539062 33.28125 -15.34375 C 32.851562 -16.15625 31.914062 -16.5625 30.46875 -16.5625 C 29.695312 -16.5625 28.925781 -16.375 28.15625 -16 C 27.382812 -15.625 26.632812 -15.128906 25.90625 -14.515625 C 25.1875 -13.910156 24.523438 -13.25 23.921875 -12.53125 C 23.316406 -11.8125 22.804688 -11.097656 22.390625 -10.390625 L 21.125 -3.171875 C 20.882812 -1.953125 21.300781 -1.34375 22.375 -1.34375 L 24.359375 -1.34375 L 24.140625 0 L 13.96875 0 L 14.203125 -1.34375 L 16.515625 -1.34375 C 17.046875 -1.34375 17.457031 -1.507812 17.75 -1.84375 C 18.039062 -2.1875 18.234375 -2.640625 18.328125 -3.203125 L 19.796875 -11.640625 C 20.097656 -13.304688 20.03125 -14.539062 19.59375 -15.34375 C 19.15625 -16.15625 18.207031 -16.5625 16.75 -16.5625 C 15.945312 -16.5625 15.140625 -16.359375 14.328125 -15.953125 C 13.515625 -15.546875 12.734375 -15.015625 11.984375 -14.359375 C 11.242188 -13.703125 10.570312 -12.992188 9.96875 -12.234375 C 9.363281 -11.472656 8.867188 -10.734375 8.484375 -10.015625 L 7.296875 -3.171875 C 7.203125 -2.671875 7.226562 -2.238281 7.375 -1.875 C 7.53125 -1.519531 7.859375 -1.34375 8.359375 -1.34375 L 10.75 -1.34375 L 10.515625 0 Z M 0.203125 0 "/></g></g><g style="fill:#ffcccc;fill-opacity:1;"><g transform="translate(1019.489325, 365.430366)"><path style="stroke:none" d="M 9.328125 0.53125 C 8.890625 0.53125 8.367188 0.476562 7.765625 0.375 C 7.171875 0.28125 6.550781 0.109375 5.90625 -0.140625 C 5.257812 -0.398438 4.644531 -0.753906 4.0625 -1.203125 C 3.488281 -1.648438 2.988281 -2.222656 2.5625 -2.921875 C 2.144531 -3.628906 1.863281 -4.472656 1.71875 -5.453125 C 1.570312 -6.441406 1.609375 -7.601562 1.828125 -8.9375 C 2.066406 -10.300781 2.46875 -11.5 3.03125 -12.53125 C 3.59375 -13.570312 4.253906 -14.457031 5.015625 -15.1875 C 5.785156 -15.914062 6.609375 -16.507812 7.484375 -16.96875 C 8.359375 -17.4375 9.238281 -17.78125 10.125 -18 C 11.007812 -18.21875 11.847656 -18.328125 12.640625 -18.328125 C 13.390625 -18.328125 14.160156 -18.222656 14.953125 -18.015625 C 15.753906 -17.804688 16.515625 -17.472656 17.234375 -17.015625 C 17.960938 -16.566406 18.585938 -15.976562 19.109375 -15.25 C 19.640625 -14.519531 20.003906 -13.632812 20.203125 -12.59375 C 20.410156 -11.550781 20.390625 -10.332031 20.140625 -8.9375 C 19.867188 -7.4375 19.429688 -6.144531 18.828125 -5.0625 C 18.222656 -3.976562 17.515625 -3.070312 16.703125 -2.34375 C 15.890625 -1.625 15.035156 -1.050781 14.140625 -0.625 C 13.253906 -0.207031 12.390625 0.0859375 11.546875 0.265625 C 10.710938 0.441406 9.972656 0.53125 9.328125 0.53125 Z M 9.578125 -0.84375 C 10.234375 -0.84375 10.945312 -0.992188 11.71875 -1.296875 C 12.488281 -1.597656 13.242188 -2.070312 13.984375 -2.71875 C 14.722656 -3.375 15.378906 -4.210938 15.953125 -5.234375 C 16.523438 -6.265625 16.9375 -7.492188 17.1875 -8.921875 C 17.5 -10.617188 17.476562 -12.066406 17.125 -13.265625 C 16.78125 -14.460938 16.195312 -15.375 15.375 -16 C 14.550781 -16.632812 13.566406 -16.953125 12.421875 -16.953125 C 11.273438 -16.953125 10.175781 -16.632812 9.125 -16 C 8.070312 -15.363281 7.160156 -14.453125 6.390625 -13.265625 C 5.617188 -12.078125 5.085938 -10.664062 4.796875 -9.03125 C 4.546875 -7.570312 4.519531 -6.320312 4.71875 -5.28125 C 4.925781 -4.238281 5.285156 -3.390625 5.796875 -2.734375 C 6.304688 -2.085938 6.894531 -1.609375 7.5625 -1.296875 C 8.226562 -0.992188 8.898438 -0.84375 9.578125 -0.84375 Z M 9.578125 -0.84375 "/></g></g><g style="fill:#ffcccc;fill-opacity:1;"><g transform="translate(1043.609178, 365.430366)"><path style="stroke:none" d="M -1.09375 0 L -0.859375 -1.34375 L 1.171875 -1.34375 C 1.835938 -1.34375 2.304688 -1.503906 2.578125 -1.828125 C 2.847656 -2.160156 3.039062 -2.609375 3.15625 -3.171875 L 7.03125 -25.109375 C 7.125 -25.679688 7.078125 -26.132812 6.890625 -26.46875 C 6.703125 -26.800781 6.289062 -26.914062 5.65625 -26.8125 L 3.5625 -26.296875 L 3.59375 -27.625 L 10.5625 -29.15625 L 7.65625 -12.734375 C 8.1875 -13.441406 8.78125 -14.132812 9.4375 -14.8125 C 10.101562 -15.488281 10.804688 -16.085938 11.546875 -16.609375 C 12.296875 -17.140625 13.0625 -17.554688 13.84375 -17.859375 C 14.632812 -18.171875 15.414062 -18.328125 16.1875 -18.328125 C 18.113281 -18.328125 19.476562 -17.789062 20.28125 -16.71875 C 21.082031 -15.65625 21.28125 -13.972656 20.875 -11.671875 L 19.40625 -3.171875 C 19.164062 -1.953125 19.578125 -1.34375 20.640625 -1.34375 L 22.640625 -1.34375 L 22.40625 0 L 12.25 0 L 12.484375 -1.34375 L 14.765625 -1.34375 C 15.304688 -1.34375 15.71875 -1.507812 16 -1.84375 C 16.289062 -2.1875 16.484375 -2.640625 16.578125 -3.203125 L 18.078125 -11.640625 C 18.359375 -13.304688 18.28125 -14.539062 17.84375 -15.34375 C 17.40625 -16.15625 16.46875 -16.5625 15.03125 -16.5625 C 14.25 -16.5625 13.476562 -16.359375 12.71875 -15.953125 C 11.957031 -15.546875 11.226562 -15.015625 10.53125 -14.359375 C 9.832031 -13.703125 9.195312 -12.992188 8.625 -12.234375 C 8.050781 -11.472656 7.566406 -10.734375 7.171875 -10.015625 L 5.96875 -3.171875 C 5.875 -2.671875 5.90625 -2.238281 6.0625 -1.875 C 6.226562 -1.519531 6.554688 -1.34375 7.046875 -1.34375 L 9.296875 -1.34375 L 9.0625 0 Z M -1.09375 0 "/></g></g><g style="fill:#ffcccc;fill-opacity:1;"><g transform="translate(1071.179488, 365.430366)"><path style="stroke:none" d=""/></g></g><g style="fill:#ffcccc;fill-opacity:1;"><g transform="translate(1083.959134, 365.430366)"><path style="stroke:none" d="M 2.25 0 L 2.484375 -1.34375 L 4.8125 -1.34375 C 5.5625 -1.34375 6.097656 -1.515625 6.421875 -1.859375 C 6.742188 -2.203125 6.972656 -2.703125 7.109375 -3.359375 L 10.921875 -25.078125 C 11.046875 -25.753906 11 -26.257812 10.78125 -26.59375 C 10.5625 -26.9375 10.078125 -27.109375 9.328125 -27.109375 L 7 -27.109375 L 7.234375 -28.453125 L 30.78125 -28.453125 L 29.859375 -21.046875 L 28.515625 -20.984375 L 28.828125 -25.0625 C 28.796875 -25.644531 28.660156 -26.078125 28.421875 -26.359375 C 28.179688 -26.640625 27.898438 -26.816406 27.578125 -26.890625 C 27.265625 -26.972656 26.9375 -27.015625 26.59375 -27.015625 L 14.28125 -27.015625 L 12.28125 -15.65625 L 20.40625 -15.65625 C 20.96875 -15.65625 21.4375 -15.785156 21.8125 -16.046875 C 22.195312 -16.316406 22.4375 -16.773438 22.53125 -17.421875 L 22.9375 -19.65625 L 24.265625 -19.65625 L 22.53125 -9.9375 L 21.203125 -9.9375 L 21.625 -12.359375 C 21.738281 -12.972656 21.679688 -13.441406 21.453125 -13.765625 C 21.222656 -14.085938 20.773438 -14.25 20.109375 -14.25 L 12.015625 -14.25 L 10.125 -3.359375 C 10.007812 -2.742188 10.050781 -2.253906 10.25 -1.890625 C 10.457031 -1.523438 10.960938 -1.34375 11.765625 -1.34375 L 14.609375 -1.34375 L 14.375 0 Z M 2.25 0 "/></g></g><g style="fill:#ffcccc;fill-opacity:1;"><g transform="translate(1112.918044, 365.430366)"><path style="stroke:none" d="M 9.328125 0.53125 C 8.890625 0.53125 8.367188 0.476562 7.765625 0.375 C 7.171875 0.28125 6.550781 0.109375 5.90625 -0.140625 C 5.257812 -0.398438 4.644531 -0.753906 4.0625 -1.203125 C 3.488281 -1.648438 2.988281 -2.222656 2.5625 -2.921875 C 2.144531 -3.628906 1.863281 -4.472656 1.71875 -5.453125 C 1.570312 -6.441406 1.609375 -7.601562 1.828125 -8.9375 C 2.066406 -10.300781 2.46875 -11.5 3.03125 -12.53125 C 3.59375 -13.570312 4.253906 -14.457031 5.015625 -15.1875 C 5.785156 -15.914062 6.609375 -16.507812 7.484375 -16.96875 C 8.359375 -17.4375 9.238281 -17.78125 10.125 -18 C 11.007812 -18.21875 11.847656 -18.328125 12.640625 -18.328125 C 13.390625 -18.328125 14.160156 -18.222656 14.953125 -18.015625 C 15.753906 -17.804688 16.515625 -17.472656 17.234375 -17.015625 C 17.960938 -16.566406 18.585938 -15.976562 19.109375 -15.25 C 19.640625 -14.519531 20.003906 -13.632812 20.203125 -12.59375 C 20.410156 -11.550781 20.390625 -10.332031 20.140625 -8.9375 C 19.867188 -7.4375 19.429688 -6.144531 18.828125 -5.0625 C 18.222656 -3.976562 17.515625 -3.070312 16.703125 -2.34375 C 15.890625 -1.625 15.035156 -1.050781 14.140625 -0.625 C 13.253906 -0.207031 12.390625 0.0859375 11.546875 0.265625 C 10.710938 0.441406 9.972656 0.53125 9.328125 0.53125 Z M 9.578125 -0.84375 C 10.234375 -0.84375 10.945312 -0.992188 11.71875 -1.296875 C 12.488281 -1.597656 13.242188 -2.070312 13.984375 -2.71875 C 14.722656 -3.375 15.378906 -4.210938 15.953125 -5.234375 C 16.523438 -6.265625 16.9375 -7.492188 17.1875 -8.921875 C 17.5 -10.617188 17.476562 -12.066406 17.125 -13.265625 C 16.78125 -14.460938 16.195312 -15.375 15.375 -16 C 14.550781 -16.632812 13.566406 -16.953125 12.421875 -16.953125 C 11.273438 -16.953125 10.175781 -16.632812 9.125 -16 C 8.070312 -15.363281 7.160156 -14.453125 6.390625 -13.265625 C 5.617188 -12.078125 5.085938 -10.664062 4.796875 -9.03125 C 4.546875 -7.570312 4.519531 -6.320312 4.71875 -5.28125 C 4.925781 -4.238281 5.285156 -3.390625 5.796875 -2.734375 C 6.304688 -2.085938 6.894531 -1.609375 7.5625 -1.296875 C 8.226562 -0.992188 8.898438 -0.84375 9.578125 -0.84375 Z M 9.578125 -0.84375 "/></g></g><g style="fill:#ffcccc;fill-opacity:1;"><g transform="translate(1137.037896, 365.430366)"><path style="stroke:none" d="M 9.265625 0.53125 C 7.328125 0.53125 5.953125 0 5.140625 -1.0625 C 4.335938 -2.132812 4.140625 -3.820312 4.546875 -6.125 L 6.015625 -14.625 C 6.128906 -15.21875 6.09375 -15.671875 5.90625 -15.984375 C 5.71875 -16.296875 5.34375 -16.453125 4.78125 -16.453125 L 2.796875 -16.453125 L 3.03125 -17.796875 L 9.421875 -17.796875 L 7.359375 -6.171875 C 7.078125 -4.515625 7.15625 -3.28125 7.59375 -2.46875 C 8.03125 -1.664062 8.972656 -1.265625 10.421875 -1.265625 C 11.191406 -1.265625 11.957031 -1.460938 12.71875 -1.859375 C 13.476562 -2.265625 14.207031 -2.789062 14.90625 -3.4375 C 15.601562 -4.09375 16.234375 -4.800781 16.796875 -5.5625 C 17.367188 -6.332031 17.851562 -7.070312 18.25 -7.78125 L 19.4375 -14.625 C 19.539062 -15.144531 19.515625 -15.578125 19.359375 -15.921875 C 19.210938 -16.273438 18.894531 -16.453125 18.40625 -16.453125 L 16.125 -16.453125 L 16.34375 -17.796875 L 22.84375 -17.796875 L 20.28125 -3.203125 C 20.1875 -2.640625 20.226562 -2.191406 20.40625 -1.859375 C 20.59375 -1.535156 21 -1.421875 21.625 -1.515625 L 23.734375 -2.015625 L 23.6875 -0.671875 L 16.796875 0.484375 L 17.78125 -5.09375 C 17.25 -4.375 16.65625 -3.675781 16 -3 C 15.351562 -2.332031 14.65625 -1.734375 13.90625 -1.203125 C 13.164062 -0.679688 12.398438 -0.265625 11.609375 0.046875 C 10.828125 0.367188 10.046875 0.53125 9.265625 0.53125 Z M 9.265625 0.53125 "/></g></g><g style="fill:#ffcccc;fill-opacity:1;"><g transform="translate(1165.702254, 365.430366)"><path style="stroke:none" d="M 0.203125 0 L 0.4375 -1.34375 L 2.5 -1.34375 C 3.144531 -1.34375 3.609375 -1.503906 3.890625 -1.828125 C 4.171875 -2.160156 4.367188 -2.609375 4.484375 -3.171875 L 6.421875 -14.3125 C 6.535156 -14.882812 6.492188 -15.335938 6.296875 -15.671875 C 6.109375 -16.015625 5.703125 -16.128906 5.078125 -16.015625 L 2.96875 -15.515625 L 3.015625 -16.859375 L 9.96875 -18.390625 L 8.96875 -12.734375 C 9.5 -13.441406 10.085938 -14.128906 10.734375 -14.796875 C 11.390625 -15.460938 12.085938 -16.0625 12.828125 -16.59375 C 13.578125 -17.132812 14.34375 -17.554688 15.125 -17.859375 C 15.914062 -18.171875 16.703125 -18.328125 17.484375 -18.328125 C 19.429688 -18.328125 20.800781 -17.789062 21.59375 -16.71875 C 22.382812 -15.65625 22.578125 -13.972656 22.171875 -11.671875 L 20.703125 -3.171875 C 20.460938 -1.953125 20.878906 -1.34375 21.953125 -1.34375 L 23.953125 -1.34375 L 23.71875 0 L 13.546875 0 L 13.78125 -1.34375 L 16.09375 -1.34375 C 16.613281 -1.34375 17.015625 -1.507812 17.296875 -1.84375 C 17.585938 -2.1875 17.789062 -2.640625 17.90625 -3.203125 L 19.375 -11.640625 C 19.65625 -13.304688 19.578125 -14.539062 19.140625 -15.34375 C 18.710938 -16.15625 17.773438 -16.5625 16.328125 -16.5625 C 15.554688 -16.5625 14.785156 -16.359375 14.015625 -15.953125 C 13.253906 -15.546875 12.523438 -15.015625 11.828125 -14.359375 C 11.128906 -13.703125 10.492188 -12.992188 9.921875 -12.234375 C 9.347656 -11.472656 8.867188 -10.734375 8.484375 -10.015625 L 7.296875 -3.171875 C 7.203125 -2.671875 7.226562 -2.238281 7.375 -1.875 C 7.53125 -1.519531 7.859375 -1.34375 8.359375 -1.34375 L 10.609375 -1.34375 L 10.375 0 Z M 0.203125 0 "/></g></g><g style="fill:#ffcccc;fill-opacity:1;"><g transform="translate(1194.577042, 365.430366)"><path style="stroke:none" d="M 8.640625 0.484375 C 7.398438 0.484375 6.300781 0.242188 5.34375 -0.234375 C 4.382812 -0.722656 3.597656 -1.394531 2.984375 -2.25 C 2.378906 -3.101562 1.960938 -4.09375 1.734375 -5.21875 C 1.515625 -6.34375 1.519531 -7.550781 1.75 -8.84375 C 1.96875 -10.132812 2.347656 -11.289062 2.890625 -12.3125 C 3.429688 -13.332031 4.066406 -14.21875 4.796875 -14.96875 C 5.535156 -15.71875 6.328125 -16.34375 7.171875 -16.84375 C 8.023438 -17.34375 8.878906 -17.710938 9.734375 -17.953125 C 10.597656 -18.203125 11.40625 -18.328125 12.15625 -18.328125 C 12.820312 -18.328125 13.503906 -18.238281 14.203125 -18.0625 C 14.898438 -17.882812 15.570312 -17.609375 16.21875 -17.234375 C 16.863281 -16.867188 17.425781 -16.378906 17.90625 -15.765625 L 19.5625 -25.125 C 19.675781 -25.695312 19.632812 -26.15625 19.4375 -26.5 C 19.238281 -26.84375 18.8125 -26.957031 18.15625 -26.84375 L 16.09375 -26.34375 L 16.140625 -27.671875 L 23.109375 -29.15625 L 18.453125 -2.859375 C 18.378906 -2.460938 18.390625 -2.117188 18.484375 -1.828125 C 18.585938 -1.535156 18.878906 -1.390625 19.359375 -1.390625 L 21.296875 -1.390625 L 21.0625 0 L 15.421875 0 L 15.703125 -2.265625 C 14.710938 -1.515625 13.632812 -0.867188 12.46875 -0.328125 C 11.3125 0.210938 10.035156 0.484375 8.640625 0.484375 Z M 9.78125 -1.171875 C 10.425781 -1.171875 11.109375 -1.273438 11.828125 -1.484375 C 12.546875 -1.703125 13.257812 -2.023438 13.96875 -2.453125 C 14.675781 -2.890625 15.316406 -3.445312 15.890625 -4.125 L 17.609375 -14.0625 C 17.109375 -14.875 16.429688 -15.515625 15.578125 -15.984375 C 14.734375 -16.453125 13.765625 -16.6875 12.671875 -16.6875 C 11.671875 -16.6875 10.734375 -16.484375 9.859375 -16.078125 C 8.984375 -15.671875 8.191406 -15.113281 7.484375 -14.40625 C 6.785156 -13.695312 6.203125 -12.878906 5.734375 -11.953125 C 5.265625 -11.023438 4.929688 -10.039062 4.734375 -9 C 4.535156 -7.90625 4.507812 -6.878906 4.65625 -5.921875 C 4.800781 -4.972656 5.097656 -4.144531 5.546875 -3.4375 C 6.003906 -2.726562 6.585938 -2.171875 7.296875 -1.765625 C 8.015625 -1.367188 8.84375 -1.171875 9.78125 -1.171875 Z M 9.78125 -1.171875 "/></g></g><g style="fill:#ffcccc;fill-opacity:1;"><g transform="translate(1220.800832, 365.430366)"><path style="stroke:none" d="M 4.6875 0.421875 C 3.675781 0.421875 2.882812 0.25 2.3125 -0.09375 C 1.75 -0.4375 1.375 -0.90625 1.1875 -1.5 C 1 -2.101562 0.96875 -2.773438 1.09375 -3.515625 C 1.257812 -4.460938 1.617188 -5.269531 2.171875 -5.9375 C 2.734375 -6.601562 3.425781 -7.191406 4.25 -7.703125 C 5.070312 -8.222656 5.988281 -8.707031 7 -9.15625 L 14.796875 -12.640625 C 14.921875 -13.773438 14.875 -14.65625 14.65625 -15.28125 C 14.4375 -15.90625 14.035156 -16.34375 13.453125 -16.59375 C 12.867188 -16.851562 12.085938 -16.984375 11.109375 -16.984375 C 9.941406 -16.984375 8.988281 -16.820312 8.25 -16.5 C 7.507812 -16.175781 6.910156 -15.757812 6.453125 -15.25 C 6.003906 -14.75 5.632812 -14.222656 5.34375 -13.671875 C 5.207031 -13.335938 5.019531 -13.0625 4.78125 -12.84375 C 4.539062 -12.625 4.222656 -12.53125 3.828125 -12.5625 C 3.429688 -12.59375 3.175781 -12.726562 3.0625 -12.96875 C 2.957031 -13.21875 2.960938 -13.503906 3.078125 -13.828125 C 3.285156 -14.359375 3.601562 -14.882812 4.03125 -15.40625 C 4.46875 -15.9375 5.035156 -16.421875 5.734375 -16.859375 C 6.441406 -17.304688 7.300781 -17.660156 8.3125 -17.921875 C 9.320312 -18.191406 10.519531 -18.328125 11.90625 -18.328125 C 12.914062 -18.328125 13.820312 -18.234375 14.625 -18.046875 C 15.425781 -17.859375 16.082031 -17.535156 16.59375 -17.078125 C 17.101562 -16.617188 17.445312 -15.988281 17.625 -15.1875 C 17.800781 -14.394531 17.773438 -13.394531 17.546875 -12.1875 L 16.1875 -4.6875 C 15.957031 -3.46875 15.9375 -2.59375 16.125 -2.0625 C 16.3125 -1.53125 16.6875 -1.265625 17.25 -1.265625 C 17.757812 -1.265625 18.203125 -1.476562 18.578125 -1.90625 C 18.953125 -2.332031 19.234375 -3.015625 19.421875 -3.953125 L 20.59375 -3.953125 C 20.332031 -2.503906 19.800781 -1.425781 19 -0.71875 C 18.195312 -0.0078125 17.242188 0.34375 16.140625 0.34375 C 15.003906 0.34375 14.234375 -0.0078125 13.828125 -0.71875 C 13.429688 -1.425781 13.28125 -2.46875 13.375 -3.84375 C 12.019531 -2.570312 10.59375 -1.539062 9.09375 -0.75 C 7.601562 0.03125 6.132812 0.421875 4.6875 0.421875 Z M 6.03125 -1.171875 C 7.15625 -1.171875 8.363281 -1.550781 9.65625 -2.3125 C 10.957031 -3.082031 12.25 -4.164062 13.53125 -5.5625 L 14.5625 -11.234375 L 7.421875 -7.78125 C 6.597656 -7.394531 5.941406 -6.992188 5.453125 -6.578125 C 4.972656 -6.171875 4.613281 -5.753906 4.375 -5.328125 C 4.132812 -4.898438 3.972656 -4.453125 3.890625 -3.984375 C 3.734375 -3.078125 3.835938 -2.378906 4.203125 -1.890625 C 4.566406 -1.410156 5.175781 -1.171875 6.03125 -1.171875 Z M 6.03125 -1.171875 "/></g></g><g style="fill:#ffcccc;fill-opacity:1;"><g transform="translate(1245.741203, 365.430366)"><path style="stroke:none" d="M 10.015625 0.53125 C 8.203125 0.53125 6.859375 0 5.984375 -1.0625 C 5.117188 -2.125 4.863281 -3.710938 5.21875 -5.828125 L 7.109375 -16.453125 L 2.84375 -16.453125 L 3.046875 -17.796875 L 5.90625 -17.796875 C 6.769531 -17.796875 7.519531 -18.054688 8.15625 -18.578125 C 8.800781 -19.097656 9.203125 -19.800781 9.359375 -20.6875 L 9.953125 -24.015625 L 11.25 -24.015625 L 10.140625 -17.796875 L 17.125 -17.796875 L 16.890625 -16.453125 L 9.90625 -16.453125 L 8.09375 -6.1875 C 7.800781 -4.5 7.894531 -3.21875 8.375 -2.34375 C 8.863281 -1.476562 9.769531 -1.046875 11.09375 -1.046875 C 11.875 -1.046875 12.597656 -1.21875 13.265625 -1.5625 C 13.941406 -1.90625 14.535156 -2.441406 15.046875 -3.171875 L 16.125 -2.609375 C 15.625 -1.847656 15.035156 -1.234375 14.359375 -0.765625 C 13.679688 -0.304688 12.96875 0.0195312 12.21875 0.21875 C 11.46875 0.425781 10.734375 0.53125 10.015625 0.53125 Z M 10.015625 0.53125 "/></g></g><g style="fill:#ffcccc;fill-opacity:1;"><g transform="translate(1266.284326, 365.430366)"><path style="stroke:none" d="M 9.640625 -24.265625 C 9.191406 -24.265625 8.828125 -24.382812 8.546875 -24.625 C 8.265625 -24.875 8.070312 -25.179688 7.96875 -25.546875 C 7.875 -25.910156 7.851562 -26.273438 7.90625 -26.640625 C 8.019531 -27.171875 8.304688 -27.613281 8.765625 -27.96875 C 9.222656 -28.332031 9.722656 -28.515625 10.265625 -28.515625 C 10.867188 -28.515625 11.335938 -28.28125 11.671875 -27.8125 C 12.015625 -27.34375 12.128906 -26.789062 12.015625 -26.15625 C 11.890625 -25.550781 11.59375 -25.082031 11.125 -24.75 C 10.65625 -24.425781 10.160156 -24.265625 9.640625 -24.265625 Z M -0.421875 0 L -0.140625 -1.34375 L 1.921875 -1.34375 C 2.546875 -1.34375 3.019531 -1.507812 3.34375 -1.84375 C 3.664062 -2.1875 3.890625 -2.671875 4.015625 -3.296875 L 6.203125 -14.578125 C 6.328125 -15.242188 6.289062 -15.703125 6.09375 -15.953125 C 5.90625 -16.203125 5.476562 -16.269531 4.8125 -16.15625 L 2.625 -15.65625 L 2.71875 -16.984375 L 9.8125 -18.46875 L 6.8125 -3.046875 C 6.707031 -2.484375 6.722656 -2.054688 6.859375 -1.765625 C 6.992188 -1.484375 7.363281 -1.34375 7.96875 -1.34375 L 9.8125 -1.34375 L 9.53125 0 Z M -0.421875 0 "/></g></g><g style="fill:#ffcccc;fill-opacity:1;"><g transform="translate(1280.473663, 365.430366)"><path style="stroke:none" d="M 9.328125 0.53125 C 8.890625 0.53125 8.367188 0.476562 7.765625 0.375 C 7.171875 0.28125 6.550781 0.109375 5.90625 -0.140625 C 5.257812 -0.398438 4.644531 -0.753906 4.0625 -1.203125 C 3.488281 -1.648438 2.988281 -2.222656 2.5625 -2.921875 C 2.144531 -3.628906 1.863281 -4.472656 1.71875 -5.453125 C 1.570312 -6.441406 1.609375 -7.601562 1.828125 -8.9375 C 2.066406 -10.300781 2.46875 -11.5 3.03125 -12.53125 C 3.59375 -13.570312 4.253906 -14.457031 5.015625 -15.1875 C 5.785156 -15.914062 6.609375 -16.507812 7.484375 -16.96875 C 8.359375 -17.4375 9.238281 -17.78125 10.125 -18 C 11.007812 -18.21875 11.847656 -18.328125 12.640625 -18.328125 C 13.390625 -18.328125 14.160156 -18.222656 14.953125 -18.015625 C 15.753906 -17.804688 16.515625 -17.472656 17.234375 -17.015625 C 17.960938 -16.566406 18.585938 -15.976562 19.109375 -15.25 C 19.640625 -14.519531 20.003906 -13.632812 20.203125 -12.59375 C 20.410156 -11.550781 20.390625 -10.332031 20.140625 -8.9375 C 19.867188 -7.4375 19.429688 -6.144531 18.828125 -5.0625 C 18.222656 -3.976562 17.515625 -3.070312 16.703125 -2.34375 C 15.890625 -1.625 15.035156 -1.050781 14.140625 -0.625 C 13.253906 -0.207031 12.390625 0.0859375 11.546875 0.265625 C 10.710938 0.441406 9.972656 0.53125 9.328125 0.53125 Z M 9.578125 -0.84375 C 10.234375 -0.84375 10.945312 -0.992188 11.71875 -1.296875 C 12.488281 -1.597656 13.242188 -2.070312 13.984375 -2.71875 C 14.722656 -3.375 15.378906 -4.210938 15.953125 -5.234375 C 16.523438 -6.265625 16.9375 -7.492188 17.1875 -8.921875 C 17.5 -10.617188 17.476562 -12.066406 17.125 -13.265625 C 16.78125 -14.460938 16.195312 -15.375 15.375 -16 C 14.550781 -16.632812 13.566406 -16.953125 12.421875 -16.953125 C 11.273438 -16.953125 10.175781 -16.632812 9.125 -16 C 8.070312 -15.363281 7.160156 -14.453125 6.390625 -13.265625 C 5.617188 -12.078125 5.085938 -10.664062 4.796875 -9.03125 C 4.546875 -7.570312 4.519531 -6.320312 4.71875 -5.28125 C 4.925781 -4.238281 5.285156 -3.390625 5.796875 -2.734375 C 6.304688 -2.085938 6.894531 -1.609375 7.5625 -1.296875 C 8.226562 -0.992188 8.898438 -0.84375 9.578125 -0.84375 Z M 9.578125 -0.84375 "/></g></g><g style="fill:#ffcccc;fill-opacity:1;"><g transform="translate(1304.593445, 365.430366)"><path style="stroke:none" d="M 0.203125 0 L 0.4375 -1.34375 L 2.5 -1.34375 C 3.144531 -1.34375 3.609375 -1.503906 3.890625 -1.828125 C 4.171875 -2.160156 4.367188 -2.609375 4.484375 -3.171875 L 6.421875 -14.3125 C 6.535156 -14.882812 6.492188 -15.335938 6.296875 -15.671875 C 6.109375 -16.015625 5.703125 -16.128906 5.078125 -16.015625 L 2.96875 -15.515625 L 3.015625 -16.859375 L 9.96875 -18.390625 L 8.96875 -12.734375 C 9.5 -13.441406 10.085938 -14.128906 10.734375 -14.796875 C 11.390625 -15.460938 12.085938 -16.0625 12.828125 -16.59375 C 13.578125 -17.132812 14.34375 -17.554688 15.125 -17.859375 C 15.914062 -18.171875 16.703125 -18.328125 17.484375 -18.328125 C 19.429688 -18.328125 20.800781 -17.789062 21.59375 -16.71875 C 22.382812 -15.65625 22.578125 -13.972656 22.171875 -11.671875 L 20.703125 -3.171875 C 20.460938 -1.953125 20.878906 -1.34375 21.953125 -1.34375 L 23.953125 -1.34375 L 23.71875 0 L 13.546875 0 L 13.78125 -1.34375 L 16.09375 -1.34375 C 16.613281 -1.34375 17.015625 -1.507812 17.296875 -1.84375 C 17.585938 -2.1875 17.789062 -2.640625 17.90625 -3.203125 L 19.375 -11.640625 C 19.65625 -13.304688 19.578125 -14.539062 19.140625 -15.34375 C 18.710938 -16.15625 17.773438 -16.5625 16.328125 -16.5625 C 15.554688 -16.5625 14.785156 -16.359375 14.015625 -15.953125 C 13.253906 -15.546875 12.523438 -15.015625 11.828125 -14.359375 C 11.128906 -13.703125 10.492188 -12.992188 9.921875 -12.234375 C 9.347656 -11.472656 8.867188 -10.734375 8.484375 -10.015625 L 7.296875 -3.171875 C 7.203125 -2.671875 7.226562 -2.238281 7.375 -1.875 C 7.53125 -1.519531 7.859375 -1.34375 8.359375 -1.34375 L 10.609375 -1.34375 L 10.375 0 Z M 0.203125 0 "/></g></g></g></svg>