<svg xmlns="http://www.w3.org/2000/svg" xmlns:xlink="http://www.w3.org/1999/xlink" width="3000" zoomAndPan="magnify" viewBox="0 0 2250 675.000002" height="900" preserveAspectRatio="xMidYMid meet" version="1.2"><defs><clipPath id="8debda9fd4"><path d="M 273 25 L 830 25 L 830 672.496094 L 273 672.496094 Z M 273 25 "/></clipPath><clipPath id="f26768eec2"><path d="M 273 25.089844 L 830 25.089844 L 830 672.328125 L 273 672.328125 Z M 273 25.089844 "/></clipPath><clipPath id="bf69badbed"><path d="M 829.929688 44.261719 C 734.875 118.230469 668.457031 181.9375 630.683594 235.273438 C 595.050781 285.566406 585.46875 325.59375 601.816406 355.363281 L 602.15625 356.152344 C 617.152344 388.738281 624.371094 418.734375 623.917969 446.132812 C 623.582031 466.992188 621.210938 487.742188 609.597656 503.867188 C 561.113281 571.296875 533.484375 651.691406 550.511719 672.328125 C 537.769531 656.992188 537.207031 624.632812 543.410156 592.269531 C 555.699219 527.660156 598.886719 496.648438 599.789062 445.683594 C 600.238281 422.003906 593.699219 395.617188 580.394531 366.527344 C 559.53125 327.960938 569.679688 279.589844 611.0625 221.179688 C 650.304688 165.8125 728.445312 92.296875 829.929688 44.261719 Z M 447.902344 296.050781 C 407.421875 218.699219 345.179688 209.453125 297.820312 151.15625 C 299.511719 226.140625 311.238281 280.492188 333.113281 314.429688 C 356.90625 351.414062 400.316406 386.484375 450.832031 372.839844 C 421.515625 396.632812 385.996094 394.828125 365.023438 380.28125 C 356.339844 397.761719 353.410156 409.597656 350.027344 428.882812 C 346.644531 447.710938 345.855469 466.882812 347.882812 486.050781 C 372.691406 487.628906 440.347656 448.726562 444.855469 440.382812 C 423.660156 480.414062 383.855469 507.25 338.863281 512.097656 L 327.476562 513.339844 L 325.558594 501.835938 C 321.386719 476.015625 321.613281 449.855469 326.121094 424.597656 C 329.957031 403.285156 336.835938 382.425781 346.53125 362.804688 C 333.5625 354.347656 322.289062 342.507812 312.703125 327.511719 C 284.402344 283.535156 271.433594 210.804688 273.6875 109.210938 L 274.703125 66.25 C 302.554688 164.574219 434.933594 198.402344 447.902344 296.050781 Z M 547.46875 82.035156 C 574.53125 82.035156 596.40625 103.910156 596.40625 130.972656 C 596.40625 158.035156 574.53125 179.910156 547.46875 179.910156 C 520.40625 179.910156 498.53125 158.035156 498.53125 130.972656 C 498.53125 103.910156 520.40625 82.035156 547.46875 82.035156 Z M 643.085938 296.050781 C 683.566406 218.699219 745.8125 209.453125 793.171875 151.15625 C 791.480469 226.140625 779.75 280.492188 757.875 314.429688 C 734.085938 351.414062 690.671875 386.484375 640.15625 372.839844 C 669.472656 396.632812 704.992188 394.828125 725.964844 380.28125 C 734.648438 397.761719 737.578125 409.597656 740.960938 428.882812 C 744.34375 447.710938 745.132812 466.882812 743.105469 486.050781 C 718.296875 487.628906 650.644531 448.726562 646.132812 440.382812 C 667.332031 480.414062 707.136719 507.25 752.125 512.097656 L 763.515625 513.339844 L 765.320312 501.949219 C 769.492188 476.128906 769.265625 449.96875 764.753906 424.710938 C 760.921875 403.398438 754.042969 382.539062 744.34375 362.917969 C 757.3125 354.460938 768.589844 342.621094 778.171875 327.625 C 806.476562 283.648438 819.441406 210.804688 817.1875 109.320312 L 816.171875 66.359375 C 788.433594 164.574219 656.054688 198.402344 643.085938 296.050781 Z M 285.078125 25.089844 C 352.847656 93.085938 581.746094 252.414062 519.730469 366.636719 C 506.3125 395.730469 499.882812 422.117188 500.335938 445.796875 C 496.5 539.386719 580.730469 502.289062 506.3125 609.183594 L 506.421875 607.039062 C 550.0625 554.496094 477.21875 509.617188 476.089844 446.246094 C 475.640625 418.734375 482.855469 388.738281 497.855469 356.265625 L 498.191406 355.476562 C 545.324219 269.777344 336.15625 97.484375 285.078125 25.089844 Z M 285.078125 25.089844 "/></clipPath><clipPath id="fcd2d88380"><path d="M 615 0.242188 L 706 0.242188 L 706 91 L 615 91 Z M 615 0.242188 "/></clipPath><clipPath id="b86611d309"><path d="M 614.847656 73 L 661 73 L 661 119.371094 L 614.847656 119.371094 Z M 614.847656 73 "/></clipPath></defs><g id="e34820e1c5"><g clip-rule="nonzero" clip-path="url(#8debda9fd4)"><path style=" stroke:none;fill-rule:nonzero;fill:#ffbed3;fill-opacity:1;" d="M 829.929688 44.261719 C 734.875 118.230469 668.457031 181.9375 630.683594 235.273438 C 595.050781 285.566406 585.46875 325.59375 601.816406 355.363281 L 602.15625 356.152344 C 617.152344 388.738281 624.371094 418.734375 623.917969 446.132812 C 623.582031 466.992188 621.210938 487.742188 609.597656 503.867188 C 561.113281 571.296875 533.484375 651.691406 550.511719 672.328125 C 537.769531 656.992188 537.207031 624.632812 543.410156 592.269531 C 555.699219 527.660156 598.886719 496.648438 599.789062 445.683594 C 600.238281 422.003906 593.699219 395.617188 580.394531 366.527344 C 559.535156 327.960938 569.679688 279.589844 611.0625 221.179688 C 650.304688 165.8125 728.445312 92.296875 829.929688 44.261719 Z M 447.902344 296.050781 C 407.421875 218.699219 345.179688 209.453125 297.820312 151.15625 C 299.511719 226.140625 311.238281 280.492188 333.113281 314.429688 C 356.90625 351.414062 400.316406 386.484375 450.832031 372.839844 C 421.515625 396.632812 385.996094 394.828125 365.023438 380.28125 C 356.339844 397.761719 353.410156 409.597656 350.027344 428.882812 C 346.644531 447.710938 345.855469 466.882812 347.882812 486.050781 C 372.691406 487.628906 440.347656 448.726562 444.855469 440.382812 C 423.660156 480.414062 383.855469 507.25 338.863281 512.097656 L 327.476562 513.339844 L 325.558594 501.835938 C 321.386719 476.015625 321.613281 449.855469 326.121094 424.597656 C 329.957031 403.285156 336.835938 382.425781 346.53125 362.804688 C 333.5625 354.347656 322.289062 342.507812 312.703125 327.511719 C 284.402344 283.535156 271.433594 210.804688 273.6875 109.210938 L 274.703125 66.25 C 302.554688 164.574219 434.933594 198.402344 447.902344 296.050781 Z M 547.46875 82.035156 C 574.53125 82.035156 596.40625 103.910156 596.40625 130.972656 C 596.40625 158.035156 574.53125 179.910156 547.46875 179.910156 C 520.40625 179.910156 498.53125 158.035156 498.53125 130.972656 C 498.53125 103.910156 520.40625 82.035156 547.46875 82.035156 Z M 643.085938 296.050781 C 683.566406 218.699219 745.8125 209.453125 793.171875 151.15625 C 791.480469 226.140625 779.75 280.492188 757.875 314.429688 C 734.085938 351.414062 690.671875 386.484375 640.15625 372.839844 C 669.472656 396.632812 704.992188 394.828125 725.964844 380.28125 C 734.648438 397.761719 737.578125 409.597656 740.960938 428.882812 C 744.34375 447.710938 745.132812 466.882812 743.105469 486.050781 C 718.296875 487.628906 650.644531 448.726562 646.132812 440.382812 C 667.332031 480.414062 707.136719 507.25 752.125 512.097656 L 763.515625 513.339844 L 765.320312 501.949219 C 769.492188 476.128906 769.265625 449.96875 764.753906 424.710938 C 760.921875 403.398438 754.042969 382.539062 744.34375 362.917969 C 757.3125 354.460938 768.589844 342.621094 778.171875 327.625 C 806.476562 283.648438 819.441406 210.804688 817.1875 109.320312 L 816.171875 66.359375 C 788.433594 164.574219 656.054688 198.402344 643.085938 296.050781 Z M 285.078125 25.089844 C 352.847656 93.085938 581.746094 252.414062 519.730469 366.636719 C 506.3125 395.730469 499.882812 422.117188 500.335938 445.796875 C 496.5 539.386719 580.730469 502.289062 506.3125 609.183594 L 506.421875 607.039062 C 550.0625 554.496094 477.21875 509.617188 476.089844 446.246094 C 475.640625 418.734375 482.855469 388.738281 497.855469 356.265625 L 498.191406 355.476562 C 545.324219 269.777344 336.15625 97.484375 285.078125 25.089844 Z M 285.078125 25.089844 "/></g><g clip-rule="nonzero" clip-path="url(#f26768eec2)"><g clip-rule="nonzero" clip-path="url(#bf69badbed)"><path style=" stroke:none;fill-rule:nonzero;fill:#ffbed3;fill-opacity:1;" d="M 271.433594 25.089844 L 829.929688 25.089844 L 829.929688 672.328125 L 271.433594 672.328125 Z M 271.433594 25.089844 "/></g></g><g clip-rule="nonzero" clip-path="url(#fcd2d88380)"><path style=" stroke:none;fill-rule:nonzero;fill:#ffe8e8;fill-opacity:1;" d="M 681.761719 46.570312 C 680.5 46.710938 679.253906 46.953125 678.03125 47.300781 C 676.808594 47.652344 675.625 48.101562 674.476562 48.648438 C 673.332031 49.199219 672.238281 49.84375 671.203125 50.578125 C 670.164062 51.3125 669.195312 52.128906 668.296875 53.027344 C 667.398438 53.925781 666.578125 54.894531 665.84375 55.933594 C 665.109375 56.972656 664.46875 58.0625 663.917969 59.210938 C 663.367188 60.355469 662.917969 61.542969 662.570312 62.765625 C 662.222656 63.988281 661.976562 65.230469 661.839844 66.496094 C 661.039062 74.542969 660.667969 82.609375 660.734375 90.695312 C 660.800781 82.609375 660.433594 74.542969 659.632812 66.496094 C 659.496094 65.230469 659.25 63.988281 658.902344 62.765625 C 658.554688 61.542969 658.105469 60.355469 657.554688 59.210938 C 657.003906 58.0625 656.363281 56.972656 655.628906 55.933594 C 654.890625 54.894531 654.074219 53.929688 653.175781 53.027344 C 652.277344 52.128906 651.308594 51.3125 650.269531 50.578125 C 649.234375 49.84375 648.140625 49.199219 646.996094 48.648438 C 645.847656 48.101562 644.664062 47.652344 643.441406 47.300781 C 642.21875 46.953125 640.972656 46.710938 639.710938 46.570312 C 631.664062 45.769531 623.59375 45.402344 615.507812 45.46875 C 623.59375 45.535156 631.664062 45.167969 639.710938 44.367188 C 640.972656 44.226562 642.21875 43.984375 643.441406 43.636719 C 644.664062 43.285156 645.847656 42.835938 646.996094 42.289062 C 648.140625 41.738281 649.234375 41.09375 650.269531 40.359375 C 651.308594 39.625 652.277344 38.808594 653.175781 37.910156 C 654.074219 37.011719 654.894531 36.042969 655.628906 35.003906 C 656.363281 33.964844 657.003906 32.875 657.554688 31.726562 C 658.105469 30.582031 658.554688 29.394531 658.902344 28.171875 C 659.253906 26.949219 659.496094 25.707031 659.632812 24.441406 C 660.433594 16.394531 660.804688 8.328125 660.738281 0.242188 C 660.671875 8.328125 661.039062 16.394531 661.839844 24.441406 C 661.976562 25.707031 662.222656 26.949219 662.570312 28.171875 C 662.917969 29.394531 663.367188 30.582031 663.917969 31.726562 C 664.46875 32.875 665.109375 33.964844 665.84375 35.003906 C 666.582031 36.042969 667.398438 37.007812 668.296875 37.910156 C 669.195312 38.808594 670.164062 39.625 671.203125 40.359375 C 672.238281 41.09375 673.332031 41.738281 674.476562 42.285156 C 675.625 42.835938 676.808594 43.285156 678.03125 43.636719 C 679.253906 43.984375 680.5 44.226562 681.761719 44.367188 C 689.808594 45.167969 697.878906 45.535156 705.964844 45.46875 C 697.878906 45.402344 689.808594 45.769531 681.761719 46.570312 Z M 681.761719 46.570312 "/></g><g clip-rule="nonzero" clip-path="url(#b86611d309)"><path style=" stroke:none;fill-rule:nonzero;fill:#ffe8e8;fill-opacity:1;" d="M 648.488281 97.066406 C 647.851562 97.136719 647.21875 97.257812 646.601562 97.4375 C 645.984375 97.613281 645.382812 97.839844 644.804688 98.117188 C 644.222656 98.398438 643.671875 98.722656 643.144531 99.09375 C 642.621094 99.464844 642.128906 99.878906 641.675781 100.332031 C 641.21875 100.789062 640.804688 101.277344 640.433594 101.804688 C 640.0625 102.328125 639.738281 102.882812 639.460938 103.460938 C 639.179688 104.042969 638.953125 104.640625 638.777344 105.261719 C 638.601562 105.878906 638.476562 106.507812 638.40625 107.148438 C 638.003906 111.222656 637.816406 115.304688 637.847656 119.394531 C 637.882812 115.304688 637.695312 111.222656 637.292969 107.148438 C 637.222656 106.507812 637.097656 105.878906 636.921875 105.261719 C 636.746094 104.640625 636.519531 104.042969 636.238281 103.460938 C 635.960938 102.882812 635.636719 102.328125 635.265625 101.804688 C 634.890625 101.277344 634.480469 100.789062 634.023438 100.332031 C 633.570312 99.878906 633.078125 99.464844 632.554688 99.09375 C 632.027344 98.722656 631.476562 98.398438 630.894531 98.117188 C 630.316406 97.839844 629.714844 97.613281 629.097656 97.4375 C 628.476562 97.257812 627.847656 97.136719 627.210938 97.066406 C 623.136719 96.660156 619.054688 96.476562 614.960938 96.507812 C 619.054688 96.542969 623.136719 96.355469 627.210938 95.949219 C 627.847656 95.878906 628.476562 95.757812 629.097656 95.582031 C 629.714844 95.402344 630.316406 95.175781 630.894531 94.898438 C 631.476562 94.621094 632.027344 94.292969 632.554688 93.921875 C 633.078125 93.550781 633.570312 93.136719 634.023438 92.683594 C 634.480469 92.226562 634.890625 91.738281 635.265625 91.210938 C 635.636719 90.6875 635.960938 90.132812 636.238281 89.554688 C 636.519531 88.972656 636.746094 88.375 636.921875 87.753906 C 637.097656 87.136719 637.222656 86.507812 637.292969 85.867188 C 637.695312 81.796875 637.882812 77.714844 637.847656 73.621094 C 637.816406 77.714844 638.003906 81.796875 638.40625 85.867188 C 638.476562 86.507812 638.601562 87.136719 638.777344 87.753906 C 638.953125 88.375 639.179688 88.972656 639.460938 89.554688 C 639.738281 90.132812 640.0625 90.6875 640.433594 91.210938 C 640.804688 91.738281 641.21875 92.226562 641.675781 92.683594 C 642.128906 93.136719 642.621094 93.550781 643.144531 93.921875 C 643.671875 94.292969 644.222656 94.621094 644.804688 94.898438 C 645.382812 95.175781 645.984375 95.402344 646.601562 95.582031 C 647.21875 95.757812 647.851562 95.878906 648.488281 95.949219 C 652.5625 96.355469 656.644531 96.542969 660.738281 96.511719 C 656.644531 96.476562 652.5625 96.660156 648.488281 97.066406 Z M 648.488281 97.066406 "/></g><path style=" stroke:none;fill-rule:nonzero;fill:#ffe8e8;fill-opacity:1;" d="M 693.65625 79.863281 C 692.867188 79.949219 692.117188 80.164062 691.402344 80.503906 C 690.691406 80.847656 690.054688 81.296875 689.492188 81.855469 C 688.933594 82.417969 688.484375 83.054688 688.140625 83.765625 C 687.800781 84.480469 687.585938 85.230469 687.5 86.019531 C 687.25 88.503906 687.136719 90.996094 687.160156 93.496094 C 687.179688 90.996094 687.066406 88.503906 686.816406 86.019531 C 686.730469 85.230469 686.519531 84.480469 686.175781 83.765625 C 685.832031 83.054688 685.382812 82.417969 684.824219 81.855469 C 684.261719 81.296875 683.625 80.847656 682.914062 80.503906 C 682.199219 80.164062 681.449219 79.949219 680.660156 79.863281 C 678.175781 79.613281 675.683594 79.5 673.183594 79.523438 C 675.683594 79.542969 678.175781 79.429688 680.660156 79.179688 C 681.449219 79.09375 682.199219 78.878906 682.914062 78.539062 C 683.625 78.195312 684.261719 77.746094 684.824219 77.183594 C 685.382812 76.625 685.832031 75.988281 686.175781 75.277344 C 686.519531 74.5625 686.730469 73.8125 686.816406 73.023438 C 687.066406 70.539062 687.179688 68.046875 687.160156 65.546875 C 687.136719 68.046875 687.25 70.539062 687.5 73.023438 C 687.585938 73.8125 687.800781 74.5625 688.140625 75.273438 C 688.484375 75.988281 688.933594 76.625 689.496094 77.183594 C 690.054688 77.742188 690.691406 78.195312 691.40625 78.535156 C 692.117188 78.878906 692.867188 79.09375 693.65625 79.179688 C 696.140625 79.425781 698.636719 79.542969 701.136719 79.523438 C 698.636719 79.5 696.140625 79.613281 693.65625 79.863281 Z M 693.65625 79.863281 "/><g style="fill:#c24b79;fill-opacity:1;"><g transform="translate(842.264719, 332.960299)"><path style="stroke:none" d="M 100.484375 -117.65625 C 99.460938 -117.65625 98.613281 -117.316406 97.9375 -116.640625 C 97.257812 -115.960938 96.921875 -115.113281 96.921875 -114.09375 L 96.921875 -4.25 C 96.921875 -3.226562 97.257812 -2.378906 97.9375 -1.703125 C 98.613281 -1.023438 99.460938 -0.6875 100.484375 -0.6875 C 100.941406 -0.6875 101.171875 -0.457031 101.171875 0 C 101.171875 0.457031 100.941406 0.6875 100.484375 0.6875 L 71.921875 0.6875 C 71.578125 0.6875 71.40625 0.457031 71.40625 0 C 71.40625 -0.457031 71.578125 -0.6875 71.921875 -0.6875 C 72.941406 -0.6875 73.789062 -1.023438 74.46875 -1.703125 C 75.15625 -2.378906 75.5 -3.226562 75.5 -4.25 L 75.5 -58.484375 L 36.734375 -58.484375 L 36.734375 -4.25 C 36.734375 -3.226562 37.070312 -2.378906 37.75 -1.703125 C 38.425781 -1.023438 39.21875 -0.6875 40.125 -0.6875 C 40.582031 -0.6875 40.8125 -0.457031 40.8125 0 C 40.8125 0.457031 40.582031 0.6875 40.125 0.6875 L 11.734375 0.6875 C 11.273438 0.6875 11.046875 0.457031 11.046875 0 C 11.046875 -0.457031 11.273438 -0.6875 11.734375 -0.6875 C 12.753906 -0.6875 13.601562 -1.023438 14.28125 -1.703125 C 14.957031 -2.378906 15.296875 -3.226562 15.296875 -4.25 L 15.296875 -114.09375 C 15.296875 -115.113281 14.957031 -115.960938 14.28125 -116.640625 C 13.601562 -117.316406 12.753906 -117.65625 11.734375 -117.65625 C 11.273438 -117.65625 11.046875 -117.882812 11.046875 -118.34375 C 11.046875 -118.789062 11.273438 -119.015625 11.734375 -119.015625 L 40.125 -119.015625 C 40.582031 -119.015625 40.8125 -118.789062 40.8125 -118.34375 C 40.8125 -117.882812 40.582031 -117.65625 40.125 -117.65625 C 39.21875 -117.65625 38.425781 -117.316406 37.75 -116.640625 C 37.070312 -115.960938 36.734375 -115.113281 36.734375 -114.09375 L 36.734375 -59.84375 L 75.5 -59.84375 L 75.5 -114.09375 C 75.5 -115.113281 75.15625 -115.960938 74.46875 -116.640625 C 73.789062 -117.316406 72.941406 -117.65625 71.921875 -117.65625 C 71.578125 -117.65625 71.40625 -117.882812 71.40625 -118.34375 C 71.40625 -118.789062 71.578125 -119.015625 71.921875 -119.015625 L 100.484375 -119.015625 C 100.941406 -119.015625 101.171875 -118.789062 101.171875 -118.34375 C 101.171875 -117.882812 100.941406 -117.65625 100.484375 -117.65625 Z M 100.484375 -117.65625 "/></g></g><g style="fill:#c24b79;fill-opacity:1;"><g transform="translate(949.210302, 332.960299)"><path style="stroke:none" d="M 77.703125 -12.40625 C 78.046875 -12.632812 78.328125 -12.632812 78.546875 -12.40625 C 78.890625 -12.070312 78.890625 -11.734375 78.546875 -11.390625 C 70.503906 -3.335938 60.816406 0.6875 49.484375 0.6875 C 38.035156 0.6875 28.285156 -3.335938 20.234375 -11.390625 C 14.910156 -16.828125 11.335938 -23.0625 9.515625 -30.09375 C 7.703125 -37.125 7.703125 -44.148438 9.515625 -51.171875 C 11.335938 -58.203125 14.910156 -64.441406 20.234375 -69.890625 C 25.554688 -75.210938 31.757812 -78.75 38.84375 -80.5 C 45.9375 -82.257812 52.992188 -82.257812 60.015625 -80.5 C 67.046875 -78.75 73.222656 -75.210938 78.546875 -69.890625 C 78.890625 -69.546875 78.890625 -69.203125 78.546875 -68.859375 L 42.34375 -32.640625 C 42.226562 -32.523438 42.054688 -32.46875 41.828125 -32.46875 C 41.710938 -32.46875 41.597656 -32.523438 41.484375 -32.640625 C 41.148438 -32.984375 41.148438 -33.269531 41.484375 -33.5 L 63.078125 -55.09375 C 55.253906 -62.800781 47.265625 -67.957031 39.109375 -70.5625 C 30.941406 -73.28125 24.929688 -72.710938 21.078125 -68.859375 C 18.585938 -66.253906 17.539062 -62.628906 17.9375 -57.984375 C 18.332031 -53.335938 20.03125 -48.234375 23.03125 -42.671875 C 26.039062 -37.117188 30.148438 -31.738281 35.359375 -26.53125 C 43.179688 -18.707031 51.289062 -13.4375 59.6875 -10.71875 C 67.84375 -7.988281 73.847656 -8.550781 77.703125 -12.40625 Z M 77.703125 -12.40625 "/></g></g><g style="fill:#c24b79;fill-opacity:1;"><g transform="translate(1031.67234, 332.960299)"><path style="stroke:none" d="M 67.328125 -79.921875 C 67.328125 -79.691406 67.382812 -79.632812 67.5 -79.75 C 67.5 -79.863281 67.441406 -79.863281 67.328125 -79.75 C 67.210938 -79.519531 67.210938 -79.460938 67.328125 -79.578125 L 63.078125 -72.9375 C 62.847656 -72.71875 62.625 -72.609375 62.40625 -72.609375 C 62.175781 -72.609375 62.003906 -72.71875 61.890625 -72.9375 C 60.640625 -75.664062 58.488281 -77.484375 55.4375 -78.390625 C 52.375 -79.410156 49.253906 -79.238281 46.078125 -77.875 C 45.847656 -77.757812 45.59375 -77.644531 45.3125 -77.53125 C 45.03125 -77.414062 44.773438 -77.25 44.546875 -77.03125 C 44.429688 -77.03125 44.375 -77.03125 44.375 -77.03125 C 40.632812 -74.988281 37.460938 -72.148438 34.859375 -68.515625 L 34.859375 -4.25 C 34.859375 -3.226562 35.195312 -2.378906 35.875 -1.703125 C 36.550781 -1.023438 37.34375 -0.6875 38.25 -0.6875 C 38.707031 -0.6875 38.9375 -0.457031 38.9375 0 C 38.9375 0.457031 38.707031 0.6875 38.25 0.6875 L 9.859375 0.6875 C 9.410156 0.6875 9.1875 0.457031 9.1875 0 C 9.1875 -0.457031 9.410156 -0.6875 9.859375 -0.6875 C 10.878906 -0.6875 11.726562 -1.023438 12.40625 -1.703125 C 13.09375 -2.378906 13.4375 -3.171875 13.4375 -4.078125 L 13.4375 -65.125 C 13.4375 -65.800781 13.207031 -66.253906 12.75 -66.484375 C 12.1875 -66.710938 11.335938 -66.425781 10.203125 -65.625 C 9.859375 -65.40625 9.578125 -65.460938 9.359375 -65.796875 C 9.015625 -66.140625 9.066406 -66.484375 9.515625 -66.828125 L 13.609375 -69.71875 C 13.609375 -69.832031 13.609375 -69.890625 13.609375 -69.890625 L 33.671875 -84.328125 C 33.890625 -84.554688 34.113281 -84.613281 34.34375 -84.5 C 34.6875 -84.382812 34.859375 -84.160156 34.859375 -83.828125 L 34.859375 -70.734375 C 37.234375 -73.679688 40.066406 -76.117188 43.359375 -78.046875 C 43.585938 -78.160156 43.644531 -78.160156 43.53125 -78.046875 C 43.53125 -78.046875 43.554688 -78.070312 43.609375 -78.125 C 43.671875 -78.1875 43.703125 -78.21875 43.703125 -78.21875 C 43.816406 -78.21875 43.875 -78.21875 43.875 -78.21875 C 44.4375 -78.550781 45 -78.832031 45.5625 -79.0625 C 49.644531 -80.988281 53.898438 -81.953125 58.328125 -81.953125 C 61.265625 -81.953125 64.15625 -81.5 67 -80.59375 C 66.882812 -80.59375 66.882812 -80.59375 67 -80.59375 C 67.21875 -80.476562 67.269531 -80.476562 67.15625 -80.59375 C 67.15625 -80.59375 67.15625 -80.535156 67.15625 -80.421875 C 67.269531 -80.304688 67.328125 -80.25 67.328125 -80.25 C 67.328125 -80.132812 67.328125 -80.023438 67.328125 -79.921875 Z M 67.328125 -79.921875 "/></g></g><g style="fill:#c24b79;fill-opacity:1;"><g transform="translate(1102.572718, 332.960299)"><path style="stroke:none" d="M 100.484375 -0.6875 C 100.941406 -0.6875 101.171875 -0.457031 101.171875 0 C 101.171875 0.457031 100.941406 0.6875 100.484375 0.6875 L 78.046875 0.6875 C 76.796875 0.6875 75.519531 0.234375 74.21875 -0.671875 C 72.914062 -1.585938 71.925781 -2.664062 71.25 -3.90625 L 48.453125 -50.328125 L 36.734375 -50.328125 L 36.734375 -4.25 C 36.734375 -3.226562 37.070312 -2.378906 37.75 -1.703125 C 38.425781 -1.023438 39.21875 -0.6875 40.125 -0.6875 C 40.582031 -0.6875 40.8125 -0.457031 40.8125 0 C 40.8125 0.457031 40.582031 0.6875 40.125 0.6875 L 11.734375 0.6875 C 11.273438 0.6875 11.046875 0.457031 11.046875 0 C 11.046875 -0.457031 11.273438 -0.6875 11.734375 -0.6875 C 12.753906 -0.6875 13.601562 -1.023438 14.28125 -1.703125 C 14.957031 -2.378906 15.296875 -3.226562 15.296875 -4.25 L 15.296875 -114.09375 C 15.296875 -115.113281 14.957031 -115.960938 14.28125 -116.640625 C 13.601562 -117.316406 12.753906 -117.65625 11.734375 -117.65625 C 11.273438 -117.65625 11.046875 -117.882812 11.046875 -118.34375 C 11.046875 -118.789062 11.273438 -119.015625 11.734375 -119.015625 L 62.578125 -119.015625 C 62.679688 -119.015625 62.789062 -119.015625 62.90625 -119.015625 C 63.019531 -119.015625 63.191406 -119.015625 63.421875 -119.015625 C 63.535156 -119.015625 63.59375 -119.015625 63.59375 -119.015625 C 69.820312 -119.015625 75.546875 -117.457031 80.765625 -114.34375 C 85.984375 -111.226562 90.117188 -107.09375 93.171875 -101.9375 C 96.234375 -96.78125 97.765625 -91.023438 97.765625 -84.671875 C 97.765625 -79.347656 96.628906 -74.390625 94.359375 -69.796875 C 92.097656 -65.203125 89.007812 -61.289062 85.09375 -58.0625 C 81.1875 -54.832031 76.738281 -52.648438 71.75 -51.515625 L 94.875 -4.421875 C 95.332031 -3.398438 96.125 -2.519531 97.25 -1.78125 C 98.382812 -1.050781 99.460938 -0.6875 100.484375 -0.6875 Z M 36.734375 -117.65625 L 36.734375 -51.6875 L 62.578125 -51.6875 C 64.953125 -51.6875 67.101562 -53.1875 69.03125 -56.1875 C 70.957031 -59.195312 72.515625 -63.222656 73.703125 -68.265625 C 74.898438 -73.304688 75.5 -78.773438 75.5 -84.671875 C 75.5 -90.679688 74.898438 -96.179688 73.703125 -101.171875 C 72.515625 -106.160156 70.957031 -110.15625 69.03125 -113.15625 C 67.101562 -116.15625 64.953125 -117.65625 62.578125 -117.65625 Z M 36.734375 -117.65625 "/></g></g><g style="fill:#c24b79;fill-opacity:1;"><g transform="translate(1201.357011, 332.960299)"><path style="stroke:none" d="M 77.703125 -12.40625 C 78.046875 -12.632812 78.328125 -12.632812 78.546875 -12.40625 C 78.890625 -12.070312 78.890625 -11.734375 78.546875 -11.390625 C 70.503906 -3.335938 60.816406 0.6875 49.484375 0.6875 C 38.035156 0.6875 28.285156 -3.335938 20.234375 -11.390625 C 14.910156 -16.828125 11.335938 -23.0625 9.515625 -30.09375 C 7.703125 -37.125 7.703125 -44.148438 9.515625 -51.171875 C 11.335938 -58.203125 14.910156 -64.441406 20.234375 -69.890625 C 25.554688 -75.210938 31.757812 -78.75 38.84375 -80.5 C 45.9375 -82.257812 52.992188 -82.257812 60.015625 -80.5 C 67.046875 -78.75 73.222656 -75.210938 78.546875 -69.890625 C 78.890625 -69.546875 78.890625 -69.203125 78.546875 -68.859375 L 42.34375 -32.640625 C 42.226562 -32.523438 42.054688 -32.46875 41.828125 -32.46875 C 41.710938 -32.46875 41.597656 -32.523438 41.484375 -32.640625 C 41.148438 -32.984375 41.148438 -33.269531 41.484375 -33.5 L 63.078125 -55.09375 C 55.253906 -62.800781 47.265625 -67.957031 39.109375 -70.5625 C 30.941406 -73.28125 24.929688 -72.710938 21.078125 -68.859375 C 18.585938 -66.253906 17.539062 -62.628906 17.9375 -57.984375 C 18.332031 -53.335938 20.03125 -48.234375 23.03125 -42.671875 C 26.039062 -37.117188 30.148438 -31.738281 35.359375 -26.53125 C 43.179688 -18.707031 51.289062 -13.4375 59.6875 -10.71875 C 67.84375 -7.988281 73.847656 -8.550781 77.703125 -12.40625 Z M 77.703125 -12.40625 "/></g></g><g style="fill:#c24b79;fill-opacity:1;"><g transform="translate(1283.819049, 332.960299)"><path style="stroke:none" d="M 90.796875 -14.28125 C 91.253906 -14.28125 91.484375 -14.054688 91.484375 -13.609375 C 91.484375 -9.753906 90.0625 -6.40625 87.21875 -3.5625 C 84.382812 -0.726562 81.039062 0.6875 77.1875 0.6875 C 73.226562 0.6875 69.828125 -0.726562 66.984375 -3.5625 C 64.148438 -6.40625 62.734375 -9.753906 62.734375 -13.609375 L 62.734375 -51.515625 C 62.734375 -60.242188 61.796875 -67.269531 59.921875 -72.59375 C 58.054688 -77.925781 56.050781 -80.59375 53.90625 -80.59375 C 50.15625 -80.59375 46.664062 -79.941406 43.4375 -78.640625 C 40.207031 -77.335938 37.347656 -75.550781 34.859375 -73.28125 L 34.859375 -4.25 C 34.859375 -3.226562 35.195312 -2.378906 35.875 -1.703125 C 36.550781 -1.023438 37.34375 -0.6875 38.25 -0.6875 C 38.707031 -0.6875 38.9375 -0.457031 38.9375 0 C 38.9375 0.457031 38.707031 0.6875 38.25 0.6875 L 9.859375 0.6875 C 9.410156 0.6875 9.1875 0.457031 9.1875 0 C 9.1875 -0.457031 9.410156 -0.6875 9.859375 -0.6875 C 10.765625 -0.6875 11.585938 -1.023438 12.328125 -1.703125 C 13.066406 -2.378906 13.4375 -3.226562 13.4375 -4.25 L 13.4375 -65.125 C 13.4375 -65.800781 13.207031 -66.253906 12.75 -66.484375 C 12.1875 -66.710938 11.335938 -66.425781 10.203125 -65.625 C 9.859375 -65.40625 9.578125 -65.460938 9.359375 -65.796875 C 9.015625 -66.140625 9.066406 -66.484375 9.515625 -66.828125 L 13.609375 -69.71875 C 13.609375 -69.832031 13.609375 -69.890625 13.609375 -69.890625 L 33.671875 -84.328125 C 33.890625 -84.554688 34.113281 -84.613281 34.34375 -84.5 C 34.6875 -84.382812 34.859375 -84.160156 34.859375 -83.828125 L 34.859375 -75.15625 C 37.460938 -77.195312 40.378906 -78.8125 43.609375 -80 C 46.835938 -81.1875 50.269531 -81.78125 53.90625 -81.78125 C 59.457031 -81.78125 64.523438 -80.421875 69.109375 -77.703125 C 73.703125 -74.984375 77.359375 -71.328125 80.078125 -66.734375 C 82.804688 -62.140625 84.171875 -57.066406 84.171875 -51.515625 L 84.171875 -40.125 L 84.328125 -13.765625 C 84.328125 -12.859375 84.609375 -12.125 85.171875 -11.5625 C 85.742188 -11 86.425781 -10.71875 87.21875 -10.71875 C 88.019531 -10.71875 88.703125 -11 89.265625 -11.5625 C 89.828125 -12.125 90.109375 -12.804688 90.109375 -13.609375 C 90.109375 -14.054688 90.335938 -14.28125 90.796875 -14.28125 Z M 90.796875 -14.28125 "/></g></g><g style="fill:#c24b79;fill-opacity:1;"><g transform="translate(1379.713033, 332.960299)"><path style="stroke:none" d="M 80.9375 -14.28125 C 81.382812 -14.28125 81.609375 -14.054688 81.609375 -13.609375 C 81.609375 -9.753906 80.191406 -6.40625 77.359375 -3.5625 C 74.523438 -0.726562 71.125 0.6875 67.15625 0.6875 C 63.414062 0.6875 60.1875 -0.554688 57.46875 -3.046875 C 54.75 -5.546875 53.21875 -8.613281 52.875 -12.25 C 51.0625 -8.5 48.285156 -5.40625 44.546875 -2.96875 C 40.804688 -0.53125 36.671875 0.6875 32.140625 0.6875 C 27.828125 0.6875 23.910156 -0.359375 20.390625 -2.453125 C 16.878906 -4.554688 14.078125 -7.363281 11.984375 -10.875 C 9.890625 -14.394531 8.84375 -18.304688 8.84375 -22.609375 C 8.84375 -26.921875 9.890625 -30.832031 11.984375 -34.34375 C 14.078125 -37.863281 16.878906 -40.671875 20.390625 -42.765625 C 23.910156 -44.859375 27.828125 -45.90625 32.140625 -45.90625 L 42.171875 -45.90625 C 42.617188 -45.90625 42.84375 -45.679688 42.84375 -45.234375 C 42.84375 -44.773438 42.617188 -44.546875 42.171875 -44.546875 L 32.3125 -44.546875 C 31.851562 -43.984375 31.394531 -41.800781 30.9375 -38 C 30.488281 -34.207031 30.265625 -29.078125 30.265625 -22.609375 C 30.265625 -16.148438 30.488281 -10.992188 30.9375 -7.140625 C 31.394531 -3.285156 31.851562 -1.132812 32.3125 -0.6875 C 37.070312 -0.6875 41.320312 -2.101562 45.0625 -4.9375 C 48.800781 -7.769531 51.40625 -11.335938 52.875 -15.640625 L 52.875 -46.59375 C 52.875 -52.820312 52.25 -58.515625 51 -63.671875 C 49.757812 -68.828125 48.085938 -72.9375 45.984375 -76 C 43.890625 -79.0625 41.539062 -80.59375 38.9375 -80.59375 C 35.425781 -80.59375 31.96875 -79.742188 28.5625 -78.046875 C 25.164062 -76.347656 22.21875 -74.332031 19.71875 -72 C 17.226562 -69.675781 15.644531 -67.5 14.96875 -65.46875 C 14.851562 -65.238281 14.679688 -65.125 14.453125 -65.125 C 14.453125 -65.125 14.394531 -65.125 14.28125 -65.125 C 14.164062 -65.125 14.050781 -65.179688 13.9375 -65.296875 L 9.6875 -68.859375 C 9.800781 -68.859375 9.800781 -68.859375 9.6875 -68.859375 C 9.6875 -68.859375 9.6875 -68.914062 9.6875 -69.03125 C 9.570312 -69.257812 9.515625 -69.375 9.515625 -69.375 C 9.515625 -69.375 9.570312 -69.429688 9.6875 -69.546875 C 9.6875 -69.660156 9.6875 -69.71875 9.6875 -69.71875 C 9.6875 -69.71875 9.6875 -69.773438 9.6875 -69.890625 C 17.738281 -77.929688 27.488281 -81.953125 38.9375 -81.953125 C 45.394531 -81.953125 51.316406 -80.335938 56.703125 -77.109375 C 62.085938 -73.878906 66.363281 -69.597656 69.53125 -64.265625 C 72.707031 -58.941406 74.296875 -53.050781 74.296875 -46.59375 L 74.296875 -13.609375 C 74.296875 -12.804688 74.609375 -12.125 75.234375 -11.5625 C 75.859375 -11 76.566406 -10.71875 77.359375 -10.71875 C 78.148438 -10.71875 78.828125 -11 79.390625 -11.5625 C 79.960938 -12.125 80.25 -12.804688 80.25 -13.609375 C 80.25 -14.054688 80.476562 -14.28125 80.9375 -14.28125 Z M 80.9375 -14.28125 "/></g></g><g style="fill:#c24b79;fill-opacity:1;"><g transform="translate(1464.725468, 332.960299)"><path style="stroke:none" d="M 24.140625 -97.59375 C 21.191406 -97.59375 18.671875 -98.640625 16.578125 -100.734375 C 14.484375 -102.835938 13.4375 -105.363281 13.4375 -108.3125 C 13.4375 -111.257812 14.484375 -113.78125 16.578125 -115.875 C 18.671875 -117.96875 21.191406 -119.015625 24.140625 -119.015625 C 27.085938 -119.015625 29.609375 -117.96875 31.703125 -115.875 C 33.804688 -113.78125 34.859375 -111.257812 34.859375 -108.3125 C 34.859375 -105.363281 33.804688 -102.835938 31.703125 -100.734375 C 29.609375 -98.640625 27.085938 -97.59375 24.140625 -97.59375 Z M 38.25 -0.6875 C 38.707031 -0.6875 38.9375 -0.457031 38.9375 0 C 38.9375 0.457031 38.707031 0.6875 38.25 0.6875 L 9.859375 0.6875 C 9.410156 0.6875 9.1875 0.457031 9.1875 0 C 9.1875 -0.457031 9.410156 -0.6875 9.859375 -0.6875 C 10.765625 -0.6875 11.585938 -1.023438 12.328125 -1.703125 C 13.066406 -2.378906 13.4375 -3.226562 13.4375 -4.25 L 13.4375 -65.125 C 13.4375 -65.800781 13.207031 -66.253906 12.75 -66.484375 C 12.1875 -66.710938 11.335938 -66.425781 10.203125 -65.625 C 9.859375 -65.40625 9.578125 -65.460938 9.359375 -65.796875 C 9.015625 -66.140625 9.066406 -66.484375 9.515625 -66.828125 L 13.609375 -69.71875 C 13.609375 -69.832031 13.609375 -69.890625 13.609375 -69.890625 L 33.671875 -84.328125 C 33.890625 -84.554688 34.113281 -84.613281 34.34375 -84.5 C 34.6875 -84.382812 34.859375 -84.160156 34.859375 -83.828125 L 34.859375 -4.25 C 34.859375 -3.226562 35.195312 -2.378906 35.875 -1.703125 C 36.550781 -1.023438 37.34375 -0.6875 38.25 -0.6875 Z M 38.25 -0.6875 "/></g></g><g style="fill:#c24b79;fill-opacity:1;"><g transform="translate(1509.441929, 332.960299)"><path style="stroke:none" d="M 50.5 -47.265625 C 55.257812 -45.335938 59.054688 -42.273438 61.890625 -38.078125 C 64.722656 -33.890625 66.140625 -29.242188 66.140625 -24.140625 C 66.140625 -19.609375 65.003906 -15.472656 62.734375 -11.734375 C 60.472656 -7.992188 57.472656 -4.988281 53.734375 -2.71875 C 49.992188 -0.445312 45.851562 0.6875 41.3125 0.6875 L 31.796875 0.6875 C 23.410156 0.6875 15.816406 -1.75 9.015625 -6.625 C 8.785156 -6.738281 8.671875 -6.910156 8.671875 -7.140625 C 8.671875 -7.367188 8.785156 -7.539062 9.015625 -7.65625 L 17.859375 -12.578125 C 18.078125 -12.691406 18.242188 -12.691406 18.359375 -12.578125 C 18.585938 -12.578125 18.757812 -12.46875 18.875 -12.25 C 22.382812 -4.539062 26.691406 -0.6875 31.796875 -0.6875 L 41.3125 -0.6875 C 44.945312 -0.6875 48.066406 -1.957031 50.671875 -4.5 C 53.273438 -7.050781 54.578125 -10.195312 54.578125 -13.9375 C 54.578125 -16.769531 53.695312 -19.347656 51.9375 -21.671875 C 50.1875 -24.003906 47.953125 -25.625 45.234375 -26.53125 L 29.421875 -32.140625 C 26.472656 -33.160156 23.550781 -34.460938 20.65625 -36.046875 C 17.769531 -37.628906 15.304688 -39.785156 13.265625 -42.515625 C 10.203125 -46.816406 8.671875 -51.628906 8.671875 -56.953125 C 8.671875 -61.609375 9.773438 -65.804688 11.984375 -69.546875 C 14.191406 -73.285156 17.191406 -76.257812 20.984375 -78.46875 C 24.785156 -80.675781 28.957031 -81.78125 33.5 -81.78125 L 43.015625 -81.78125 C 51.398438 -81.78125 58.992188 -79.398438 65.796875 -74.640625 C 66.023438 -74.523438 66.140625 -74.300781 66.140625 -73.96875 C 66.140625 -73.738281 66.023438 -73.566406 65.796875 -73.453125 L 56.953125 -68.6875 C 56.847656 -68.570312 56.738281 -68.515625 56.625 -68.515625 C 56.507812 -68.515625 56.453125 -68.515625 56.453125 -68.515625 C 56.222656 -68.628906 56.050781 -68.742188 55.9375 -68.859375 C 52.425781 -76.679688 48.117188 -80.59375 43.015625 -80.59375 L 33.5 -80.59375 C 29.875 -80.59375 26.753906 -79.285156 24.140625 -76.671875 C 21.535156 -74.066406 20.234375 -70.953125 20.234375 -67.328125 C 20.234375 -64.160156 21.253906 -61.382812 23.296875 -59 C 24.648438 -57.1875 26.488281 -55.828125 28.8125 -54.921875 C 31.144531 -54.015625 33.441406 -53.164062 35.703125 -52.375 C 36.273438 -52.257812 36.84375 -52.113281 37.40625 -51.9375 C 37.96875 -51.769531 38.476562 -51.570312 38.9375 -51.34375 Z M 50.5 -47.265625 "/></g></g><g style="fill:#c24b79;fill-opacity:1;"><g transform="translate(1584.252927, 332.960299)"><path style="stroke:none" d="M 50.5 -47.265625 C 55.257812 -45.335938 59.054688 -42.273438 61.890625 -38.078125 C 64.722656 -33.890625 66.140625 -29.242188 66.140625 -24.140625 C 66.140625 -19.609375 65.003906 -15.472656 62.734375 -11.734375 C 60.472656 -7.992188 57.472656 -4.988281 53.734375 -2.71875 C 49.992188 -0.445312 45.851562 0.6875 41.3125 0.6875 L 31.796875 0.6875 C 23.410156 0.6875 15.816406 -1.75 9.015625 -6.625 C 8.785156 -6.738281 8.671875 -6.910156 8.671875 -7.140625 C 8.671875 -7.367188 8.785156 -7.539062 9.015625 -7.65625 L 17.859375 -12.578125 C 18.078125 -12.691406 18.242188 -12.691406 18.359375 -12.578125 C 18.585938 -12.578125 18.757812 -12.46875 18.875 -12.25 C 22.382812 -4.539062 26.691406 -0.6875 31.796875 -0.6875 L 41.3125 -0.6875 C 44.945312 -0.6875 48.066406 -1.957031 50.671875 -4.5 C 53.273438 -7.050781 54.578125 -10.195312 54.578125 -13.9375 C 54.578125 -16.769531 53.695312 -19.347656 51.9375 -21.671875 C 50.1875 -24.003906 47.953125 -25.625 45.234375 -26.53125 L 29.421875 -32.140625 C 26.472656 -33.160156 23.550781 -34.460938 20.65625 -36.046875 C 17.769531 -37.628906 15.304688 -39.785156 13.265625 -42.515625 C 10.203125 -46.816406 8.671875 -51.628906 8.671875 -56.953125 C 8.671875 -61.609375 9.773438 -65.804688 11.984375 -69.546875 C 14.191406 -73.285156 17.191406 -76.257812 20.984375 -78.46875 C 24.785156 -80.675781 28.957031 -81.78125 33.5 -81.78125 L 43.015625 -81.78125 C 51.398438 -81.78125 58.992188 -79.398438 65.796875 -74.640625 C 66.023438 -74.523438 66.140625 -74.300781 66.140625 -73.96875 C 66.140625 -73.738281 66.023438 -73.566406 65.796875 -73.453125 L 56.953125 -68.6875 C 56.847656 -68.570312 56.738281 -68.515625 56.625 -68.515625 C 56.507812 -68.515625 56.453125 -68.515625 56.453125 -68.515625 C 56.222656 -68.628906 56.050781 -68.742188 55.9375 -68.859375 C 52.425781 -76.679688 48.117188 -80.59375 43.015625 -80.59375 L 33.5 -80.59375 C 29.875 -80.59375 26.753906 -79.285156 24.140625 -76.671875 C 21.535156 -74.066406 20.234375 -70.953125 20.234375 -67.328125 C 20.234375 -64.160156 21.253906 -61.382812 23.296875 -59 C 24.648438 -57.1875 26.488281 -55.828125 28.8125 -54.921875 C 31.144531 -54.015625 33.441406 -53.164062 35.703125 -52.375 C 36.273438 -52.257812 36.84375 -52.113281 37.40625 -51.9375 C 37.96875 -51.769531 38.476562 -51.570312 38.9375 -51.34375 Z M 50.5 -47.265625 "/></g></g><g style="fill:#c24b79;fill-opacity:1;"><g transform="translate(1657.873753, 332.960299)"><path style="stroke:none" d="M 80.9375 -14.28125 C 81.382812 -14.28125 81.609375 -14.054688 81.609375 -13.609375 C 81.609375 -9.753906 80.191406 -6.40625 77.359375 -3.5625 C 74.523438 -0.726562 71.125 0.6875 67.15625 0.6875 C 63.414062 0.6875 60.1875 -0.554688 57.46875 -3.046875 C 54.75 -5.546875 53.21875 -8.613281 52.875 -12.25 C 51.0625 -8.5 48.285156 -5.40625 44.546875 -2.96875 C 40.804688 -0.53125 36.671875 0.6875 32.140625 0.6875 C 27.828125 0.6875 23.910156 -0.359375 20.390625 -2.453125 C 16.878906 -4.554688 14.078125 -7.363281 11.984375 -10.875 C 9.890625 -14.394531 8.84375 -18.304688 8.84375 -22.609375 C 8.84375 -26.921875 9.890625 -30.832031 11.984375 -34.34375 C 14.078125 -37.863281 16.878906 -40.671875 20.390625 -42.765625 C 23.910156 -44.859375 27.828125 -45.90625 32.140625 -45.90625 L 42.171875 -45.90625 C 42.617188 -45.90625 42.84375 -45.679688 42.84375 -45.234375 C 42.84375 -44.773438 42.617188 -44.546875 42.171875 -44.546875 L 32.3125 -44.546875 C 31.851562 -43.984375 31.394531 -41.800781 30.9375 -38 C 30.488281 -34.207031 30.265625 -29.078125 30.265625 -22.609375 C 30.265625 -16.148438 30.488281 -10.992188 30.9375 -7.140625 C 31.394531 -3.285156 31.851562 -1.132812 32.3125 -0.6875 C 37.070312 -0.6875 41.320312 -2.101562 45.0625 -4.9375 C 48.800781 -7.769531 51.40625 -11.335938 52.875 -15.640625 L 52.875 -46.59375 C 52.875 -52.820312 52.25 -58.515625 51 -63.671875 C 49.757812 -68.828125 48.085938 -72.9375 45.984375 -76 C 43.890625 -79.0625 41.539062 -80.59375 38.9375 -80.59375 C 35.425781 -80.59375 31.96875 -79.742188 28.5625 -78.046875 C 25.164062 -76.347656 22.21875 -74.332031 19.71875 -72 C 17.226562 -69.675781 15.644531 -67.5 14.96875 -65.46875 C 14.851562 -65.238281 14.679688 -65.125 14.453125 -65.125 C 14.453125 -65.125 14.394531 -65.125 14.28125 -65.125 C 14.164062 -65.125 14.050781 -65.179688 13.9375 -65.296875 L 9.6875 -68.859375 C 9.800781 -68.859375 9.800781 -68.859375 9.6875 -68.859375 C 9.6875 -68.859375 9.6875 -68.914062 9.6875 -69.03125 C 9.570312 -69.257812 9.515625 -69.375 9.515625 -69.375 C 9.515625 -69.375 9.570312 -69.429688 9.6875 -69.546875 C 9.6875 -69.660156 9.6875 -69.71875 9.6875 -69.71875 C 9.6875 -69.71875 9.6875 -69.773438 9.6875 -69.890625 C 17.738281 -77.929688 27.488281 -81.953125 38.9375 -81.953125 C 45.394531 -81.953125 51.316406 -80.335938 56.703125 -77.109375 C 62.085938 -73.878906 66.363281 -69.597656 69.53125 -64.265625 C 72.707031 -58.941406 74.296875 -53.050781 74.296875 -46.59375 L 74.296875 -13.609375 C 74.296875 -12.804688 74.609375 -12.125 75.234375 -11.5625 C 75.859375 -11 76.566406 -10.71875 77.359375 -10.71875 C 78.148438 -10.71875 78.828125 -11 79.390625 -11.5625 C 79.960938 -12.125 80.25 -12.804688 80.25 -13.609375 C 80.25 -14.054688 80.476562 -14.28125 80.9375 -14.28125 Z M 80.9375 -14.28125 "/></g></g><g style="fill:#c24b79;fill-opacity:1;"><g transform="translate(1742.886092, 332.960299)"><path style="stroke:none" d="M 90.796875 -14.28125 C 91.253906 -14.28125 91.484375 -14.054688 91.484375 -13.609375 C 91.484375 -9.753906 90.0625 -6.40625 87.21875 -3.5625 C 84.382812 -0.726562 81.039062 0.6875 77.1875 0.6875 C 73.226562 0.6875 69.828125 -0.726562 66.984375 -3.5625 C 64.148438 -6.40625 62.734375 -9.753906 62.734375 -13.609375 L 62.734375 -51.515625 C 62.734375 -60.242188 61.796875 -67.269531 59.921875 -72.59375 C 58.054688 -77.925781 56.050781 -80.59375 53.90625 -80.59375 C 50.15625 -80.59375 46.664062 -79.941406 43.4375 -78.640625 C 40.207031 -77.335938 37.347656 -75.550781 34.859375 -73.28125 L 34.859375 -4.25 C 34.859375 -3.226562 35.195312 -2.378906 35.875 -1.703125 C 36.550781 -1.023438 37.34375 -0.6875 38.25 -0.6875 C 38.707031 -0.6875 38.9375 -0.457031 38.9375 0 C 38.9375 0.457031 38.707031 0.6875 38.25 0.6875 L 9.859375 0.6875 C 9.410156 0.6875 9.1875 0.457031 9.1875 0 C 9.1875 -0.457031 9.410156 -0.6875 9.859375 -0.6875 C 10.765625 -0.6875 11.585938 -1.023438 12.328125 -1.703125 C 13.066406 -2.378906 13.4375 -3.226562 13.4375 -4.25 L 13.4375 -65.125 C 13.4375 -65.800781 13.207031 -66.253906 12.75 -66.484375 C 12.1875 -66.710938 11.335938 -66.425781 10.203125 -65.625 C 9.859375 -65.40625 9.578125 -65.460938 9.359375 -65.796875 C 9.015625 -66.140625 9.066406 -66.484375 9.515625 -66.828125 L 13.609375 -69.71875 C 13.609375 -69.832031 13.609375 -69.890625 13.609375 -69.890625 L 33.671875 -84.328125 C 33.890625 -84.554688 34.113281 -84.613281 34.34375 -84.5 C 34.6875 -84.382812 34.859375 -84.160156 34.859375 -83.828125 L 34.859375 -75.15625 C 37.460938 -77.195312 40.378906 -78.8125 43.609375 -80 C 46.835938 -81.1875 50.269531 -81.78125 53.90625 -81.78125 C 59.457031 -81.78125 64.523438 -80.421875 69.109375 -77.703125 C 73.703125 -74.984375 77.359375 -71.328125 80.078125 -66.734375 C 82.804688 -62.140625 84.171875 -57.066406 84.171875 -51.515625 L 84.171875 -40.125 L 84.328125 -13.765625 C 84.328125 -12.859375 84.609375 -12.125 85.171875 -11.5625 C 85.742188 -11 86.425781 -10.71875 87.21875 -10.71875 C 88.019531 -10.71875 88.703125 -11 89.265625 -11.5625 C 89.828125 -12.125 90.109375 -12.804688 90.109375 -13.609375 C 90.109375 -14.054688 90.335938 -14.28125 90.796875 -14.28125 Z M 90.796875 -14.28125 "/></g></g><g style="fill:#c24b79;fill-opacity:1;"><g transform="translate(1837.4199, 332.960299)"><path style="stroke:none" d="M 77.703125 -12.40625 C 78.046875 -12.632812 78.328125 -12.632812 78.546875 -12.40625 C 78.890625 -12.070312 78.890625 -11.734375 78.546875 -11.390625 C 70.503906 -3.335938 60.816406 0.6875 49.484375 0.6875 C 38.035156 0.6875 28.285156 -3.335938 20.234375 -11.390625 C 14.910156 -16.828125 11.335938 -23.0625 9.515625 -30.09375 C 7.703125 -37.125 7.703125 -44.148438 9.515625 -51.171875 C 11.335938 -58.203125 14.910156 -64.441406 20.234375 -69.890625 C 25.554688 -75.210938 31.757812 -78.75 38.84375 -80.5 C 45.9375 -82.257812 52.992188 -82.257812 60.015625 -80.5 C 67.046875 -78.75 73.222656 -75.210938 78.546875 -69.890625 C 78.890625 -69.546875 78.890625 -69.203125 78.546875 -68.859375 L 64.4375 -54.75 C 64.101562 -54.40625 63.765625 -54.40625 63.421875 -54.75 C 58.316406 -59.851562 52.988281 -63.90625 47.4375 -66.90625 C 41.882812 -69.90625 36.753906 -71.628906 32.046875 -72.078125 C 27.347656 -72.535156 23.691406 -71.460938 21.078125 -68.859375 C 18.585938 -66.253906 17.539062 -62.628906 17.9375 -57.984375 C 18.332031 -53.335938 20.03125 -48.234375 23.03125 -42.671875 C 26.039062 -37.117188 30.148438 -31.738281 35.359375 -26.53125 C 43.179688 -18.707031 51.289062 -13.4375 59.6875 -10.71875 C 67.84375 -7.988281 73.847656 -8.550781 77.703125 -12.40625 Z M 77.703125 -12.40625 "/></g></g><g style="fill:#c24b79;fill-opacity:1;"><g transform="translate(1916.651433, 332.960299)"><path style="stroke:none" d="M 77.703125 -12.40625 C 78.046875 -12.632812 78.328125 -12.632812 78.546875 -12.40625 C 78.890625 -12.070312 78.890625 -11.734375 78.546875 -11.390625 C 70.503906 -3.335938 60.816406 0.6875 49.484375 0.6875 C 38.035156 0.6875 28.285156 -3.335938 20.234375 -11.390625 C 14.910156 -16.828125 11.335938 -23.0625 9.515625 -30.09375 C 7.703125 -37.125 7.703125 -44.148438 9.515625 -51.171875 C 11.335938 -58.203125 14.910156 -64.441406 20.234375 -69.890625 C 25.554688 -75.210938 31.757812 -78.75 38.84375 -80.5 C 45.9375 -82.257812 52.992188 -82.257812 60.015625 -80.5 C 67.046875 -78.75 73.222656 -75.210938 78.546875 -69.890625 C 78.890625 -69.546875 78.890625 -69.203125 78.546875 -68.859375 L 42.34375 -32.640625 C 42.226562 -32.523438 42.054688 -32.46875 41.828125 -32.46875 C 41.710938 -32.46875 41.597656 -32.523438 41.484375 -32.640625 C 41.148438 -32.984375 41.148438 -33.269531 41.484375 -33.5 L 63.078125 -55.09375 C 55.253906 -62.800781 47.265625 -67.957031 39.109375 -70.5625 C 30.941406 -73.28125 24.929688 -72.710938 21.078125 -68.859375 C 18.585938 -66.253906 17.539062 -62.628906 17.9375 -57.984375 C 18.332031 -53.335938 20.03125 -48.234375 23.03125 -42.671875 C 26.039062 -37.117188 30.148438 -31.738281 35.359375 -26.53125 C 43.179688 -18.707031 51.289062 -13.4375 59.6875 -10.71875 C 67.84375 -7.988281 73.847656 -8.550781 77.703125 -12.40625 Z M 77.703125 -12.40625 "/></g></g><path style="fill:none;stroke-width:2;stroke-linecap:butt;stroke-linejoin:miter;stroke:#c24b79;stroke-opacity:1;stroke-miterlimit:4;" d="M -0.000455721 1.000163 L 358.026738 1.000163 " transform="matrix(3.09298,0,0,3.09298,868.442816,380.910421)"/><g style="fill:#ffcccc;fill-opacity:1;"><g transform="translate(934.215828, 475.169279)"><path style="stroke:none" d="M 39.09375 -28.84375 C 38.832031 -27.539062 38.382812 -26.40625 37.75 -25.4375 C 37.125 -24.476562 36.382812 -23.65625 35.53125 -22.96875 C 34.6875 -22.289062 33.773438 -21.734375 32.796875 -21.296875 C 31.828125 -20.867188 30.875 -20.550781 29.9375 -20.34375 C 31.039062 -20.082031 32.097656 -19.6875 33.109375 -19.15625 C 34.117188 -18.632812 35.003906 -17.960938 35.765625 -17.140625 C 36.523438 -16.316406 37.066406 -15.332031 37.390625 -14.1875 C 37.722656 -13.050781 37.738281 -11.722656 37.4375 -10.203125 C 37.132812 -8.679688 36.601562 -7.359375 35.84375 -6.234375 C 35.09375 -5.109375 34.171875 -4.148438 33.078125 -3.359375 C 31.992188 -2.566406 30.804688 -1.925781 29.515625 -1.4375 C 28.234375 -0.945312 26.910156 -0.585938 25.546875 -0.359375 C 24.179688 -0.140625 22.832031 -0.03125 21.5 -0.03125 L 2.984375 -0.03125 L 3.28125 -1.828125 L 6.265625 -1.828125 C 7.085938 -1.828125 7.703125 -2.070312 8.109375 -2.5625 C 8.515625 -3.0625 8.789062 -3.71875 8.9375 -4.53125 L 14.046875 -33.453125 C 14.160156 -34.210938 14.113281 -34.84375 13.90625 -35.34375 C 13.707031 -35.851562 13.234375 -36.109375 12.484375 -36.109375 L 9.328125 -36.109375 L 9.671875 -38 L 28.609375 -37.9375 C 31.210938 -37.9375 33.359375 -37.566406 35.046875 -36.828125 C 36.734375 -36.085938 37.921875 -35.035156 38.609375 -33.671875 C 39.304688 -32.316406 39.46875 -30.707031 39.09375 -28.84375 Z M 34.71875 -28.578125 C 35.238281 -31.085938 34.765625 -32.988281 33.296875 -34.28125 C 31.835938 -35.582031 29.546875 -36.234375 26.421875 -36.234375 L 18.546875 -36.234375 L 15.9375 -21.25 L 24.25 -21.25 C 27.363281 -21.25 29.753906 -21.832031 31.421875 -23 C 33.085938 -24.175781 34.1875 -26.035156 34.71875 -28.578125 Z M 33.109375 -10.484375 C 33.535156 -12.640625 33.398438 -14.363281 32.703125 -15.65625 C 32.015625 -16.945312 30.894531 -17.882812 29.34375 -18.46875 C 27.789062 -19.0625 25.9375 -19.359375 23.78125 -19.359375 L 15.59375 -19.359375 L 12.984375 -4.5 C 12.910156 -4.101562 12.890625 -3.707031 12.921875 -3.3125 C 12.960938 -2.914062 13.101562 -2.585938 13.34375 -2.328125 C 13.59375 -2.066406 13.976562 -1.9375 14.5 -1.9375 L 21.53125 -1.9375 C 23.738281 -1.9375 25.648438 -2.3125 27.265625 -3.0625 C 28.878906 -3.8125 30.175781 -4.832031 31.15625 -6.125 C 32.132812 -7.414062 32.785156 -8.867188 33.109375 -10.484375 Z M 33.109375 -10.484375 "/></g></g><g style="fill:#ffcccc;fill-opacity:1;"><g transform="translate(977.06092, 475.169279)"><path style="stroke:none" d="M 3.546875 13.1875 C 2.960938 13.21875 2.515625 13.082031 2.203125 12.78125 C 1.898438 12.488281 1.773438 12.109375 1.828125 11.640625 C 1.921875 11.078125 2.191406 10.675781 2.640625 10.4375 C 3.085938 10.207031 3.488281 10.054688 3.84375 9.984375 C 4.96875 9.734375 6.0625 9.351562 7.125 8.84375 C 8.1875 8.34375 9.234375 7.609375 10.265625 6.640625 C 11.304688 5.679688 12.363281 4.375 13.4375 2.71875 L 14.984375 0.25 L 7.203125 -19.921875 C 6.929688 -20.710938 6.640625 -21.253906 6.328125 -21.546875 C 6.023438 -21.835938 5.601562 -21.984375 5.0625 -21.984375 L 3.625 -21.984375 L 3.90625 -23.78125 L 15.515625 -23.78125 L 15.234375 -21.984375 L 12.984375 -21.984375 C 12.160156 -21.984375 11.648438 -21.742188 11.453125 -21.265625 C 11.253906 -20.785156 11.28125 -20.191406 11.53125 -19.484375 L 17.53125 -3.65625 L 27.296875 -18.9375 C 27.816406 -19.820312 28.082031 -20.550781 28.09375 -21.125 C 28.101562 -21.695312 27.664062 -21.984375 26.78125 -21.984375 L 24.203125 -21.984375 L 24.515625 -23.78125 L 33.78125 -23.78125 L 33.46875 -21.984375 L 32.75 -21.984375 C 32.1875 -21.984375 31.664062 -21.804688 31.1875 -21.453125 C 30.707031 -21.109375 30.164062 -20.421875 29.5625 -19.390625 L 14.75 3.84375 C 13.4375 5.894531 12.191406 7.570312 11.015625 8.875 C 9.835938 10.175781 8.644531 11.164062 7.4375 11.84375 C 6.226562 12.53125 4.929688 12.976562 3.546875 13.1875 Z M 3.546875 13.1875 "/></g></g><g style="fill:#ffcccc;fill-opacity:1;"><g transform="translate(1010.097068, 475.169279)"><path style="stroke:none" d=""/></g></g><g style="fill:#ffcccc;fill-opacity:1;"><g transform="translate(1027.169047, 475.169279)"><path style="stroke:none" d="M 2.984375 0 L 3.28125 -1.796875 L 7.453125 -1.796875 C 8.492188 -1.796875 9.226562 -2.03125 9.65625 -2.5 C 10.09375 -2.96875 10.394531 -3.632812 10.5625 -4.5 L 15.65625 -33.53125 C 15.820312 -34.394531 15.769531 -35.0625 15.5 -35.53125 C 15.226562 -36 14.566406 -36.234375 13.515625 -36.234375 L 9.359375 -36.234375 L 9.671875 -38.03125 L 27.296875 -38.03125 L 26.984375 -36.234375 L 22.875 -36.234375 C 21.832031 -36.234375 21.082031 -36.007812 20.625 -35.5625 C 20.175781 -35.125 19.867188 -34.445312 19.703125 -33.53125 L 14.609375 -4.5 C 14.421875 -3.582031 14.472656 -2.898438 14.765625 -2.453125 C 15.054688 -2.015625 15.726562 -1.796875 16.78125 -1.796875 L 20.90625 -1.796875 L 20.609375 0 Z M 2.984375 0 "/></g></g><g style="fill:#ffcccc;fill-opacity:1;"><g transform="translate(1055.314763, 475.169279)"><path style="stroke:none" d="M 14.703125 -14.453125 C 15.734375 -14.316406 16.757812 -14.148438 17.78125 -13.953125 C 18.800781 -13.753906 19.753906 -13.488281 20.640625 -13.15625 C 21.535156 -12.832031 22.304688 -12.410156 22.953125 -11.890625 C 23.597656 -11.367188 24.0625 -10.707031 24.34375 -9.90625 C 24.625 -9.113281 24.660156 -8.144531 24.453125 -7 C 24.222656 -5.726562 23.753906 -4.609375 23.046875 -3.640625 C 22.347656 -2.671875 21.460938 -1.863281 20.390625 -1.21875 C 19.316406 -0.570312 18.117188 -0.09375 16.796875 0.21875 C 15.472656 0.539062 14.082031 0.703125 12.625 0.703125 C 10.488281 0.703125 8.6875 0.398438 7.21875 -0.203125 C 5.757812 -0.816406 4.691406 -1.570312 4.015625 -2.46875 L 2.640625 0.703125 L 1.234375 0.703125 L 2.5 -6.71875 L 4.1875 -6.71875 C 4.695312 -4.84375 5.734375 -3.4375 7.296875 -2.5 C 8.859375 -1.5625 10.773438 -1.09375 13.046875 -1.09375 C 14.460938 -1.09375 15.769531 -1.285156 16.96875 -1.671875 C 18.175781 -2.054688 19.175781 -2.625 19.96875 -3.375 C 20.769531 -4.125 21.265625 -5.03125 21.453125 -6.09375 C 21.617188 -7 21.519531 -7.734375 21.15625 -8.296875 C 20.789062 -8.859375 20.238281 -9.296875 19.5 -9.609375 C 18.769531 -9.929688 17.921875 -10.179688 16.953125 -10.359375 C 15.992188 -10.535156 14.976562 -10.691406 13.90625 -10.828125 C 12.875 -10.972656 11.851562 -11.132812 10.84375 -11.3125 C 9.832031 -11.488281 8.882812 -11.722656 8 -12.015625 C 7.125 -12.304688 6.375 -12.691406 5.75 -13.171875 C 5.125 -13.648438 4.671875 -14.253906 4.390625 -14.984375 C 4.117188 -15.710938 4.078125 -16.601562 4.265625 -17.65625 C 4.535156 -19.09375 5.144531 -20.320312 6.09375 -21.34375 C 7.050781 -22.363281 8.300781 -23.140625 9.84375 -23.671875 C 11.394531 -24.210938 13.164062 -24.484375 15.15625 -24.484375 C 17.175781 -24.484375 18.84375 -24.210938 20.15625 -23.671875 C 21.46875 -23.140625 22.46875 -22.425781 23.15625 -21.53125 L 24.34375 -24.484375 L 25.6875 -24.484375 L 24.515625 -17.34375 L 23.046875 -17.34375 C 22.785156 -18.957031 21.96875 -20.25 20.59375 -21.21875 C 19.226562 -22.195312 17.289062 -22.6875 14.78125 -22.6875 C 13.445312 -22.6875 12.238281 -22.535156 11.15625 -22.234375 C 10.070312 -21.929688 9.1875 -21.476562 8.5 -20.875 C 7.8125 -20.28125 7.382812 -19.515625 7.21875 -18.578125 C 7.09375 -17.804688 7.1875 -17.179688 7.5 -16.703125 C 7.820312 -16.234375 8.320312 -15.859375 9 -15.578125 C 9.6875 -15.304688 10.507812 -15.085938 11.46875 -14.921875 C 12.4375 -14.753906 13.515625 -14.597656 14.703125 -14.453125 Z M 14.703125 -14.453125 "/></g></g><g style="fill:#ffcccc;fill-opacity:1;"><g transform="translate(1086.18673, 475.169279)"><path style="stroke:none" d="M 6.265625 0.5625 C 4.921875 0.5625 3.867188 0.332031 3.109375 -0.125 C 2.347656 -0.582031 1.835938 -1.207031 1.578125 -2 C 1.328125 -2.800781 1.289062 -3.695312 1.46875 -4.6875 C 1.6875 -5.96875 2.164062 -7.050781 2.90625 -7.9375 C 3.644531 -8.832031 4.566406 -9.617188 5.671875 -10.296875 C 6.773438 -10.984375 8.003906 -11.625 9.359375 -12.21875 L 19.765625 -16.890625 C 19.929688 -18.410156 19.867188 -19.585938 19.578125 -20.421875 C 19.285156 -21.253906 18.75 -21.835938 17.96875 -22.171875 C 17.195312 -22.515625 16.15625 -22.6875 14.84375 -22.6875 C 13.28125 -22.6875 12.003906 -22.46875 11.015625 -22.03125 C 10.023438 -21.601562 9.226562 -21.050781 8.625 -20.375 C 8.03125 -19.695312 7.535156 -18.992188 7.140625 -18.265625 C 6.953125 -17.816406 6.695312 -17.445312 6.375 -17.15625 C 6.0625 -16.863281 5.640625 -16.738281 5.109375 -16.78125 C 4.585938 -16.8125 4.25 -16.988281 4.09375 -17.3125 C 3.945312 -17.644531 3.953125 -18.03125 4.109375 -18.46875 C 4.390625 -19.175781 4.816406 -19.878906 5.390625 -20.578125 C 5.972656 -21.285156 6.734375 -21.929688 7.671875 -22.515625 C 8.609375 -23.109375 9.75 -23.582031 11.09375 -23.9375 C 12.445312 -24.300781 14.050781 -24.484375 15.90625 -24.484375 C 17.257812 -24.484375 18.46875 -24.351562 19.53125 -24.09375 C 20.601562 -23.84375 21.476562 -23.410156 22.15625 -22.796875 C 22.84375 -22.191406 23.300781 -21.351562 23.53125 -20.28125 C 23.769531 -19.21875 23.738281 -17.882812 23.4375 -16.28125 L 21.609375 -6.265625 C 21.316406 -4.640625 21.296875 -3.46875 21.546875 -2.75 C 21.796875 -2.039062 22.296875 -1.6875 23.046875 -1.6875 C 23.722656 -1.6875 24.3125 -1.972656 24.8125 -2.546875 C 25.320312 -3.117188 25.695312 -4.03125 25.9375 -5.28125 L 27.515625 -5.28125 C 27.160156 -3.351562 26.445312 -1.914062 25.375 -0.96875 C 24.3125 -0.0195312 23.039062 0.453125 21.5625 0.453125 C 20.039062 0.453125 19.007812 -0.0195312 18.46875 -0.96875 C 17.9375 -1.914062 17.738281 -3.304688 17.875 -5.140625 C 16.0625 -3.429688 14.15625 -2.050781 12.15625 -1 C 10.15625 0.0390625 8.191406 0.5625 6.265625 0.5625 Z M 8.0625 -1.578125 C 9.5625 -1.578125 11.175781 -2.085938 12.90625 -3.109375 C 14.644531 -4.128906 16.367188 -5.566406 18.078125 -7.421875 L 19.453125 -15.015625 L 9.921875 -10.40625 C 8.816406 -9.875 7.941406 -9.335938 7.296875 -8.796875 C 6.648438 -8.253906 6.164062 -7.695312 5.84375 -7.125 C 5.53125 -6.550781 5.316406 -5.945312 5.203125 -5.3125 C 4.992188 -4.113281 5.132812 -3.191406 5.625 -2.546875 C 6.113281 -1.898438 6.925781 -1.578125 8.0625 -1.578125 Z M 8.0625 -1.578125 "/></g></g><g style="fill:#ffcccc;fill-opacity:1;"><g transform="translate(1119.503937, 475.169279)"><path style="stroke:none" d="M 14.421875 0.640625 C 12.773438 0.640625 11.25 0.300781 9.84375 -0.375 C 8.4375 -1.0625 7.265625 -2.003906 6.328125 -3.203125 L 4.046875 0.203125 L 2.5 0.203125 L 8.453125 -33.59375 C 8.609375 -34.394531 8.554688 -35.015625 8.296875 -35.453125 C 8.046875 -35.890625 7.5 -36.035156 6.65625 -35.890625 L 3.828125 -35.21875 L 3.875 -36.984375 L 13.1875 -38.953125 L 10 -21.109375 C 11.144531 -22.046875 12.476562 -22.84375 14 -23.5 C 15.519531 -24.15625 17.160156 -24.484375 18.921875 -24.484375 C 20.515625 -24.484375 21.960938 -24.171875 23.265625 -23.546875 C 24.566406 -22.929688 25.660156 -22.054688 26.546875 -20.921875 C 27.429688 -19.785156 28.046875 -18.453125 28.390625 -16.921875 C 28.742188 -15.398438 28.757812 -13.742188 28.4375 -11.953125 C 28.125 -10.109375 27.515625 -8.414062 26.609375 -6.875 C 25.710938 -5.34375 24.613281 -4.015625 23.3125 -2.890625 C 22.007812 -1.765625 20.59375 -0.894531 19.0625 -0.28125 C 17.539062 0.332031 15.992188 0.640625 14.421875 0.640625 Z M 13.890625 -1.46875 C 15.253906 -1.46875 16.53125 -1.769531 17.71875 -2.375 C 18.90625 -2.976562 19.960938 -3.785156 20.890625 -4.796875 C 21.816406 -5.816406 22.585938 -6.941406 23.203125 -8.171875 C 23.828125 -9.410156 24.253906 -10.660156 24.484375 -11.921875 C 24.742188 -13.304688 24.773438 -14.617188 24.578125 -15.859375 C 24.378906 -17.109375 23.984375 -18.222656 23.390625 -19.203125 C 22.804688 -20.191406 22.023438 -20.96875 21.046875 -21.53125 C 20.078125 -22.09375 18.945312 -22.375 17.65625 -22.375 C 16.601562 -22.375 15.582031 -22.203125 14.59375 -21.859375 C 13.613281 -21.523438 12.695312 -21.070312 11.84375 -20.5 C 10.988281 -19.925781 10.234375 -19.304688 9.578125 -18.640625 L 7.25 -5.375 C 7.863281 -4.28125 8.738281 -3.351562 9.875 -2.59375 C 11.007812 -1.84375 12.347656 -1.46875 13.890625 -1.46875 Z M 13.890625 -1.46875 "/></g></g><g style="fill:#ffcccc;fill-opacity:1;"><g transform="translate(1153.102203, 475.169279)"><path style="stroke:none" d="M 12.078125 0.703125 C 10.398438 0.703125 8.894531 0.394531 7.5625 -0.21875 C 6.226562 -0.84375 5.125 -1.71875 4.25 -2.84375 C 3.382812 -3.96875 2.789062 -5.304688 2.46875 -6.859375 C 2.15625 -8.410156 2.15625 -10.113281 2.46875 -11.96875 C 2.8125 -13.820312 3.410156 -15.515625 4.265625 -17.046875 C 5.128906 -18.585938 6.191406 -19.910156 7.453125 -21.015625 C 8.722656 -22.128906 10.117188 -22.984375 11.640625 -23.578125 C 13.171875 -24.179688 14.765625 -24.484375 16.421875 -24.484375 C 17.859375 -24.484375 19.207031 -24.222656 20.46875 -23.703125 C 21.738281 -23.191406 22.820312 -22.421875 23.71875 -21.390625 C 24.625 -20.359375 25.265625 -19.085938 25.640625 -17.578125 C 26.023438 -16.066406 26.0625 -14.3125 25.75 -12.3125 L 6.46875 -12.3125 C 6.21875 -10.925781 6.15625 -9.570312 6.28125 -8.25 C 6.40625 -6.925781 6.726562 -5.738281 7.25 -4.6875 C 7.769531 -3.644531 8.523438 -2.8125 9.515625 -2.1875 C 10.515625 -1.570312 11.753906 -1.265625 13.234375 -1.265625 C 14.992188 -1.265625 16.664062 -1.742188 18.25 -2.703125 C 19.832031 -3.671875 21.160156 -4.984375 22.234375 -6.640625 L 23.671875 -5.796875 C 22.804688 -4.492188 21.769531 -3.351562 20.5625 -2.375 C 19.351562 -1.40625 18.03125 -0.648438 16.59375 -0.109375 C 15.164062 0.429688 13.660156 0.703125 12.078125 0.703125 Z M 6.828125 -14.046875 L 22.421875 -14.046875 C 22.515625 -15.171875 22.457031 -16.242188 22.25 -17.265625 C 22.050781 -18.285156 21.691406 -19.203125 21.171875 -20.015625 C 20.660156 -20.835938 19.988281 -21.484375 19.15625 -21.953125 C 18.320312 -22.421875 17.316406 -22.65625 16.140625 -22.65625 C 14.953125 -22.65625 13.863281 -22.414062 12.875 -21.9375 C 11.882812 -21.457031 10.984375 -20.8125 10.171875 -20 C 9.367188 -19.1875 8.6875 -18.269531 8.125 -17.25 C 7.5625 -16.226562 7.128906 -15.160156 6.828125 -14.046875 Z M 6.828125 -14.046875 "/></g></g><g style="fill:#ffcccc;fill-opacity:1;"><g transform="translate(1183.833664, 475.169279)"><path style="stroke:none" d="M -1.484375 0 L -1.1875 -1.796875 L 1.625 -1.796875 C 2.46875 -1.796875 3.070312 -2.007812 3.4375 -2.4375 C 3.800781 -2.875 4.0625 -3.476562 4.21875 -4.25 L 9.390625 -33.59375 C 9.535156 -34.394531 9.476562 -35.007812 9.21875 -35.4375 C 8.957031 -35.875 8.382812 -36.015625 7.5 -35.859375 L 4.71875 -35.1875 L 4.78125 -36.984375 L 14.109375 -38.953125 L 7.984375 -4.25 C 7.847656 -3.59375 7.875 -3.019531 8.0625 -2.53125 C 8.25 -2.039062 8.679688 -1.796875 9.359375 -1.796875 L 12.5 -1.796875 L 12.203125 0 Z M -1.484375 0 "/></g></g><g style="fill:#ffcccc;fill-opacity:1;"><g transform="translate(1203.013565, 475.169279)"><path style="stroke:none" d="M -1.484375 0 L -1.1875 -1.796875 L 1.625 -1.796875 C 2.46875 -1.796875 3.070312 -2.007812 3.4375 -2.4375 C 3.800781 -2.875 4.0625 -3.476562 4.21875 -4.25 L 9.390625 -33.59375 C 9.535156 -34.394531 9.476562 -35.007812 9.21875 -35.4375 C 8.957031 -35.875 8.382812 -36.015625 7.5 -35.859375 L 4.71875 -35.1875 L 4.78125 -36.984375 L 14.109375 -38.953125 L 7.984375 -4.25 C 7.847656 -3.59375 7.875 -3.019531 8.0625 -2.53125 C 8.25 -2.039062 8.679688 -1.796875 9.359375 -1.796875 L 12.5 -1.796875 L 12.203125 0 Z M -1.484375 0 "/></g></g><g style="fill:#ffcccc;fill-opacity:1;"><g transform="translate(1222.193466, 475.169279)"><path style="stroke:none" d="M 6.265625 0.5625 C 4.921875 0.5625 3.867188 0.332031 3.109375 -0.125 C 2.347656 -0.582031 1.835938 -1.207031 1.578125 -2 C 1.328125 -2.800781 1.289062 -3.695312 1.46875 -4.6875 C 1.6875 -5.96875 2.164062 -7.050781 2.90625 -7.9375 C 3.644531 -8.832031 4.566406 -9.617188 5.671875 -10.296875 C 6.773438 -10.984375 8.003906 -11.625 9.359375 -12.21875 L 19.765625 -16.890625 C 19.929688 -18.410156 19.867188 -19.585938 19.578125 -20.421875 C 19.285156 -21.253906 18.75 -21.835938 17.96875 -22.171875 C 17.195312 -22.515625 16.15625 -22.6875 14.84375 -22.6875 C 13.28125 -22.6875 12.003906 -22.46875 11.015625 -22.03125 C 10.023438 -21.601562 9.226562 -21.050781 8.625 -20.375 C 8.03125 -19.695312 7.535156 -18.992188 7.140625 -18.265625 C 6.953125 -17.816406 6.695312 -17.445312 6.375 -17.15625 C 6.0625 -16.863281 5.640625 -16.738281 5.109375 -16.78125 C 4.585938 -16.8125 4.25 -16.988281 4.09375 -17.3125 C 3.945312 -17.644531 3.953125 -18.03125 4.109375 -18.46875 C 4.390625 -19.175781 4.816406 -19.878906 5.390625 -20.578125 C 5.972656 -21.285156 6.734375 -21.929688 7.671875 -22.515625 C 8.609375 -23.109375 9.75 -23.582031 11.09375 -23.9375 C 12.445312 -24.300781 14.050781 -24.484375 15.90625 -24.484375 C 17.257812 -24.484375 18.46875 -24.351562 19.53125 -24.09375 C 20.601562 -23.84375 21.476562 -23.410156 22.15625 -22.796875 C 22.84375 -22.191406 23.300781 -21.351562 23.53125 -20.28125 C 23.769531 -19.21875 23.738281 -17.882812 23.4375 -16.28125 L 21.609375 -6.265625 C 21.316406 -4.640625 21.296875 -3.46875 21.546875 -2.75 C 21.796875 -2.039062 22.296875 -1.6875 23.046875 -1.6875 C 23.722656 -1.6875 24.3125 -1.972656 24.8125 -2.546875 C 25.320312 -3.117188 25.695312 -4.03125 25.9375 -5.28125 L 27.515625 -5.28125 C 27.160156 -3.351562 26.445312 -1.914062 25.375 -0.96875 C 24.3125 -0.0195312 23.039062 0.453125 21.5625 0.453125 C 20.039062 0.453125 19.007812 -0.0195312 18.46875 -0.96875 C 17.9375 -1.914062 17.738281 -3.304688 17.875 -5.140625 C 16.0625 -3.429688 14.15625 -2.050781 12.15625 -1 C 10.15625 0.0390625 8.191406 0.5625 6.265625 0.5625 Z M 8.0625 -1.578125 C 9.5625 -1.578125 11.175781 -2.085938 12.90625 -3.109375 C 14.644531 -4.128906 16.367188 -5.566406 18.078125 -7.421875 L 19.453125 -15.015625 L 9.921875 -10.40625 C 8.816406 -9.875 7.941406 -9.335938 7.296875 -8.796875 C 6.648438 -8.253906 6.164062 -7.695312 5.84375 -7.125 C 5.53125 -6.550781 5.316406 -5.945312 5.203125 -5.3125 C 4.992188 -4.113281 5.132812 -3.191406 5.625 -2.546875 C 6.113281 -1.898438 6.925781 -1.578125 8.0625 -1.578125 Z M 8.0625 -1.578125 "/></g></g><g style="fill:#ffcccc;fill-opacity:1;"><g transform="translate(1255.510673, 475.169279)"><path style="stroke:none" d=""/></g></g><g style="fill:#ffcccc;fill-opacity:1;"><g transform="translate(1272.582653, 475.169279)"><path style="stroke:none" d="M 40.140625 -28.1875 L 38.359375 -28.109375 L 38.671875 -33.703125 C 38.597656 -34.691406 38.332031 -35.335938 37.875 -35.640625 C 37.414062 -35.941406 36.742188 -36.09375 35.859375 -36.09375 L 19.078125 -36.09375 L 16.421875 -20.890625 L 27.4375 -20.890625 C 28.125 -20.890625 28.742188 -21.03125 29.296875 -21.3125 C 29.847656 -21.601562 30.179688 -22.125 30.296875 -22.875 L 30.890625 -26.21875 L 32.71875 -26.21875 L 30.40625 -13.296875 L 28.609375 -13.296875 L 29.234375 -16.78125 C 29.378906 -17.644531 29.238281 -18.222656 28.8125 -18.515625 C 28.394531 -18.816406 27.832031 -18.96875 27.125 -18.96875 L 16.078125 -18.96875 L 13.578125 -4.828125 C 13.410156 -3.953125 13.4375 -3.242188 13.65625 -2.703125 C 13.882812 -2.160156 14.515625 -1.890625 15.546875 -1.890625 L 30.578125 -1.890625 C 31.847656 -1.890625 32.785156 -2.097656 33.390625 -2.515625 C 34.003906 -2.929688 34.492188 -3.570312 34.859375 -4.4375 L 37.46875 -12.5625 L 39.234375 -12.484375 L 36.140625 0 L 2.984375 0 L 3.28125 -1.796875 L 6.609375 -1.796875 C 7.523438 -1.796875 8.195312 -2.039062 8.625 -2.53125 C 9.0625 -3.03125 9.351562 -3.6875 9.5 -4.5 L 14.59375 -33.5 C 14.738281 -34.382812 14.675781 -35.054688 14.40625 -35.515625 C 14.132812 -35.972656 13.492188 -36.203125 12.484375 -36.203125 L 9.359375 -36.203125 L 9.671875 -38 L 41.28125 -38 Z M 40.140625 -28.1875 "/></g></g><g style="fill:#ffcccc;fill-opacity:1;"><g transform="translate(1317.535714, 475.169279)"><path style="stroke:none" d="M -1.46875 0 L -1.15625 -1.796875 L 1.578125 -1.796875 C 2.453125 -1.796875 3.070312 -2.015625 3.4375 -2.453125 C 3.800781 -2.898438 4.0625 -3.5 4.21875 -4.25 L 9.390625 -33.53125 C 9.515625 -34.300781 9.453125 -34.910156 9.203125 -35.359375 C 8.953125 -35.804688 8.40625 -35.957031 7.5625 -35.8125 L 4.75 -35.140625 L 4.8125 -36.90625 L 14.109375 -38.953125 L 10.234375 -17 C 10.941406 -17.957031 11.734375 -18.882812 12.609375 -19.78125 C 13.492188 -20.6875 14.429688 -21.488281 15.421875 -22.1875 C 16.421875 -22.894531 17.441406 -23.453125 18.484375 -23.859375 C 19.535156 -24.273438 20.578125 -24.484375 21.609375 -24.484375 C 24.203125 -24.484375 26.03125 -23.769531 27.09375 -22.34375 C 28.164062 -20.914062 28.425781 -18.664062 27.875 -15.59375 L 25.921875 -4.25 C 25.597656 -2.613281 26.148438 -1.796875 27.578125 -1.796875 L 30.25 -1.796875 L 29.9375 0 L 16.359375 0 L 16.671875 -1.796875 L 19.734375 -1.796875 C 20.441406 -1.796875 20.988281 -2.019531 21.375 -2.46875 C 21.757812 -2.914062 22.015625 -3.515625 22.140625 -4.265625 L 24.140625 -15.546875 C 24.515625 -17.773438 24.410156 -19.425781 23.828125 -20.5 C 23.253906 -21.582031 22 -22.125 20.0625 -22.125 C 19.03125 -22.125 18.003906 -21.847656 16.984375 -21.296875 C 15.960938 -20.753906 14.988281 -20.046875 14.0625 -19.171875 C 13.132812 -18.304688 12.285156 -17.363281 11.515625 -16.34375 C 10.753906 -15.320312 10.109375 -14.332031 9.578125 -13.375 L 7.984375 -4.25 C 7.847656 -3.570312 7.890625 -2.992188 8.109375 -2.515625 C 8.328125 -2.035156 8.765625 -1.796875 9.421875 -1.796875 L 12.421875 -1.796875 L 12.109375 0 Z M -1.46875 0 "/></g></g><g style="fill:#ffcccc;fill-opacity:1;"><g transform="translate(1354.366138, 475.169279)"><path style="stroke:none" d="M 12.875 -32.40625 C 12.269531 -32.40625 11.78125 -32.566406 11.40625 -32.890625 C 11.03125 -33.222656 10.773438 -33.632812 10.640625 -34.125 C 10.515625 -34.613281 10.488281 -35.097656 10.5625 -35.578125 C 10.71875 -36.296875 11.097656 -36.890625 11.703125 -37.359375 C 12.316406 -37.835938 12.988281 -38.078125 13.71875 -38.078125 C 14.519531 -38.078125 15.144531 -37.765625 15.59375 -37.140625 C 16.050781 -36.515625 16.203125 -35.78125 16.046875 -34.9375 C 15.878906 -34.132812 15.476562 -33.507812 14.84375 -33.0625 C 14.21875 -32.625 13.5625 -32.40625 12.875 -32.40625 Z M -0.5625 0 L -0.203125 -1.796875 L 2.5625 -1.796875 C 3.40625 -1.796875 4.039062 -2.019531 4.46875 -2.46875 C 4.894531 -2.914062 5.195312 -3.5625 5.375 -4.40625 L 8.296875 -19.484375 C 8.460938 -20.359375 8.410156 -20.960938 8.140625 -21.296875 C 7.878906 -21.640625 7.3125 -21.738281 6.4375 -21.59375 L 3.515625 -20.90625 L 3.625 -22.6875 L 13.09375 -24.671875 L 9.109375 -4.078125 C 8.953125 -3.328125 8.96875 -2.757812 9.15625 -2.375 C 9.34375 -1.988281 9.84375 -1.796875 10.65625 -1.796875 L 13.09375 -1.796875 L 12.734375 0 Z M -0.5625 0 "/></g></g><g style="fill:#ffcccc;fill-opacity:1;"><g transform="translate(1373.321191, 475.169279)"><path style="stroke:none" d="M 26.5625 -23.78125 L 26.171875 -21.453125 L 4.890625 -1.796875 L 17.9375 -1.796875 C 18.507812 -1.796875 19.039062 -1.9375 19.53125 -2.21875 C 20.019531 -2.5 20.476562 -3.097656 20.90625 -4.015625 L 22.203125 -7.78125 L 23.953125 -7.703125 L 21.84375 0 L 0.28125 0 L 0.671875 -2.328125 L 21.921875 -21.984375 L 9.5625 -21.984375 C 8.976562 -21.984375 8.488281 -21.847656 8.09375 -21.578125 C 7.695312 -21.316406 7.304688 -20.75 6.921875 -19.875 L 5.671875 -16.328125 L 3.90625 -16.4375 L 6.046875 -23.78125 Z M 26.5625 -23.78125 "/></g></g><g style="fill:#ffcccc;fill-opacity:1;"><g transform="translate(1403.799676, 475.169279)"><path style="stroke:none" d="M 12.453125 0.703125 C 11.867188 0.703125 11.175781 0.632812 10.375 0.5 C 9.582031 0.375 8.753906 0.144531 7.890625 -0.1875 C 7.035156 -0.53125 6.21875 -1 5.4375 -1.59375 C 4.65625 -2.195312 3.984375 -2.96875 3.421875 -3.90625 C 2.859375 -4.84375 2.476562 -5.972656 2.28125 -7.296875 C 2.09375 -8.617188 2.144531 -10.171875 2.4375 -11.953125 C 2.757812 -13.765625 3.296875 -15.363281 4.046875 -16.75 C 4.796875 -18.132812 5.679688 -19.3125 6.703125 -20.28125 C 7.722656 -21.257812 8.816406 -22.054688 9.984375 -22.671875 C 11.160156 -23.296875 12.335938 -23.753906 13.515625 -24.046875 C 14.703125 -24.335938 15.828125 -24.484375 16.890625 -24.484375 C 17.878906 -24.484375 18.910156 -24.34375 19.984375 -24.0625 C 21.054688 -23.78125 22.070312 -23.335938 23.03125 -22.734375 C 24 -22.140625 24.832031 -21.351562 25.53125 -20.375 C 26.238281 -19.40625 26.726562 -18.222656 27 -16.828125 C 27.269531 -15.429688 27.234375 -13.804688 26.890625 -11.953125 C 26.535156 -9.941406 25.957031 -8.207031 25.15625 -6.75 C 24.351562 -5.300781 23.40625 -4.09375 22.3125 -3.125 C 21.226562 -2.164062 20.085938 -1.40625 18.890625 -0.84375 C 17.703125 -0.28125 16.546875 0.113281 15.421875 0.34375 C 14.304688 0.582031 13.316406 0.703125 12.453125 0.703125 Z M 12.78125 -1.125 C 13.664062 -1.125 14.625 -1.320312 15.65625 -1.71875 C 16.6875 -2.125 17.691406 -2.765625 18.671875 -3.640625 C 19.660156 -4.515625 20.535156 -5.632812 21.296875 -7 C 22.066406 -8.363281 22.625 -10.003906 22.96875 -11.921875 C 23.375 -14.179688 23.34375 -16.113281 22.875 -17.71875 C 22.40625 -19.320312 21.625 -20.546875 20.53125 -21.390625 C 19.4375 -22.234375 18.117188 -22.65625 16.578125 -22.65625 C 15.066406 -22.65625 13.609375 -22.226562 12.203125 -21.375 C 10.796875 -20.519531 9.578125 -19.300781 8.546875 -17.71875 C 7.515625 -16.132812 6.800781 -14.25 6.40625 -12.0625 C 6.070312 -10.113281 6.039062 -8.441406 6.3125 -7.046875 C 6.582031 -5.660156 7.054688 -4.53125 7.734375 -3.65625 C 8.421875 -2.789062 9.207031 -2.148438 10.09375 -1.734375 C 10.988281 -1.328125 11.882812 -1.125 12.78125 -1.125 Z M 12.78125 -1.125 "/></g></g><g style="fill:#ffcccc;fill-opacity:1;"><g transform="translate(1436.020727, 475.169279)"><path style="stroke:none" d="M 0.28125 0 L 0.59375 -1.796875 L 3.34375 -1.796875 C 4.207031 -1.796875 4.828125 -2.015625 5.203125 -2.453125 C 5.578125 -2.898438 5.835938 -3.5 5.984375 -4.25 L 8.578125 -19.109375 C 8.722656 -19.878906 8.664062 -20.488281 8.40625 -20.9375 C 8.15625 -21.382812 7.613281 -21.535156 6.78125 -21.390625 L 3.96875 -20.71875 L 4.015625 -22.515625 L 13.328125 -24.5625 L 11.96875 -17 C 12.738281 -17.957031 13.597656 -18.882812 14.546875 -19.78125 C 15.492188 -20.6875 16.488281 -21.488281 17.53125 -22.1875 C 18.582031 -22.894531 19.648438 -23.453125 20.734375 -23.859375 C 21.828125 -24.273438 22.890625 -24.484375 23.921875 -24.484375 C 26.265625 -24.484375 27.957031 -23.898438 29 -22.734375 C 30.050781 -21.578125 30.472656 -19.710938 30.265625 -17.140625 C 31.054688 -18.097656 31.925781 -19.015625 32.875 -19.890625 C 33.820312 -20.773438 34.816406 -21.5625 35.859375 -22.25 C 36.910156 -22.945312 37.976562 -23.492188 39.0625 -23.890625 C 40.15625 -24.285156 41.21875 -24.484375 42.25 -24.484375 C 44.851562 -24.484375 46.6875 -23.769531 47.75 -22.34375 C 48.820312 -20.914062 49.085938 -18.664062 48.546875 -15.59375 L 46.578125 -4.25 C 46.421875 -3.457031 46.46875 -2.847656 46.71875 -2.421875 C 46.976562 -2.003906 47.484375 -1.796875 48.234375 -1.796875 L 50.875 -1.796875 L 50.5625 0 L 36.984375 0 L 37.296875 -1.796875 L 40.390625 -1.796875 C 41.097656 -1.796875 41.640625 -2.019531 42.015625 -2.46875 C 42.390625 -2.914062 42.644531 -3.515625 42.78125 -4.265625 L 44.75 -15.546875 C 45.144531 -17.773438 45.050781 -19.425781 44.46875 -20.5 C 43.882812 -21.582031 42.628906 -22.125 40.703125 -22.125 C 39.671875 -22.125 38.640625 -21.875 37.609375 -21.375 C 36.578125 -20.875 35.578125 -20.21875 34.609375 -19.40625 C 33.648438 -18.59375 32.765625 -17.703125 31.953125 -16.734375 C 31.148438 -15.773438 30.46875 -14.828125 29.90625 -13.890625 L 28.21875 -4.25 C 27.894531 -2.613281 28.445312 -1.796875 29.875 -1.796875 L 32.546875 -1.796875 L 32.234375 0 L 18.65625 0 L 18.96875 -1.796875 L 22.0625 -1.796875 C 22.769531 -1.796875 23.316406 -2.019531 23.703125 -2.46875 C 24.085938 -2.914062 24.347656 -3.515625 24.484375 -4.265625 L 26.453125 -15.546875 C 26.835938 -17.773438 26.738281 -19.425781 26.15625 -20.5 C 25.582031 -21.582031 24.320312 -22.125 22.375 -22.125 C 21.300781 -22.125 20.222656 -21.847656 19.140625 -21.296875 C 18.054688 -20.753906 17.015625 -20.046875 16.015625 -19.171875 C 15.023438 -18.304688 14.125 -17.363281 13.3125 -16.34375 C 12.507812 -15.320312 11.847656 -14.332031 11.328125 -13.375 L 9.75 -4.25 C 9.625 -3.570312 9.660156 -2.992188 9.859375 -2.515625 C 10.066406 -2.035156 10.5 -1.796875 11.15625 -1.796875 L 14.359375 -1.796875 L 14.046875 0 Z M 0.28125 0 "/></g></g><g style="fill:#ffcccc;fill-opacity:1;"><g transform="translate(1493.509033, 475.169279)"><path style="stroke:none" d="M 12.453125 0.703125 C 11.867188 0.703125 11.175781 0.632812 10.375 0.5 C 9.582031 0.375 8.753906 0.144531 7.890625 -0.1875 C 7.035156 -0.53125 6.21875 -1 5.4375 -1.59375 C 4.65625 -2.195312 3.984375 -2.96875 3.421875 -3.90625 C 2.859375 -4.84375 2.476562 -5.972656 2.28125 -7.296875 C 2.09375 -8.617188 2.144531 -10.171875 2.4375 -11.953125 C 2.757812 -13.765625 3.296875 -15.363281 4.046875 -16.75 C 4.796875 -18.132812 5.679688 -19.3125 6.703125 -20.28125 C 7.722656 -21.257812 8.816406 -22.054688 9.984375 -22.671875 C 11.160156 -23.296875 12.335938 -23.753906 13.515625 -24.046875 C 14.703125 -24.335938 15.828125 -24.484375 16.890625 -24.484375 C 17.878906 -24.484375 18.910156 -24.34375 19.984375 -24.0625 C 21.054688 -23.78125 22.070312 -23.335938 23.03125 -22.734375 C 24 -22.140625 24.832031 -21.351562 25.53125 -20.375 C 26.238281 -19.40625 26.726562 -18.222656 27 -16.828125 C 27.269531 -15.429688 27.234375 -13.804688 26.890625 -11.953125 C 26.535156 -9.941406 25.957031 -8.207031 25.15625 -6.75 C 24.351562 -5.300781 23.40625 -4.09375 22.3125 -3.125 C 21.226562 -2.164062 20.085938 -1.40625 18.890625 -0.84375 C 17.703125 -0.28125 16.546875 0.113281 15.421875 0.34375 C 14.304688 0.582031 13.316406 0.703125 12.453125 0.703125 Z M 12.78125 -1.125 C 13.664062 -1.125 14.625 -1.320312 15.65625 -1.71875 C 16.6875 -2.125 17.691406 -2.765625 18.671875 -3.640625 C 19.660156 -4.515625 20.535156 -5.632812 21.296875 -7 C 22.066406 -8.363281 22.625 -10.003906 22.96875 -11.921875 C 23.375 -14.179688 23.34375 -16.113281 22.875 -17.71875 C 22.40625 -19.320312 21.625 -20.546875 20.53125 -21.390625 C 19.4375 -22.234375 18.117188 -22.65625 16.578125 -22.65625 C 15.066406 -22.65625 13.609375 -22.226562 12.203125 -21.375 C 10.796875 -20.519531 9.578125 -19.300781 8.546875 -17.71875 C 7.515625 -16.132812 6.800781 -14.25 6.40625 -12.0625 C 6.070312 -10.113281 6.039062 -8.441406 6.3125 -7.046875 C 6.582031 -5.660156 7.054688 -4.53125 7.734375 -3.65625 C 8.421875 -2.789062 9.207031 -2.148438 10.09375 -1.734375 C 10.988281 -1.328125 11.882812 -1.125 12.78125 -1.125 Z M 12.78125 -1.125 "/></g></g><g style="fill:#ffcccc;fill-opacity:1;"><g transform="translate(1525.730085, 475.169279)"><path style="stroke:none" d="M -1.46875 0 L -1.15625 -1.796875 L 1.578125 -1.796875 C 2.453125 -1.796875 3.070312 -2.015625 3.4375 -2.453125 C 3.800781 -2.898438 4.0625 -3.5 4.21875 -4.25 L 9.390625 -33.53125 C 9.515625 -34.300781 9.453125 -34.910156 9.203125 -35.359375 C 8.953125 -35.804688 8.40625 -35.957031 7.5625 -35.8125 L 4.75 -35.140625 L 4.8125 -36.90625 L 14.109375 -38.953125 L 10.234375 -17 C 10.941406 -17.957031 11.734375 -18.882812 12.609375 -19.78125 C 13.492188 -20.6875 14.429688 -21.488281 15.421875 -22.1875 C 16.421875 -22.894531 17.441406 -23.453125 18.484375 -23.859375 C 19.535156 -24.273438 20.578125 -24.484375 21.609375 -24.484375 C 24.203125 -24.484375 26.03125 -23.769531 27.09375 -22.34375 C 28.164062 -20.914062 28.425781 -18.664062 27.875 -15.59375 L 25.921875 -4.25 C 25.597656 -2.613281 26.148438 -1.796875 27.578125 -1.796875 L 30.25 -1.796875 L 29.9375 0 L 16.359375 0 L 16.671875 -1.796875 L 19.734375 -1.796875 C 20.441406 -1.796875 20.988281 -2.019531 21.375 -2.46875 C 21.757812 -2.914062 22.015625 -3.515625 22.140625 -4.265625 L 24.140625 -15.546875 C 24.515625 -17.773438 24.410156 -19.425781 23.828125 -20.5 C 23.253906 -21.582031 22 -22.125 20.0625 -22.125 C 19.03125 -22.125 18.003906 -21.847656 16.984375 -21.296875 C 15.960938 -20.753906 14.988281 -20.046875 14.0625 -19.171875 C 13.132812 -18.304688 12.285156 -17.363281 11.515625 -16.34375 C 10.753906 -15.320312 10.109375 -14.332031 9.578125 -13.375 L 7.984375 -4.25 C 7.847656 -3.570312 7.890625 -2.992188 8.109375 -2.515625 C 8.328125 -2.035156 8.765625 -1.796875 9.421875 -1.796875 L 12.421875 -1.796875 L 12.109375 0 Z M -1.46875 0 "/></g></g><g style="fill:#ffcccc;fill-opacity:1;"><g transform="translate(1562.560509, 475.169279)"><path style="stroke:none" d=""/></g></g><g style="fill:#ffcccc;fill-opacity:1;"><g transform="translate(1579.632489, 475.169279)"><path style="stroke:none" d="M 3 0 L 3.3125 -1.796875 L 6.4375 -1.796875 C 7.425781 -1.796875 8.132812 -2.023438 8.5625 -2.484375 C 9 -2.941406 9.3125 -3.613281 9.5 -4.5 L 14.59375 -33.5 C 14.757812 -34.40625 14.695312 -35.082031 14.40625 -35.53125 C 14.113281 -35.976562 13.460938 -36.203125 12.453125 -36.203125 L 9.359375 -36.203125 L 9.671875 -38 L 41.125 -38 L 39.890625 -28.109375 L 38.078125 -28.015625 L 38.5 -33.46875 C 38.46875 -34.257812 38.289062 -34.84375 37.96875 -35.21875 C 37.65625 -35.59375 37.28125 -35.832031 36.84375 -35.9375 C 36.414062 -36.039062 35.976562 -36.09375 35.53125 -36.09375 L 19.078125 -36.09375 L 16.421875 -20.90625 L 27.265625 -20.90625 C 28.015625 -20.90625 28.640625 -21.082031 29.140625 -21.4375 C 29.648438 -21.800781 29.972656 -22.410156 30.109375 -23.265625 L 30.640625 -26.25 L 32.40625 -26.25 L 30.109375 -13.265625 L 28.328125 -13.265625 L 28.890625 -16.5 C 29.046875 -17.320312 28.96875 -17.945312 28.65625 -18.375 C 28.34375 -18.8125 27.75 -19.03125 26.875 -19.03125 L 16.046875 -19.03125 L 13.515625 -4.5 C 13.367188 -3.675781 13.429688 -3.019531 13.703125 -2.53125 C 13.972656 -2.039062 14.644531 -1.796875 15.71875 -1.796875 L 19.5 -1.796875 L 19.203125 0 Z M 3 0 "/></g></g><g style="fill:#ffcccc;fill-opacity:1;"><g transform="translate(1618.317904, 475.169279)"><path style="stroke:none" d="M 12.453125 0.703125 C 11.867188 0.703125 11.175781 0.632812 10.375 0.5 C 9.582031 0.375 8.753906 0.144531 7.890625 -0.1875 C 7.035156 -0.53125 6.21875 -1 5.4375 -1.59375 C 4.65625 -2.195312 3.984375 -2.96875 3.421875 -3.90625 C 2.859375 -4.84375 2.476562 -5.972656 2.28125 -7.296875 C 2.09375 -8.617188 2.144531 -10.171875 2.4375 -11.953125 C 2.757812 -13.765625 3.296875 -15.363281 4.046875 -16.75 C 4.796875 -18.132812 5.679688 -19.3125 6.703125 -20.28125 C 7.722656 -21.257812 8.816406 -22.054688 9.984375 -22.671875 C 11.160156 -23.296875 12.335938 -23.753906 13.515625 -24.046875 C 14.703125 -24.335938 15.828125 -24.484375 16.890625 -24.484375 C 17.878906 -24.484375 18.910156 -24.34375 19.984375 -24.0625 C 21.054688 -23.78125 22.070312 -23.335938 23.03125 -22.734375 C 24 -22.140625 24.832031 -21.351562 25.53125 -20.375 C 26.238281 -19.40625 26.726562 -18.222656 27 -16.828125 C 27.269531 -15.429688 27.234375 -13.804688 26.890625 -11.953125 C 26.535156 -9.941406 25.957031 -8.207031 25.15625 -6.75 C 24.351562 -5.300781 23.40625 -4.09375 22.3125 -3.125 C 21.226562 -2.164062 20.085938 -1.40625 18.890625 -0.84375 C 17.703125 -0.28125 16.546875 0.113281 15.421875 0.34375 C 14.304688 0.582031 13.316406 0.703125 12.453125 0.703125 Z M 12.78125 -1.125 C 13.664062 -1.125 14.625 -1.320312 15.65625 -1.71875 C 16.6875 -2.125 17.691406 -2.765625 18.671875 -3.640625 C 19.660156 -4.515625 20.535156 -5.632812 21.296875 -7 C 22.066406 -8.363281 22.625 -10.003906 22.96875 -11.921875 C 23.375 -14.179688 23.34375 -16.113281 22.875 -17.71875 C 22.40625 -19.320312 21.625 -20.546875 20.53125 -21.390625 C 19.4375 -22.234375 18.117188 -22.65625 16.578125 -22.65625 C 15.066406 -22.65625 13.609375 -22.226562 12.203125 -21.375 C 10.796875 -20.519531 9.578125 -19.300781 8.546875 -17.71875 C 7.515625 -16.132812 6.800781 -14.25 6.40625 -12.0625 C 6.070312 -10.113281 6.039062 -8.441406 6.3125 -7.046875 C 6.582031 -5.660156 7.054688 -4.53125 7.734375 -3.65625 C 8.421875 -2.789062 9.207031 -2.148438 10.09375 -1.734375 C 10.988281 -1.328125 11.882812 -1.125 12.78125 -1.125 Z M 12.78125 -1.125 "/></g></g><g style="fill:#ffcccc;fill-opacity:1;"><g transform="translate(1650.538956, 475.169279)"><path style="stroke:none" d="M 12.359375 0.703125 C 9.773438 0.703125 7.941406 -0.00390625 6.859375 -1.421875 C 5.785156 -2.847656 5.523438 -5.097656 6.078125 -8.171875 L 8.03125 -19.53125 C 8.1875 -20.320312 8.132812 -20.925781 7.875 -21.34375 C 7.625 -21.769531 7.125 -21.984375 6.375 -21.984375 L 3.734375 -21.984375 L 4.046875 -23.78125 L 12.59375 -23.78125 L 9.84375 -8.234375 C 9.46875 -6.023438 9.566406 -4.378906 10.140625 -3.296875 C 10.722656 -2.222656 11.976562 -1.6875 13.90625 -1.6875 C 14.9375 -1.6875 15.960938 -1.953125 16.984375 -2.484375 C 18.003906 -3.015625 18.976562 -3.71875 19.90625 -4.59375 C 20.84375 -5.46875 21.6875 -6.414062 22.4375 -7.4375 C 23.195312 -8.457031 23.84375 -9.445312 24.375 -10.40625 L 25.96875 -19.53125 C 26.101562 -20.226562 26.070312 -20.8125 25.875 -21.28125 C 25.675781 -21.75 25.25 -21.984375 24.59375 -21.984375 L 21.53125 -21.984375 L 21.84375 -23.78125 L 30.53125 -23.78125 L 27.09375 -4.265625 C 26.957031 -3.515625 27.007812 -2.921875 27.25 -2.484375 C 27.5 -2.046875 28.046875 -1.894531 28.890625 -2.03125 L 31.703125 -2.703125 L 31.640625 -0.90625 L 22.421875 0.640625 L 23.75 -6.796875 C 23.039062 -5.847656 22.25 -4.921875 21.375 -4.015625 C 20.5 -3.117188 19.566406 -2.316406 18.578125 -1.609375 C 17.585938 -0.910156 16.566406 -0.351562 15.515625 0.0625 C 14.460938 0.488281 13.410156 0.703125 12.359375 0.703125 Z M 12.359375 0.703125 "/></g></g><g style="fill:#ffcccc;fill-opacity:1;"><g transform="translate(1688.830888, 475.169279)"><path style="stroke:none" d="M 0.28125 0 L 0.59375 -1.796875 L 3.34375 -1.796875 C 4.207031 -1.796875 4.828125 -2.015625 5.203125 -2.453125 C 5.578125 -2.898438 5.835938 -3.5 5.984375 -4.25 L 8.578125 -19.109375 C 8.722656 -19.878906 8.664062 -20.488281 8.40625 -20.9375 C 8.15625 -21.382812 7.613281 -21.535156 6.78125 -21.390625 L 3.96875 -20.71875 L 4.015625 -22.515625 L 13.328125 -24.5625 L 11.96875 -17 C 12.6875 -17.957031 13.476562 -18.878906 14.34375 -19.765625 C 15.21875 -20.660156 16.148438 -21.460938 17.140625 -22.171875 C 18.140625 -22.890625 19.160156 -23.453125 20.203125 -23.859375 C 21.253906 -24.273438 22.304688 -24.484375 23.359375 -24.484375 C 25.960938 -24.484375 27.789062 -23.769531 28.84375 -22.34375 C 29.90625 -20.914062 30.164062 -18.664062 29.625 -15.59375 L 27.65625 -4.25 C 27.332031 -2.613281 27.882812 -1.796875 29.3125 -1.796875 L 31.984375 -1.796875 L 31.671875 0 L 18.09375 0 L 18.40625 -1.796875 L 21.5 -1.796875 C 22.195312 -1.796875 22.734375 -2.019531 23.109375 -2.46875 C 23.492188 -2.914062 23.765625 -3.515625 23.921875 -4.265625 L 25.890625 -15.546875 C 26.265625 -17.773438 26.160156 -19.425781 25.578125 -20.5 C 24.992188 -21.582031 23.738281 -22.125 21.8125 -22.125 C 20.78125 -22.125 19.753906 -21.847656 18.734375 -21.296875 C 17.710938 -20.753906 16.734375 -20.046875 15.796875 -19.171875 C 14.859375 -18.304688 14.007812 -17.363281 13.25 -16.34375 C 12.488281 -15.320312 11.847656 -14.332031 11.328125 -13.375 L 9.75 -4.25 C 9.625 -3.570312 9.660156 -2.992188 9.859375 -2.515625 C 10.066406 -2.035156 10.5 -1.796875 11.15625 -1.796875 L 14.171875 -1.796875 L 13.859375 0 Z M 0.28125 0 "/></g></g><g style="fill:#ffcccc;fill-opacity:1;"><g transform="translate(1727.403927, 475.169279)"><path style="stroke:none" d="M 11.546875 0.640625 C 9.878906 0.640625 8.410156 0.316406 7.140625 -0.328125 C 5.867188 -0.972656 4.820312 -1.863281 4 -3 C 3.1875 -4.144531 2.628906 -5.46875 2.328125 -6.96875 C 2.035156 -8.46875 2.035156 -10.082031 2.328125 -11.8125 C 2.628906 -13.53125 3.140625 -15.070312 3.859375 -16.4375 C 4.585938 -17.8125 5.441406 -19 6.421875 -20 C 7.398438 -21 8.457031 -21.832031 9.59375 -22.5 C 10.726562 -23.164062 11.867188 -23.660156 13.015625 -23.984375 C 14.160156 -24.316406 15.238281 -24.484375 16.25 -24.484375 C 17.125 -24.484375 18.03125 -24.363281 18.96875 -24.125 C 19.90625 -23.894531 20.804688 -23.53125 21.671875 -23.03125 C 22.535156 -22.53125 23.285156 -21.867188 23.921875 -21.046875 L 26.140625 -33.5625 C 26.285156 -34.332031 26.226562 -34.945312 25.96875 -35.40625 C 25.707031 -35.863281 25.132812 -36.015625 24.25 -35.859375 L 21.5 -35.1875 L 21.5625 -36.953125 L 30.859375 -38.953125 L 24.65625 -3.828125 C 24.5625 -3.296875 24.578125 -2.832031 24.703125 -2.4375 C 24.835938 -2.050781 25.222656 -1.859375 25.859375 -1.859375 L 28.4375 -1.859375 L 28.140625 0 L 20.609375 0 L 20.96875 -3.03125 C 19.65625 -2.019531 18.21875 -1.15625 16.65625 -0.4375 C 15.101562 0.28125 13.398438 0.640625 11.546875 0.640625 Z M 13.0625 -1.578125 C 13.925781 -1.578125 14.835938 -1.71875 15.796875 -2 C 16.753906 -2.28125 17.703125 -2.707031 18.640625 -3.28125 C 19.585938 -3.863281 20.445312 -4.609375 21.21875 -5.515625 L 23.53125 -18.78125 C 22.851562 -19.863281 21.945312 -20.71875 20.8125 -21.34375 C 19.675781 -21.96875 18.378906 -22.28125 16.921875 -22.28125 C 15.585938 -22.28125 14.332031 -22.007812 13.15625 -21.46875 C 11.988281 -20.925781 10.9375 -20.179688 10 -19.234375 C 9.0625 -18.285156 8.28125 -17.191406 7.65625 -15.953125 C 7.03125 -14.722656 6.585938 -13.414062 6.328125 -12.03125 C 6.066406 -10.570312 6.03125 -9.203125 6.21875 -7.921875 C 6.414062 -6.648438 6.8125 -5.539062 7.40625 -4.59375 C 8.007812 -3.644531 8.789062 -2.90625 9.75 -2.375 C 10.707031 -1.84375 11.8125 -1.578125 13.0625 -1.578125 Z M 13.0625 -1.578125 "/></g></g><g style="fill:#ffcccc;fill-opacity:1;"><g transform="translate(1762.435572, 475.169279)"><path style="stroke:none" d="M 6.265625 0.5625 C 4.921875 0.5625 3.867188 0.332031 3.109375 -0.125 C 2.347656 -0.582031 1.835938 -1.207031 1.578125 -2 C 1.328125 -2.800781 1.289062 -3.695312 1.46875 -4.6875 C 1.6875 -5.96875 2.164062 -7.050781 2.90625 -7.9375 C 3.644531 -8.832031 4.566406 -9.617188 5.671875 -10.296875 C 6.773438 -10.984375 8.003906 -11.625 9.359375 -12.21875 L 19.765625 -16.890625 C 19.929688 -18.410156 19.867188 -19.585938 19.578125 -20.421875 C 19.285156 -21.253906 18.75 -21.835938 17.96875 -22.171875 C 17.195312 -22.515625 16.15625 -22.6875 14.84375 -22.6875 C 13.28125 -22.6875 12.003906 -22.46875 11.015625 -22.03125 C 10.023438 -21.601562 9.226562 -21.050781 8.625 -20.375 C 8.03125 -19.695312 7.535156 -18.992188 7.140625 -18.265625 C 6.953125 -17.816406 6.695312 -17.445312 6.375 -17.15625 C 6.0625 -16.863281 5.640625 -16.738281 5.109375 -16.78125 C 4.585938 -16.8125 4.25 -16.988281 4.09375 -17.3125 C 3.945312 -17.644531 3.953125 -18.03125 4.109375 -18.46875 C 4.390625 -19.175781 4.816406 -19.878906 5.390625 -20.578125 C 5.972656 -21.285156 6.734375 -21.929688 7.671875 -22.515625 C 8.609375 -23.109375 9.75 -23.582031 11.09375 -23.9375 C 12.445312 -24.300781 14.050781 -24.484375 15.90625 -24.484375 C 17.257812 -24.484375 18.46875 -24.351562 19.53125 -24.09375 C 20.601562 -23.84375 21.476562 -23.410156 22.15625 -22.796875 C 22.84375 -22.191406 23.300781 -21.351562 23.53125 -20.28125 C 23.769531 -19.21875 23.738281 -17.882812 23.4375 -16.28125 L 21.609375 -6.265625 C 21.316406 -4.640625 21.296875 -3.46875 21.546875 -2.75 C 21.796875 -2.039062 22.296875 -1.6875 23.046875 -1.6875 C 23.722656 -1.6875 24.3125 -1.972656 24.8125 -2.546875 C 25.320312 -3.117188 25.695312 -4.03125 25.9375 -5.28125 L 27.515625 -5.28125 C 27.160156 -3.351562 26.445312 -1.914062 25.375 -0.96875 C 24.3125 -0.0195312 23.039062 0.453125 21.5625 0.453125 C 20.039062 0.453125 19.007812 -0.0195312 18.46875 -0.96875 C 17.9375 -1.914062 17.738281 -3.304688 17.875 -5.140625 C 16.0625 -3.429688 14.15625 -2.050781 12.15625 -1 C 10.15625 0.0390625 8.191406 0.5625 6.265625 0.5625 Z M 8.0625 -1.578125 C 9.5625 -1.578125 11.175781 -2.085938 12.90625 -3.109375 C 14.644531 -4.128906 16.367188 -5.566406 18.078125 -7.421875 L 19.453125 -15.015625 L 9.921875 -10.40625 C 8.816406 -9.875 7.941406 -9.335938 7.296875 -8.796875 C 6.648438 -8.253906 6.164062 -7.695312 5.84375 -7.125 C 5.53125 -6.550781 5.316406 -5.945312 5.203125 -5.3125 C 4.992188 -4.113281 5.132812 -3.191406 5.625 -2.546875 C 6.113281 -1.898438 6.925781 -1.578125 8.0625 -1.578125 Z M 8.0625 -1.578125 "/></g></g><g style="fill:#ffcccc;fill-opacity:1;"><g transform="translate(1795.752731, 475.169279)"><path style="stroke:none" d="M 13.375 0.703125 C 10.957031 0.703125 9.164062 -0.00390625 8 -1.421875 C 6.84375 -2.835938 6.5 -4.957031 6.96875 -7.78125 L 9.5 -21.984375 L 3.796875 -21.984375 L 4.078125 -23.78125 L 7.890625 -23.78125 C 9.035156 -23.78125 10.039062 -24.125 10.90625 -24.8125 C 11.769531 -25.507812 12.300781 -26.445312 12.5 -27.625 L 13.296875 -32.0625 L 15.03125 -32.0625 L 13.546875 -23.78125 L 22.875 -23.78125 L 22.5625 -21.984375 L 13.234375 -21.984375 L 10.828125 -8.265625 C 10.429688 -6.015625 10.554688 -4.304688 11.203125 -3.140625 C 11.847656 -1.984375 13.050781 -1.40625 14.8125 -1.40625 C 15.863281 -1.40625 16.835938 -1.632812 17.734375 -2.09375 C 18.628906 -2.550781 19.414062 -3.269531 20.09375 -4.25 L 21.53125 -3.484375 C 20.875 -2.472656 20.085938 -1.65625 19.171875 -1.03125 C 18.265625 -0.414062 17.3125 0.0234375 16.3125 0.296875 C 15.3125 0.566406 14.332031 0.703125 13.375 0.703125 Z M 13.375 0.703125 "/></g></g><g style="fill:#ffcccc;fill-opacity:1;"><g transform="translate(1823.195727, 475.169279)"><path style="stroke:none" d="M 12.875 -32.40625 C 12.269531 -32.40625 11.78125 -32.566406 11.40625 -32.890625 C 11.03125 -33.222656 10.773438 -33.632812 10.640625 -34.125 C 10.515625 -34.613281 10.488281 -35.097656 10.5625 -35.578125 C 10.71875 -36.296875 11.097656 -36.890625 11.703125 -37.359375 C 12.316406 -37.835938 12.988281 -38.078125 13.71875 -38.078125 C 14.519531 -38.078125 15.144531 -37.765625 15.59375 -37.140625 C 16.050781 -36.515625 16.203125 -35.78125 16.046875 -34.9375 C 15.878906 -34.132812 15.476562 -33.507812 14.84375 -33.0625 C 14.21875 -32.625 13.5625 -32.40625 12.875 -32.40625 Z M -0.5625 0 L -0.203125 -1.796875 L 2.5625 -1.796875 C 3.40625 -1.796875 4.039062 -2.019531 4.46875 -2.46875 C 4.894531 -2.914062 5.195312 -3.5625 5.375 -4.40625 L 8.296875 -19.484375 C 8.460938 -20.359375 8.410156 -20.960938 8.140625 -21.296875 C 7.878906 -21.640625 7.3125 -21.738281 6.4375 -21.59375 L 3.515625 -20.90625 L 3.625 -22.6875 L 13.09375 -24.671875 L 9.109375 -4.078125 C 8.953125 -3.328125 8.96875 -2.757812 9.15625 -2.375 C 9.34375 -1.988281 9.84375 -1.796875 10.65625 -1.796875 L 13.09375 -1.796875 L 12.734375 0 Z M -0.5625 0 "/></g></g><g style="fill:#ffcccc;fill-opacity:1;"><g transform="translate(1842.150875, 475.169279)"><path style="stroke:none" d="M 12.453125 0.703125 C 11.867188 0.703125 11.175781 0.632812 10.375 0.5 C 9.582031 0.375 8.753906 0.144531 7.890625 -0.1875 C 7.035156 -0.53125 6.21875 -1 5.4375 -1.59375 C 4.65625 -2.195312 3.984375 -2.96875 3.421875 -3.90625 C 2.859375 -4.84375 2.476562 -5.972656 2.28125 -7.296875 C 2.09375 -8.617188 2.144531 -10.171875 2.4375 -11.953125 C 2.757812 -13.765625 3.296875 -15.363281 4.046875 -16.75 C 4.796875 -18.132812 5.679688 -19.3125 6.703125 -20.28125 C 7.722656 -21.257812 8.816406 -22.054688 9.984375 -22.671875 C 11.160156 -23.296875 12.335938 -23.753906 13.515625 -24.046875 C 14.703125 -24.335938 15.828125 -24.484375 16.890625 -24.484375 C 17.878906 -24.484375 18.910156 -24.34375 19.984375 -24.0625 C 21.054688 -23.78125 22.070312 -23.335938 23.03125 -22.734375 C 24 -22.140625 24.832031 -21.351562 25.53125 -20.375 C 26.238281 -19.40625 26.726562 -18.222656 27 -16.828125 C 27.269531 -15.429688 27.234375 -13.804688 26.890625 -11.953125 C 26.535156 -9.941406 25.957031 -8.207031 25.15625 -6.75 C 24.351562 -5.300781 23.40625 -4.09375 22.3125 -3.125 C 21.226562 -2.164062 20.085938 -1.40625 18.890625 -0.84375 C 17.703125 -0.28125 16.546875 0.113281 15.421875 0.34375 C 14.304688 0.582031 13.316406 0.703125 12.453125 0.703125 Z M 12.78125 -1.125 C 13.664062 -1.125 14.625 -1.320312 15.65625 -1.71875 C 16.6875 -2.125 17.691406 -2.765625 18.671875 -3.640625 C 19.660156 -4.515625 20.535156 -5.632812 21.296875 -7 C 22.066406 -8.363281 22.625 -10.003906 22.96875 -11.921875 C 23.375 -14.179688 23.34375 -16.113281 22.875 -17.71875 C 22.40625 -19.320312 21.625 -20.546875 20.53125 -21.390625 C 19.4375 -22.234375 18.117188 -22.65625 16.578125 -22.65625 C 15.066406 -22.65625 13.609375 -22.226562 12.203125 -21.375 C 10.796875 -20.519531 9.578125 -19.300781 8.546875 -17.71875 C 7.515625 -16.132812 6.800781 -14.25 6.40625 -12.0625 C 6.070312 -10.113281 6.039062 -8.441406 6.3125 -7.046875 C 6.582031 -5.660156 7.054688 -4.53125 7.734375 -3.65625 C 8.421875 -2.789062 9.207031 -2.148438 10.09375 -1.734375 C 10.988281 -1.328125 11.882812 -1.125 12.78125 -1.125 Z M 12.78125 -1.125 "/></g></g><g style="fill:#ffcccc;fill-opacity:1;"><g transform="translate(1874.371833, 475.169279)"><path style="stroke:none" d="M 0.28125 0 L 0.59375 -1.796875 L 3.34375 -1.796875 C 4.207031 -1.796875 4.828125 -2.015625 5.203125 -2.453125 C 5.578125 -2.898438 5.835938 -3.5 5.984375 -4.25 L 8.578125 -19.109375 C 8.722656 -19.878906 8.664062 -20.488281 8.40625 -20.9375 C 8.15625 -21.382812 7.613281 -21.535156 6.78125 -21.390625 L 3.96875 -20.71875 L 4.015625 -22.515625 L 13.328125 -24.5625 L 11.96875 -17 C 12.6875 -17.957031 13.476562 -18.878906 14.34375 -19.765625 C 15.21875 -20.660156 16.148438 -21.460938 17.140625 -22.171875 C 18.140625 -22.890625 19.160156 -23.453125 20.203125 -23.859375 C 21.253906 -24.273438 22.304688 -24.484375 23.359375 -24.484375 C 25.960938 -24.484375 27.789062 -23.769531 28.84375 -22.34375 C 29.90625 -20.914062 30.164062 -18.664062 29.625 -15.59375 L 27.65625 -4.25 C 27.332031 -2.613281 27.882812 -1.796875 29.3125 -1.796875 L 31.984375 -1.796875 L 31.671875 0 L 18.09375 0 L 18.40625 -1.796875 L 21.5 -1.796875 C 22.195312 -1.796875 22.734375 -2.019531 23.109375 -2.46875 C 23.492188 -2.914062 23.765625 -3.515625 23.921875 -4.265625 L 25.890625 -15.546875 C 26.265625 -17.773438 26.160156 -19.425781 25.578125 -20.5 C 24.992188 -21.582031 23.738281 -22.125 21.8125 -22.125 C 20.78125 -22.125 19.753906 -21.847656 18.734375 -21.296875 C 17.710938 -20.753906 16.734375 -20.046875 15.796875 -19.171875 C 14.859375 -18.304688 14.007812 -17.363281 13.25 -16.34375 C 12.488281 -15.320312 11.847656 -14.332031 11.328125 -13.375 L 9.75 -4.25 C 9.625 -3.570312 9.660156 -2.992188 9.859375 -2.515625 C 10.066406 -2.035156 10.5 -1.796875 11.15625 -1.796875 L 14.171875 -1.796875 L 13.859375 0 Z M 0.28125 0 "/></g></g></g></svg>