<svg xmlns="http://www.w3.org/2000/svg" xmlns:xlink="http://www.w3.org/1999/xlink" width="5000" zoomAndPan="magnify" viewBox="0 0 3750 3749.999967" height="5000" preserveAspectRatio="xMidYMid meet" version="1.2"><defs><clipPath id="83d994215c"><path d="M 995 296.5 L 2758 296.5 L 2758 2345.769531 L 995 2345.769531 Z M 995 296.5 "/></clipPath><clipPath id="1224ab03f8"><path d="M 2757.332031 357.195312 C 2456.367188 591.394531 2246.085938 793.109375 2126.484375 961.976562 C 2013.667969 1121.207031 1983.320312 1247.945312 2035.089844 1342.199219 L 2036.160156 1344.699219 C 2083.644531 1447.875 2106.492188 1542.839844 2105.0625 1629.597656 C 2103.992188 1695.644531 2096.496094 1761.335938 2059.722656 1812.386719 C 1906.207031 2025.882812 1818.738281 2280.433594 1872.648438 2345.769531 C 1832.304688 2297.214844 1830.519531 2194.75 1850.15625 2092.289062 C 1889.070312 1887.71875 2025.804688 1789.539062 2028.664062 1628.167969 C 2030.089844 1553.195312 2009.382812 1469.652344 1967.253906 1377.542969 C 1901.207031 1255.445312 1933.339844 1102.285156 2064.363281 917.351562 C 2188.605469 742.054688 2436.015625 509.28125 2757.332031 357.195312 Z M 1547.761719 1154.410156 C 1419.59375 909.496094 1222.523438 880.222656 1072.574219 695.644531 C 1077.929688 933.058594 1115.0625 1105.140625 1184.320312 1212.601562 C 1259.652344 1329.703125 1397.101562 1440.734375 1557.046875 1397.535156 C 1464.222656 1472.867188 1351.761719 1467.152344 1285.355469 1421.097656 C 1257.867188 1476.4375 1248.585938 1513.921875 1237.875 1574.972656 C 1227.164062 1634.59375 1224.664062 1695.285156 1231.089844 1755.980469 C 1309.632812 1760.976562 1523.84375 1637.808594 1538.125 1611.386719 C 1471.003906 1738.128906 1344.980469 1823.097656 1202.53125 1838.449219 L 1166.472656 1842.378906 L 1160.402344 1805.960938 C 1147.191406 1724.203125 1147.90625 1641.378906 1162.1875 1561.40625 C 1174.324219 1493.929688 1196.101562 1427.882812 1226.808594 1365.761719 C 1185.75 1338.984375 1150.046875 1301.5 1119.703125 1254.015625 C 1030.089844 1114.78125 989.035156 884.503906 996.175781 562.835938 L 999.386719 426.8125 C 1087.570312 738.128906 1506.707031 845.234375 1547.761719 1154.410156 Z M 1863.007812 476.792969 C 1948.691406 476.792969 2017.953125 546.054688 2017.953125 631.738281 C 2017.953125 717.421875 1948.691406 786.683594 1863.007812 786.683594 C 1777.324219 786.683594 1708.0625 717.421875 1708.0625 631.738281 C 1708.0625 546.054688 1777.324219 476.792969 1863.007812 476.792969 Z M 2165.757812 1154.410156 C 2293.925781 909.496094 2490.996094 880.222656 2640.945312 695.644531 C 2635.589844 933.058594 2598.457031 1105.140625 2529.199219 1212.601562 C 2453.867188 1329.703125 2316.417969 1440.734375 2156.472656 1397.535156 C 2249.296875 1472.867188 2361.757812 1467.152344 2428.164062 1421.097656 C 2455.652344 1476.4375 2464.933594 1513.921875 2475.644531 1574.972656 C 2486.355469 1634.59375 2488.855469 1695.285156 2482.429688 1755.980469 C 2403.886719 1760.976562 2189.675781 1637.808594 2175.394531 1611.386719 C 2242.515625 1738.128906 2368.539062 1823.097656 2510.988281 1838.449219 L 2547.046875 1842.378906 L 2552.761719 1806.320312 C 2565.96875 1724.5625 2565.257812 1641.734375 2550.976562 1561.761719 C 2538.835938 1494.289062 2517.058594 1428.238281 2486.355469 1366.117188 C 2527.414062 1339.34375 2563.113281 1301.855469 2593.460938 1254.375 C 2683.070312 1115.136719 2724.128906 884.503906 2716.988281 563.191406 L 2713.773438 427.167969 C 2625.949219 738.128906 2206.8125 845.234375 2165.757812 1154.410156 Z M 1032.234375 296.5 C 1246.800781 511.78125 1971.539062 1016.242188 1775.183594 1377.898438 C 1732.695312 1470.011719 1712.347656 1553.550781 1713.773438 1628.523438 C 1701.636719 1924.847656 1968.328125 1807.390625 1732.695312 2145.839844 L 1733.054688 2139.054688 C 1871.21875 1972.6875 1640.585938 1830.59375 1637.015625 1629.953125 C 1635.589844 1542.839844 1658.4375 1447.875 1705.921875 1345.054688 L 1706.992188 1342.554688 C 1856.222656 1071.222656 1193.960938 525.707031 1032.234375 296.5 Z M 1032.234375 296.5 "/></clipPath><clipPath id="4c916fdcba"><path d="M 2078 217.820312 L 2365 217.820312 L 2365 505 L 2078 505 Z M 2078 217.820312 "/></clipPath><clipPath id="2fbe9815b1"><path d="M 2076.339844 450 L 2222 450 L 2222 595.007812 L 2076.339844 595.007812 Z M 2076.339844 450 "/></clipPath></defs><g id="b8c926c044"><path style=" stroke:none;fill-rule:nonzero;fill:#ffbed3;fill-opacity:1;" d="M 2757.332031 357.195312 C 2456.367188 591.394531 2246.085938 793.109375 2126.484375 961.976562 C 2013.667969 1121.207031 1983.320312 1247.945312 2035.089844 1342.199219 L 2036.160156 1344.699219 C 2083.644531 1447.875 2106.492188 1542.839844 2105.0625 1629.597656 C 2103.992188 1695.644531 2096.496094 1761.335938 2059.722656 1812.386719 C 1906.207031 2025.882812 1818.738281 2280.433594 1872.648438 2345.769531 C 1832.304688 2297.214844 1830.519531 2194.75 1850.15625 2092.289062 C 1889.070312 1887.71875 2025.804688 1789.539062 2028.664062 1628.167969 C 2030.089844 1553.195312 2009.382812 1469.652344 1967.253906 1377.542969 C 1901.207031 1255.445312 1933.339844 1102.285156 2064.363281 917.351562 C 2188.605469 742.054688 2436.015625 509.28125 2757.332031 357.195312 Z M 1547.761719 1154.410156 C 1419.59375 909.496094 1222.523438 880.222656 1072.578125 695.644531 C 1077.929688 933.058594 1115.0625 1105.140625 1184.320312 1212.601562 C 1259.652344 1329.703125 1397.101562 1440.734375 1557.046875 1397.535156 C 1464.222656 1472.867188 1351.761719 1467.152344 1285.355469 1421.097656 C 1257.867188 1476.4375 1248.585938 1513.921875 1237.875 1574.972656 C 1227.164062 1634.59375 1224.664062 1695.285156 1231.089844 1755.980469 C 1309.632812 1760.976562 1523.84375 1637.808594 1538.125 1611.386719 C 1471.003906 1738.128906 1344.980469 1823.097656 1202.53125 1838.449219 L 1166.472656 1842.378906 L 1160.402344 1805.960938 C 1147.191406 1724.203125 1147.90625 1641.378906 1162.1875 1561.40625 C 1174.324219 1493.929688 1196.101562 1427.882812 1226.808594 1365.761719 C 1185.75 1338.984375 1150.046875 1301.5 1119.703125 1254.015625 C 1030.089844 1114.78125 989.035156 884.503906 996.175781 562.835938 L 999.386719 426.8125 C 1087.570312 738.128906 1506.707031 845.234375 1547.761719 1154.410156 Z M 1863.007812 476.792969 C 1948.691406 476.792969 2017.953125 546.054688 2017.953125 631.738281 C 2017.953125 717.421875 1948.691406 786.683594 1863.007812 786.683594 C 1777.324219 786.683594 1708.0625 717.421875 1708.0625 631.738281 C 1708.0625 546.054688 1777.324219 476.792969 1863.007812 476.792969 Z M 2165.757812 1154.410156 C 2293.925781 909.496094 2490.996094 880.222656 2640.941406 695.644531 C 2635.589844 933.058594 2598.457031 1105.140625 2529.199219 1212.601562 C 2453.867188 1329.703125 2316.417969 1440.734375 2156.472656 1397.535156 C 2249.296875 1472.867188 2361.757812 1467.152344 2428.164062 1421.097656 C 2455.652344 1476.4375 2464.933594 1513.921875 2475.644531 1574.972656 C 2486.355469 1634.59375 2488.855469 1695.285156 2482.429688 1755.980469 C 2403.886719 1760.976562 2189.675781 1637.808594 2175.394531 1611.386719 C 2242.515625 1738.128906 2368.539062 1823.097656 2510.988281 1838.449219 L 2547.046875 1842.378906 L 2552.761719 1806.320312 C 2565.96875 1724.5625 2565.257812 1641.734375 2550.976562 1561.761719 C 2538.835938 1494.289062 2517.058594 1428.238281 2486.355469 1366.117188 C 2527.414062 1339.34375 2563.113281 1301.855469 2593.460938 1254.375 C 2683.070312 1115.136719 2724.128906 884.503906 2716.988281 563.191406 L 2713.773438 427.167969 C 2625.949219 738.128906 2206.8125 845.234375 2165.757812 1154.410156 Z M 1032.234375 296.5 C 1246.800781 511.78125 1971.539062 1016.242188 1775.183594 1377.898438 C 1732.695312 1470.011719 1712.347656 1553.550781 1713.773438 1628.523438 C 1701.636719 1924.847656 1968.328125 1807.390625 1732.695312 2145.839844 L 1733.054688 2139.054688 C 1871.21875 1972.6875 1640.585938 1830.59375 1637.015625 1629.953125 C 1635.589844 1542.839844 1658.4375 1447.875 1705.921875 1345.054688 L 1706.992188 1342.554688 C 1856.222656 1071.222656 1193.960938 525.707031 1032.234375 296.5 Z M 1032.234375 296.5 "/><g clip-rule="nonzero" clip-path="url(#83d994215c)"><g clip-rule="nonzero" clip-path="url(#1224ab03f8)"><path style=" stroke:none;fill-rule:nonzero;fill:#ffbed3;fill-opacity:1;" d="M 989.035156 296.5 L 2757.332031 296.5 L 2757.332031 2345.769531 L 989.035156 2345.769531 Z M 989.035156 296.5 "/></g></g><g clip-rule="nonzero" clip-path="url(#4c916fdcba)"><path style=" stroke:none;fill-rule:nonzero;fill:#ffe8e8;fill-opacity:1;" d="M 2288.207031 364.515625 C 2286.210938 364.730469 2284.226562 365.035156 2282.253906 365.421875 C 2280.28125 365.804688 2278.328125 366.273438 2276.398438 366.824219 C 2274.464844 367.378906 2272.558594 368.007812 2270.679688 368.722656 C 2268.800781 369.433594 2266.957031 370.226562 2265.144531 371.09375 C 2263.332031 371.960938 2261.558594 372.90625 2259.828125 373.925781 C 2258.09375 374.945312 2256.410156 376.035156 2254.769531 377.195312 C 2253.128906 378.355469 2251.542969 379.585938 2250.007812 380.882812 C 2248.46875 382.175781 2246.992188 383.535156 2245.570312 384.957031 C 2244.148438 386.378906 2242.792969 387.855469 2241.496094 389.390625 C 2240.199219 390.925781 2238.972656 392.515625 2237.808594 394.15625 C 2236.648438 395.796875 2235.558594 397.480469 2234.539062 399.214844 C 2233.519531 400.945312 2232.578125 402.71875 2231.707031 404.53125 C 2230.839844 406.339844 2230.050781 408.1875 2229.335938 410.066406 C 2228.625 411.945312 2227.992188 413.851562 2227.441406 415.78125 C 2226.890625 417.714844 2226.421875 419.667969 2226.035156 421.640625 C 2225.648438 423.613281 2225.347656 425.597656 2225.128906 427.59375 C 2222.589844 453.074219 2221.425781 478.617188 2221.636719 504.222656 C 2221.84375 478.617188 2220.679688 453.074219 2218.140625 427.59375 C 2217.921875 425.597656 2217.621094 423.613281 2217.234375 421.640625 C 2216.847656 419.667969 2216.378906 417.714844 2215.828125 415.78125 C 2215.277344 413.851562 2214.644531 411.945312 2213.933594 410.066406 C 2213.21875 408.1875 2212.429688 406.339844 2211.5625 404.53125 C 2210.691406 402.71875 2209.75 400.945312 2208.730469 399.214844 C 2207.710938 397.480469 2206.621094 395.796875 2205.460938 394.15625 C 2204.296875 392.515625 2203.070312 390.929688 2201.773438 389.390625 C 2200.476562 387.855469 2199.121094 386.378906 2197.699219 384.957031 C 2196.277344 383.535156 2194.800781 382.175781 2193.261719 380.882812 C 2191.726562 379.585938 2190.140625 378.355469 2188.5 377.195312 C 2186.859375 376.035156 2185.175781 374.945312 2183.441406 373.925781 C 2181.710938 372.90625 2179.9375 371.964844 2178.125 371.09375 C 2176.3125 370.226562 2174.46875 369.433594 2172.589844 368.722656 C 2170.710938 368.007812 2168.804688 367.378906 2166.871094 366.828125 C 2164.941406 366.273438 2162.988281 365.804688 2161.015625 365.421875 C 2159.042969 365.035156 2157.058594 364.730469 2155.0625 364.515625 C 2129.582031 361.976562 2104.039062 360.8125 2078.433594 361.019531 C 2104.039062 361.230469 2129.582031 360.066406 2155.0625 357.527344 C 2157.058594 357.308594 2159.042969 357.007812 2161.015625 356.621094 C 2162.988281 356.234375 2164.941406 355.765625 2166.871094 355.214844 C 2168.804688 354.664062 2170.710938 354.03125 2172.589844 353.320312 C 2174.46875 352.605469 2176.3125 351.816406 2178.125 350.949219 C 2179.9375 350.078125 2181.710938 349.136719 2183.441406 348.117188 C 2185.175781 347.097656 2186.859375 346.007812 2188.5 344.847656 C 2190.140625 343.683594 2191.726562 342.457031 2193.265625 341.160156 C 2194.800781 339.863281 2196.277344 338.507812 2197.699219 337.085938 C 2199.121094 335.664062 2200.480469 334.1875 2201.773438 332.652344 C 2203.070312 331.113281 2204.300781 329.527344 2205.460938 327.886719 C 2206.621094 326.246094 2207.710938 324.5625 2208.730469 322.828125 C 2209.75 321.097656 2210.695312 319.324219 2211.5625 317.511719 C 2212.429688 315.699219 2213.222656 313.855469 2213.933594 311.976562 C 2214.648438 310.097656 2215.28125 308.191406 2215.832031 306.261719 C 2216.382812 304.328125 2216.851562 302.375 2217.238281 300.402344 C 2217.621094 298.429688 2217.925781 296.445312 2218.144531 294.449219 C 2220.683594 268.96875 2221.847656 243.425781 2221.636719 217.820312 C 2221.425781 243.425781 2222.589844 268.96875 2225.128906 294.449219 C 2225.347656 296.445312 2225.648438 298.429688 2226.035156 300.402344 C 2226.421875 302.375 2226.890625 304.328125 2227.441406 306.257812 C 2227.992188 308.191406 2228.625 310.097656 2229.339844 311.976562 C 2230.050781 313.855469 2230.839844 315.699219 2231.710938 317.511719 C 2232.578125 319.324219 2233.523438 321.097656 2234.542969 322.828125 C 2235.558594 324.5625 2236.648438 326.246094 2237.8125 327.886719 C 2238.972656 329.527344 2240.203125 331.113281 2241.496094 332.648438 C 2242.792969 334.1875 2244.152344 335.664062 2245.570312 337.085938 C 2246.992188 338.507812 2248.472656 339.863281 2250.007812 341.160156 C 2251.542969 342.457031 2253.128906 343.683594 2254.769531 344.847656 C 2256.410156 346.007812 2258.097656 347.097656 2259.828125 348.117188 C 2261.558594 349.132812 2263.332031 350.078125 2265.144531 350.945312 C 2266.957031 351.816406 2268.800781 352.605469 2270.679688 353.320312 C 2272.558594 354.03125 2274.464844 354.664062 2276.398438 355.214844 C 2278.328125 355.765625 2280.28125 356.234375 2282.253906 356.621094 C 2284.226562 357.007812 2286.210938 357.308594 2288.207031 357.527344 C 2313.6875 360.066406 2339.230469 361.230469 2364.835938 361.019531 C 2339.230469 360.8125 2313.6875 361.976562 2288.207031 364.515625 Z M 2288.207031 364.515625 "/></g><g clip-rule="nonzero" clip-path="url(#2fbe9815b1)"><path style=" stroke:none;fill-rule:nonzero;fill:#ffe8e8;fill-opacity:1;" d="M 2182.859375 524.386719 C 2181.847656 524.5 2180.84375 524.652344 2179.847656 524.847656 C 2178.847656 525.042969 2177.859375 525.28125 2176.882812 525.558594 C 2175.90625 525.835938 2174.941406 526.15625 2173.988281 526.519531 C 2173.039062 526.878906 2172.105469 527.277344 2171.1875 527.71875 C 2170.269531 528.160156 2169.375 528.636719 2168.496094 529.152344 C 2167.621094 529.667969 2166.769531 530.21875 2165.9375 530.804688 C 2165.109375 531.394531 2164.304688 532.015625 2163.527344 532.671875 C 2162.75 533.328125 2162.003906 534.015625 2161.28125 534.734375 C 2160.5625 535.453125 2159.875 536.199219 2159.222656 536.976562 C 2158.566406 537.753906 2157.945312 538.558594 2157.355469 539.390625 C 2156.769531 540.21875 2156.214844 541.070312 2155.699219 541.949219 C 2155.183594 542.824219 2154.707031 543.722656 2154.269531 544.636719 C 2153.828125 545.554688 2153.429688 546.488281 2153.066406 547.441406 C 2152.707031 548.390625 2152.386719 549.355469 2152.109375 550.332031 C 2151.828125 551.3125 2151.59375 552.296875 2151.394531 553.296875 C 2151.199219 554.292969 2151.046875 555.300781 2150.9375 556.308594 C 2149.652344 569.203125 2149.066406 582.128906 2149.171875 595.085938 C 2149.277344 582.128906 2148.6875 569.203125 2147.402344 556.308594 C 2147.292969 555.300781 2147.140625 554.292969 2146.945312 553.296875 C 2146.75 552.296875 2146.511719 551.3125 2146.234375 550.332031 C 2145.953125 549.355469 2145.632812 548.390625 2145.273438 547.441406 C 2144.914062 546.488281 2144.511719 545.554688 2144.074219 544.636719 C 2143.632812 543.722656 2143.15625 542.824219 2142.640625 541.949219 C 2142.125 541.070312 2141.574219 540.21875 2140.984375 539.390625 C 2140.398438 538.558594 2139.777344 537.753906 2139.121094 536.976562 C 2138.464844 536.199219 2137.777344 535.453125 2137.058594 534.734375 C 2136.339844 534.015625 2135.589844 533.328125 2134.8125 532.671875 C 2134.035156 532.015625 2133.234375 531.394531 2132.402344 530.804688 C 2131.574219 530.21875 2130.71875 529.667969 2129.84375 529.152344 C 2128.96875 528.636719 2128.070312 528.160156 2127.152344 527.71875 C 2126.238281 527.277344 2125.304688 526.878906 2124.351562 526.519531 C 2123.402344 526.15625 2122.4375 525.835938 2121.460938 525.558594 C 2120.480469 525.28125 2119.492188 525.042969 2118.496094 524.847656 C 2117.496094 524.652344 2116.492188 524.5 2115.480469 524.386719 C 2102.589844 523.105469 2089.664062 522.515625 2076.703125 522.621094 C 2089.664062 522.726562 2102.589844 522.136719 2115.480469 520.851562 C 2116.492188 520.742188 2117.496094 520.589844 2118.496094 520.394531 C 2119.492188 520.199219 2120.480469 519.960938 2121.460938 519.683594 C 2122.4375 519.402344 2123.402344 519.082031 2124.351562 518.722656 C 2125.304688 518.363281 2126.238281 517.960938 2127.152344 517.523438 C 2128.070312 517.082031 2128.96875 516.605469 2129.84375 516.089844 C 2130.71875 515.574219 2131.574219 515.023438 2132.402344 514.433594 C 2133.234375 513.847656 2134.039062 513.226562 2134.8125 512.570312 C 2135.589844 511.914062 2136.339844 511.226562 2137.058594 510.507812 C 2137.777344 509.789062 2138.464844 509.039062 2139.121094 508.261719 C 2139.777344 507.484375 2140.398438 506.683594 2140.984375 505.851562 C 2141.574219 505.023438 2142.125 504.167969 2142.640625 503.292969 C 2143.15625 502.417969 2143.632812 501.519531 2144.074219 500.601562 C 2144.511719 499.6875 2144.914062 498.753906 2145.273438 497.800781 C 2145.636719 496.851562 2145.953125 495.886719 2146.234375 494.90625 C 2146.511719 493.929688 2146.75 492.941406 2146.945312 491.945312 C 2147.140625 490.945312 2147.292969 489.941406 2147.402344 488.929688 C 2148.6875 476.039062 2149.277344 463.113281 2149.171875 450.15625 C 2149.066406 463.113281 2149.652344 476.039062 2150.9375 488.929688 C 2151.046875 489.941406 2151.199219 490.945312 2151.394531 491.945312 C 2151.589844 492.941406 2151.828125 493.929688 2152.109375 494.90625 C 2152.386719 495.886719 2152.707031 496.851562 2153.066406 497.800781 C 2153.429688 498.753906 2153.828125 499.6875 2154.269531 500.601562 C 2154.707031 501.519531 2155.183594 502.417969 2155.699219 503.292969 C 2156.214844 504.167969 2156.765625 505.023438 2157.355469 505.851562 C 2157.941406 506.683594 2158.566406 507.484375 2159.21875 508.261719 C 2159.875 509.039062 2160.5625 509.789062 2161.28125 510.507812 C 2162 511.226562 2162.75 511.914062 2163.527344 512.570312 C 2164.304688 513.226562 2165.109375 513.847656 2165.9375 514.433594 C 2166.769531 515.023438 2167.621094 515.574219 2168.496094 516.089844 C 2169.375 516.605469 2170.269531 517.082031 2171.1875 517.523438 C 2172.105469 517.960938 2173.039062 518.363281 2173.988281 518.722656 C 2174.941406 519.082031 2175.90625 519.402344 2176.882812 519.683594 C 2177.859375 519.960938 2178.847656 520.199219 2179.847656 520.394531 C 2180.84375 520.589844 2181.847656 520.742188 2182.859375 520.851562 C 2195.753906 522.140625 2208.679688 522.734375 2221.636719 522.628906 C 2208.679688 522.519531 2195.753906 523.105469 2182.859375 524.386719 Z M 2182.859375 524.386719 "/></g><path style=" stroke:none;fill-rule:nonzero;fill:#ffe8e8;fill-opacity:1;" d="M 2325.859375 469.917969 C 2324.625 470.050781 2323.40625 470.289062 2322.210938 470.632812 C 2321.015625 470.972656 2319.855469 471.414062 2318.734375 471.949219 C 2317.613281 472.488281 2316.542969 473.117188 2315.53125 473.835938 C 2314.515625 474.554688 2313.566406 475.351562 2312.6875 476.234375 C 2311.808594 477.113281 2311.007812 478.058594 2310.289062 479.074219 C 2309.570312 480.089844 2308.941406 481.160156 2308.402344 482.28125 C 2307.867188 483.402344 2307.425781 484.5625 2307.085938 485.757812 C 2306.746094 486.953125 2306.507812 488.171875 2306.371094 489.40625 C 2305.585938 497.28125 2305.226562 505.171875 2305.292969 513.082031 C 2305.355469 505.171875 2304.996094 497.28125 2304.214844 489.40625 C 2304.078125 488.171875 2303.839844 486.953125 2303.5 485.757812 C 2303.15625 484.5625 2302.71875 483.402344 2302.179688 482.28125 C 2301.640625 481.160156 2301.011719 480.089844 2300.292969 479.074219 C 2299.574219 478.058594 2298.777344 477.113281 2297.894531 476.234375 C 2297.015625 475.351562 2296.070312 474.554688 2295.054688 473.835938 C 2294.039062 473.117188 2292.96875 472.488281 2291.847656 471.949219 C 2290.726562 471.414062 2289.566406 470.972656 2288.371094 470.632812 C 2287.175781 470.289062 2285.957031 470.050781 2284.722656 469.917969 C 2276.851562 469.132812 2268.957031 468.773438 2261.046875 468.839844 C 2268.957031 468.902344 2276.851562 468.542969 2284.722656 467.757812 C 2285.957031 467.621094 2287.175781 467.382812 2288.371094 467.042969 C 2289.566406 466.703125 2290.726562 466.261719 2291.847656 465.726562 C 2292.96875 465.1875 2294.039062 464.558594 2295.054688 463.839844 C 2296.070312 463.121094 2297.015625 462.320312 2297.894531 461.441406 C 2298.777344 460.5625 2299.574219 459.613281 2300.292969 458.601562 C 2301.011719 457.585938 2301.640625 456.515625 2302.179688 455.394531 C 2302.71875 454.273438 2303.15625 453.113281 2303.5 451.917969 C 2303.839844 450.722656 2304.078125 449.503906 2304.214844 448.269531 C 2304.996094 440.394531 2305.355469 432.503906 2305.292969 424.59375 C 2305.226562 432.503906 2305.585938 440.394531 2306.371094 448.269531 C 2306.507812 449.503906 2306.746094 450.71875 2307.085938 451.917969 C 2307.429688 453.113281 2307.867188 454.269531 2308.40625 455.390625 C 2308.945312 456.511719 2309.570312 457.582031 2310.292969 458.597656 C 2311.011719 459.609375 2311.808594 460.558594 2312.6875 461.4375 C 2313.570312 462.316406 2314.515625 463.117188 2315.53125 463.835938 C 2316.546875 464.554688 2317.613281 465.179688 2318.734375 465.71875 C 2319.859375 466.257812 2321.015625 466.695312 2322.210938 467.035156 C 2323.410156 467.378906 2324.625 467.617188 2325.859375 467.75 C 2333.734375 468.539062 2341.628906 468.902344 2349.542969 468.839844 C 2341.628906 468.773438 2333.734375 469.132812 2325.859375 469.917969 Z M 2325.859375 469.917969 "/><g style="fill:#c24b79;fill-opacity:1;"><g transform="translate(7.117967, 2684.939604)"><path style="stroke:none" d="M 323.6875 -379 C 320.394531 -379 317.65625 -377.898438 315.46875 -375.703125 C 313.28125 -373.515625 312.1875 -370.78125 312.1875 -367.5 L 312.1875 -13.6875 C 312.1875 -10.40625 313.28125 -7.664062 315.46875 -5.46875 C 317.65625 -3.28125 320.394531 -2.1875 323.6875 -2.1875 C 325.144531 -2.1875 325.875 -1.457031 325.875 0 C 325.875 1.457031 325.144531 2.1875 323.6875 2.1875 L 231.671875 2.1875 C 230.578125 2.1875 230.03125 1.457031 230.03125 0 C 230.03125 -1.457031 230.578125 -2.1875 231.671875 -2.1875 C 234.953125 -2.1875 237.6875 -3.28125 239.875 -5.46875 C 242.070312 -7.664062 243.171875 -10.40625 243.171875 -13.6875 L 243.171875 -188.40625 L 118.296875 -188.40625 L 118.296875 -13.6875 C 118.296875 -10.40625 119.390625 -7.664062 121.578125 -5.46875 C 123.773438 -3.28125 126.332031 -2.1875 129.25 -2.1875 C 130.707031 -2.1875 131.4375 -1.457031 131.4375 0 C 131.4375 1.457031 130.707031 2.1875 129.25 2.1875 L 37.796875 2.1875 C 36.328125 2.1875 35.59375 1.457031 35.59375 0 C 35.59375 -1.457031 36.328125 -2.1875 37.796875 -2.1875 C 41.078125 -2.1875 43.8125 -3.28125 46 -5.46875 C 48.195312 -7.664062 49.296875 -10.40625 49.296875 -13.6875 L 49.296875 -367.5 C 49.296875 -370.78125 48.195312 -373.515625 46 -375.703125 C 43.8125 -377.898438 41.078125 -379 37.796875 -379 C 36.328125 -379 35.59375 -379.726562 35.59375 -381.1875 C 35.59375 -382.644531 36.328125 -383.375 37.796875 -383.375 L 129.25 -383.375 C 130.707031 -383.375 131.4375 -382.644531 131.4375 -381.1875 C 131.4375 -379.726562 130.707031 -379 129.25 -379 C 126.332031 -379 123.773438 -377.898438 121.578125 -375.703125 C 119.390625 -373.515625 118.296875 -370.78125 118.296875 -367.5 L 118.296875 -192.78125 L 243.171875 -192.78125 L 243.171875 -367.5 C 243.171875 -370.78125 242.070312 -373.515625 239.875 -375.703125 C 237.6875 -377.898438 234.953125 -379 231.671875 -379 C 230.578125 -379 230.03125 -379.726562 230.03125 -381.1875 C 230.03125 -382.644531 230.578125 -383.375 231.671875 -383.375 L 323.6875 -383.375 C 325.144531 -383.375 325.875 -382.644531 325.875 -381.1875 C 325.875 -379.726562 325.144531 -379 323.6875 -379 Z M 323.6875 -379 "/></g></g><g style="fill:#c24b79;fill-opacity:1;"><g transform="translate(351.602083, 2684.939604)"><path style="stroke:none" d="M 250.296875 -39.984375 C 251.390625 -40.710938 252.300781 -40.710938 253.03125 -39.984375 C 254.125 -38.890625 254.125 -37.789062 253.03125 -36.6875 C 227.101562 -10.769531 195.882812 2.1875 159.375 2.1875 C 122.5 2.1875 91.097656 -10.769531 65.171875 -36.6875 C 48.015625 -54.21875 36.515625 -74.300781 30.671875 -96.9375 C 24.828125 -119.570312 24.828125 -142.207031 30.671875 -164.84375 C 36.515625 -187.488281 48.015625 -207.570312 65.171875 -225.09375 C 82.335938 -242.257812 102.328125 -253.671875 125.140625 -259.328125 C 147.960938 -264.984375 170.691406 -264.984375 193.328125 -259.328125 C 215.972656 -253.671875 235.875 -242.257812 253.03125 -225.09375 C 254.125 -224 254.125 -222.90625 253.03125 -221.8125 L 136.375 -105.15625 C 136.007812 -104.789062 135.460938 -104.609375 134.734375 -104.609375 C 134.367188 -104.609375 134.003906 -104.789062 133.640625 -105.15625 C 132.546875 -106.25 132.546875 -107.160156 133.640625 -107.890625 L 203.1875 -177.453125 C 178 -202.273438 152.257812 -218.890625 125.96875 -227.296875 C 99.675781 -236.054688 80.320312 -234.226562 67.90625 -221.8125 C 59.875 -213.414062 56.5 -201.734375 57.78125 -186.765625 C 59.0625 -171.796875 64.535156 -155.363281 74.203125 -137.46875 C 83.878906 -119.582031 97.117188 -102.238281 113.921875 -85.4375 C 139.109375 -60.25 165.210938 -43.269531 192.234375 -34.5 C 218.523438 -25.738281 237.878906 -27.566406 250.296875 -39.984375 Z M 250.296875 -39.984375 "/></g></g><g style="fill:#c24b79;fill-opacity:1;"><g transform="translate(617.221864, 2684.939604)"><path style="stroke:none" d="M 216.890625 -257.40625 C 216.890625 -256.675781 217.070312 -256.492188 217.4375 -256.859375 C 217.4375 -257.222656 217.253906 -257.222656 216.890625 -256.859375 C 216.523438 -256.128906 216.523438 -255.945312 216.890625 -256.3125 L 203.1875 -234.953125 C 202.457031 -234.222656 201.726562 -233.859375 201 -233.859375 C 200.269531 -233.859375 199.722656 -234.222656 199.359375 -234.953125 C 195.335938 -243.722656 188.398438 -249.566406 178.546875 -252.484375 C 168.691406 -255.765625 158.648438 -255.21875 148.421875 -250.84375 C 147.691406 -250.476562 146.867188 -250.113281 145.953125 -249.75 C 145.046875 -249.382812 144.226562 -248.835938 143.5 -248.109375 C 143.132812 -248.109375 142.953125 -248.109375 142.953125 -248.109375 C 130.898438 -241.535156 120.675781 -232.40625 112.28125 -220.71875 L 112.28125 -13.6875 C 112.28125 -10.40625 113.375 -7.664062 115.5625 -5.46875 C 117.75 -3.28125 120.304688 -2.1875 123.234375 -2.1875 C 124.691406 -2.1875 125.421875 -1.457031 125.421875 0 C 125.421875 1.457031 124.691406 2.1875 123.234375 2.1875 L 31.765625 2.1875 C 30.304688 2.1875 29.578125 1.457031 29.578125 0 C 29.578125 -1.457031 30.304688 -2.1875 31.765625 -2.1875 C 35.046875 -2.1875 37.78125 -3.28125 39.96875 -5.46875 C 42.164062 -7.664062 43.265625 -10.222656 43.265625 -13.140625 L 43.265625 -209.765625 C 43.265625 -211.953125 42.535156 -213.410156 41.078125 -214.140625 C 39.253906 -214.867188 36.515625 -213.957031 32.859375 -211.40625 C 31.765625 -210.675781 30.851562 -210.859375 30.125 -211.953125 C 29.03125 -213.046875 29.210938 -214.140625 30.671875 -215.234375 L 43.8125 -224.546875 C 43.8125 -224.910156 43.8125 -225.09375 43.8125 -225.09375 L 108.4375 -271.65625 C 109.164062 -272.382812 109.898438 -272.566406 110.640625 -272.203125 C 111.734375 -271.835938 112.28125 -271.109375 112.28125 -270.015625 L 112.28125 -227.84375 C 119.945312 -237.332031 129.070312 -245.179688 139.65625 -251.390625 C 140.382812 -251.753906 140.566406 -251.753906 140.203125 -251.390625 C 140.203125 -251.390625 140.289062 -251.476562 140.46875 -251.65625 C 140.65625 -251.84375 140.75 -251.9375 140.75 -251.9375 C 141.113281 -251.9375 141.296875 -251.9375 141.296875 -251.9375 C 143.128906 -253.03125 144.957031 -253.941406 146.78125 -254.671875 C 159.925781 -260.878906 173.617188 -263.984375 187.859375 -263.984375 C 197.347656 -263.984375 206.65625 -262.523438 215.78125 -259.609375 C 215.414062 -259.609375 215.414062 -259.609375 215.78125 -259.609375 C 216.519531 -259.242188 216.707031 -259.242188 216.34375 -259.609375 C 216.34375 -259.609375 216.34375 -259.425781 216.34375 -259.0625 C 216.707031 -258.695312 216.890625 -258.515625 216.890625 -258.515625 C 216.890625 -258.140625 216.890625 -257.769531 216.890625 -257.40625 Z M 216.890625 -257.40625 "/></g></g><g style="fill:#c24b79;fill-opacity:1;"><g transform="translate(845.6002, 2684.939604)"><path style="stroke:none" d="M 323.6875 -2.1875 C 325.144531 -2.1875 325.875 -1.457031 325.875 0 C 325.875 1.457031 325.144531 2.1875 323.6875 2.1875 L 251.390625 2.1875 C 247.367188 2.1875 243.257812 0.726562 239.0625 -2.1875 C 234.863281 -5.113281 231.671875 -8.582031 229.484375 -12.59375 L 156.09375 -162.109375 L 118.296875 -162.109375 L 118.296875 -13.6875 C 118.296875 -10.40625 119.390625 -7.664062 121.578125 -5.46875 C 123.773438 -3.28125 126.332031 -2.1875 129.25 -2.1875 C 130.707031 -2.1875 131.4375 -1.457031 131.4375 0 C 131.4375 1.457031 130.707031 2.1875 129.25 2.1875 L 37.796875 2.1875 C 36.328125 2.1875 35.59375 1.457031 35.59375 0 C 35.59375 -1.457031 36.328125 -2.1875 37.796875 -2.1875 C 41.078125 -2.1875 43.8125 -3.28125 46 -5.46875 C 48.195312 -7.664062 49.296875 -10.40625 49.296875 -13.6875 L 49.296875 -367.5 C 49.296875 -370.78125 48.195312 -373.515625 46 -375.703125 C 43.8125 -377.898438 41.078125 -379 37.796875 -379 C 36.328125 -379 35.59375 -379.726562 35.59375 -381.1875 C 35.59375 -382.644531 36.328125 -383.375 37.796875 -383.375 L 201.546875 -383.375 C 201.910156 -383.375 202.273438 -383.375 202.640625 -383.375 C 203.003906 -383.375 203.550781 -383.375 204.28125 -383.375 C 204.644531 -383.375 204.828125 -383.375 204.828125 -383.375 C 224.910156 -383.375 243.347656 -378.351562 260.140625 -368.3125 C 276.941406 -358.28125 290.269531 -344.957031 300.125 -328.34375 C 309.988281 -311.726562 314.921875 -293.195312 314.921875 -272.75 C 314.921875 -255.582031 311.269531 -239.601562 303.96875 -224.8125 C 296.664062 -210.03125 286.710938 -197.4375 274.109375 -187.03125 C 261.515625 -176.625 247.1875 -169.597656 231.125 -165.953125 L 305.609375 -14.234375 C 307.066406 -10.953125 309.617188 -8.125 313.265625 -5.75 C 316.921875 -3.375 320.394531 -2.1875 323.6875 -2.1875 Z M 118.296875 -379 L 118.296875 -166.5 L 201.546875 -166.5 C 209.210938 -166.5 216.148438 -171.335938 222.359375 -181.015625 C 228.566406 -190.691406 233.585938 -203.648438 237.421875 -219.890625 C 241.253906 -236.140625 243.171875 -253.757812 243.171875 -272.75 C 243.171875 -292.101562 241.253906 -309.8125 237.421875 -325.875 C 233.585938 -341.9375 228.566406 -354.804688 222.359375 -364.484375 C 216.148438 -374.160156 209.210938 -379 201.546875 -379 Z M 118.296875 -379 "/></g></g><g style="fill:#c24b79;fill-opacity:1;"><g transform="translate(1163.795856, 2684.939604)"><path style="stroke:none" d="M 250.296875 -39.984375 C 251.390625 -40.710938 252.300781 -40.710938 253.03125 -39.984375 C 254.125 -38.890625 254.125 -37.789062 253.03125 -36.6875 C 227.101562 -10.769531 195.882812 2.1875 159.375 2.1875 C 122.5 2.1875 91.097656 -10.769531 65.171875 -36.6875 C 48.015625 -54.21875 36.515625 -74.300781 30.671875 -96.9375 C 24.828125 -119.570312 24.828125 -142.207031 30.671875 -164.84375 C 36.515625 -187.488281 48.015625 -207.570312 65.171875 -225.09375 C 82.335938 -242.257812 102.328125 -253.671875 125.140625 -259.328125 C 147.960938 -264.984375 170.691406 -264.984375 193.328125 -259.328125 C 215.972656 -253.671875 235.875 -242.257812 253.03125 -225.09375 C 254.125 -224 254.125 -222.90625 253.03125 -221.8125 L 136.375 -105.15625 C 136.007812 -104.789062 135.460938 -104.609375 134.734375 -104.609375 C 134.367188 -104.609375 134.003906 -104.789062 133.640625 -105.15625 C 132.546875 -106.25 132.546875 -107.160156 133.640625 -107.890625 L 203.1875 -177.453125 C 178 -202.273438 152.257812 -218.890625 125.96875 -227.296875 C 99.675781 -236.054688 80.320312 -234.226562 67.90625 -221.8125 C 59.875 -213.414062 56.5 -201.734375 57.78125 -186.765625 C 59.0625 -171.796875 64.535156 -155.363281 74.203125 -137.46875 C 83.878906 -119.582031 97.117188 -102.238281 113.921875 -85.4375 C 139.109375 -60.25 165.210938 -43.269531 192.234375 -34.5 C 218.523438 -25.738281 237.878906 -27.566406 250.296875 -39.984375 Z M 250.296875 -39.984375 "/></g></g><g style="fill:#c24b79;fill-opacity:1;"><g transform="translate(1429.415638, 2684.939604)"><path style="stroke:none" d="M 292.46875 -46 C 293.925781 -46 294.65625 -45.269531 294.65625 -43.8125 C 294.65625 -31.394531 290.085938 -20.625 280.953125 -11.5 C 271.828125 -2.375 261.0625 2.1875 248.65625 2.1875 C 235.875 2.1875 224.914062 -2.375 215.78125 -11.5 C 206.65625 -20.625 202.09375 -31.394531 202.09375 -43.8125 L 202.09375 -165.953125 C 202.09375 -194.066406 199.078125 -216.703125 193.046875 -233.859375 C 187.023438 -251.023438 180.546875 -259.609375 173.609375 -259.609375 C 161.566406 -259.609375 150.34375 -257.503906 139.9375 -253.296875 C 129.53125 -249.097656 120.3125 -243.347656 112.28125 -236.046875 L 112.28125 -13.6875 C 112.28125 -10.40625 113.375 -7.664062 115.5625 -5.46875 C 117.75 -3.28125 120.304688 -2.1875 123.234375 -2.1875 C 124.691406 -2.1875 125.421875 -1.457031 125.421875 0 C 125.421875 1.457031 124.691406 2.1875 123.234375 2.1875 L 31.765625 2.1875 C 30.304688 2.1875 29.578125 1.457031 29.578125 0 C 29.578125 -1.457031 30.304688 -2.1875 31.765625 -2.1875 C 34.679688 -2.1875 37.328125 -3.28125 39.703125 -5.46875 C 42.078125 -7.664062 43.265625 -10.40625 43.265625 -13.6875 L 43.265625 -209.765625 C 43.265625 -211.953125 42.535156 -213.410156 41.078125 -214.140625 C 39.253906 -214.867188 36.515625 -213.957031 32.859375 -211.40625 C 31.765625 -210.675781 30.851562 -210.859375 30.125 -211.953125 C 29.03125 -213.046875 29.210938 -214.140625 30.671875 -215.234375 L 43.8125 -224.546875 C 43.8125 -224.910156 43.8125 -225.09375 43.8125 -225.09375 L 108.4375 -271.65625 C 109.164062 -272.382812 109.898438 -272.566406 110.640625 -272.203125 C 111.734375 -271.835938 112.28125 -271.109375 112.28125 -270.015625 L 112.28125 -242.078125 C 120.675781 -248.648438 130.078125 -253.851562 140.484375 -257.6875 C 150.890625 -261.519531 161.929688 -263.4375 173.609375 -263.4375 C 191.503906 -263.4375 207.84375 -259.054688 222.625 -250.296875 C 237.414062 -241.535156 249.191406 -229.757812 257.953125 -214.96875 C 266.722656 -200.175781 271.109375 -183.835938 271.109375 -165.953125 L 271.109375 -129.25 L 271.65625 -44.359375 C 271.65625 -41.441406 272.566406 -39.066406 274.390625 -37.234375 C 276.210938 -35.410156 278.40625 -34.5 280.96875 -34.5 C 283.519531 -34.5 285.707031 -35.410156 287.53125 -37.234375 C 289.363281 -39.066406 290.28125 -41.257812 290.28125 -43.8125 C 290.28125 -45.269531 291.007812 -46 292.46875 -46 Z M 292.46875 -46 "/></g></g><g style="fill:#c24b79;fill-opacity:1;"><g transform="translate(1738.301273, 2684.939604)"><path style="stroke:none" d="M 260.703125 -46 C 262.160156 -46 262.890625 -45.269531 262.890625 -43.8125 C 262.890625 -31.394531 258.320312 -20.625 249.1875 -11.5 C 240.0625 -2.375 229.113281 2.1875 216.34375 2.1875 C 204.289062 2.1875 193.878906 -1.828125 185.109375 -9.859375 C 176.347656 -17.890625 171.421875 -27.75 170.328125 -39.4375 C 164.484375 -27.382812 155.535156 -17.429688 143.484375 -9.578125 C 131.441406 -1.734375 118.117188 2.1875 103.515625 2.1875 C 89.640625 2.1875 77.039062 -1.1875 65.71875 -7.9375 C 54.40625 -14.695312 45.367188 -23.734375 38.609375 -35.046875 C 31.859375 -46.367188 28.484375 -58.96875 28.484375 -72.84375 C 28.484375 -86.71875 31.859375 -99.3125 38.609375 -110.625 C 45.367188 -121.945312 54.40625 -130.984375 65.71875 -137.734375 C 77.039062 -144.492188 89.640625 -147.875 103.515625 -147.875 L 135.828125 -147.875 C 137.285156 -147.875 138.015625 -147.144531 138.015625 -145.6875 C 138.015625 -144.226562 137.285156 -143.5 135.828125 -143.5 L 104.0625 -143.5 C 102.601562 -141.664062 101.140625 -134.632812 99.671875 -122.40625 C 98.210938 -110.175781 97.484375 -93.65625 97.484375 -72.84375 C 97.484375 -52.03125 98.210938 -35.414062 99.671875 -23 C 101.140625 -10.582031 102.601562 -3.644531 104.0625 -2.1875 C 119.394531 -2.1875 133.082031 -6.75 145.125 -15.875 C 157.175781 -25.007812 165.578125 -36.515625 170.328125 -50.390625 L 170.328125 -150.0625 C 170.328125 -170.144531 168.316406 -188.492188 164.296875 -205.109375 C 160.285156 -221.722656 154.898438 -234.957031 148.140625 -244.8125 C 141.390625 -254.675781 133.816406 -259.609375 125.421875 -259.609375 C 114.097656 -259.609375 102.957031 -256.867188 92 -251.390625 C 81.050781 -245.910156 71.5625 -239.425781 63.53125 -231.9375 C 55.5 -224.457031 50.390625 -217.429688 48.203125 -210.859375 C 47.835938 -210.128906 47.285156 -209.765625 46.546875 -209.765625 C 46.546875 -209.765625 46.363281 -209.765625 46 -209.765625 C 45.632812 -209.765625 45.269531 -209.945312 44.90625 -210.3125 L 31.21875 -221.8125 C 31.582031 -221.8125 31.582031 -221.8125 31.21875 -221.8125 C 31.21875 -221.8125 31.21875 -221.992188 31.21875 -222.359375 C 30.851562 -223.085938 30.671875 -223.453125 30.671875 -223.453125 C 30.671875 -223.453125 30.851562 -223.632812 31.21875 -224 C 31.21875 -224.363281 31.21875 -224.546875 31.21875 -224.546875 C 31.21875 -224.546875 31.21875 -224.726562 31.21875 -225.09375 C 57.144531 -251.019531 88.546875 -263.984375 125.421875 -263.984375 C 146.234375 -263.984375 165.3125 -258.78125 182.65625 -248.375 C 200 -237.96875 213.78125 -224.179688 224 -207.015625 C 234.226562 -189.859375 239.34375 -170.875 239.34375 -150.0625 L 239.34375 -43.8125 C 239.34375 -41.257812 240.34375 -39.066406 242.34375 -37.234375 C 244.351562 -35.410156 246.640625 -34.5 249.203125 -34.5 C 251.753906 -34.5 253.941406 -35.410156 255.765625 -37.234375 C 257.597656 -39.066406 258.515625 -41.257812 258.515625 -43.8125 C 258.515625 -45.269531 259.242188 -46 260.703125 -46 Z M 260.703125 -46 "/></g></g><g style="fill:#c24b79;fill-opacity:1;"><g transform="translate(2012.13618, 2684.939604)"><path style="stroke:none" d="M 77.765625 -314.375 C 68.273438 -314.375 60.148438 -317.75 53.390625 -324.5 C 46.640625 -331.257812 43.265625 -339.382812 43.265625 -348.875 C 43.265625 -358.363281 46.640625 -366.484375 53.390625 -373.234375 C 60.148438 -379.992188 68.273438 -383.375 77.765625 -383.375 C 87.265625 -383.375 95.390625 -379.992188 102.140625 -373.234375 C 108.898438 -366.484375 112.28125 -358.363281 112.28125 -348.875 C 112.28125 -339.382812 108.898438 -331.257812 102.140625 -324.5 C 95.390625 -317.75 87.265625 -314.375 77.765625 -314.375 Z M 123.234375 -2.1875 C 124.691406 -2.1875 125.421875 -1.457031 125.421875 0 C 125.421875 1.457031 124.691406 2.1875 123.234375 2.1875 L 31.765625 2.1875 C 30.304688 2.1875 29.578125 1.457031 29.578125 0 C 29.578125 -1.457031 30.304688 -2.1875 31.765625 -2.1875 C 34.679688 -2.1875 37.328125 -3.28125 39.703125 -5.46875 C 42.078125 -7.664062 43.265625 -10.40625 43.265625 -13.6875 L 43.265625 -209.765625 C 43.265625 -211.953125 42.535156 -213.410156 41.078125 -214.140625 C 39.253906 -214.867188 36.515625 -213.957031 32.859375 -211.40625 C 31.765625 -210.675781 30.851562 -210.859375 30.125 -211.953125 C 29.03125 -213.046875 29.210938 -214.140625 30.671875 -215.234375 L 43.8125 -224.546875 C 43.8125 -224.910156 43.8125 -225.09375 43.8125 -225.09375 L 108.4375 -271.65625 C 109.164062 -272.382812 109.898438 -272.566406 110.640625 -272.203125 C 111.734375 -271.835938 112.28125 -271.109375 112.28125 -270.015625 L 112.28125 -13.6875 C 112.28125 -10.40625 113.375 -7.664062 115.5625 -5.46875 C 117.75 -3.28125 120.304688 -2.1875 123.234375 -2.1875 Z M 123.234375 -2.1875 "/></g></g><g style="fill:#c24b79;fill-opacity:1;"><g transform="translate(2156.173085, 2684.939604)"><path style="stroke:none" d="M 162.65625 -152.25 C 178 -146.050781 190.234375 -136.195312 199.359375 -122.6875 C 208.484375 -109.175781 213.046875 -94.203125 213.046875 -77.765625 C 213.046875 -63.160156 209.394531 -49.832031 202.09375 -37.78125 C 194.789062 -25.738281 185.113281 -16.066406 173.0625 -8.765625 C 161.019531 -1.460938 147.695312 2.1875 133.09375 2.1875 L 102.421875 2.1875 C 75.398438 2.1875 50.9375 -5.660156 29.03125 -21.359375 C 28.300781 -21.722656 27.9375 -22.269531 27.9375 -23 C 27.9375 -23.726562 28.300781 -24.273438 29.03125 -24.640625 L 57.5 -40.53125 C 58.238281 -40.894531 58.789062 -40.894531 59.15625 -40.53125 C 59.882812 -40.53125 60.429688 -40.164062 60.796875 -39.4375 C 72.109375 -14.601562 85.984375 -2.1875 102.421875 -2.1875 L 133.09375 -2.1875 C 144.769531 -2.1875 154.804688 -6.296875 163.203125 -14.515625 C 171.609375 -22.734375 175.8125 -32.863281 175.8125 -44.90625 C 175.8125 -54.039062 172.976562 -62.347656 167.3125 -69.828125 C 161.65625 -77.316406 154.445312 -82.519531 145.6875 -85.4375 L 94.75 -103.515625 C 85.257812 -106.796875 75.859375 -110.992188 66.546875 -116.109375 C 57.234375 -121.222656 49.289062 -128.160156 42.71875 -136.921875 C 32.863281 -150.796875 27.9375 -166.3125 27.9375 -183.46875 C 27.9375 -198.445312 31.492188 -211.957031 38.609375 -224 C 45.734375 -236.050781 55.410156 -245.632812 67.640625 -252.75 C 79.867188 -259.875 93.285156 -263.4375 107.890625 -263.4375 L 138.5625 -263.4375 C 165.582031 -263.4375 190.046875 -255.769531 211.953125 -240.4375 C 212.679688 -240.070312 213.046875 -239.34375 213.046875 -238.25 C 213.046875 -237.519531 212.679688 -236.96875 211.953125 -236.59375 L 183.46875 -221.265625 C 183.101562 -220.898438 182.738281 -220.71875 182.375 -220.71875 C 182.007812 -220.71875 181.828125 -220.71875 181.828125 -220.71875 C 181.097656 -221.082031 180.550781 -221.445312 180.1875 -221.8125 C 168.863281 -247.007812 154.988281 -259.609375 138.5625 -259.609375 L 107.890625 -259.609375 C 96.210938 -259.609375 86.171875 -255.40625 77.765625 -247 C 69.367188 -238.601562 65.171875 -228.566406 65.171875 -216.890625 C 65.171875 -206.660156 68.457031 -197.710938 75.03125 -190.046875 C 79.414062 -184.203125 85.347656 -179.816406 92.828125 -176.890625 C 100.316406 -173.972656 107.710938 -171.238281 115.015625 -168.6875 C 116.835938 -168.320312 118.660156 -167.863281 120.484375 -167.3125 C 122.316406 -166.769531 123.960938 -166.132812 125.421875 -165.40625 Z M 162.65625 -152.25 "/></g></g><g style="fill:#c24b79;fill-opacity:1;"><g transform="translate(2397.14798, 2684.939604)"><path style="stroke:none" d="M 162.65625 -152.25 C 178 -146.050781 190.234375 -136.195312 199.359375 -122.6875 C 208.484375 -109.175781 213.046875 -94.203125 213.046875 -77.765625 C 213.046875 -63.160156 209.394531 -49.832031 202.09375 -37.78125 C 194.789062 -25.738281 185.113281 -16.066406 173.0625 -8.765625 C 161.019531 -1.460938 147.695312 2.1875 133.09375 2.1875 L 102.421875 2.1875 C 75.398438 2.1875 50.9375 -5.660156 29.03125 -21.359375 C 28.300781 -21.722656 27.9375 -22.269531 27.9375 -23 C 27.9375 -23.726562 28.300781 -24.273438 29.03125 -24.640625 L 57.5 -40.53125 C 58.238281 -40.894531 58.789062 -40.894531 59.15625 -40.53125 C 59.882812 -40.53125 60.429688 -40.164062 60.796875 -39.4375 C 72.109375 -14.601562 85.984375 -2.1875 102.421875 -2.1875 L 133.09375 -2.1875 C 144.769531 -2.1875 154.804688 -6.296875 163.203125 -14.515625 C 171.609375 -22.734375 175.8125 -32.863281 175.8125 -44.90625 C 175.8125 -54.039062 172.976562 -62.347656 167.3125 -69.828125 C 161.65625 -77.316406 154.445312 -82.519531 145.6875 -85.4375 L 94.75 -103.515625 C 85.257812 -106.796875 75.859375 -110.992188 66.546875 -116.109375 C 57.234375 -121.222656 49.289062 -128.160156 42.71875 -136.921875 C 32.863281 -150.796875 27.9375 -166.3125 27.9375 -183.46875 C 27.9375 -198.445312 31.492188 -211.957031 38.609375 -224 C 45.734375 -236.050781 55.410156 -245.632812 67.640625 -252.75 C 79.867188 -259.875 93.285156 -263.4375 107.890625 -263.4375 L 138.5625 -263.4375 C 165.582031 -263.4375 190.046875 -255.769531 211.953125 -240.4375 C 212.679688 -240.070312 213.046875 -239.34375 213.046875 -238.25 C 213.046875 -237.519531 212.679688 -236.96875 211.953125 -236.59375 L 183.46875 -221.265625 C 183.101562 -220.898438 182.738281 -220.71875 182.375 -220.71875 C 182.007812 -220.71875 181.828125 -220.71875 181.828125 -220.71875 C 181.097656 -221.082031 180.550781 -221.445312 180.1875 -221.8125 C 168.863281 -247.007812 154.988281 -259.609375 138.5625 -259.609375 L 107.890625 -259.609375 C 96.210938 -259.609375 86.171875 -255.40625 77.765625 -247 C 69.367188 -238.601562 65.171875 -228.566406 65.171875 -216.890625 C 65.171875 -206.660156 68.457031 -197.710938 75.03125 -190.046875 C 79.414062 -184.203125 85.347656 -179.816406 92.828125 -176.890625 C 100.316406 -173.972656 107.710938 -171.238281 115.015625 -168.6875 C 116.835938 -168.320312 118.660156 -167.863281 120.484375 -167.3125 C 122.316406 -166.769531 123.960938 -166.132812 125.421875 -165.40625 Z M 162.65625 -152.25 "/></g></g><g style="fill:#c24b79;fill-opacity:1;"><g transform="translate(2634.289192, 2684.939604)"><path style="stroke:none" d="M 260.703125 -46 C 262.160156 -46 262.890625 -45.269531 262.890625 -43.8125 C 262.890625 -31.394531 258.320312 -20.625 249.1875 -11.5 C 240.0625 -2.375 229.113281 2.1875 216.34375 2.1875 C 204.289062 2.1875 193.878906 -1.828125 185.109375 -9.859375 C 176.347656 -17.890625 171.421875 -27.75 170.328125 -39.4375 C 164.484375 -27.382812 155.535156 -17.429688 143.484375 -9.578125 C 131.441406 -1.734375 118.117188 2.1875 103.515625 2.1875 C 89.640625 2.1875 77.039062 -1.1875 65.71875 -7.9375 C 54.40625 -14.695312 45.367188 -23.734375 38.609375 -35.046875 C 31.859375 -46.367188 28.484375 -58.96875 28.484375 -72.84375 C 28.484375 -86.71875 31.859375 -99.3125 38.609375 -110.625 C 45.367188 -121.945312 54.40625 -130.984375 65.71875 -137.734375 C 77.039062 -144.492188 89.640625 -147.875 103.515625 -147.875 L 135.828125 -147.875 C 137.285156 -147.875 138.015625 -147.144531 138.015625 -145.6875 C 138.015625 -144.226562 137.285156 -143.5 135.828125 -143.5 L 104.0625 -143.5 C 102.601562 -141.664062 101.140625 -134.632812 99.671875 -122.40625 C 98.210938 -110.175781 97.484375 -93.65625 97.484375 -72.84375 C 97.484375 -52.03125 98.210938 -35.414062 99.671875 -23 C 101.140625 -10.582031 102.601562 -3.644531 104.0625 -2.1875 C 119.394531 -2.1875 133.082031 -6.75 145.125 -15.875 C 157.175781 -25.007812 165.578125 -36.515625 170.328125 -50.390625 L 170.328125 -150.0625 C 170.328125 -170.144531 168.316406 -188.492188 164.296875 -205.109375 C 160.285156 -221.722656 154.898438 -234.957031 148.140625 -244.8125 C 141.390625 -254.675781 133.816406 -259.609375 125.421875 -259.609375 C 114.097656 -259.609375 102.957031 -256.867188 92 -251.390625 C 81.050781 -245.910156 71.5625 -239.425781 63.53125 -231.9375 C 55.5 -224.457031 50.390625 -217.429688 48.203125 -210.859375 C 47.835938 -210.128906 47.285156 -209.765625 46.546875 -209.765625 C 46.546875 -209.765625 46.363281 -209.765625 46 -209.765625 C 45.632812 -209.765625 45.269531 -209.945312 44.90625 -210.3125 L 31.21875 -221.8125 C 31.582031 -221.8125 31.582031 -221.8125 31.21875 -221.8125 C 31.21875 -221.8125 31.21875 -221.992188 31.21875 -222.359375 C 30.851562 -223.085938 30.671875 -223.453125 30.671875 -223.453125 C 30.671875 -223.453125 30.851562 -223.632812 31.21875 -224 C 31.21875 -224.363281 31.21875 -224.546875 31.21875 -224.546875 C 31.21875 -224.546875 31.21875 -224.726562 31.21875 -225.09375 C 57.144531 -251.019531 88.546875 -263.984375 125.421875 -263.984375 C 146.234375 -263.984375 165.3125 -258.78125 182.65625 -248.375 C 200 -237.96875 213.78125 -224.179688 224 -207.015625 C 234.226562 -189.859375 239.34375 -170.875 239.34375 -150.0625 L 239.34375 -43.8125 C 239.34375 -41.257812 240.34375 -39.066406 242.34375 -37.234375 C 244.351562 -35.410156 246.640625 -34.5 249.203125 -34.5 C 251.753906 -34.5 253.941406 -35.410156 255.765625 -37.234375 C 257.597656 -39.066406 258.515625 -41.257812 258.515625 -43.8125 C 258.515625 -45.269531 259.242188 -46 260.703125 -46 Z M 260.703125 -46 "/></g></g><g style="fill:#c24b79;fill-opacity:1;"><g transform="translate(2908.12379, 2684.939604)"><path style="stroke:none" d="M 292.46875 -46 C 293.925781 -46 294.65625 -45.269531 294.65625 -43.8125 C 294.65625 -31.394531 290.085938 -20.625 280.953125 -11.5 C 271.828125 -2.375 261.0625 2.1875 248.65625 2.1875 C 235.875 2.1875 224.914062 -2.375 215.78125 -11.5 C 206.65625 -20.625 202.09375 -31.394531 202.09375 -43.8125 L 202.09375 -165.953125 C 202.09375 -194.066406 199.078125 -216.703125 193.046875 -233.859375 C 187.023438 -251.023438 180.546875 -259.609375 173.609375 -259.609375 C 161.566406 -259.609375 150.34375 -257.503906 139.9375 -253.296875 C 129.53125 -249.097656 120.3125 -243.347656 112.28125 -236.046875 L 112.28125 -13.6875 C 112.28125 -10.40625 113.375 -7.664062 115.5625 -5.46875 C 117.75 -3.28125 120.304688 -2.1875 123.234375 -2.1875 C 124.691406 -2.1875 125.421875 -1.457031 125.421875 0 C 125.421875 1.457031 124.691406 2.1875 123.234375 2.1875 L 31.765625 2.1875 C 30.304688 2.1875 29.578125 1.457031 29.578125 0 C 29.578125 -1.457031 30.304688 -2.1875 31.765625 -2.1875 C 34.679688 -2.1875 37.328125 -3.28125 39.703125 -5.46875 C 42.078125 -7.664062 43.265625 -10.40625 43.265625 -13.6875 L 43.265625 -209.765625 C 43.265625 -211.953125 42.535156 -213.410156 41.078125 -214.140625 C 39.253906 -214.867188 36.515625 -213.957031 32.859375 -211.40625 C 31.765625 -210.675781 30.851562 -210.859375 30.125 -211.953125 C 29.03125 -213.046875 29.210938 -214.140625 30.671875 -215.234375 L 43.8125 -224.546875 C 43.8125 -224.910156 43.8125 -225.09375 43.8125 -225.09375 L 108.4375 -271.65625 C 109.164062 -272.382812 109.898438 -272.566406 110.640625 -272.203125 C 111.734375 -271.835938 112.28125 -271.109375 112.28125 -270.015625 L 112.28125 -242.078125 C 120.675781 -248.648438 130.078125 -253.851562 140.484375 -257.6875 C 150.890625 -261.519531 161.929688 -263.4375 173.609375 -263.4375 C 191.503906 -263.4375 207.84375 -259.054688 222.625 -250.296875 C 237.414062 -241.535156 249.191406 -229.757812 257.953125 -214.96875 C 266.722656 -200.175781 271.109375 -183.835938 271.109375 -165.953125 L 271.109375 -129.25 L 271.65625 -44.359375 C 271.65625 -41.441406 272.566406 -39.066406 274.390625 -37.234375 C 276.210938 -35.410156 278.40625 -34.5 280.96875 -34.5 C 283.519531 -34.5 285.707031 -35.410156 287.53125 -37.234375 C 289.363281 -39.066406 290.28125 -41.257812 290.28125 -43.8125 C 290.28125 -45.269531 291.007812 -46 292.46875 -46 Z M 292.46875 -46 "/></g></g><g style="fill:#c24b79;fill-opacity:1;"><g transform="translate(3212.628142, 2684.939604)"><path style="stroke:none" d="M 250.296875 -39.984375 C 251.390625 -40.710938 252.300781 -40.710938 253.03125 -39.984375 C 254.125 -38.890625 254.125 -37.789062 253.03125 -36.6875 C 227.101562 -10.769531 195.882812 2.1875 159.375 2.1875 C 122.5 2.1875 91.097656 -10.769531 65.171875 -36.6875 C 48.015625 -54.21875 36.515625 -74.300781 30.671875 -96.9375 C 24.828125 -119.570312 24.828125 -142.207031 30.671875 -164.84375 C 36.515625 -187.488281 48.015625 -207.570312 65.171875 -225.09375 C 82.335938 -242.257812 102.328125 -253.671875 125.140625 -259.328125 C 147.960938 -264.984375 170.691406 -264.984375 193.328125 -259.328125 C 215.972656 -253.671875 235.875 -242.257812 253.03125 -225.09375 C 254.125 -224 254.125 -222.90625 253.03125 -221.8125 L 207.578125 -176.359375 C 206.484375 -175.265625 205.382812 -175.265625 204.28125 -176.359375 C 187.851562 -192.785156 170.691406 -205.835938 152.796875 -215.515625 C 134.910156 -225.191406 118.390625 -230.757812 103.234375 -232.21875 C 88.085938 -233.675781 76.3125 -230.207031 67.90625 -221.8125 C 59.875 -213.414062 56.5 -201.734375 57.78125 -186.765625 C 59.0625 -171.796875 64.535156 -155.363281 74.203125 -137.46875 C 83.878906 -119.582031 97.117188 -102.238281 113.921875 -85.4375 C 139.109375 -60.25 165.210938 -43.269531 192.234375 -34.5 C 218.523438 -25.738281 237.878906 -27.566406 250.296875 -39.984375 Z M 250.296875 -39.984375 "/></g></g><g style="fill:#c24b79;fill-opacity:1;"><g transform="translate(3467.842092, 2684.939604)"><path style="stroke:none" d="M 250.296875 -39.984375 C 251.390625 -40.710938 252.300781 -40.710938 253.03125 -39.984375 C 254.125 -38.890625 254.125 -37.789062 253.03125 -36.6875 C 227.101562 -10.769531 195.882812 2.1875 159.375 2.1875 C 122.5 2.1875 91.097656 -10.769531 65.171875 -36.6875 C 48.015625 -54.21875 36.515625 -74.300781 30.671875 -96.9375 C 24.828125 -119.570312 24.828125 -142.207031 30.671875 -164.84375 C 36.515625 -187.488281 48.015625 -207.570312 65.171875 -225.09375 C 82.335938 -242.257812 102.328125 -253.671875 125.140625 -259.328125 C 147.960938 -264.984375 170.691406 -264.984375 193.328125 -259.328125 C 215.972656 -253.671875 235.875 -242.257812 253.03125 -225.09375 C 254.125 -224 254.125 -222.90625 253.03125 -221.8125 L 136.375 -105.15625 C 136.007812 -104.789062 135.460938 -104.609375 134.734375 -104.609375 C 134.367188 -104.609375 134.003906 -104.789062 133.640625 -105.15625 C 132.546875 -106.25 132.546875 -107.160156 133.640625 -107.890625 L 203.1875 -177.453125 C 178 -202.273438 152.257812 -218.890625 125.96875 -227.296875 C 99.675781 -236.054688 80.320312 -234.226562 67.90625 -221.8125 C 59.875 -213.414062 56.5 -201.734375 57.78125 -186.765625 C 59.0625 -171.796875 64.535156 -155.363281 74.203125 -137.46875 C 83.878906 -119.582031 97.117188 -102.238281 113.921875 -85.4375 C 139.109375 -60.25 165.210938 -43.269531 192.234375 -34.5 C 218.523438 -25.738281 237.878906 -27.566406 250.296875 -39.984375 Z M 250.296875 -39.984375 "/></g></g><path style="fill:none;stroke-width:20;stroke-linecap:butt;stroke-linejoin:miter;stroke:#c24b79;stroke-opacity:1;stroke-miterlimit:4;" d="M 0.000907924 10.000495 L 3580.262867 10.000495 " transform="matrix(0.996259,0,0,0.996259,91.440502,2839.392388)"/><g style="fill:#ffcccc;fill-opacity:1;"><g transform="translate(984.075641, 3143.011391)"><path style="stroke:none" d="M 125.9375 -92.890625 C 125.09375 -88.722656 123.660156 -85.082031 121.640625 -81.96875 C 119.617188 -78.863281 117.234375 -76.207031 114.484375 -74 C 111.734375 -71.800781 108.789062 -70.007812 105.65625 -68.625 C 102.519531 -67.238281 99.441406 -66.210938 96.421875 -65.546875 C 99.984375 -64.703125 103.394531 -63.4375 106.65625 -61.75 C 109.914062 -60.0625 112.765625 -57.890625 115.203125 -55.234375 C 117.648438 -52.578125 119.398438 -49.40625 120.453125 -45.71875 C 121.515625 -42.039062 121.5625 -37.753906 120.59375 -32.859375 C 119.625 -27.972656 117.914062 -23.71875 115.46875 -20.09375 C 113.03125 -16.476562 110.0625 -13.382812 106.5625 -10.8125 C 103.0625 -8.25 99.242188 -6.179688 95.109375 -4.609375 C 90.972656 -3.046875 86.703125 -1.898438 82.296875 -1.171875 C 77.890625 -0.453125 73.546875 -0.09375 69.265625 -0.09375 L 9.59375 -0.09375 L 10.59375 -5.890625 L 20.1875 -5.890625 C 22.84375 -5.890625 24.816406 -6.6875 26.109375 -8.28125 C 27.410156 -9.882812 28.304688 -11.984375 28.796875 -14.578125 L 45.265625 -107.734375 C 45.628906 -110.210938 45.476562 -112.265625 44.8125 -113.890625 C 44.15625 -115.523438 42.617188 -116.34375 40.203125 -116.34375 L 30.0625 -116.34375 L 31.140625 -122.40625 L 92.171875 -122.21875 C 100.554688 -122.21875 107.460938 -121.023438 112.890625 -118.640625 C 118.328125 -116.265625 122.160156 -112.890625 124.390625 -108.515625 C 126.628906 -104.140625 127.144531 -98.929688 125.9375 -92.890625 Z M 111.8125 -92.078125 C 113.5 -100.160156 111.988281 -106.285156 107.28125 -110.453125 C 102.570312 -114.617188 95.179688 -116.703125 85.109375 -116.703125 L 59.75 -116.703125 L 51.328125 -68.453125 L 78.140625 -68.453125 C 88.148438 -68.453125 95.84375 -70.335938 101.21875 -74.109375 C 106.59375 -77.878906 110.125 -83.867188 111.8125 -92.078125 Z M 106.65625 -33.765625 C 108.039062 -40.710938 107.613281 -46.265625 105.375 -50.421875 C 103.144531 -54.585938 99.523438 -57.617188 94.515625 -59.515625 C 89.503906 -61.421875 83.53125 -62.375 76.59375 -62.375 L 50.25 -62.375 L 41.828125 -14.484375 C 41.585938 -13.210938 41.523438 -11.941406 41.640625 -10.671875 C 41.765625 -9.410156 42.21875 -8.359375 43 -7.515625 C 43.789062 -6.671875 45.03125 -6.25 46.71875 -6.25 L 69.359375 -6.25 C 76.472656 -6.25 82.625 -7.453125 87.8125 -9.859375 C 93.007812 -12.273438 97.191406 -15.566406 100.359375 -19.734375 C 103.523438 -23.898438 105.625 -28.578125 106.65625 -33.765625 Z M 106.65625 -33.765625 "/></g></g><g style="fill:#ffcccc;fill-opacity:1;"><g transform="translate(1122.08465, 3143.011391)"><path style="stroke:none" d="M 11.40625 42.46875 C 9.53125 42.582031 8.09375 42.15625 7.09375 41.1875 C 6.101562 40.226562 5.703125 38.992188 5.890625 37.484375 C 6.191406 35.671875 7.066406 34.382812 8.515625 33.625 C 9.960938 32.875 11.257812 32.378906 12.40625 32.140625 C 16.03125 31.359375 19.546875 30.148438 22.953125 28.515625 C 26.359375 26.890625 29.734375 24.519531 33.078125 21.40625 C 36.429688 18.300781 39.832031 14.09375 43.28125 8.78125 L 48.25 0.8125 L 23.171875 -64.1875 C 22.328125 -66.726562 21.40625 -68.460938 20.40625 -69.390625 C 19.414062 -70.328125 18.046875 -70.796875 16.296875 -70.796875 L 11.671875 -70.796875 L 12.578125 -76.59375 L 49.984375 -76.59375 L 49.078125 -70.796875 L 41.828125 -70.796875 C 39.171875 -70.796875 37.523438 -70.023438 36.890625 -68.484375 C 36.253906 -66.953125 36.332031 -65.039062 37.125 -62.75 L 56.5 -11.765625 L 87.90625 -61.015625 C 89.601562 -63.859375 90.460938 -66.195312 90.484375 -68.03125 C 90.515625 -69.875 89.113281 -70.796875 86.28125 -70.796875 L 77.953125 -70.796875 L 78.953125 -76.59375 L 108.828125 -76.59375 L 107.828125 -70.796875 L 105.484375 -70.796875 C 103.671875 -70.796875 101.992188 -70.238281 100.453125 -69.125 C 98.910156 -68.007812 97.175781 -65.789062 95.25 -62.46875 L 47.53125 12.40625 C 43.300781 18.976562 39.285156 24.363281 35.484375 28.5625 C 31.679688 32.757812 27.832031 35.957031 23.9375 38.15625 C 20.050781 40.363281 15.875 41.800781 11.40625 42.46875 Z M 11.40625 42.46875 "/></g></g><g style="fill:#ffcccc;fill-opacity:1;"><g transform="translate(1228.49791, 3143.011391)"><path style="stroke:none" d=""/></g></g><g style="fill:#ffcccc;fill-opacity:1;"><g transform="translate(1283.488735, 3143.011391)"><path style="stroke:none" d="M 9.59375 0 L 10.59375 -5.796875 L 24 -5.796875 C 27.375 -5.796875 29.753906 -6.550781 31.140625 -8.0625 C 32.535156 -9.570312 33.503906 -11.710938 34.046875 -14.484375 L 50.421875 -108.015625 C 50.972656 -110.785156 50.8125 -112.925781 49.9375 -114.4375 C 49.0625 -115.945312 46.929688 -116.703125 43.546875 -116.703125 L 30.15625 -116.703125 L 31.140625 -122.5 L 87.90625 -122.5 L 86.921875 -116.703125 L 73.703125 -116.703125 C 70.316406 -116.703125 67.898438 -115.992188 66.453125 -114.578125 C 65.003906 -113.160156 64.007812 -110.972656 63.46875 -108.015625 L 47.078125 -14.484375 C 46.472656 -11.523438 46.640625 -9.335938 47.578125 -7.921875 C 48.515625 -6.503906 50.671875 -5.796875 54.046875 -5.796875 L 67.359375 -5.796875 L 66.359375 0 Z M 9.59375 0 "/></g></g><g style="fill:#ffcccc;fill-opacity:1;"><g transform="translate(1374.149347, 3143.011391)"><path style="stroke:none" d="M 20.015625 2.984375 C 17.234375 2.984375 15 1.972656 13.3125 -0.046875 C 11.625 -2.066406 11.019531 -4.523438 11.5 -7.421875 C 11.863281 -9.359375 12.644531 -11.109375 13.84375 -12.671875 C 15.050781 -14.242188 16.515625 -15.5 18.234375 -16.4375 C 19.960938 -17.375 21.757812 -17.84375 23.625 -17.84375 C 26.46875 -17.84375 28.703125 -16.828125 30.328125 -14.796875 C 31.960938 -12.773438 32.503906 -10.316406 31.953125 -7.421875 C 31.648438 -5.492188 30.894531 -3.742188 29.6875 -2.171875 C 28.488281 -0.597656 27.039062 0.648438 25.34375 1.578125 C 23.65625 2.515625 21.878906 2.984375 20.015625 2.984375 Z M 20.015625 2.984375 "/></g></g><g style="fill:#ffcccc;fill-opacity:1;"><g transform="translate(1437.921745, 3143.011391)"><path style="stroke:none" d="M 129.28125 -90.8125 L 123.578125 -90.53125 L 124.578125 -108.5625 C 124.335938 -111.757812 123.476562 -113.835938 122 -114.796875 C 120.519531 -115.765625 118.363281 -116.25 115.53125 -116.25 L 61.46875 -116.25 L 52.875 -67.265625 L 88.359375 -67.265625 C 90.597656 -67.265625 92.609375 -67.734375 94.390625 -68.671875 C 96.171875 -69.609375 97.238281 -71.285156 97.59375 -73.703125 L 99.5 -84.46875 L 105.390625 -84.46875 L 97.96875 -42.828125 L 92.171875 -42.828125 L 94.15625 -54.046875 C 94.644531 -56.828125 94.207031 -58.695312 92.84375 -59.65625 C 91.488281 -60.625 89.664062 -61.109375 87.375 -61.109375 L 51.78125 -61.109375 L 43.734375 -15.578125 C 43.191406 -12.734375 43.28125 -10.4375 44 -8.6875 C 44.726562 -6.9375 46.75 -6.0625 50.0625 -6.0625 L 98.5 -6.0625 C 102.601562 -6.0625 105.632812 -6.738281 107.59375 -8.09375 C 109.5625 -9.457031 111.117188 -11.53125 112.265625 -14.3125 L 120.6875 -40.46875 L 126.390625 -40.203125 L 116.4375 0 L 9.59375 0 L 10.59375 -5.796875 L 21.28125 -5.796875 C 24.238281 -5.796875 26.410156 -6.59375 27.796875 -8.1875 C 29.179688 -9.789062 30.117188 -11.890625 30.609375 -14.484375 L 46.984375 -107.921875 C 47.472656 -110.753906 47.28125 -112.910156 46.40625 -114.390625 C 45.53125 -115.867188 43.460938 -116.609375 40.203125 -116.609375 L 30.15625 -116.609375 L 31.140625 -122.40625 L 133 -122.40625 Z M 129.28125 -90.8125 "/></g></g><g style="fill:#ffcccc;fill-opacity:1;"><g transform="translate(1582.720765, 3143.011391)"><path style="stroke:none" d="M 20.015625 2.984375 C 17.234375 2.984375 15 1.972656 13.3125 -0.046875 C 11.625 -2.066406 11.019531 -4.523438 11.5 -7.421875 C 11.863281 -9.359375 12.644531 -11.109375 13.84375 -12.671875 C 15.050781 -14.242188 16.515625 -15.5 18.234375 -16.4375 C 19.960938 -17.375 21.757812 -17.84375 23.625 -17.84375 C 26.46875 -17.84375 28.703125 -16.828125 30.328125 -14.796875 C 31.960938 -12.773438 32.503906 -10.316406 31.953125 -7.421875 C 31.648438 -5.492188 30.894531 -3.742188 29.6875 -2.171875 C 28.488281 -0.597656 27.039062 0.648438 25.34375 1.578125 C 23.65625 2.515625 21.878906 2.984375 20.015625 2.984375 Z M 20.015625 2.984375 "/></g></g><g style="fill:#ffcccc;fill-opacity:1;"><g transform="translate(1646.493163, 3143.011391)"><path style="stroke:none" d=""/></g></g><g style="fill:#ffcccc;fill-opacity:1;"><g transform="translate(1701.483988, 3143.011391)"><path style="stroke:none" d="M 9.6875 0 L 10.6875 -5.796875 L 20.734375 -5.796875 C 23.929688 -5.796875 26.222656 -6.535156 27.609375 -8.015625 C 29.003906 -9.492188 30.003906 -11.648438 30.609375 -14.484375 L 46.984375 -107.921875 C 47.523438 -110.816406 47.328125 -112.988281 46.390625 -114.4375 C 45.460938 -115.882812 43.367188 -116.609375 40.109375 -116.609375 L 30.15625 -116.609375 L 31.140625 -122.40625 L 132.453125 -122.40625 L 128.46875 -90.53125 L 122.671875 -90.265625 L 124.03125 -107.828125 C 123.914062 -110.367188 123.34375 -112.238281 122.3125 -113.4375 C 121.289062 -114.644531 120.082031 -115.414062 118.6875 -115.75 C 117.300781 -116.082031 115.882812 -116.25 114.4375 -116.25 L 61.46875 -116.25 L 52.875 -67.359375 L 87.828125 -67.359375 C 90.234375 -67.359375 92.25 -67.929688 93.875 -69.078125 C 95.507812 -70.222656 96.539062 -72.1875 96.96875 -74.96875 L 98.6875 -84.5625 L 104.390625 -84.5625 L 96.96875 -42.734375 L 91.265625 -42.734375 L 93.078125 -53.140625 C 93.554688 -55.796875 93.296875 -57.816406 92.296875 -59.203125 C 91.304688 -60.597656 89.390625 -61.296875 86.546875 -61.296875 L 51.703125 -61.296875 L 43.546875 -14.484375 C 43.066406 -11.828125 43.265625 -9.710938 44.140625 -8.140625 C 45.015625 -6.578125 47.171875 -5.796875 50.609375 -5.796875 L 62.828125 -5.796875 L 61.84375 0 Z M 9.6875 0 "/></g></g><g style="fill:#ffcccc;fill-opacity:1;"><g transform="translate(1826.094194, 3143.011391)"><path style="stroke:none" d="M 40.109375 2.265625 C 38.234375 2.265625 36.015625 2.050781 33.453125 1.625 C 30.890625 1.207031 28.21875 0.457031 25.4375 -0.625 C 22.664062 -1.71875 20.023438 -3.226562 17.515625 -5.15625 C 15.015625 -7.09375 12.859375 -9.566406 11.046875 -12.578125 C 9.234375 -15.597656 8.007812 -19.234375 7.375 -23.484375 C 6.738281 -27.742188 6.90625 -32.742188 7.875 -38.484375 C 8.90625 -44.335938 10.625 -49.492188 13.03125 -53.953125 C 15.445312 -58.421875 18.300781 -62.222656 21.59375 -65.359375 C 24.882812 -68.503906 28.414062 -71.070312 32.1875 -73.0625 C 35.957031 -75.050781 39.742188 -76.515625 43.546875 -77.453125 C 47.347656 -78.390625 50.96875 -78.859375 54.40625 -78.859375 C 57.613281 -78.859375 60.9375 -78.40625 64.375 -77.5 C 67.8125 -76.59375 71.082031 -75.171875 74.1875 -73.234375 C 77.300781 -71.304688 79.988281 -68.773438 82.25 -65.640625 C 84.519531 -62.503906 86.09375 -58.6875 86.96875 -54.1875 C 87.84375 -49.6875 87.734375 -44.453125 86.640625 -38.484375 C 85.492188 -32.023438 83.625 -26.453125 81.03125 -21.765625 C 78.4375 -17.085938 75.390625 -13.195312 71.890625 -10.09375 C 68.390625 -6.988281 64.722656 -4.53125 60.890625 -2.71875 C 57.054688 -0.90625 53.328125 0.375 49.703125 1.125 C 46.078125 1.882812 42.878906 2.265625 40.109375 2.265625 Z M 41.1875 -3.625 C 44.03125 -3.625 47.109375 -4.269531 50.421875 -5.5625 C 53.742188 -6.863281 56.988281 -8.914062 60.15625 -11.71875 C 63.332031 -14.53125 66.15625 -18.140625 68.625 -22.546875 C 71.101562 -26.953125 72.882812 -32.234375 73.96875 -38.390625 C 75.300781 -45.691406 75.210938 -51.921875 73.703125 -57.078125 C 72.191406 -62.242188 69.671875 -66.179688 66.140625 -68.890625 C 62.609375 -71.609375 58.367188 -72.96875 53.421875 -72.96875 C 48.523438 -72.96875 43.8125 -71.59375 39.28125 -68.84375 C 34.757812 -66.101562 30.835938 -62.179688 27.515625 -57.078125 C 24.203125 -51.984375 21.910156 -45.90625 20.640625 -38.84375 C 19.554688 -32.5625 19.453125 -27.1875 20.328125 -22.71875 C 21.203125 -18.257812 22.738281 -14.625 24.9375 -11.8125 C 27.144531 -9.007812 29.679688 -6.941406 32.546875 -5.609375 C 35.410156 -4.285156 38.289062 -3.625 41.1875 -3.625 Z M 41.1875 -3.625 "/></g></g><g style="fill:#ffcccc;fill-opacity:1;"><g transform="translate(1929.881936, 3143.011391)"><path style="stroke:none" d="M 39.84375 2.265625 C 31.507812 2.265625 25.609375 -0.0234375 22.140625 -4.609375 C 18.671875 -9.203125 17.8125 -16.445312 19.5625 -26.34375 L 25.890625 -62.921875 C 26.378906 -65.453125 26.210938 -67.394531 25.390625 -68.75 C 24.578125 -70.113281 22.960938 -70.796875 20.546875 -70.796875 L 12.046875 -70.796875 L 13.03125 -76.59375 L 40.5625 -76.59375 L 31.6875 -26.53125 C 30.476562 -19.40625 30.804688 -14.109375 32.671875 -10.640625 C 34.546875 -7.171875 38.59375 -5.4375 44.8125 -5.4375 C 48.132812 -5.4375 51.441406 -6.296875 54.734375 -8.015625 C 58.023438 -9.734375 61.160156 -11.992188 64.140625 -14.796875 C 67.128906 -17.609375 69.847656 -20.65625 72.296875 -23.9375 C 74.742188 -27.226562 76.8125 -30.414062 78.5 -33.5 L 83.65625 -62.921875 C 84.082031 -65.160156 83.976562 -67.03125 83.34375 -68.53125 C 82.707031 -70.039062 81.332031 -70.796875 79.21875 -70.796875 L 69.359375 -70.796875 L 70.34375 -76.59375 L 98.328125 -76.59375 L 87.28125 -13.765625 C 86.851562 -11.347656 87.03125 -9.429688 87.8125 -8.015625 C 88.601562 -6.597656 90.359375 -6.097656 93.078125 -6.515625 L 102.125 -8.6875 L 101.953125 -2.890625 L 72.25 2.078125 L 76.5 -21.90625 C 74.207031 -18.832031 71.65625 -15.84375 68.84375 -12.9375 C 66.039062 -10.039062 63.039062 -7.460938 59.84375 -5.203125 C 56.644531 -2.941406 53.351562 -1.132812 49.96875 0.21875 C 46.59375 1.582031 43.21875 2.265625 39.84375 2.265625 Z M 39.84375 2.265625 "/></g></g><g style="fill:#ffcccc;fill-opacity:1;"><g transform="translate(2053.224688, 3143.011391)"><path style="stroke:none" d="M 0.90625 0 L 1.90625 -5.796875 L 10.78125 -5.796875 C 13.550781 -5.796875 15.539062 -6.503906 16.75 -7.921875 C 17.957031 -9.335938 18.800781 -11.253906 19.28125 -13.671875 L 27.609375 -61.5625 C 28.097656 -64.039062 27.929688 -66.003906 27.109375 -67.453125 C 26.296875 -68.898438 24.53125 -69.382812 21.8125 -68.90625 L 12.765625 -66.71875 L 12.953125 -72.515625 L 42.921875 -79.125 L 38.5625 -54.78125 C 40.863281 -57.851562 43.414062 -60.820312 46.21875 -63.6875 C 49.019531 -66.5625 52.019531 -69.144531 55.21875 -71.4375 C 58.425781 -73.726562 61.71875 -75.535156 65.09375 -76.859375 C 68.476562 -78.191406 71.859375 -78.859375 75.234375 -78.859375 C 83.628906 -78.859375 89.53125 -76.5625 92.9375 -71.96875 C 96.34375 -67.382812 97.171875 -60.144531 95.421875 -50.25 L 89.09375 -13.671875 C 88.0625 -8.421875 89.84375 -5.796875 94.4375 -5.796875 L 103.03125 -5.796875 L 102.03125 0 L 58.3125 0 L 59.296875 -5.796875 L 69.265625 -5.796875 C 71.492188 -5.796875 73.226562 -6.519531 74.46875 -7.96875 C 75.707031 -9.414062 76.566406 -11.347656 77.046875 -13.765625 L 83.390625 -50.0625 C 84.597656 -57.25 84.265625 -62.578125 82.390625 -66.046875 C 80.515625 -69.515625 76.46875 -71.25 70.25 -71.25 C 66.9375 -71.25 63.632812 -70.375 60.34375 -68.625 C 57.050781 -66.875 53.894531 -64.59375 50.875 -61.78125 C 47.863281 -58.976562 45.132812 -55.929688 42.6875 -52.640625 C 40.238281 -49.359375 38.171875 -46.175781 36.484375 -43.09375 L 31.421875 -13.671875 C 30.992188 -11.492188 31.113281 -9.632812 31.78125 -8.09375 C 32.445312 -6.5625 33.832031 -5.796875 35.9375 -5.796875 L 45.625 -5.796875 L 44.640625 0 Z M 0.90625 0 "/></g></g><g style="fill:#ffcccc;fill-opacity:1;"><g transform="translate(2177.472764, 3143.011391)"><path style="stroke:none" d="M 37.21875 2.078125 C 31.84375 2.078125 27.101562 1.035156 23 -1.046875 C 18.894531 -3.128906 15.53125 -6.007812 12.90625 -9.6875 C 10.28125 -13.363281 8.484375 -17.617188 7.515625 -22.453125 C 6.546875 -27.285156 6.546875 -32.476562 7.515625 -38.03125 C 8.484375 -43.582031 10.128906 -48.5625 12.453125 -52.96875 C 14.773438 -57.375 17.519531 -61.191406 20.6875 -64.421875 C 23.851562 -67.648438 27.257812 -70.332031 30.90625 -72.46875 C 34.5625 -74.613281 38.226562 -76.210938 41.90625 -77.265625 C 45.59375 -78.328125 49.066406 -78.859375 52.328125 -78.859375 C 55.171875 -78.859375 58.097656 -78.476562 61.109375 -77.71875 C 64.128906 -76.96875 67.023438 -75.789062 69.796875 -74.1875 C 72.578125 -72.59375 74.992188 -70.46875 77.046875 -67.8125 L 84.203125 -108.109375 C 84.679688 -110.578125 84.5 -112.550781 83.65625 -114.03125 C 82.8125 -115.507812 80.972656 -116.007812 78.140625 -115.53125 L 69.265625 -113.359375 L 69.4375 -119.0625 L 99.40625 -125.484375 L 79.40625 -12.3125 C 79.101562 -10.625 79.160156 -9.144531 79.578125 -7.875 C 80.003906 -6.601562 81.242188 -5.96875 83.296875 -5.96875 L 91.625 -5.96875 L 90.625 0 L 66.359375 0 L 67.546875 -9.78125 C 63.316406 -6.519531 58.695312 -3.726562 53.6875 -1.40625 C 48.675781 0.914062 43.1875 2.078125 37.21875 2.078125 Z M 42.09375 -5.0625 C 44.875 -5.0625 47.800781 -5.515625 50.875 -6.421875 C 53.957031 -7.328125 57.019531 -8.71875 60.0625 -10.59375 C 63.113281 -12.46875 65.878906 -14.851562 68.359375 -17.75 L 75.78125 -60.484375 C 73.601562 -63.984375 70.6875 -66.742188 67.03125 -68.765625 C 63.382812 -70.785156 59.207031 -71.796875 54.5 -71.796875 C 50.21875 -71.796875 46.191406 -70.921875 42.421875 -69.171875 C 38.648438 -67.421875 35.253906 -65.019531 32.234375 -61.96875 C 29.210938 -58.925781 26.691406 -55.410156 24.671875 -51.421875 C 22.648438 -47.441406 21.21875 -43.21875 20.375 -38.75 C 19.53125 -34.039062 19.421875 -29.632812 20.046875 -25.53125 C 20.679688 -21.425781 21.960938 -17.847656 23.890625 -14.796875 C 25.828125 -11.753906 28.332031 -9.367188 31.40625 -7.640625 C 34.488281 -5.921875 38.050781 -5.0625 42.09375 -5.0625 Z M 42.09375 -5.0625 "/></g></g><g style="fill:#ffcccc;fill-opacity:1;"><g transform="translate(2290.313751, 3143.011391)"><path style="stroke:none" d="M 20.1875 1.8125 C 15.84375 1.8125 12.445312 1.070312 10 -0.40625 C 7.5625 -1.882812 5.929688 -3.90625 5.109375 -6.46875 C 4.296875 -9.039062 4.160156 -11.925781 4.703125 -15.125 C 5.429688 -19.226562 6.988281 -22.710938 9.375 -25.578125 C 11.757812 -28.441406 14.726562 -30.972656 18.28125 -33.171875 C 21.84375 -35.378906 25.800781 -37.453125 30.15625 -39.390625 L 63.640625 -54.40625 C 64.191406 -59.300781 64 -63.09375 63.0625 -65.78125 C 62.125 -68.46875 60.398438 -70.351562 57.890625 -71.4375 C 55.390625 -72.519531 52.023438 -73.0625 47.796875 -73.0625 C 42.796875 -73.0625 38.691406 -72.367188 35.484375 -70.984375 C 32.285156 -69.597656 29.71875 -67.816406 27.78125 -65.640625 C 25.851562 -63.460938 24.257812 -61.195312 23 -58.84375 C 22.394531 -57.394531 21.578125 -56.203125 20.546875 -55.265625 C 19.523438 -54.335938 18.171875 -53.929688 16.484375 -54.046875 C 14.785156 -54.171875 13.695312 -54.757812 13.21875 -55.8125 C 12.738281 -56.875 12.738281 -58.097656 13.21875 -59.484375 C 14.125 -61.773438 15.507812 -64.050781 17.375 -66.3125 C 19.25 -68.582031 21.695312 -70.664062 24.71875 -72.5625 C 27.738281 -74.46875 31.421875 -75.992188 35.765625 -77.140625 C 40.109375 -78.285156 45.269531 -78.859375 51.25 -78.859375 C 55.59375 -78.859375 59.484375 -78.453125 62.921875 -77.640625 C 66.359375 -76.828125 69.175781 -75.4375 71.375 -73.46875 C 73.582031 -71.507812 75.0625 -68.804688 75.8125 -65.359375 C 76.570312 -61.921875 76.472656 -57.609375 75.515625 -52.421875 L 69.625 -20.1875 C 68.65625 -14.9375 68.578125 -11.164062 69.390625 -8.875 C 70.210938 -6.582031 71.828125 -5.4375 74.234375 -5.4375 C 76.410156 -5.4375 78.3125 -6.351562 79.9375 -8.1875 C 81.570312 -10.03125 82.78125 -12.972656 83.5625 -17.015625 L 88.640625 -17.015625 C 87.492188 -10.804688 85.195312 -6.175781 81.75 -3.125 C 78.3125 -0.0703125 74.207031 1.453125 69.4375 1.453125 C 64.550781 1.453125 61.25 -0.0703125 59.53125 -3.125 C 57.8125 -6.175781 57.160156 -10.65625 57.578125 -16.5625 C 51.722656 -11.070312 45.582031 -6.632812 39.15625 -3.25 C 32.726562 0.125 26.40625 1.8125 20.1875 1.8125 Z M 25.984375 -5.0625 C 30.816406 -5.0625 36.023438 -6.707031 41.609375 -10 C 47.191406 -13.289062 52.726562 -17.925781 58.21875 -23.90625 L 62.65625 -48.34375 L 31.953125 -33.5 C 28.398438 -31.8125 25.582031 -30.09375 23.5 -28.34375 C 21.414062 -26.59375 19.859375 -24.796875 18.828125 -22.953125 C 17.804688 -21.109375 17.113281 -19.160156 16.75 -17.109375 C 16.082031 -13.242188 16.535156 -10.269531 18.109375 -8.1875 C 19.679688 -6.101562 22.304688 -5.0625 25.984375 -5.0625 Z M 25.984375 -5.0625 "/></g></g><g style="fill:#ffcccc;fill-opacity:1;"><g transform="translate(2397.632335, 3143.011391)"><path style="stroke:none" d="M 43.09375 2.265625 C 35.3125 2.265625 29.546875 -0.0078125 25.796875 -4.5625 C 22.054688 -9.125 20.941406 -15.960938 22.453125 -25.078125 L 30.609375 -70.796875 L 12.21875 -70.796875 L 13.125 -76.59375 L 25.4375 -76.59375 C 29.125 -76.59375 32.351562 -77.707031 35.125 -79.9375 C 37.90625 -82.175781 39.628906 -85.195312 40.296875 -89 L 42.828125 -103.296875 L 48.4375 -103.296875 L 43.640625 -76.59375 L 73.703125 -76.59375 L 72.703125 -70.796875 L 42.640625 -70.796875 L 34.859375 -26.625 C 33.585938 -19.375 33.992188 -13.878906 36.078125 -10.140625 C 38.160156 -6.398438 42.039062 -4.53125 47.71875 -4.53125 C 51.09375 -4.53125 54.226562 -5.269531 57.125 -6.75 C 60.019531 -8.226562 62.554688 -10.535156 64.734375 -13.671875 L 69.359375 -11.234375 C 67.242188 -7.972656 64.722656 -5.34375 61.796875 -3.34375 C 58.867188 -1.351562 55.789062 0.078125 52.5625 0.953125 C 49.332031 1.828125 46.175781 2.265625 43.09375 2.265625 Z M 43.09375 2.265625 "/></g></g><g style="fill:#ffcccc;fill-opacity:1;"><g transform="translate(2486.02956, 3143.011391)"><path style="stroke:none" d="M 41.46875 -104.390625 C 39.53125 -104.390625 37.957031 -104.914062 36.75 -105.96875 C 35.550781 -107.03125 34.738281 -108.34375 34.3125 -109.90625 C 33.894531 -111.476562 33.804688 -113.050781 34.046875 -114.625 C 34.523438 -116.914062 35.742188 -118.828125 37.703125 -120.359375 C 39.671875 -121.898438 41.832031 -122.671875 44.1875 -122.671875 C 46.78125 -122.671875 48.800781 -121.660156 50.25 -119.640625 C 51.695312 -117.617188 52.179688 -115.25 51.703125 -112.53125 C 51.148438 -109.9375 49.863281 -107.929688 47.84375 -106.515625 C 45.820312 -105.097656 43.695312 -104.390625 41.46875 -104.390625 Z M -1.8125 0 L -0.640625 -5.796875 L 8.234375 -5.796875 C 10.953125 -5.796875 13.003906 -6.519531 14.390625 -7.96875 C 15.785156 -9.414062 16.753906 -11.5 17.296875 -14.21875 L 26.703125 -62.75 C 27.253906 -65.582031 27.101562 -67.539062 26.25 -68.625 C 25.40625 -69.707031 23.566406 -70.007812 20.734375 -69.53125 L 11.3125 -67.359375 L 11.671875 -73.0625 L 42.1875 -79.5 L 29.328125 -13.125 C 28.847656 -10.707031 28.910156 -8.878906 29.515625 -7.640625 C 30.117188 -6.410156 31.71875 -5.796875 34.3125 -5.796875 L 42.1875 -5.796875 L 41.015625 0 Z M -1.8125 0 "/></g></g><g style="fill:#ffcccc;fill-opacity:1;"><g transform="translate(2547.085985, 3143.011391)"><path style="stroke:none" d="M 40.109375 2.265625 C 38.234375 2.265625 36.015625 2.050781 33.453125 1.625 C 30.890625 1.207031 28.21875 0.457031 25.4375 -0.625 C 22.664062 -1.71875 20.023438 -3.226562 17.515625 -5.15625 C 15.015625 -7.09375 12.859375 -9.566406 11.046875 -12.578125 C 9.234375 -15.597656 8.007812 -19.234375 7.375 -23.484375 C 6.738281 -27.742188 6.90625 -32.742188 7.875 -38.484375 C 8.90625 -44.335938 10.625 -49.492188 13.03125 -53.953125 C 15.445312 -58.421875 18.300781 -62.222656 21.59375 -65.359375 C 24.882812 -68.503906 28.414062 -71.070312 32.1875 -73.0625 C 35.957031 -75.050781 39.742188 -76.515625 43.546875 -77.453125 C 47.347656 -78.390625 50.96875 -78.859375 54.40625 -78.859375 C 57.613281 -78.859375 60.9375 -78.40625 64.375 -77.5 C 67.8125 -76.59375 71.082031 -75.171875 74.1875 -73.234375 C 77.300781 -71.304688 79.988281 -68.773438 82.25 -65.640625 C 84.519531 -62.503906 86.09375 -58.6875 86.96875 -54.1875 C 87.84375 -49.6875 87.734375 -44.453125 86.640625 -38.484375 C 85.492188 -32.023438 83.625 -26.453125 81.03125 -21.765625 C 78.4375 -17.085938 75.390625 -13.195312 71.890625 -10.09375 C 68.390625 -6.988281 64.722656 -4.53125 60.890625 -2.71875 C 57.054688 -0.90625 53.328125 0.375 49.703125 1.125 C 46.078125 1.882812 42.878906 2.265625 40.109375 2.265625 Z M 41.1875 -3.625 C 44.03125 -3.625 47.109375 -4.269531 50.421875 -5.5625 C 53.742188 -6.863281 56.988281 -8.914062 60.15625 -11.71875 C 63.332031 -14.53125 66.15625 -18.140625 68.625 -22.546875 C 71.101562 -26.953125 72.882812 -32.234375 73.96875 -38.390625 C 75.300781 -45.691406 75.210938 -51.921875 73.703125 -57.078125 C 72.191406 -62.242188 69.671875 -66.179688 66.140625 -68.890625 C 62.609375 -71.609375 58.367188 -72.96875 53.421875 -72.96875 C 48.523438 -72.96875 43.8125 -71.59375 39.28125 -68.84375 C 34.757812 -66.101562 30.835938 -62.179688 27.515625 -57.078125 C 24.203125 -51.984375 21.910156 -45.90625 20.640625 -38.84375 C 19.554688 -32.5625 19.453125 -27.1875 20.328125 -22.71875 C 21.203125 -18.257812 22.738281 -14.625 24.9375 -11.8125 C 27.144531 -9.007812 29.679688 -6.941406 32.546875 -5.609375 C 35.410156 -4.285156 38.289062 -3.625 41.1875 -3.625 Z M 41.1875 -3.625 "/></g></g><g style="fill:#ffcccc;fill-opacity:1;"><g transform="translate(2650.873727, 3143.011391)"><path style="stroke:none" d="M 0.90625 0 L 1.90625 -5.796875 L 10.78125 -5.796875 C 13.550781 -5.796875 15.539062 -6.503906 16.75 -7.921875 C 17.957031 -9.335938 18.800781 -11.253906 19.28125 -13.671875 L 27.609375 -61.5625 C 28.097656 -64.039062 27.929688 -66.003906 27.109375 -67.453125 C 26.296875 -68.898438 24.53125 -69.382812 21.8125 -68.90625 L 12.765625 -66.71875 L 12.953125 -72.515625 L 42.921875 -79.125 L 38.5625 -54.78125 C 40.863281 -57.851562 43.414062 -60.820312 46.21875 -63.6875 C 49.019531 -66.5625 52.019531 -69.144531 55.21875 -71.4375 C 58.425781 -73.726562 61.71875 -75.535156 65.09375 -76.859375 C 68.476562 -78.191406 71.859375 -78.859375 75.234375 -78.859375 C 83.628906 -78.859375 89.53125 -76.5625 92.9375 -71.96875 C 96.34375 -67.382812 97.171875 -60.144531 95.421875 -50.25 L 89.09375 -13.671875 C 88.0625 -8.421875 89.84375 -5.796875 94.4375 -5.796875 L 103.03125 -5.796875 L 102.03125 0 L 58.3125 0 L 59.296875 -5.796875 L 69.265625 -5.796875 C 71.492188 -5.796875 73.226562 -6.519531 74.46875 -7.96875 C 75.707031 -9.414062 76.566406 -11.347656 77.046875 -13.765625 L 83.390625 -50.0625 C 84.597656 -57.25 84.265625 -62.578125 82.390625 -66.046875 C 80.515625 -69.515625 76.46875 -71.25 70.25 -71.25 C 66.9375 -71.25 63.632812 -70.375 60.34375 -68.625 C 57.050781 -66.875 53.894531 -64.59375 50.875 -61.78125 C 47.863281 -58.976562 45.132812 -55.929688 42.6875 -52.640625 C 40.238281 -49.359375 38.171875 -46.175781 36.484375 -43.09375 L 31.421875 -13.671875 C 30.992188 -11.492188 31.113281 -9.632812 31.78125 -8.09375 C 32.445312 -6.5625 33.832031 -5.796875 35.9375 -5.796875 L 45.625 -5.796875 L 44.640625 0 Z M 0.90625 0 "/></g></g></g></svg>