<svg xmlns="http://www.w3.org/2000/svg" xmlns:xlink="http://www.w3.org/1999/xlink" width="500" zoomAndPan="magnify" viewBox="0 0 375 374.999991" height="500" preserveAspectRatio="xMidYMid meet" version="1.2"><defs><clipPath id="a1289ebf9c"><path d="M 0 159.476562 L 124.878906 159.476562 L 124.878906 304.15625 L 0 304.15625 Z M 0 159.476562 "/></clipPath><clipPath id="085d6395ca"><path d="M 0.25 159.515625 L 124.878906 159.515625 L 124.878906 304.117188 L 0.25 304.117188 Z M 0.25 159.515625 "/></clipPath><clipPath id="9db1aa615f"><path d="M 124.777344 163.796875 C 103.539062 180.324219 88.703125 194.554688 80.261719 206.472656 C 72.300781 217.707031 70.160156 226.652344 73.8125 233.300781 L 73.886719 233.476562 C 77.238281 240.757812 78.851562 247.460938 78.75 253.582031 C 78.675781 258.242188 78.144531 262.878906 75.550781 266.480469 C 64.71875 281.542969 58.546875 299.507812 62.351562 304.117188 C 59.503906 300.691406 59.378906 293.460938 60.761719 286.230469 C 63.507812 271.796875 73.15625 264.867188 73.359375 253.480469 C 73.460938 248.191406 72 242.296875 69.027344 235.796875 C 64.367188 227.179688 66.632812 216.371094 75.878906 203.324219 C 84.644531 190.953125 102.105469 174.527344 124.777344 163.796875 Z M 39.425781 220.050781 C 30.382812 202.769531 16.476562 200.703125 5.894531 187.679688 C 6.273438 204.429688 8.894531 216.574219 13.78125 224.15625 C 19.09375 232.421875 28.792969 240.253906 40.082031 237.207031 C 33.53125 242.523438 25.59375 242.117188 20.910156 238.871094 C 18.96875 242.773438 18.316406 245.417969 17.558594 249.726562 C 16.804688 253.933594 16.625 258.21875 17.082031 262.5 C 22.621094 262.851562 37.738281 254.160156 38.746094 252.296875 C 34.007812 261.238281 25.117188 267.234375 15.066406 268.320312 L 12.519531 268.597656 L 12.09375 266.027344 C 11.160156 260.257812 11.210938 254.414062 12.21875 248.769531 C 13.074219 244.007812 14.613281 239.347656 16.777344 234.964844 C 13.882812 233.074219 11.363281 230.429688 9.21875 227.078125 C 2.898438 217.253906 0 201.003906 0.503906 178.308594 L 0.730469 168.710938 C 6.953125 190.675781 36.527344 198.234375 39.425781 220.050781 Z M 61.671875 172.234375 C 67.714844 172.234375 72.605469 177.125 72.605469 183.167969 C 72.605469 189.214844 67.714844 194.101562 61.671875 194.101562 C 55.625 194.101562 50.738281 189.214844 50.738281 183.167969 C 50.738281 177.125 55.625 172.234375 61.671875 172.234375 Z M 83.035156 220.050781 C 92.078125 202.769531 105.984375 200.703125 116.5625 187.679688 C 116.1875 204.429688 113.566406 216.574219 108.679688 224.15625 C 103.363281 232.421875 93.664062 240.253906 82.378906 237.207031 C 88.929688 242.523438 96.863281 242.117188 101.550781 238.871094 C 103.488281 242.773438 104.144531 245.417969 104.898438 249.726562 C 105.65625 253.933594 105.832031 258.21875 105.378906 262.5 C 99.835938 262.851562 84.722656 254.160156 83.714844 252.296875 C 88.449219 261.238281 97.34375 267.234375 107.394531 268.320312 L 109.9375 268.597656 L 110.339844 266.050781 C 111.273438 260.28125 111.222656 254.4375 110.214844 248.796875 C 109.359375 244.035156 107.824219 239.375 105.65625 234.988281 C 108.554688 233.101562 111.070312 230.457031 113.214844 227.105469 C 119.535156 217.28125 122.433594 201.003906 121.929688 178.332031 L 121.703125 168.734375 C 115.507812 190.675781 85.929688 198.234375 83.035156 220.050781 Z M 3.046875 159.515625 C 18.1875 174.703125 69.328125 210.300781 55.472656 235.820312 C 52.476562 242.320312 51.039062 248.214844 51.140625 253.507812 C 50.285156 274.414062 69.101562 266.128906 52.476562 290.007812 L 52.5 289.53125 C 62.25 277.792969 45.976562 267.765625 45.722656 253.605469 C 45.621094 247.460938 47.234375 240.757812 50.585938 233.503906 L 50.660156 233.328125 C 61.191406 214.179688 14.460938 175.6875 3.046875 159.515625 Z M 3.046875 159.515625 "/></clipPath><clipPath id="9600651d53"><path d="M 76.722656 153.960938 L 97.105469 153.960938 L 97.105469 175 L 76.722656 175 Z M 76.722656 153.960938 "/></clipPath><clipPath id="0fb2c9b09b"><path d="M 76.722656 170 L 87 170 L 87 180.578125 L 76.722656 180.578125 Z M 76.722656 170 "/></clipPath></defs><g id="bfed148d1d"><g clip-rule="nonzero" clip-path="url(#a1289ebf9c)"><path style=" stroke:none;fill-rule:nonzero;fill:#ffbed3;fill-opacity:1;" d="M 124.777344 163.796875 C 103.539062 180.324219 88.703125 194.554688 80.261719 206.472656 C 72.300781 217.707031 70.160156 226.652344 73.8125 233.300781 L 73.886719 233.476562 C 77.238281 240.757812 78.851562 247.460938 78.75 253.582031 C 78.675781 258.242188 78.144531 262.878906 75.550781 266.480469 C 64.71875 281.542969 58.546875 299.507812 62.351562 304.117188 C 59.503906 300.691406 59.378906 293.460938 60.761719 286.230469 C 63.507812 271.796875 73.15625 264.867188 73.359375 253.480469 C 73.460938 248.191406 72 242.296875 69.027344 235.796875 C 64.367188 227.179688 66.632812 216.371094 75.878906 203.324219 C 84.644531 190.953125 102.105469 174.527344 124.777344 163.796875 Z M 39.425781 220.050781 C 30.382812 202.769531 16.476562 200.703125 5.894531 187.679688 C 6.273438 204.429688 8.894531 216.574219 13.78125 224.15625 C 19.09375 232.421875 28.792969 240.253906 40.082031 237.207031 C 33.53125 242.523438 25.59375 242.117188 20.910156 238.871094 C 18.96875 242.773438 18.316406 245.417969 17.558594 249.726562 C 16.804688 253.933594 16.625 258.21875 17.082031 262.5 C 22.621094 262.851562 37.738281 254.160156 38.746094 252.296875 C 34.007812 261.238281 25.117188 267.234375 15.066406 268.320312 L 12.519531 268.597656 L 12.09375 266.027344 C 11.160156 260.257812 11.210938 254.414062 12.21875 248.769531 C 13.074219 244.007812 14.613281 239.347656 16.777344 234.964844 C 13.882812 233.074219 11.363281 230.429688 9.21875 227.078125 C 2.898438 217.253906 0 201.003906 0.503906 178.308594 L 0.730469 168.710938 C 6.953125 190.675781 36.527344 198.234375 39.425781 220.050781 Z M 61.671875 172.234375 C 67.714844 172.234375 72.605469 177.125 72.605469 183.167969 C 72.605469 189.214844 67.714844 194.101562 61.671875 194.101562 C 55.625 194.101562 50.738281 189.214844 50.738281 183.167969 C 50.738281 177.125 55.625 172.234375 61.671875 172.234375 Z M 83.035156 220.050781 C 92.078125 202.769531 105.984375 200.703125 116.5625 187.679688 C 116.1875 204.429688 113.566406 216.574219 108.679688 224.15625 C 103.363281 232.421875 93.664062 240.253906 82.378906 237.207031 C 88.929688 242.523438 96.863281 242.117188 101.550781 238.871094 C 103.488281 242.773438 104.144531 245.417969 104.898438 249.726562 C 105.65625 253.933594 105.832031 258.21875 105.378906 262.5 C 99.835938 262.851562 84.722656 254.160156 83.714844 252.296875 C 88.449219 261.238281 97.34375 267.234375 107.394531 268.320312 L 109.9375 268.597656 L 110.339844 266.050781 C 111.273438 260.28125 111.222656 254.4375 110.214844 248.796875 C 109.359375 244.035156 107.824219 239.375 105.65625 234.988281 C 108.554688 233.101562 111.070312 230.457031 113.214844 227.105469 C 119.535156 217.28125 122.433594 201.003906 121.929688 178.332031 L 121.703125 168.734375 C 115.507812 190.675781 85.929688 198.234375 83.035156 220.050781 Z M 3.046875 159.515625 C 18.1875 174.703125 69.328125 210.300781 55.472656 235.820312 C 52.476562 242.320312 51.039062 248.214844 51.140625 253.507812 C 50.285156 274.414062 69.101562 266.128906 52.476562 290.007812 L 52.5 289.53125 C 62.25 277.792969 45.976562 267.765625 45.722656 253.605469 C 45.621094 247.460938 47.234375 240.757812 50.585938 233.503906 L 50.660156 233.328125 C 61.191406 214.179688 14.460938 175.6875 3.046875 159.515625 Z M 3.046875 159.515625 "/></g><g clip-rule="nonzero" clip-path="url(#085d6395ca)"><g clip-rule="nonzero" clip-path="url(#9db1aa615f)"><path style=" stroke:none;fill-rule:nonzero;fill:#ffbed3;fill-opacity:1;" d="M 0 159.515625 L 124.777344 159.515625 L 124.777344 304.117188 L 0 304.117188 Z M 0 159.515625 "/></g></g><g clip-rule="nonzero" clip-path="url(#9600651d53)"><path style=" stroke:none;fill-rule:nonzero;fill:#ffe8e8;fill-opacity:1;" d="M 91.675781 164.3125 C 91.105469 164.375 90.5625 164.53125 90.046875 164.777344 C 89.53125 165.023438 89.070312 165.351562 88.664062 165.753906 C 88.261719 166.160156 87.933594 166.621094 87.6875 167.136719 C 87.441406 167.652344 87.285156 168.195312 87.222656 168.765625 C 87.042969 170.5625 86.960938 172.363281 86.976562 174.171875 C 86.992188 172.363281 86.910156 170.5625 86.730469 168.765625 C 86.667969 168.195312 86.511719 167.652344 86.265625 167.136719 C 86.019531 166.621094 85.691406 166.160156 85.289062 165.753906 C 84.882812 165.351562 84.421875 165.023438 83.90625 164.777344 C 83.390625 164.53125 82.847656 164.375 82.277344 164.3125 C 80.480469 164.132812 78.679688 164.050781 76.871094 164.066406 C 78.679688 164.082031 80.480469 164 82.277344 163.820312 C 82.847656 163.757812 83.390625 163.601562 83.90625 163.355469 C 84.421875 163.109375 84.882812 162.78125 85.289062 162.378906 C 85.691406 161.972656 86.019531 161.511719 86.265625 160.996094 C 86.511719 160.480469 86.667969 159.9375 86.730469 159.371094 C 86.910156 157.570312 86.992188 155.769531 86.976562 153.960938 C 86.960938 155.769531 87.042969 157.570312 87.222656 159.371094 C 87.285156 159.9375 87.441406 160.480469 87.6875 160.996094 C 87.933594 161.511719 88.261719 161.972656 88.664062 162.378906 C 89.070312 162.78125 89.53125 163.109375 90.046875 163.355469 C 90.5625 163.601562 91.105469 163.757812 91.675781 163.820312 C 93.472656 164 95.273438 164.082031 97.082031 164.066406 C 95.273438 164.050781 93.472656 164.132812 91.675781 164.3125 Z M 91.675781 164.3125 "/></g><g clip-rule="nonzero" clip-path="url(#0fb2c9b09b)"><path style=" stroke:none;fill-rule:nonzero;fill:#ffe8e8;fill-opacity:1;" d="M 84.238281 175.59375 C 83.953125 175.625 83.675781 175.703125 83.417969 175.828125 C 83.15625 175.953125 82.921875 176.121094 82.71875 176.324219 C 82.511719 176.527344 82.347656 176.761719 82.222656 177.023438 C 82.097656 177.285156 82.019531 177.558594 81.988281 177.847656 C 81.898438 178.757812 81.855469 179.667969 81.863281 180.582031 C 81.871094 179.667969 81.828125 178.757812 81.738281 177.847656 C 81.707031 177.558594 81.628906 177.285156 81.503906 177.023438 C 81.378906 176.761719 81.214844 176.527344 81.007812 176.324219 C 80.804688 176.121094 80.570312 175.953125 80.308594 175.828125 C 80.046875 175.703125 79.773438 175.625 79.484375 175.59375 C 78.574219 175.503906 77.664062 175.460938 76.75 175.46875 C 77.664062 175.476562 78.574219 175.4375 79.484375 175.34375 C 79.773438 175.3125 80.046875 175.234375 80.308594 175.109375 C 80.570312 174.984375 80.804688 174.820312 81.007812 174.613281 C 81.214844 174.410156 81.378906 174.175781 81.503906 173.917969 C 81.628906 173.65625 81.707031 173.378906 81.738281 173.09375 C 81.828125 172.183594 81.871094 171.269531 81.863281 170.355469 C 81.855469 171.269531 81.898438 172.183594 81.988281 173.09375 C 82.019531 173.378906 82.097656 173.65625 82.222656 173.917969 C 82.347656 174.175781 82.511719 174.410156 82.71875 174.613281 C 82.921875 174.820312 83.15625 174.984375 83.417969 175.109375 C 83.675781 175.234375 83.953125 175.3125 84.238281 175.34375 C 85.148438 175.4375 86.0625 175.476562 86.976562 175.46875 C 86.0625 175.460938 85.148438 175.503906 84.238281 175.59375 Z M 84.238281 175.59375 "/></g><path style=" stroke:none;fill-rule:nonzero;fill:#ffe8e8;fill-opacity:1;" d="M 94.332031 171.75 C 93.96875 171.789062 93.660156 171.9375 93.402344 172.195312 C 93.144531 172.453125 92.996094 172.765625 92.957031 173.125 C 92.898438 173.679688 92.875 174.238281 92.878906 174.796875 C 92.882812 174.238281 92.859375 173.679688 92.804688 173.125 C 92.765625 172.765625 92.613281 172.453125 92.359375 172.195312 C 92.101562 171.9375 91.789062 171.789062 91.429688 171.75 C 90.871094 171.695312 90.316406 171.671875 89.757812 171.675781 C 90.316406 171.679688 90.871094 171.652344 91.429688 171.597656 C 91.789062 171.558594 92.101562 171.410156 92.359375 171.152344 C 92.613281 170.894531 92.765625 170.585938 92.804688 170.222656 C 92.859375 169.667969 92.882812 169.109375 92.878906 168.550781 C 92.875 169.109375 92.898438 169.667969 92.957031 170.222656 C 92.996094 170.585938 93.144531 170.894531 93.402344 171.152344 C 93.660156 171.410156 93.96875 171.558594 94.332031 171.597656 C 94.886719 171.652344 95.445312 171.679688 96 171.675781 C 95.445312 171.671875 94.886719 171.695312 94.332031 171.75 Z M 94.332031 171.75 "/><g style="fill:#c24b79;fill-opacity:1;"><g transform="translate(126.08739, 227.634497)"><path style="stroke:none" d="M 21.34375 -25 C 21.132812 -25 20.957031 -24.925781 20.8125 -24.78125 C 20.664062 -24.632812 20.59375 -24.453125 20.59375 -24.234375 L 20.59375 -0.90625 C 20.59375 -0.6875 20.664062 -0.503906 20.8125 -0.359375 C 20.957031 -0.210938 21.132812 -0.140625 21.34375 -0.140625 C 21.445312 -0.140625 21.5 -0.09375 21.5 0 C 21.5 0.09375 21.445312 0.140625 21.34375 0.140625 L 15.28125 0.140625 C 15.207031 0.140625 15.171875 0.09375 15.171875 0 C 15.171875 -0.09375 15.207031 -0.140625 15.28125 -0.140625 C 15.5 -0.140625 15.679688 -0.210938 15.828125 -0.359375 C 15.972656 -0.503906 16.046875 -0.6875 16.046875 -0.90625 L 16.046875 -12.421875 L 7.796875 -12.421875 L 7.796875 -0.90625 C 7.796875 -0.6875 7.867188 -0.503906 8.015625 -0.359375 C 8.160156 -0.210938 8.332031 -0.140625 8.53125 -0.140625 C 8.625 -0.140625 8.671875 -0.09375 8.671875 0 C 8.671875 0.09375 8.625 0.140625 8.53125 0.140625 L 2.5 0.140625 C 2.394531 0.140625 2.34375 0.09375 2.34375 0 C 2.34375 -0.09375 2.394531 -0.140625 2.5 -0.140625 C 2.707031 -0.140625 2.882812 -0.210938 3.03125 -0.359375 C 3.175781 -0.503906 3.25 -0.6875 3.25 -0.90625 L 3.25 -24.234375 C 3.25 -24.453125 3.175781 -24.632812 3.03125 -24.78125 C 2.882812 -24.925781 2.707031 -25 2.5 -25 C 2.394531 -25 2.34375 -25.046875 2.34375 -25.140625 C 2.34375 -25.234375 2.394531 -25.28125 2.5 -25.28125 L 8.53125 -25.28125 C 8.625 -25.28125 8.671875 -25.234375 8.671875 -25.140625 C 8.671875 -25.046875 8.625 -25 8.53125 -25 C 8.332031 -25 8.160156 -24.925781 8.015625 -24.78125 C 7.867188 -24.632812 7.796875 -24.453125 7.796875 -24.234375 L 7.796875 -12.71875 L 16.046875 -12.71875 L 16.046875 -24.234375 C 16.046875 -24.453125 15.972656 -24.632812 15.828125 -24.78125 C 15.679688 -24.925781 15.5 -25 15.28125 -25 C 15.207031 -25 15.171875 -25.046875 15.171875 -25.140625 C 15.171875 -25.234375 15.207031 -25.28125 15.28125 -25.28125 L 21.34375 -25.28125 C 21.445312 -25.28125 21.5 -25.234375 21.5 -25.140625 C 21.5 -25.046875 21.445312 -25 21.34375 -25 Z M 21.34375 -25 "/></g></g><g style="fill:#c24b79;fill-opacity:1;"><g transform="translate(148.805109, 227.634497)"><path style="stroke:none" d="M 16.515625 -2.640625 C 16.585938 -2.679688 16.644531 -2.679688 16.6875 -2.640625 C 16.757812 -2.566406 16.757812 -2.492188 16.6875 -2.421875 C 14.976562 -0.710938 12.921875 0.140625 10.515625 0.140625 C 8.078125 0.140625 6.003906 -0.710938 4.296875 -2.421875 C 3.160156 -3.578125 2.398438 -4.898438 2.015625 -6.390625 C 1.628906 -7.890625 1.628906 -9.382812 2.015625 -10.875 C 2.398438 -12.363281 3.160156 -13.6875 4.296875 -14.84375 C 5.429688 -15.976562 6.75 -16.734375 8.25 -17.109375 C 9.757812 -17.484375 11.257812 -17.484375 12.75 -17.109375 C 14.238281 -16.734375 15.550781 -15.976562 16.6875 -14.84375 C 16.757812 -14.769531 16.757812 -14.695312 16.6875 -14.625 L 9 -6.9375 C 8.96875 -6.914062 8.929688 -6.90625 8.890625 -6.90625 C 8.859375 -6.90625 8.832031 -6.914062 8.8125 -6.9375 C 8.738281 -7.007812 8.738281 -7.066406 8.8125 -7.109375 L 13.40625 -11.703125 C 11.738281 -13.335938 10.039062 -14.429688 8.3125 -14.984375 C 6.570312 -15.566406 5.296875 -15.445312 4.484375 -14.625 C 3.953125 -14.070312 3.726562 -13.300781 3.8125 -12.3125 C 3.894531 -11.332031 4.253906 -10.25 4.890625 -9.0625 C 5.535156 -7.882812 6.410156 -6.742188 7.515625 -5.640625 C 9.171875 -3.972656 10.894531 -2.851562 12.6875 -2.28125 C 14.414062 -1.695312 15.691406 -1.816406 16.515625 -2.640625 Z M 16.515625 -2.640625 "/></g></g><g style="fill:#c24b79;fill-opacity:1;"><g transform="translate(166.321956, 227.634497)"><path style="stroke:none" d="M 14.3125 -16.984375 C 14.3125 -16.929688 14.320312 -16.914062 14.34375 -16.9375 C 14.34375 -16.96875 14.332031 -16.96875 14.3125 -16.9375 C 14.28125 -16.894531 14.28125 -16.882812 14.3125 -16.90625 L 13.40625 -15.5 C 13.351562 -15.445312 13.304688 -15.421875 13.265625 -15.421875 C 13.210938 -15.421875 13.175781 -15.445312 13.15625 -15.5 C 12.882812 -16.070312 12.425781 -16.457031 11.78125 -16.65625 C 11.125 -16.875 10.460938 -16.835938 9.796875 -16.546875 C 9.742188 -16.523438 9.6875 -16.5 9.625 -16.46875 C 9.5625 -16.445312 9.507812 -16.410156 9.46875 -16.359375 C 9.4375 -16.359375 9.421875 -16.359375 9.421875 -16.359375 C 8.628906 -15.929688 7.957031 -15.332031 7.40625 -14.5625 L 7.40625 -0.90625 C 7.40625 -0.6875 7.476562 -0.503906 7.625 -0.359375 C 7.769531 -0.210938 7.9375 -0.140625 8.125 -0.140625 C 8.21875 -0.140625 8.265625 -0.09375 8.265625 0 C 8.265625 0.09375 8.21875 0.140625 8.125 0.140625 L 2.09375 0.140625 C 2 0.140625 1.953125 0.09375 1.953125 0 C 1.953125 -0.09375 2 -0.140625 2.09375 -0.140625 C 2.3125 -0.140625 2.492188 -0.210938 2.640625 -0.359375 C 2.785156 -0.503906 2.859375 -0.671875 2.859375 -0.859375 L 2.859375 -13.828125 C 2.859375 -13.972656 2.804688 -14.070312 2.703125 -14.125 C 2.585938 -14.175781 2.410156 -14.113281 2.171875 -13.9375 C 2.097656 -13.894531 2.035156 -13.910156 1.984375 -13.984375 C 1.910156 -14.054688 1.921875 -14.128906 2.015625 -14.203125 L 2.890625 -14.8125 C 2.890625 -14.832031 2.890625 -14.84375 2.890625 -14.84375 L 7.15625 -17.921875 C 7.195312 -17.960938 7.242188 -17.972656 7.296875 -17.953125 C 7.367188 -17.929688 7.40625 -17.882812 7.40625 -17.8125 L 7.40625 -15.03125 C 7.914062 -15.65625 8.519531 -16.171875 9.21875 -16.578125 C 9.257812 -16.609375 9.269531 -16.609375 9.25 -16.578125 C 9.25 -16.578125 9.253906 -16.582031 9.265625 -16.59375 C 9.273438 -16.613281 9.28125 -16.625 9.28125 -16.625 C 9.300781 -16.625 9.3125 -16.625 9.3125 -16.625 C 9.4375 -16.6875 9.5625 -16.742188 9.6875 -16.796875 C 10.550781 -17.203125 11.453125 -17.40625 12.390625 -17.40625 C 13.015625 -17.40625 13.628906 -17.3125 14.234375 -17.125 C 14.210938 -17.125 14.210938 -17.125 14.234375 -17.125 C 14.285156 -17.101562 14.296875 -17.101562 14.265625 -17.125 C 14.265625 -17.125 14.265625 -17.113281 14.265625 -17.09375 C 14.296875 -17.0625 14.3125 -17.046875 14.3125 -17.046875 C 14.3125 -17.023438 14.3125 -17.003906 14.3125 -16.984375 Z M 14.3125 -16.984375 "/></g></g><g style="fill:#c24b79;fill-opacity:1;"><g transform="translate(181.382838, 227.634497)"><path style="stroke:none" d="M 21.34375 -0.140625 C 21.445312 -0.140625 21.5 -0.09375 21.5 0 C 21.5 0.09375 21.445312 0.140625 21.34375 0.140625 L 16.578125 0.140625 C 16.316406 0.140625 16.046875 0.046875 15.765625 -0.140625 C 15.492188 -0.335938 15.285156 -0.566406 15.140625 -0.828125 L 10.296875 -10.6875 L 7.796875 -10.6875 L 7.796875 -0.90625 C 7.796875 -0.6875 7.867188 -0.503906 8.015625 -0.359375 C 8.160156 -0.210938 8.332031 -0.140625 8.53125 -0.140625 C 8.625 -0.140625 8.671875 -0.09375 8.671875 0 C 8.671875 0.09375 8.625 0.140625 8.53125 0.140625 L 2.5 0.140625 C 2.394531 0.140625 2.34375 0.09375 2.34375 0 C 2.34375 -0.09375 2.394531 -0.140625 2.5 -0.140625 C 2.707031 -0.140625 2.882812 -0.210938 3.03125 -0.359375 C 3.175781 -0.503906 3.25 -0.6875 3.25 -0.90625 L 3.25 -24.234375 C 3.25 -24.453125 3.175781 -24.632812 3.03125 -24.78125 C 2.882812 -24.925781 2.707031 -25 2.5 -25 C 2.394531 -25 2.34375 -25.046875 2.34375 -25.140625 C 2.34375 -25.234375 2.394531 -25.28125 2.5 -25.28125 L 13.296875 -25.28125 C 13.316406 -25.28125 13.335938 -25.28125 13.359375 -25.28125 C 13.390625 -25.28125 13.425781 -25.28125 13.46875 -25.28125 C 13.5 -25.28125 13.515625 -25.28125 13.515625 -25.28125 C 14.835938 -25.28125 16.050781 -24.945312 17.15625 -24.28125 C 18.269531 -23.625 19.148438 -22.75 19.796875 -21.65625 C 20.441406 -20.5625 20.765625 -19.335938 20.765625 -17.984375 C 20.765625 -16.859375 20.523438 -15.804688 20.046875 -14.828125 C 19.566406 -13.847656 18.910156 -13.015625 18.078125 -12.328125 C 17.242188 -11.648438 16.300781 -11.191406 15.25 -10.953125 L 20.15625 -0.9375 C 20.25 -0.71875 20.414062 -0.53125 20.65625 -0.375 C 20.90625 -0.21875 21.132812 -0.140625 21.34375 -0.140625 Z M 7.796875 -25 L 7.796875 -10.984375 L 13.296875 -10.984375 C 13.796875 -10.984375 14.25 -11.300781 14.65625 -11.9375 C 15.070312 -12.570312 15.40625 -13.425781 15.65625 -14.5 C 15.914062 -15.570312 16.046875 -16.734375 16.046875 -17.984375 C 16.046875 -19.265625 15.914062 -20.429688 15.65625 -21.484375 C 15.40625 -22.546875 15.070312 -23.394531 14.65625 -24.03125 C 14.25 -24.675781 13.796875 -25 13.296875 -25 Z M 7.796875 -25 "/></g></g><g style="fill:#c24b79;fill-opacity:1;"><g transform="translate(202.36691, 227.634497)"><path style="stroke:none" d="M 16.515625 -2.640625 C 16.585938 -2.679688 16.644531 -2.679688 16.6875 -2.640625 C 16.757812 -2.566406 16.757812 -2.492188 16.6875 -2.421875 C 14.976562 -0.710938 12.921875 0.140625 10.515625 0.140625 C 8.078125 0.140625 6.003906 -0.710938 4.296875 -2.421875 C 3.160156 -3.578125 2.398438 -4.898438 2.015625 -6.390625 C 1.628906 -7.890625 1.628906 -9.382812 2.015625 -10.875 C 2.398438 -12.363281 3.160156 -13.6875 4.296875 -14.84375 C 5.429688 -15.976562 6.75 -16.734375 8.25 -17.109375 C 9.757812 -17.484375 11.257812 -17.484375 12.75 -17.109375 C 14.238281 -16.734375 15.550781 -15.976562 16.6875 -14.84375 C 16.757812 -14.769531 16.757812 -14.695312 16.6875 -14.625 L 9 -6.9375 C 8.96875 -6.914062 8.929688 -6.90625 8.890625 -6.90625 C 8.859375 -6.90625 8.832031 -6.914062 8.8125 -6.9375 C 8.738281 -7.007812 8.738281 -7.066406 8.8125 -7.109375 L 13.40625 -11.703125 C 11.738281 -13.335938 10.039062 -14.429688 8.3125 -14.984375 C 6.570312 -15.566406 5.296875 -15.445312 4.484375 -14.625 C 3.953125 -14.070312 3.726562 -13.300781 3.8125 -12.3125 C 3.894531 -11.332031 4.253906 -10.25 4.890625 -9.0625 C 5.535156 -7.882812 6.410156 -6.742188 7.515625 -5.640625 C 9.171875 -3.972656 10.894531 -2.851562 12.6875 -2.28125 C 14.414062 -1.695312 15.691406 -1.816406 16.515625 -2.640625 Z M 16.515625 -2.640625 "/></g></g><g style="fill:#c24b79;fill-opacity:1;"><g transform="translate(219.883757, 227.634497)"><path style="stroke:none" d="M 19.296875 -3.03125 C 19.390625 -3.03125 19.4375 -2.984375 19.4375 -2.890625 C 19.4375 -2.066406 19.132812 -1.351562 18.53125 -0.75 C 17.925781 -0.15625 17.21875 0.140625 16.40625 0.140625 C 15.5625 0.140625 14.835938 -0.15625 14.234375 -0.75 C 13.628906 -1.351562 13.328125 -2.066406 13.328125 -2.890625 L 13.328125 -10.953125 C 13.328125 -12.804688 13.128906 -14.296875 12.734375 -15.421875 C 12.335938 -16.554688 11.910156 -17.125 11.453125 -17.125 C 10.660156 -17.125 9.921875 -16.984375 9.234375 -16.703125 C 8.546875 -16.429688 7.9375 -16.050781 7.40625 -15.5625 L 7.40625 -0.90625 C 7.40625 -0.6875 7.476562 -0.503906 7.625 -0.359375 C 7.769531 -0.210938 7.9375 -0.140625 8.125 -0.140625 C 8.21875 -0.140625 8.265625 -0.09375 8.265625 0 C 8.265625 0.09375 8.21875 0.140625 8.125 0.140625 L 2.09375 0.140625 C 2 0.140625 1.953125 0.09375 1.953125 0 C 1.953125 -0.09375 2 -0.140625 2.09375 -0.140625 C 2.289062 -0.140625 2.46875 -0.210938 2.625 -0.359375 C 2.78125 -0.503906 2.859375 -0.6875 2.859375 -0.90625 L 2.859375 -13.828125 C 2.859375 -13.972656 2.804688 -14.070312 2.703125 -14.125 C 2.585938 -14.175781 2.410156 -14.113281 2.171875 -13.9375 C 2.097656 -13.894531 2.035156 -13.910156 1.984375 -13.984375 C 1.910156 -14.054688 1.921875 -14.128906 2.015625 -14.203125 L 2.890625 -14.8125 C 2.890625 -14.832031 2.890625 -14.84375 2.890625 -14.84375 L 7.15625 -17.921875 C 7.195312 -17.960938 7.242188 -17.972656 7.296875 -17.953125 C 7.367188 -17.929688 7.40625 -17.882812 7.40625 -17.8125 L 7.40625 -15.96875 C 7.957031 -16.40625 8.578125 -16.75 9.265625 -17 C 9.953125 -17.25 10.679688 -17.375 11.453125 -17.375 C 12.628906 -17.375 13.703125 -17.082031 14.671875 -16.5 C 15.648438 -15.925781 16.425781 -15.148438 17 -14.171875 C 17.582031 -13.203125 17.875 -12.128906 17.875 -10.953125 L 17.875 -8.53125 L 17.921875 -2.921875 C 17.921875 -2.734375 17.976562 -2.578125 18.09375 -2.453125 C 18.21875 -2.335938 18.363281 -2.28125 18.53125 -2.28125 C 18.695312 -2.28125 18.835938 -2.335938 18.953125 -2.453125 C 19.078125 -2.578125 19.140625 -2.722656 19.140625 -2.890625 C 19.140625 -2.984375 19.191406 -3.03125 19.296875 -3.03125 Z M 19.296875 -3.03125 "/></g></g><g style="fill:#c24b79;fill-opacity:1;"><g transform="translate(240.253861, 227.634497)"><path style="stroke:none" d="M 17.203125 -3.03125 C 17.296875 -3.03125 17.34375 -2.984375 17.34375 -2.890625 C 17.34375 -2.066406 17.039062 -1.351562 16.4375 -0.75 C 15.832031 -0.15625 15.109375 0.140625 14.265625 0.140625 C 13.472656 0.140625 12.785156 -0.117188 12.203125 -0.640625 C 11.628906 -1.171875 11.304688 -1.820312 11.234375 -2.59375 C 10.847656 -1.800781 10.253906 -1.144531 9.453125 -0.625 C 8.660156 -0.113281 7.785156 0.140625 6.828125 0.140625 C 5.910156 0.140625 5.078125 -0.078125 4.328125 -0.515625 C 3.585938 -0.960938 2.992188 -1.5625 2.546875 -2.3125 C 2.097656 -3.0625 1.875 -3.890625 1.875 -4.796875 C 1.875 -5.710938 2.097656 -6.546875 2.546875 -7.296875 C 2.992188 -8.046875 3.585938 -8.640625 4.328125 -9.078125 C 5.078125 -9.523438 5.910156 -9.75 6.828125 -9.75 L 8.953125 -9.75 C 9.054688 -9.75 9.109375 -9.703125 9.109375 -9.609375 C 9.109375 -9.515625 9.054688 -9.46875 8.953125 -9.46875 L 6.859375 -9.46875 C 6.765625 -9.34375 6.671875 -8.875 6.578125 -8.0625 C 6.484375 -7.257812 6.4375 -6.171875 6.4375 -4.796875 C 6.4375 -3.429688 6.484375 -2.335938 6.578125 -1.515625 C 6.671875 -0.691406 6.765625 -0.234375 6.859375 -0.140625 C 7.867188 -0.140625 8.769531 -0.441406 9.5625 -1.046875 C 10.363281 -1.648438 10.921875 -2.410156 11.234375 -3.328125 L 11.234375 -9.890625 C 11.234375 -11.222656 11.097656 -12.4375 10.828125 -13.53125 C 10.566406 -14.625 10.210938 -15.492188 9.765625 -16.140625 C 9.328125 -16.796875 8.828125 -17.125 8.265625 -17.125 C 7.523438 -17.125 6.789062 -16.941406 6.0625 -16.578125 C 5.34375 -16.222656 4.71875 -15.796875 4.1875 -15.296875 C 3.65625 -14.804688 3.316406 -14.34375 3.171875 -13.90625 C 3.148438 -13.851562 3.117188 -13.828125 3.078125 -13.828125 C 3.078125 -13.828125 3.0625 -13.828125 3.03125 -13.828125 C 3.007812 -13.828125 2.988281 -13.84375 2.96875 -13.875 L 2.0625 -14.625 C 2.082031 -14.625 2.082031 -14.625 2.0625 -14.625 C 2.0625 -14.625 2.0625 -14.640625 2.0625 -14.671875 C 2.03125 -14.710938 2.015625 -14.734375 2.015625 -14.734375 C 2.015625 -14.734375 2.03125 -14.75 2.0625 -14.78125 C 2.0625 -14.800781 2.0625 -14.8125 2.0625 -14.8125 C 2.0625 -14.8125 2.0625 -14.820312 2.0625 -14.84375 C 3.769531 -16.550781 5.835938 -17.40625 8.265625 -17.40625 C 9.640625 -17.40625 10.898438 -17.0625 12.046875 -16.375 C 13.191406 -15.695312 14.097656 -14.789062 14.765625 -13.65625 C 15.441406 -12.519531 15.78125 -11.265625 15.78125 -9.890625 L 15.78125 -2.890625 C 15.78125 -2.722656 15.847656 -2.578125 15.984375 -2.453125 C 16.117188 -2.335938 16.269531 -2.28125 16.4375 -2.28125 C 16.601562 -2.28125 16.742188 -2.335938 16.859375 -2.453125 C 16.984375 -2.578125 17.046875 -2.722656 17.046875 -2.890625 C 17.046875 -2.984375 17.097656 -3.03125 17.203125 -3.03125 Z M 17.203125 -3.03125 "/></g></g><g style="fill:#c24b79;fill-opacity:1;"><g transform="translate(258.312471, 227.634497)"><path style="stroke:none" d="M 5.125 -20.734375 C 4.5 -20.734375 3.960938 -20.957031 3.515625 -21.40625 C 3.078125 -21.851562 2.859375 -22.390625 2.859375 -23.015625 C 2.859375 -23.640625 3.078125 -24.171875 3.515625 -24.609375 C 3.960938 -25.054688 4.5 -25.28125 5.125 -25.28125 C 5.75 -25.28125 6.285156 -25.054688 6.734375 -24.609375 C 7.179688 -24.171875 7.40625 -23.640625 7.40625 -23.015625 C 7.40625 -22.390625 7.179688 -21.851562 6.734375 -21.40625 C 6.285156 -20.957031 5.75 -20.734375 5.125 -20.734375 Z M 8.125 -0.140625 C 8.21875 -0.140625 8.265625 -0.09375 8.265625 0 C 8.265625 0.09375 8.21875 0.140625 8.125 0.140625 L 2.09375 0.140625 C 2 0.140625 1.953125 0.09375 1.953125 0 C 1.953125 -0.09375 2 -0.140625 2.09375 -0.140625 C 2.289062 -0.140625 2.46875 -0.210938 2.625 -0.359375 C 2.78125 -0.503906 2.859375 -0.6875 2.859375 -0.90625 L 2.859375 -13.828125 C 2.859375 -13.972656 2.804688 -14.070312 2.703125 -14.125 C 2.585938 -14.175781 2.410156 -14.113281 2.171875 -13.9375 C 2.097656 -13.894531 2.035156 -13.910156 1.984375 -13.984375 C 1.910156 -14.054688 1.921875 -14.128906 2.015625 -14.203125 L 2.890625 -14.8125 C 2.890625 -14.832031 2.890625 -14.84375 2.890625 -14.84375 L 7.15625 -17.921875 C 7.195312 -17.960938 7.242188 -17.972656 7.296875 -17.953125 C 7.367188 -17.929688 7.40625 -17.882812 7.40625 -17.8125 L 7.40625 -0.90625 C 7.40625 -0.6875 7.476562 -0.503906 7.625 -0.359375 C 7.769531 -0.210938 7.9375 -0.140625 8.125 -0.140625 Z M 8.125 -0.140625 "/></g></g><g style="fill:#c24b79;fill-opacity:1;"><g transform="translate(267.811283, 227.634497)"><path style="stroke:none" d="M 10.734375 -10.046875 C 11.742188 -9.628906 12.546875 -8.972656 13.140625 -8.078125 C 13.742188 -7.191406 14.046875 -6.207031 14.046875 -5.125 C 14.046875 -4.164062 13.804688 -3.285156 13.328125 -2.484375 C 12.847656 -1.691406 12.207031 -1.054688 11.40625 -0.578125 C 10.613281 -0.0976562 9.738281 0.140625 8.78125 0.140625 L 6.75 0.140625 C 4.96875 0.140625 3.359375 -0.375 1.921875 -1.40625 C 1.867188 -1.425781 1.84375 -1.460938 1.84375 -1.515625 C 1.84375 -1.566406 1.867188 -1.601562 1.921875 -1.625 L 3.796875 -2.671875 C 3.835938 -2.691406 3.875 -2.691406 3.90625 -2.671875 C 3.945312 -2.671875 3.984375 -2.644531 4.015625 -2.59375 C 4.753906 -0.957031 5.664062 -0.140625 6.75 -0.140625 L 8.78125 -0.140625 C 9.550781 -0.140625 10.210938 -0.410156 10.765625 -0.953125 C 11.316406 -1.492188 11.59375 -2.164062 11.59375 -2.96875 C 11.59375 -3.5625 11.40625 -4.101562 11.03125 -4.59375 C 10.65625 -5.09375 10.179688 -5.441406 9.609375 -5.640625 L 6.25 -6.828125 C 5.625 -7.046875 5.003906 -7.320312 4.390625 -7.65625 C 3.773438 -8 3.25 -8.457031 2.8125 -9.03125 C 2.164062 -9.945312 1.84375 -10.972656 1.84375 -12.109375 C 1.84375 -13.085938 2.078125 -13.972656 2.546875 -14.765625 C 3.015625 -15.566406 3.648438 -16.203125 4.453125 -16.671875 C 5.265625 -17.140625 6.148438 -17.375 7.109375 -17.375 L 9.140625 -17.375 C 10.921875 -17.375 12.535156 -16.867188 13.984375 -15.859375 C 14.023438 -15.835938 14.046875 -15.789062 14.046875 -15.71875 C 14.046875 -15.664062 14.023438 -15.628906 13.984375 -15.609375 L 12.109375 -14.59375 C 12.078125 -14.570312 12.050781 -14.5625 12.03125 -14.5625 C 12.007812 -14.5625 12 -14.5625 12 -14.5625 C 11.945312 -14.582031 11.910156 -14.601562 11.890625 -14.625 C 11.140625 -16.289062 10.222656 -17.125 9.140625 -17.125 L 7.109375 -17.125 C 6.335938 -17.125 5.675781 -16.847656 5.125 -16.296875 C 4.570312 -15.742188 4.296875 -15.082031 4.296875 -14.3125 C 4.296875 -13.632812 4.515625 -13.039062 4.953125 -12.53125 C 5.234375 -12.144531 5.617188 -11.851562 6.109375 -11.65625 C 6.609375 -11.46875 7.101562 -11.289062 7.59375 -11.125 C 7.707031 -11.101562 7.820312 -11.070312 7.9375 -11.03125 C 8.0625 -11 8.171875 -10.957031 8.265625 -10.90625 Z M 10.734375 -10.046875 "/></g></g><g style="fill:#c24b79;fill-opacity:1;"><g transform="translate(283.702872, 227.634497)"><path style="stroke:none" d="M 10.734375 -10.046875 C 11.742188 -9.628906 12.546875 -8.972656 13.140625 -8.078125 C 13.742188 -7.191406 14.046875 -6.207031 14.046875 -5.125 C 14.046875 -4.164062 13.804688 -3.285156 13.328125 -2.484375 C 12.847656 -1.691406 12.207031 -1.054688 11.40625 -0.578125 C 10.613281 -0.0976562 9.738281 0.140625 8.78125 0.140625 L 6.75 0.140625 C 4.96875 0.140625 3.359375 -0.375 1.921875 -1.40625 C 1.867188 -1.425781 1.84375 -1.460938 1.84375 -1.515625 C 1.84375 -1.566406 1.867188 -1.601562 1.921875 -1.625 L 3.796875 -2.671875 C 3.835938 -2.691406 3.875 -2.691406 3.90625 -2.671875 C 3.945312 -2.671875 3.984375 -2.644531 4.015625 -2.59375 C 4.753906 -0.957031 5.664062 -0.140625 6.75 -0.140625 L 8.78125 -0.140625 C 9.550781 -0.140625 10.210938 -0.410156 10.765625 -0.953125 C 11.316406 -1.492188 11.59375 -2.164062 11.59375 -2.96875 C 11.59375 -3.5625 11.40625 -4.101562 11.03125 -4.59375 C 10.65625 -5.09375 10.179688 -5.441406 9.609375 -5.640625 L 6.25 -6.828125 C 5.625 -7.046875 5.003906 -7.320312 4.390625 -7.65625 C 3.773438 -8 3.25 -8.457031 2.8125 -9.03125 C 2.164062 -9.945312 1.84375 -10.972656 1.84375 -12.109375 C 1.84375 -13.085938 2.078125 -13.972656 2.546875 -14.765625 C 3.015625 -15.566406 3.648438 -16.203125 4.453125 -16.671875 C 5.265625 -17.140625 6.148438 -17.375 7.109375 -17.375 L 9.140625 -17.375 C 10.921875 -17.375 12.535156 -16.867188 13.984375 -15.859375 C 14.023438 -15.835938 14.046875 -15.789062 14.046875 -15.71875 C 14.046875 -15.664062 14.023438 -15.628906 13.984375 -15.609375 L 12.109375 -14.59375 C 12.078125 -14.570312 12.050781 -14.5625 12.03125 -14.5625 C 12.007812 -14.5625 12 -14.5625 12 -14.5625 C 11.945312 -14.582031 11.910156 -14.601562 11.890625 -14.625 C 11.140625 -16.289062 10.222656 -17.125 9.140625 -17.125 L 7.109375 -17.125 C 6.335938 -17.125 5.675781 -16.847656 5.125 -16.296875 C 4.570312 -15.742188 4.296875 -15.082031 4.296875 -14.3125 C 4.296875 -13.632812 4.515625 -13.039062 4.953125 -12.53125 C 5.234375 -12.144531 5.617188 -11.851562 6.109375 -11.65625 C 6.609375 -11.46875 7.101562 -11.289062 7.59375 -11.125 C 7.707031 -11.101562 7.820312 -11.070312 7.9375 -11.03125 C 8.0625 -11 8.171875 -10.957031 8.265625 -10.90625 Z M 10.734375 -10.046875 "/></g></g><g style="fill:#c24b79;fill-opacity:1;"><g transform="translate(299.341641, 227.634497)"><path style="stroke:none" d="M 17.203125 -3.03125 C 17.296875 -3.03125 17.34375 -2.984375 17.34375 -2.890625 C 17.34375 -2.066406 17.039062 -1.351562 16.4375 -0.75 C 15.832031 -0.15625 15.109375 0.140625 14.265625 0.140625 C 13.472656 0.140625 12.785156 -0.117188 12.203125 -0.640625 C 11.628906 -1.171875 11.304688 -1.820312 11.234375 -2.59375 C 10.847656 -1.800781 10.253906 -1.144531 9.453125 -0.625 C 8.660156 -0.113281 7.785156 0.140625 6.828125 0.140625 C 5.910156 0.140625 5.078125 -0.078125 4.328125 -0.515625 C 3.585938 -0.960938 2.992188 -1.5625 2.546875 -2.3125 C 2.097656 -3.0625 1.875 -3.890625 1.875 -4.796875 C 1.875 -5.710938 2.097656 -6.546875 2.546875 -7.296875 C 2.992188 -8.046875 3.585938 -8.640625 4.328125 -9.078125 C 5.078125 -9.523438 5.910156 -9.75 6.828125 -9.75 L 8.953125 -9.75 C 9.054688 -9.75 9.109375 -9.703125 9.109375 -9.609375 C 9.109375 -9.515625 9.054688 -9.46875 8.953125 -9.46875 L 6.859375 -9.46875 C 6.765625 -9.34375 6.671875 -8.875 6.578125 -8.0625 C 6.484375 -7.257812 6.4375 -6.171875 6.4375 -4.796875 C 6.4375 -3.429688 6.484375 -2.335938 6.578125 -1.515625 C 6.671875 -0.691406 6.765625 -0.234375 6.859375 -0.140625 C 7.867188 -0.140625 8.769531 -0.441406 9.5625 -1.046875 C 10.363281 -1.648438 10.921875 -2.410156 11.234375 -3.328125 L 11.234375 -9.890625 C 11.234375 -11.222656 11.097656 -12.4375 10.828125 -13.53125 C 10.566406 -14.625 10.210938 -15.492188 9.765625 -16.140625 C 9.328125 -16.796875 8.828125 -17.125 8.265625 -17.125 C 7.523438 -17.125 6.789062 -16.941406 6.0625 -16.578125 C 5.34375 -16.222656 4.71875 -15.796875 4.1875 -15.296875 C 3.65625 -14.804688 3.316406 -14.34375 3.171875 -13.90625 C 3.148438 -13.851562 3.117188 -13.828125 3.078125 -13.828125 C 3.078125 -13.828125 3.0625 -13.828125 3.03125 -13.828125 C 3.007812 -13.828125 2.988281 -13.84375 2.96875 -13.875 L 2.0625 -14.625 C 2.082031 -14.625 2.082031 -14.625 2.0625 -14.625 C 2.0625 -14.625 2.0625 -14.640625 2.0625 -14.671875 C 2.03125 -14.710938 2.015625 -14.734375 2.015625 -14.734375 C 2.015625 -14.734375 2.03125 -14.75 2.0625 -14.78125 C 2.0625 -14.800781 2.0625 -14.8125 2.0625 -14.8125 C 2.0625 -14.8125 2.0625 -14.820312 2.0625 -14.84375 C 3.769531 -16.550781 5.835938 -17.40625 8.265625 -17.40625 C 9.640625 -17.40625 10.898438 -17.0625 12.046875 -16.375 C 13.191406 -15.695312 14.097656 -14.789062 14.765625 -13.65625 C 15.441406 -12.519531 15.78125 -11.265625 15.78125 -9.890625 L 15.78125 -2.890625 C 15.78125 -2.722656 15.847656 -2.578125 15.984375 -2.453125 C 16.117188 -2.335938 16.269531 -2.28125 16.4375 -2.28125 C 16.601562 -2.28125 16.742188 -2.335938 16.859375 -2.453125 C 16.984375 -2.578125 17.046875 -2.722656 17.046875 -2.890625 C 17.046875 -2.984375 17.097656 -3.03125 17.203125 -3.03125 Z M 17.203125 -3.03125 "/></g></g><g style="fill:#c24b79;fill-opacity:1;"><g transform="translate(317.400231, 227.634497)"><path style="stroke:none" d="M 19.296875 -3.03125 C 19.390625 -3.03125 19.4375 -2.984375 19.4375 -2.890625 C 19.4375 -2.066406 19.132812 -1.351562 18.53125 -0.75 C 17.925781 -0.15625 17.21875 0.140625 16.40625 0.140625 C 15.5625 0.140625 14.835938 -0.15625 14.234375 -0.75 C 13.628906 -1.351562 13.328125 -2.066406 13.328125 -2.890625 L 13.328125 -10.953125 C 13.328125 -12.804688 13.128906 -14.296875 12.734375 -15.421875 C 12.335938 -16.554688 11.910156 -17.125 11.453125 -17.125 C 10.660156 -17.125 9.921875 -16.984375 9.234375 -16.703125 C 8.546875 -16.429688 7.9375 -16.050781 7.40625 -15.5625 L 7.40625 -0.90625 C 7.40625 -0.6875 7.476562 -0.503906 7.625 -0.359375 C 7.769531 -0.210938 7.9375 -0.140625 8.125 -0.140625 C 8.21875 -0.140625 8.265625 -0.09375 8.265625 0 C 8.265625 0.09375 8.21875 0.140625 8.125 0.140625 L 2.09375 0.140625 C 2 0.140625 1.953125 0.09375 1.953125 0 C 1.953125 -0.09375 2 -0.140625 2.09375 -0.140625 C 2.289062 -0.140625 2.46875 -0.210938 2.625 -0.359375 C 2.78125 -0.503906 2.859375 -0.6875 2.859375 -0.90625 L 2.859375 -13.828125 C 2.859375 -13.972656 2.804688 -14.070312 2.703125 -14.125 C 2.585938 -14.175781 2.410156 -14.113281 2.171875 -13.9375 C 2.097656 -13.894531 2.035156 -13.910156 1.984375 -13.984375 C 1.910156 -14.054688 1.921875 -14.128906 2.015625 -14.203125 L 2.890625 -14.8125 C 2.890625 -14.832031 2.890625 -14.84375 2.890625 -14.84375 L 7.15625 -17.921875 C 7.195312 -17.960938 7.242188 -17.972656 7.296875 -17.953125 C 7.367188 -17.929688 7.40625 -17.882812 7.40625 -17.8125 L 7.40625 -15.96875 C 7.957031 -16.40625 8.578125 -16.75 9.265625 -17 C 9.953125 -17.25 10.679688 -17.375 11.453125 -17.375 C 12.628906 -17.375 13.703125 -17.082031 14.671875 -16.5 C 15.648438 -15.925781 16.425781 -15.148438 17 -14.171875 C 17.582031 -13.203125 17.875 -12.128906 17.875 -10.953125 L 17.875 -8.53125 L 17.921875 -2.921875 C 17.921875 -2.734375 17.976562 -2.578125 18.09375 -2.453125 C 18.21875 -2.335938 18.363281 -2.28125 18.53125 -2.28125 C 18.695312 -2.28125 18.835938 -2.335938 18.953125 -2.453125 C 19.078125 -2.578125 19.140625 -2.722656 19.140625 -2.890625 C 19.140625 -2.984375 19.191406 -3.03125 19.296875 -3.03125 Z M 19.296875 -3.03125 "/></g></g><g style="fill:#c24b79;fill-opacity:1;"><g transform="translate(337.481401, 227.634497)"><path style="stroke:none" d="M 16.515625 -2.640625 C 16.585938 -2.679688 16.644531 -2.679688 16.6875 -2.640625 C 16.757812 -2.566406 16.757812 -2.492188 16.6875 -2.421875 C 14.976562 -0.710938 12.921875 0.140625 10.515625 0.140625 C 8.078125 0.140625 6.003906 -0.710938 4.296875 -2.421875 C 3.160156 -3.578125 2.398438 -4.898438 2.015625 -6.390625 C 1.628906 -7.890625 1.628906 -9.382812 2.015625 -10.875 C 2.398438 -12.363281 3.160156 -13.6875 4.296875 -14.84375 C 5.429688 -15.976562 6.75 -16.734375 8.25 -17.109375 C 9.757812 -17.484375 11.257812 -17.484375 12.75 -17.109375 C 14.238281 -16.734375 15.550781 -15.976562 16.6875 -14.84375 C 16.757812 -14.769531 16.757812 -14.695312 16.6875 -14.625 L 13.6875 -11.625 C 13.613281 -11.5625 13.539062 -11.5625 13.46875 -11.625 C 12.382812 -12.71875 11.253906 -13.582031 10.078125 -14.21875 C 8.898438 -14.851562 7.8125 -15.21875 6.8125 -15.3125 C 5.8125 -15.414062 5.035156 -15.1875 4.484375 -14.625 C 3.953125 -14.070312 3.726562 -13.300781 3.8125 -12.3125 C 3.894531 -11.332031 4.253906 -10.25 4.890625 -9.0625 C 5.535156 -7.882812 6.410156 -6.742188 7.515625 -5.640625 C 9.171875 -3.972656 10.894531 -2.851562 12.6875 -2.28125 C 14.414062 -1.695312 15.691406 -1.816406 16.515625 -2.640625 Z M 16.515625 -2.640625 "/></g></g><g style="fill:#c24b79;fill-opacity:1;"><g transform="translate(354.312014, 227.634497)"><path style="stroke:none" d="M 16.515625 -2.640625 C 16.585938 -2.679688 16.644531 -2.679688 16.6875 -2.640625 C 16.757812 -2.566406 16.757812 -2.492188 16.6875 -2.421875 C 14.976562 -0.710938 12.921875 0.140625 10.515625 0.140625 C 8.078125 0.140625 6.003906 -0.710938 4.296875 -2.421875 C 3.160156 -3.578125 2.398438 -4.898438 2.015625 -6.390625 C 1.628906 -7.890625 1.628906 -9.382812 2.015625 -10.875 C 2.398438 -12.363281 3.160156 -13.6875 4.296875 -14.84375 C 5.429688 -15.976562 6.75 -16.734375 8.25 -17.109375 C 9.757812 -17.484375 11.257812 -17.484375 12.75 -17.109375 C 14.238281 -16.734375 15.550781 -15.976562 16.6875 -14.84375 C 16.757812 -14.769531 16.757812 -14.695312 16.6875 -14.625 L 9 -6.9375 C 8.96875 -6.914062 8.929688 -6.90625 8.890625 -6.90625 C 8.859375 -6.90625 8.832031 -6.914062 8.8125 -6.9375 C 8.738281 -7.007812 8.738281 -7.066406 8.8125 -7.109375 L 13.40625 -11.703125 C 11.738281 -13.335938 10.039062 -14.429688 8.3125 -14.984375 C 6.570312 -15.566406 5.296875 -15.445312 4.484375 -14.625 C 3.953125 -14.070312 3.726562 -13.300781 3.8125 -12.3125 C 3.894531 -11.332031 4.253906 -10.25 4.890625 -9.0625 C 5.535156 -7.882812 6.410156 -6.742188 7.515625 -5.640625 C 9.171875 -3.972656 10.894531 -2.851562 12.6875 -2.28125 C 14.414062 -1.695312 15.691406 -1.816406 16.515625 -2.640625 Z M 16.515625 -2.640625 "/></g></g><path style="fill:none;stroke-width:2;stroke-linecap:butt;stroke-linejoin:miter;stroke:#c24b79;stroke-opacity:1;stroke-miterlimit:4;" d="M 0.000319084 0.998985 L 358.026299 0.998985 " transform="matrix(0.657021,0,0,0.657021,131.648228,237.820208)"/><g style="fill:#ffcccc;fill-opacity:1;"><g transform="translate(145.619947, 257.842956)"><path style="stroke:none" d="M 8.3125 -6.125 C 8.25 -5.851562 8.148438 -5.613281 8.015625 -5.40625 C 7.890625 -5.207031 7.734375 -5.035156 7.546875 -4.890625 C 7.367188 -4.742188 7.175781 -4.625 6.96875 -4.53125 C 6.757812 -4.4375 6.554688 -4.367188 6.359375 -4.328125 C 6.597656 -4.265625 6.820312 -4.175781 7.03125 -4.0625 C 7.25 -3.957031 7.4375 -3.816406 7.59375 -3.640625 C 7.757812 -3.460938 7.875 -3.253906 7.9375 -3.015625 C 8.007812 -2.773438 8.015625 -2.492188 7.953125 -2.171875 C 7.890625 -1.847656 7.773438 -1.566406 7.609375 -1.328125 C 7.453125 -1.085938 7.257812 -0.878906 7.03125 -0.703125 C 6.800781 -0.535156 6.546875 -0.398438 6.265625 -0.296875 C 5.992188 -0.203125 5.710938 -0.128906 5.421875 -0.078125 C 5.140625 -0.0234375 4.851562 0 4.5625 0 L 0.640625 0 L 0.703125 -0.390625 L 1.328125 -0.390625 C 1.503906 -0.390625 1.632812 -0.441406 1.71875 -0.546875 C 1.8125 -0.648438 1.875 -0.789062 1.90625 -0.96875 L 2.984375 -7.109375 C 3.003906 -7.273438 2.992188 -7.410156 2.953125 -7.515625 C 2.910156 -7.617188 2.8125 -7.671875 2.65625 -7.671875 L 1.984375 -7.671875 L 2.0625 -8.078125 L 6.078125 -8.0625 C 6.628906 -8.0625 7.082031 -7.984375 7.4375 -7.828125 C 7.800781 -7.671875 8.054688 -7.445312 8.203125 -7.15625 C 8.347656 -6.863281 8.382812 -6.519531 8.3125 -6.125 Z M 7.375 -6.078125 C 7.488281 -6.609375 7.390625 -7.007812 7.078125 -7.28125 C 6.765625 -7.5625 6.273438 -7.703125 5.609375 -7.703125 L 3.9375 -7.703125 L 3.390625 -4.515625 L 5.15625 -4.515625 C 5.8125 -4.515625 6.316406 -4.640625 6.671875 -4.890625 C 7.023438 -5.140625 7.257812 -5.535156 7.375 -6.078125 Z M 7.03125 -2.234375 C 7.125 -2.691406 7.097656 -3.054688 6.953125 -3.328125 C 6.804688 -3.597656 6.566406 -3.796875 6.234375 -3.921875 C 5.898438 -4.046875 5.503906 -4.109375 5.046875 -4.109375 L 3.3125 -4.109375 L 2.765625 -0.953125 C 2.742188 -0.867188 2.738281 -0.785156 2.75 -0.703125 C 2.757812 -0.617188 2.789062 -0.546875 2.84375 -0.484375 C 2.894531 -0.429688 2.972656 -0.40625 3.078125 -0.40625 L 4.578125 -0.40625 C 5.046875 -0.40625 5.453125 -0.484375 5.796875 -0.640625 C 6.140625 -0.804688 6.414062 -1.023438 6.625 -1.296875 C 6.832031 -1.578125 6.96875 -1.890625 7.03125 -2.234375 Z M 7.03125 -2.234375 "/></g></g><g style="fill:#ffcccc;fill-opacity:1;"><g transform="translate(154.721237, 257.842956)"><path style="stroke:none" d="M 0.75 2.796875 C 0.625 2.804688 0.53125 2.78125 0.46875 2.71875 C 0.40625 2.65625 0.378906 2.570312 0.390625 2.46875 C 0.410156 2.351562 0.46875 2.269531 0.5625 2.21875 C 0.65625 2.164062 0.738281 2.132812 0.8125 2.125 C 1.050781 2.070312 1.285156 1.988281 1.515625 1.875 C 1.742188 1.769531 1.96875 1.613281 2.1875 1.40625 C 2.40625 1.207031 2.628906 0.929688 2.859375 0.578125 L 3.1875 0.046875 L 1.53125 -4.234375 C 1.476562 -4.398438 1.414062 -4.515625 1.34375 -4.578125 C 1.28125 -4.640625 1.191406 -4.671875 1.078125 -4.671875 L 0.765625 -4.671875 L 0.828125 -5.046875 L 3.296875 -5.046875 L 3.234375 -4.671875 L 2.765625 -4.671875 C 2.585938 -4.671875 2.476562 -4.617188 2.4375 -4.515625 C 2.394531 -4.410156 2.398438 -4.285156 2.453125 -4.140625 L 3.734375 -0.78125 L 5.796875 -4.03125 C 5.910156 -4.21875 5.96875 -4.367188 5.96875 -4.484375 C 5.96875 -4.609375 5.875 -4.671875 5.6875 -4.671875 L 5.140625 -4.671875 L 5.203125 -5.046875 L 7.1875 -5.046875 L 7.109375 -4.671875 L 6.953125 -4.671875 C 6.835938 -4.671875 6.726562 -4.632812 6.625 -4.5625 C 6.519531 -4.488281 6.40625 -4.34375 6.28125 -4.125 L 3.140625 0.8125 C 2.859375 1.25 2.59375 1.601562 2.34375 1.875 C 2.09375 2.15625 1.835938 2.367188 1.578125 2.515625 C 1.316406 2.660156 1.039062 2.753906 0.75 2.796875 Z M 0.75 2.796875 "/></g></g><g style="fill:#ffcccc;fill-opacity:1;"><g transform="translate(161.73888, 257.842956)"><path style="stroke:none" d=""/></g></g><g style="fill:#ffcccc;fill-opacity:1;"><g transform="translate(165.365364, 257.842956)"><path style="stroke:none" d="M 0.640625 0 L 0.703125 -0.375 L 1.578125 -0.375 C 1.804688 -0.375 1.960938 -0.425781 2.046875 -0.53125 C 2.140625 -0.632812 2.207031 -0.773438 2.25 -0.953125 L 3.328125 -7.125 C 3.359375 -7.3125 3.34375 -7.453125 3.28125 -7.546875 C 3.226562 -7.648438 3.09375 -7.703125 2.875 -7.703125 L 1.984375 -7.703125 L 2.0625 -8.078125 L 5.796875 -8.078125 L 5.734375 -7.703125 L 4.859375 -7.703125 C 4.640625 -7.703125 4.476562 -7.65625 4.375 -7.5625 C 4.28125 -7.46875 4.21875 -7.320312 4.1875 -7.125 L 3.109375 -0.953125 C 3.066406 -0.753906 3.078125 -0.609375 3.140625 -0.515625 C 3.203125 -0.421875 3.34375 -0.375 3.5625 -0.375 L 4.4375 -0.375 L 4.375 0 Z M 0.640625 0 "/></g></g><g style="fill:#ffcccc;fill-opacity:1;"><g transform="translate(171.344166, 257.842956)"><path style="stroke:none" d="M 3.125 -3.078125 C 3.34375 -3.046875 3.5625 -3.007812 3.78125 -2.96875 C 4 -2.925781 4.203125 -2.867188 4.390625 -2.796875 C 4.578125 -2.722656 4.738281 -2.628906 4.875 -2.515625 C 5.007812 -2.410156 5.109375 -2.273438 5.171875 -2.109375 C 5.234375 -1.941406 5.242188 -1.734375 5.203125 -1.484375 C 5.148438 -1.210938 5.046875 -0.972656 4.890625 -0.765625 C 4.742188 -0.566406 4.554688 -0.394531 4.328125 -0.25 C 4.097656 -0.113281 3.84375 -0.015625 3.5625 0.046875 C 3.28125 0.117188 2.988281 0.15625 2.6875 0.15625 C 2.226562 0.15625 1.84375 0.09375 1.53125 -0.03125 C 1.21875 -0.164062 0.992188 -0.332031 0.859375 -0.53125 L 0.5625 0.15625 L 0.265625 0.15625 L 0.53125 -1.421875 L 0.890625 -1.421875 C 0.992188 -1.023438 1.210938 -0.726562 1.546875 -0.53125 C 1.878906 -0.332031 2.285156 -0.234375 2.765625 -0.234375 C 3.066406 -0.234375 3.34375 -0.273438 3.59375 -0.359375 C 3.851562 -0.441406 4.066406 -0.5625 4.234375 -0.71875 C 4.410156 -0.875 4.519531 -1.066406 4.5625 -1.296875 C 4.59375 -1.484375 4.566406 -1.632812 4.484375 -1.75 C 4.410156 -1.875 4.296875 -1.96875 4.140625 -2.03125 C 3.984375 -2.101562 3.800781 -2.160156 3.59375 -2.203125 C 3.394531 -2.242188 3.179688 -2.273438 2.953125 -2.296875 C 2.734375 -2.328125 2.515625 -2.363281 2.296875 -2.40625 C 2.085938 -2.445312 1.890625 -2.492188 1.703125 -2.546875 C 1.515625 -2.609375 1.351562 -2.691406 1.21875 -2.796875 C 1.082031 -2.898438 0.984375 -3.03125 0.921875 -3.1875 C 0.867188 -3.34375 0.863281 -3.53125 0.90625 -3.75 C 0.957031 -4.0625 1.082031 -4.320312 1.28125 -4.53125 C 1.488281 -4.75 1.757812 -4.914062 2.09375 -5.03125 C 2.425781 -5.144531 2.800781 -5.203125 3.21875 -5.203125 C 3.644531 -5.203125 4 -5.144531 4.28125 -5.03125 C 4.5625 -4.914062 4.773438 -4.765625 4.921875 -4.578125 L 5.171875 -5.203125 L 5.453125 -5.203125 L 5.203125 -3.6875 L 4.90625 -3.6875 C 4.84375 -4.03125 4.664062 -4.304688 4.375 -4.515625 C 4.082031 -4.722656 3.671875 -4.828125 3.140625 -4.828125 C 2.859375 -4.828125 2.601562 -4.789062 2.375 -4.71875 C 2.144531 -4.65625 1.957031 -4.5625 1.8125 -4.4375 C 1.664062 -4.3125 1.570312 -4.148438 1.53125 -3.953125 C 1.507812 -3.785156 1.53125 -3.648438 1.59375 -3.546875 C 1.664062 -3.453125 1.769531 -3.375 1.90625 -3.3125 C 2.050781 -3.25 2.226562 -3.203125 2.4375 -3.171875 C 2.644531 -3.140625 2.875 -3.109375 3.125 -3.078125 Z M 3.125 -3.078125 "/></g></g><g style="fill:#ffcccc;fill-opacity:1;"><g transform="translate(177.902087, 257.842956)"><path style="stroke:none" d="M 1.328125 0.125 C 1.046875 0.125 0.820312 0.078125 0.65625 -0.015625 C 0.5 -0.117188 0.390625 -0.253906 0.328125 -0.421875 C 0.273438 -0.597656 0.269531 -0.789062 0.3125 -1 C 0.351562 -1.269531 0.453125 -1.5 0.609375 -1.6875 C 0.773438 -1.875 0.972656 -2.039062 1.203125 -2.1875 C 1.441406 -2.332031 1.703125 -2.46875 1.984375 -2.59375 L 4.203125 -3.59375 C 4.234375 -3.914062 4.21875 -4.164062 4.15625 -4.34375 C 4.09375 -4.519531 3.976562 -4.644531 3.8125 -4.71875 C 3.65625 -4.789062 3.4375 -4.828125 3.15625 -4.828125 C 2.820312 -4.828125 2.550781 -4.78125 2.34375 -4.6875 C 2.132812 -4.59375 1.960938 -4.472656 1.828125 -4.328125 C 1.703125 -4.179688 1.597656 -4.035156 1.515625 -3.890625 C 1.472656 -3.785156 1.414062 -3.703125 1.34375 -3.640625 C 1.28125 -3.578125 1.195312 -3.550781 1.09375 -3.5625 C 0.976562 -3.570312 0.90625 -3.609375 0.875 -3.671875 C 0.84375 -3.742188 0.84375 -3.828125 0.875 -3.921875 C 0.9375 -4.078125 1.023438 -4.226562 1.140625 -4.375 C 1.265625 -4.519531 1.425781 -4.65625 1.625 -4.78125 C 1.820312 -4.90625 2.066406 -5.003906 2.359375 -5.078125 C 2.648438 -5.160156 2.988281 -5.203125 3.375 -5.203125 C 3.664062 -5.203125 3.925781 -5.175781 4.15625 -5.125 C 4.382812 -5.070312 4.566406 -4.976562 4.703125 -4.84375 C 4.847656 -4.71875 4.945312 -4.539062 5 -4.3125 C 5.050781 -4.082031 5.046875 -3.796875 4.984375 -3.453125 L 4.59375 -1.328125 C 4.53125 -0.984375 4.523438 -0.734375 4.578125 -0.578125 C 4.628906 -0.429688 4.738281 -0.359375 4.90625 -0.359375 C 5.039062 -0.359375 5.160156 -0.414062 5.265625 -0.53125 C 5.378906 -0.65625 5.460938 -0.851562 5.515625 -1.125 L 5.84375 -1.125 C 5.769531 -0.707031 5.617188 -0.398438 5.390625 -0.203125 C 5.160156 -0.00390625 4.890625 0.09375 4.578125 0.09375 C 4.253906 0.09375 4.035156 -0.00390625 3.921875 -0.203125 C 3.804688 -0.398438 3.765625 -0.695312 3.796875 -1.09375 C 3.410156 -0.726562 3.003906 -0.429688 2.578125 -0.203125 C 2.160156 0.015625 1.742188 0.125 1.328125 0.125 Z M 1.71875 -0.328125 C 2.03125 -0.328125 2.367188 -0.4375 2.734375 -0.65625 C 3.109375 -0.875 3.476562 -1.179688 3.84375 -1.578125 L 4.140625 -3.1875 L 2.109375 -2.203125 C 1.867188 -2.097656 1.679688 -1.988281 1.546875 -1.875 C 1.410156 -1.757812 1.304688 -1.640625 1.234375 -1.515625 C 1.171875 -1.390625 1.128906 -1.257812 1.109375 -1.125 C 1.066406 -0.875 1.09375 -0.675781 1.1875 -0.53125 C 1.289062 -0.394531 1.46875 -0.328125 1.71875 -0.328125 Z M 1.71875 -0.328125 "/></g></g><g style="fill:#ffcccc;fill-opacity:1;"><g transform="translate(184.979433, 257.842956)"><path style="stroke:none" d="M 3.0625 0.140625 C 2.707031 0.140625 2.378906 0.0664062 2.078125 -0.078125 C 1.785156 -0.222656 1.539062 -0.425781 1.34375 -0.6875 L 0.859375 0.046875 L 0.53125 0.046875 L 1.796875 -7.140625 C 1.828125 -7.304688 1.816406 -7.4375 1.765625 -7.53125 C 1.710938 -7.625 1.597656 -7.65625 1.421875 -7.625 L 0.8125 -7.484375 L 0.828125 -7.859375 L 2.796875 -8.28125 L 2.125 -4.484375 C 2.363281 -4.679688 2.644531 -4.847656 2.96875 -4.984375 C 3.289062 -5.128906 3.640625 -5.203125 4.015625 -5.203125 C 4.359375 -5.203125 4.664062 -5.132812 4.9375 -5 C 5.21875 -4.875 5.453125 -4.691406 5.640625 -4.453125 C 5.828125 -4.210938 5.957031 -3.925781 6.03125 -3.59375 C 6.101562 -3.269531 6.109375 -2.914062 6.046875 -2.53125 C 5.972656 -2.144531 5.84375 -1.785156 5.65625 -1.453125 C 5.46875 -1.128906 5.234375 -0.847656 4.953125 -0.609375 C 4.679688 -0.367188 4.378906 -0.179688 4.046875 -0.046875 C 3.722656 0.078125 3.394531 0.140625 3.0625 0.140625 Z M 2.953125 -0.3125 C 3.242188 -0.3125 3.515625 -0.375 3.765625 -0.5 C 4.015625 -0.632812 4.238281 -0.804688 4.4375 -1.015625 C 4.632812 -1.234375 4.796875 -1.472656 4.921875 -1.734375 C 5.054688 -1.992188 5.148438 -2.257812 5.203125 -2.53125 C 5.253906 -2.820312 5.257812 -3.097656 5.21875 -3.359375 C 5.175781 -3.628906 5.09375 -3.867188 4.96875 -4.078125 C 4.84375 -4.285156 4.675781 -4.445312 4.46875 -4.5625 C 4.257812 -4.6875 4.019531 -4.75 3.75 -4.75 C 3.53125 -4.75 3.316406 -4.710938 3.109375 -4.640625 C 2.898438 -4.578125 2.703125 -4.484375 2.515625 -4.359375 C 2.335938 -4.234375 2.175781 -4.097656 2.03125 -3.953125 L 1.546875 -1.140625 C 1.671875 -0.910156 1.851562 -0.710938 2.09375 -0.546875 C 2.34375 -0.390625 2.628906 -0.3125 2.953125 -0.3125 Z M 2.953125 -0.3125 "/></g></g><g style="fill:#ffcccc;fill-opacity:1;"><g transform="translate(192.116483, 257.842956)"><path style="stroke:none" d="M 2.5625 0.15625 C 2.207031 0.15625 1.890625 0.0859375 1.609375 -0.046875 C 1.328125 -0.179688 1.09375 -0.367188 0.90625 -0.609375 C 0.71875 -0.847656 0.585938 -1.128906 0.515625 -1.453125 C 0.453125 -1.785156 0.457031 -2.148438 0.53125 -2.546875 C 0.601562 -2.941406 0.726562 -3.300781 0.90625 -3.625 C 1.09375 -3.945312 1.316406 -4.226562 1.578125 -4.46875 C 1.847656 -4.707031 2.144531 -4.890625 2.46875 -5.015625 C 2.800781 -5.140625 3.140625 -5.203125 3.484375 -5.203125 C 3.796875 -5.203125 4.082031 -5.144531 4.34375 -5.03125 C 4.613281 -4.925781 4.84375 -4.765625 5.03125 -4.546875 C 5.226562 -4.328125 5.367188 -4.054688 5.453125 -3.734375 C 5.535156 -3.410156 5.539062 -3.035156 5.46875 -2.609375 L 1.375 -2.609375 C 1.320312 -2.316406 1.304688 -2.03125 1.328125 -1.75 C 1.359375 -1.46875 1.425781 -1.210938 1.53125 -0.984375 C 1.644531 -0.765625 1.804688 -0.585938 2.015625 -0.453125 C 2.234375 -0.328125 2.5 -0.265625 2.8125 -0.265625 C 3.1875 -0.265625 3.539062 -0.367188 3.875 -0.578125 C 4.21875 -0.785156 4.5 -1.0625 4.71875 -1.40625 L 5.03125 -1.234375 C 4.84375 -0.953125 4.617188 -0.707031 4.359375 -0.5 C 4.109375 -0.300781 3.832031 -0.140625 3.53125 -0.015625 C 3.226562 0.0976562 2.90625 0.15625 2.5625 0.15625 Z M 1.453125 -2.984375 L 4.765625 -2.984375 C 4.785156 -3.222656 4.773438 -3.453125 4.734375 -3.671875 C 4.691406 -3.890625 4.613281 -4.082031 4.5 -4.25 C 4.394531 -4.425781 4.253906 -4.5625 4.078125 -4.65625 C 3.898438 -4.757812 3.679688 -4.8125 3.421875 -4.8125 C 3.171875 -4.8125 2.941406 -4.757812 2.734375 -4.65625 C 2.523438 -4.5625 2.332031 -4.425781 2.15625 -4.25 C 1.988281 -4.070312 1.84375 -3.875 1.71875 -3.65625 C 1.601562 -3.445312 1.515625 -3.222656 1.453125 -2.984375 Z M 1.453125 -2.984375 "/></g></g><g style="fill:#ffcccc;fill-opacity:1;"><g transform="translate(198.644558, 257.842956)"><path style="stroke:none" d="M -0.3125 0 L -0.25 -0.375 L 0.34375 -0.375 C 0.519531 -0.375 0.644531 -0.421875 0.71875 -0.515625 C 0.800781 -0.609375 0.859375 -0.738281 0.890625 -0.90625 L 2 -7.140625 C 2.03125 -7.304688 2.015625 -7.4375 1.953125 -7.53125 C 1.898438 -7.625 1.78125 -7.65625 1.59375 -7.625 L 1 -7.484375 L 1.015625 -7.859375 L 3 -8.28125 L 1.703125 -0.90625 C 1.671875 -0.757812 1.675781 -0.632812 1.71875 -0.53125 C 1.757812 -0.425781 1.847656 -0.375 1.984375 -0.375 L 2.65625 -0.375 L 2.59375 0 Z M -0.3125 0 "/></g></g><g style="fill:#ffcccc;fill-opacity:1;"><g transform="translate(202.718813, 257.842956)"><path style="stroke:none" d="M -0.3125 0 L -0.25 -0.375 L 0.34375 -0.375 C 0.519531 -0.375 0.644531 -0.421875 0.71875 -0.515625 C 0.800781 -0.609375 0.859375 -0.738281 0.890625 -0.90625 L 2 -7.140625 C 2.03125 -7.304688 2.015625 -7.4375 1.953125 -7.53125 C 1.898438 -7.625 1.78125 -7.65625 1.59375 -7.625 L 1 -7.484375 L 1.015625 -7.859375 L 3 -8.28125 L 1.703125 -0.90625 C 1.671875 -0.757812 1.675781 -0.632812 1.71875 -0.53125 C 1.757812 -0.425781 1.847656 -0.375 1.984375 -0.375 L 2.65625 -0.375 L 2.59375 0 Z M -0.3125 0 "/></g></g><g style="fill:#ffcccc;fill-opacity:1;"><g transform="translate(206.793068, 257.842956)"><path style="stroke:none" d="M 1.328125 0.125 C 1.046875 0.125 0.820312 0.078125 0.65625 -0.015625 C 0.5 -0.117188 0.390625 -0.253906 0.328125 -0.421875 C 0.273438 -0.597656 0.269531 -0.789062 0.3125 -1 C 0.351562 -1.269531 0.453125 -1.5 0.609375 -1.6875 C 0.773438 -1.875 0.972656 -2.039062 1.203125 -2.1875 C 1.441406 -2.332031 1.703125 -2.46875 1.984375 -2.59375 L 4.203125 -3.59375 C 4.234375 -3.914062 4.21875 -4.164062 4.15625 -4.34375 C 4.09375 -4.519531 3.976562 -4.644531 3.8125 -4.71875 C 3.65625 -4.789062 3.4375 -4.828125 3.15625 -4.828125 C 2.820312 -4.828125 2.550781 -4.78125 2.34375 -4.6875 C 2.132812 -4.59375 1.960938 -4.472656 1.828125 -4.328125 C 1.703125 -4.179688 1.597656 -4.035156 1.515625 -3.890625 C 1.472656 -3.785156 1.414062 -3.703125 1.34375 -3.640625 C 1.28125 -3.578125 1.195312 -3.550781 1.09375 -3.5625 C 0.976562 -3.570312 0.90625 -3.609375 0.875 -3.671875 C 0.84375 -3.742188 0.84375 -3.828125 0.875 -3.921875 C 0.9375 -4.078125 1.023438 -4.226562 1.140625 -4.375 C 1.265625 -4.519531 1.425781 -4.65625 1.625 -4.78125 C 1.820312 -4.90625 2.066406 -5.003906 2.359375 -5.078125 C 2.648438 -5.160156 2.988281 -5.203125 3.375 -5.203125 C 3.664062 -5.203125 3.925781 -5.175781 4.15625 -5.125 C 4.382812 -5.070312 4.566406 -4.976562 4.703125 -4.84375 C 4.847656 -4.71875 4.945312 -4.539062 5 -4.3125 C 5.050781 -4.082031 5.046875 -3.796875 4.984375 -3.453125 L 4.59375 -1.328125 C 4.53125 -0.984375 4.523438 -0.734375 4.578125 -0.578125 C 4.628906 -0.429688 4.738281 -0.359375 4.90625 -0.359375 C 5.039062 -0.359375 5.160156 -0.414062 5.265625 -0.53125 C 5.378906 -0.65625 5.460938 -0.851562 5.515625 -1.125 L 5.84375 -1.125 C 5.769531 -0.707031 5.617188 -0.398438 5.390625 -0.203125 C 5.160156 -0.00390625 4.890625 0.09375 4.578125 0.09375 C 4.253906 0.09375 4.035156 -0.00390625 3.921875 -0.203125 C 3.804688 -0.398438 3.765625 -0.695312 3.796875 -1.09375 C 3.410156 -0.726562 3.003906 -0.429688 2.578125 -0.203125 C 2.160156 0.015625 1.742188 0.125 1.328125 0.125 Z M 1.71875 -0.328125 C 2.03125 -0.328125 2.367188 -0.4375 2.734375 -0.65625 C 3.109375 -0.875 3.476562 -1.179688 3.84375 -1.578125 L 4.140625 -3.1875 L 2.109375 -2.203125 C 1.867188 -2.097656 1.679688 -1.988281 1.546875 -1.875 C 1.410156 -1.757812 1.304688 -1.640625 1.234375 -1.515625 C 1.171875 -1.390625 1.128906 -1.257812 1.109375 -1.125 C 1.066406 -0.875 1.09375 -0.675781 1.1875 -0.53125 C 1.289062 -0.394531 1.46875 -0.328125 1.71875 -0.328125 Z M 1.71875 -0.328125 "/></g></g><g style="fill:#ffcccc;fill-opacity:1;"><g transform="translate(213.870414, 257.842956)"><path style="stroke:none" d=""/></g></g><g style="fill:#ffcccc;fill-opacity:1;"><g transform="translate(217.496898, 257.842956)"><path style="stroke:none" d="M 8.53125 -5.984375 L 8.15625 -5.96875 L 8.21875 -7.15625 C 8.207031 -7.375 8.148438 -7.515625 8.046875 -7.578125 C 7.953125 -7.640625 7.8125 -7.671875 7.625 -7.671875 L 4.0625 -7.671875 L 3.484375 -4.4375 L 5.828125 -4.4375 C 5.972656 -4.4375 6.101562 -4.46875 6.21875 -4.53125 C 6.34375 -4.59375 6.414062 -4.703125 6.4375 -4.859375 L 6.5625 -5.578125 L 6.953125 -5.578125 L 6.46875 -2.828125 L 6.078125 -2.828125 L 6.21875 -3.5625 C 6.25 -3.75 6.21875 -3.875 6.125 -3.9375 C 6.03125 -4 5.910156 -4.03125 5.765625 -4.03125 L 3.421875 -4.03125 L 2.890625 -1.03125 C 2.847656 -0.84375 2.847656 -0.691406 2.890625 -0.578125 C 2.941406 -0.460938 3.078125 -0.40625 3.296875 -0.40625 L 6.5 -0.40625 C 6.769531 -0.40625 6.96875 -0.445312 7.09375 -0.53125 C 7.226562 -0.625 7.332031 -0.757812 7.40625 -0.9375 L 7.96875 -2.671875 L 8.34375 -2.65625 L 7.6875 0 L 0.640625 0 L 0.703125 -0.375 L 1.40625 -0.375 C 1.601562 -0.375 1.742188 -0.425781 1.828125 -0.53125 C 1.921875 -0.644531 1.984375 -0.785156 2.015625 -0.953125 L 3.09375 -7.125 C 3.125 -7.3125 3.109375 -7.453125 3.046875 -7.546875 C 2.992188 -7.640625 2.863281 -7.6875 2.65625 -7.6875 L 1.984375 -7.6875 L 2.0625 -8.078125 L 8.78125 -8.078125 Z M 8.53125 -5.984375 "/></g></g><g style="fill:#ffcccc;fill-opacity:1;"><g transform="translate(227.04597, 257.842956)"><path style="stroke:none" d="M -0.3125 0 L -0.25 -0.375 L 0.328125 -0.375 C 0.515625 -0.375 0.644531 -0.421875 0.71875 -0.515625 C 0.800781 -0.609375 0.859375 -0.738281 0.890625 -0.90625 L 2 -7.125 C 2.019531 -7.289062 2.003906 -7.421875 1.953125 -7.515625 C 1.898438 -7.609375 1.785156 -7.640625 1.609375 -7.609375 L 1.015625 -7.46875 L 1.015625 -7.84375 L 3 -8.28125 L 2.171875 -3.609375 C 2.328125 -3.816406 2.5 -4.015625 2.6875 -4.203125 C 2.875 -4.398438 3.070312 -4.570312 3.28125 -4.71875 C 3.488281 -4.863281 3.703125 -4.976562 3.921875 -5.0625 C 4.148438 -5.15625 4.375 -5.203125 4.59375 -5.203125 C 5.144531 -5.203125 5.53125 -5.050781 5.75 -4.75 C 5.976562 -4.445312 6.035156 -3.96875 5.921875 -3.3125 L 5.515625 -0.90625 C 5.441406 -0.550781 5.554688 -0.375 5.859375 -0.375 L 6.421875 -0.375 L 6.359375 0 L 3.484375 0 L 3.546875 -0.375 L 4.1875 -0.375 C 4.34375 -0.375 4.460938 -0.421875 4.546875 -0.515625 C 4.628906 -0.617188 4.679688 -0.75 4.703125 -0.90625 L 5.125 -3.296875 C 5.207031 -3.773438 5.1875 -4.128906 5.0625 -4.359375 C 4.9375 -4.585938 4.671875 -4.703125 4.265625 -4.703125 C 4.046875 -4.703125 3.828125 -4.644531 3.609375 -4.53125 C 3.390625 -4.414062 3.179688 -4.265625 2.984375 -4.078125 C 2.785156 -3.890625 2.601562 -3.6875 2.4375 -3.46875 C 2.28125 -3.25 2.144531 -3.039062 2.03125 -2.84375 L 1.703125 -0.90625 C 1.671875 -0.757812 1.675781 -0.632812 1.71875 -0.53125 C 1.769531 -0.425781 1.863281 -0.375 2 -0.375 L 2.640625 -0.375 L 2.578125 0 Z M -0.3125 0 "/></g></g><g style="fill:#ffcccc;fill-opacity:1;"><g transform="translate(234.869605, 257.842956)"><path style="stroke:none" d="M 2.734375 -6.890625 C 2.609375 -6.890625 2.503906 -6.921875 2.421875 -6.984375 C 2.347656 -7.054688 2.296875 -7.144531 2.265625 -7.25 C 2.234375 -7.351562 2.226562 -7.457031 2.25 -7.5625 C 2.28125 -7.71875 2.359375 -7.84375 2.484375 -7.9375 C 2.617188 -8.039062 2.765625 -8.09375 2.921875 -8.09375 C 3.085938 -8.09375 3.21875 -8.023438 3.3125 -7.890625 C 3.40625 -7.753906 3.4375 -7.597656 3.40625 -7.421875 C 3.375 -7.253906 3.289062 -7.125 3.15625 -7.03125 C 3.019531 -6.9375 2.878906 -6.890625 2.734375 -6.890625 Z M -0.125 0 L -0.046875 -0.375 L 0.546875 -0.375 C 0.722656 -0.375 0.859375 -0.421875 0.953125 -0.515625 C 1.046875 -0.617188 1.109375 -0.757812 1.140625 -0.9375 L 1.765625 -4.140625 C 1.796875 -4.328125 1.785156 -4.457031 1.734375 -4.53125 C 1.679688 -4.601562 1.5625 -4.625 1.375 -4.59375 L 0.75 -4.4375 L 0.765625 -4.828125 L 2.78125 -5.25 L 1.9375 -0.859375 C 1.90625 -0.703125 1.90625 -0.582031 1.9375 -0.5 C 1.976562 -0.414062 2.085938 -0.375 2.265625 -0.375 L 2.78125 -0.375 L 2.703125 0 Z M -0.125 0 "/></g></g><g style="fill:#ffcccc;fill-opacity:1;"><g transform="translate(238.896097, 257.842956)"><path style="stroke:none" d="M 5.640625 -5.046875 L 5.5625 -4.5625 L 1.046875 -0.375 L 3.8125 -0.375 C 3.9375 -0.375 4.050781 -0.40625 4.15625 -0.46875 C 4.257812 -0.53125 4.351562 -0.660156 4.4375 -0.859375 L 4.71875 -1.65625 L 5.09375 -1.640625 L 4.640625 0 L 0.0625 0 L 0.140625 -0.5 L 4.65625 -4.671875 L 2.03125 -4.671875 C 1.90625 -4.671875 1.800781 -4.640625 1.71875 -4.578125 C 1.632812 -4.523438 1.550781 -4.40625 1.46875 -4.21875 L 1.203125 -3.46875 L 0.828125 -3.5 L 1.28125 -5.046875 Z M 5.640625 -5.046875 "/></g></g><g style="fill:#ffcccc;fill-opacity:1;"><g transform="translate(245.370433, 257.842956)"><path style="stroke:none" d="M 2.640625 0.15625 C 2.523438 0.15625 2.378906 0.140625 2.203125 0.109375 C 2.035156 0.078125 1.859375 0.0234375 1.671875 -0.046875 C 1.492188 -0.117188 1.320312 -0.21875 1.15625 -0.34375 C 0.988281 -0.46875 0.84375 -0.628906 0.71875 -0.828125 C 0.601562 -1.023438 0.523438 -1.265625 0.484375 -1.546875 C 0.441406 -1.828125 0.453125 -2.15625 0.515625 -2.53125 C 0.585938 -2.925781 0.703125 -3.269531 0.859375 -3.5625 C 1.015625 -3.851562 1.203125 -4.101562 1.421875 -4.3125 C 1.640625 -4.519531 1.875 -4.6875 2.125 -4.8125 C 2.375 -4.945312 2.625 -5.046875 2.875 -5.109375 C 3.125 -5.171875 3.363281 -5.203125 3.59375 -5.203125 C 3.800781 -5.203125 4.019531 -5.171875 4.25 -5.109375 C 4.476562 -5.054688 4.691406 -4.960938 4.890625 -4.828125 C 5.097656 -4.703125 5.273438 -4.535156 5.421875 -4.328125 C 5.578125 -4.117188 5.679688 -3.863281 5.734375 -3.5625 C 5.796875 -3.269531 5.789062 -2.925781 5.71875 -2.53125 C 5.644531 -2.113281 5.519531 -1.75 5.34375 -1.4375 C 5.175781 -1.125 4.972656 -0.863281 4.734375 -0.65625 C 4.503906 -0.457031 4.265625 -0.296875 4.015625 -0.171875 C 3.765625 -0.0546875 3.519531 0.0234375 3.28125 0.078125 C 3.039062 0.128906 2.828125 0.15625 2.640625 0.15625 Z M 2.71875 -0.234375 C 2.90625 -0.234375 3.109375 -0.273438 3.328125 -0.359375 C 3.546875 -0.453125 3.757812 -0.585938 3.96875 -0.765625 C 4.175781 -0.953125 4.359375 -1.191406 4.515625 -1.484375 C 4.679688 -1.773438 4.800781 -2.125 4.875 -2.53125 C 4.96875 -3.007812 4.960938 -3.421875 4.859375 -3.765625 C 4.765625 -4.109375 4.597656 -4.367188 4.359375 -4.546875 C 4.128906 -4.722656 3.851562 -4.8125 3.53125 -4.8125 C 3.207031 -4.8125 2.894531 -4.71875 2.59375 -4.53125 C 2.289062 -4.351562 2.03125 -4.097656 1.8125 -3.765625 C 1.59375 -3.429688 1.441406 -3.03125 1.359375 -2.5625 C 1.285156 -2.144531 1.273438 -1.789062 1.328125 -1.5 C 1.390625 -1.207031 1.492188 -0.96875 1.640625 -0.78125 C 1.785156 -0.59375 1.953125 -0.453125 2.140625 -0.359375 C 2.335938 -0.273438 2.53125 -0.234375 2.71875 -0.234375 Z M 2.71875 -0.234375 "/></g></g><g style="fill:#ffcccc;fill-opacity:1;"><g transform="translate(252.214931, 257.842956)"><path style="stroke:none" d="M 0.0625 0 L 0.125 -0.375 L 0.703125 -0.375 C 0.890625 -0.375 1.019531 -0.421875 1.09375 -0.515625 C 1.175781 -0.609375 1.234375 -0.738281 1.265625 -0.90625 L 1.828125 -4.0625 C 1.859375 -4.226562 1.84375 -4.359375 1.78125 -4.453125 C 1.726562 -4.546875 1.613281 -4.578125 1.4375 -4.546875 L 0.84375 -4.40625 L 0.859375 -4.78125 L 2.828125 -5.21875 L 2.546875 -3.609375 C 2.710938 -3.816406 2.894531 -4.015625 3.09375 -4.203125 C 3.289062 -4.398438 3.5 -4.570312 3.71875 -4.71875 C 3.945312 -4.863281 4.175781 -4.976562 4.40625 -5.0625 C 4.632812 -5.15625 4.859375 -5.203125 5.078125 -5.203125 C 5.578125 -5.203125 5.9375 -5.078125 6.15625 -4.828125 C 6.382812 -4.585938 6.476562 -4.191406 6.4375 -3.640625 C 6.601562 -3.847656 6.785156 -4.046875 6.984375 -4.234375 C 7.179688 -4.421875 7.390625 -4.585938 7.609375 -4.734375 C 7.835938 -4.878906 8.066406 -4.992188 8.296875 -5.078125 C 8.535156 -5.160156 8.765625 -5.203125 8.984375 -5.203125 C 9.535156 -5.203125 9.921875 -5.050781 10.140625 -4.75 C 10.367188 -4.445312 10.425781 -3.96875 10.3125 -3.3125 L 9.90625 -0.90625 C 9.863281 -0.738281 9.867188 -0.609375 9.921875 -0.515625 C 9.984375 -0.421875 10.09375 -0.375 10.25 -0.375 L 10.8125 -0.375 L 10.75 0 L 7.859375 0 L 7.921875 -0.375 L 8.578125 -0.375 C 8.734375 -0.375 8.847656 -0.421875 8.921875 -0.515625 C 9.003906 -0.617188 9.0625 -0.75 9.09375 -0.90625 L 9.515625 -3.296875 C 9.597656 -3.773438 9.578125 -4.128906 9.453125 -4.359375 C 9.328125 -4.585938 9.0625 -4.703125 8.65625 -4.703125 C 8.4375 -4.703125 8.21875 -4.648438 8 -4.546875 C 7.78125 -4.441406 7.566406 -4.300781 7.359375 -4.125 C 7.148438 -3.945312 6.957031 -3.753906 6.78125 -3.546875 C 6.613281 -3.347656 6.472656 -3.148438 6.359375 -2.953125 L 6 -0.90625 C 5.925781 -0.550781 6.039062 -0.375 6.34375 -0.375 L 6.921875 -0.375 L 6.859375 0 L 3.96875 0 L 4.03125 -0.375 L 4.6875 -0.375 C 4.84375 -0.375 4.957031 -0.421875 5.03125 -0.515625 C 5.113281 -0.617188 5.171875 -0.75 5.203125 -0.90625 L 5.625 -3.296875 C 5.707031 -3.773438 5.6875 -4.128906 5.5625 -4.359375 C 5.4375 -4.585938 5.164062 -4.703125 4.75 -4.703125 C 4.53125 -4.703125 4.300781 -4.644531 4.0625 -4.53125 C 3.832031 -4.414062 3.613281 -4.265625 3.40625 -4.078125 C 3.195312 -3.890625 3.003906 -3.6875 2.828125 -3.46875 C 2.660156 -3.25 2.519531 -3.039062 2.40625 -2.84375 L 2.078125 -0.90625 C 2.046875 -0.757812 2.050781 -0.632812 2.09375 -0.53125 C 2.132812 -0.425781 2.226562 -0.375 2.375 -0.375 L 3.046875 -0.375 L 2.984375 0 Z M 0.0625 0 "/></g></g><g style="fill:#ffcccc;fill-opacity:1;"><g transform="translate(264.426779, 257.842956)"><path style="stroke:none" d="M 2.640625 0.15625 C 2.523438 0.15625 2.378906 0.140625 2.203125 0.109375 C 2.035156 0.078125 1.859375 0.0234375 1.671875 -0.046875 C 1.492188 -0.117188 1.320312 -0.21875 1.15625 -0.34375 C 0.988281 -0.46875 0.84375 -0.628906 0.71875 -0.828125 C 0.601562 -1.023438 0.523438 -1.265625 0.484375 -1.546875 C 0.441406 -1.828125 0.453125 -2.15625 0.515625 -2.53125 C 0.585938 -2.925781 0.703125 -3.269531 0.859375 -3.5625 C 1.015625 -3.851562 1.203125 -4.101562 1.421875 -4.3125 C 1.640625 -4.519531 1.875 -4.6875 2.125 -4.8125 C 2.375 -4.945312 2.625 -5.046875 2.875 -5.109375 C 3.125 -5.171875 3.363281 -5.203125 3.59375 -5.203125 C 3.800781 -5.203125 4.019531 -5.171875 4.25 -5.109375 C 4.476562 -5.054688 4.691406 -4.960938 4.890625 -4.828125 C 5.097656 -4.703125 5.273438 -4.535156 5.421875 -4.328125 C 5.578125 -4.117188 5.679688 -3.863281 5.734375 -3.5625 C 5.796875 -3.269531 5.789062 -2.925781 5.71875 -2.53125 C 5.644531 -2.113281 5.519531 -1.75 5.34375 -1.4375 C 5.175781 -1.125 4.972656 -0.863281 4.734375 -0.65625 C 4.503906 -0.457031 4.265625 -0.296875 4.015625 -0.171875 C 3.765625 -0.0546875 3.519531 0.0234375 3.28125 0.078125 C 3.039062 0.128906 2.828125 0.15625 2.640625 0.15625 Z M 2.71875 -0.234375 C 2.90625 -0.234375 3.109375 -0.273438 3.328125 -0.359375 C 3.546875 -0.453125 3.757812 -0.585938 3.96875 -0.765625 C 4.175781 -0.953125 4.359375 -1.191406 4.515625 -1.484375 C 4.679688 -1.773438 4.800781 -2.125 4.875 -2.53125 C 4.96875 -3.007812 4.960938 -3.421875 4.859375 -3.765625 C 4.765625 -4.109375 4.597656 -4.367188 4.359375 -4.546875 C 4.128906 -4.722656 3.851562 -4.8125 3.53125 -4.8125 C 3.207031 -4.8125 2.894531 -4.71875 2.59375 -4.53125 C 2.289062 -4.351562 2.03125 -4.097656 1.8125 -3.765625 C 1.59375 -3.429688 1.441406 -3.03125 1.359375 -2.5625 C 1.285156 -2.144531 1.273438 -1.789062 1.328125 -1.5 C 1.390625 -1.207031 1.492188 -0.96875 1.640625 -0.78125 C 1.785156 -0.59375 1.953125 -0.453125 2.140625 -0.359375 C 2.335938 -0.273438 2.53125 -0.234375 2.71875 -0.234375 Z M 2.71875 -0.234375 "/></g></g><g style="fill:#ffcccc;fill-opacity:1;"><g transform="translate(271.271277, 257.842956)"><path style="stroke:none" d="M -0.3125 0 L -0.25 -0.375 L 0.328125 -0.375 C 0.515625 -0.375 0.644531 -0.421875 0.71875 -0.515625 C 0.800781 -0.609375 0.859375 -0.738281 0.890625 -0.90625 L 2 -7.125 C 2.019531 -7.289062 2.003906 -7.421875 1.953125 -7.515625 C 1.898438 -7.609375 1.785156 -7.640625 1.609375 -7.609375 L 1.015625 -7.46875 L 1.015625 -7.84375 L 3 -8.28125 L 2.171875 -3.609375 C 2.328125 -3.816406 2.5 -4.015625 2.6875 -4.203125 C 2.875 -4.398438 3.070312 -4.570312 3.28125 -4.71875 C 3.488281 -4.863281 3.703125 -4.976562 3.921875 -5.0625 C 4.148438 -5.15625 4.375 -5.203125 4.59375 -5.203125 C 5.144531 -5.203125 5.53125 -5.050781 5.75 -4.75 C 5.976562 -4.445312 6.035156 -3.96875 5.921875 -3.3125 L 5.515625 -0.90625 C 5.441406 -0.550781 5.554688 -0.375 5.859375 -0.375 L 6.421875 -0.375 L 6.359375 0 L 3.484375 0 L 3.546875 -0.375 L 4.1875 -0.375 C 4.34375 -0.375 4.460938 -0.421875 4.546875 -0.515625 C 4.628906 -0.617188 4.679688 -0.75 4.703125 -0.90625 L 5.125 -3.296875 C 5.207031 -3.773438 5.1875 -4.128906 5.0625 -4.359375 C 4.9375 -4.585938 4.671875 -4.703125 4.265625 -4.703125 C 4.046875 -4.703125 3.828125 -4.644531 3.609375 -4.53125 C 3.390625 -4.414062 3.179688 -4.265625 2.984375 -4.078125 C 2.785156 -3.890625 2.601562 -3.6875 2.4375 -3.46875 C 2.28125 -3.25 2.144531 -3.039062 2.03125 -2.84375 L 1.703125 -0.90625 C 1.671875 -0.757812 1.675781 -0.632812 1.71875 -0.53125 C 1.769531 -0.425781 1.863281 -0.375 2 -0.375 L 2.640625 -0.375 L 2.578125 0 Z M -0.3125 0 "/></g></g><g style="fill:#ffcccc;fill-opacity:1;"><g transform="translate(279.094912, 257.842956)"><path style="stroke:none" d=""/></g></g><g style="fill:#ffcccc;fill-opacity:1;"><g transform="translate(282.721396, 257.842956)"><path style="stroke:none" d="M 0.640625 0 L 0.703125 -0.375 L 1.375 -0.375 C 1.582031 -0.375 1.726562 -0.421875 1.8125 -0.515625 C 1.90625 -0.617188 1.972656 -0.765625 2.015625 -0.953125 L 3.09375 -7.125 C 3.132812 -7.3125 3.125 -7.453125 3.0625 -7.546875 C 3 -7.640625 2.859375 -7.6875 2.640625 -7.6875 L 1.984375 -7.6875 L 2.0625 -8.078125 L 8.734375 -8.078125 L 8.484375 -5.96875 L 8.09375 -5.953125 L 8.1875 -7.109375 C 8.175781 -7.273438 8.132812 -7.398438 8.0625 -7.484375 C 8 -7.566406 7.921875 -7.617188 7.828125 -7.640625 C 7.734375 -7.660156 7.640625 -7.671875 7.546875 -7.671875 L 4.0625 -7.671875 L 3.484375 -4.4375 L 5.796875 -4.4375 C 5.953125 -4.4375 6.082031 -4.472656 6.1875 -4.546875 C 6.300781 -4.628906 6.367188 -4.765625 6.390625 -4.953125 L 6.515625 -5.578125 L 6.890625 -5.578125 L 6.390625 -2.8125 L 6.015625 -2.8125 L 6.140625 -3.5 C 6.171875 -3.675781 6.148438 -3.8125 6.078125 -3.90625 C 6.015625 -4 5.894531 -4.046875 5.71875 -4.046875 L 3.40625 -4.046875 L 2.875 -0.953125 C 2.84375 -0.773438 2.851562 -0.632812 2.90625 -0.53125 C 2.96875 -0.425781 3.113281 -0.375 3.34375 -0.375 L 4.140625 -0.375 L 4.078125 0 Z M 0.640625 0 "/></g></g><g style="fill:#ffcccc;fill-opacity:1;"><g transform="translate(290.939074, 257.842956)"><path style="stroke:none" d="M 2.640625 0.15625 C 2.523438 0.15625 2.378906 0.140625 2.203125 0.109375 C 2.035156 0.078125 1.859375 0.0234375 1.671875 -0.046875 C 1.492188 -0.117188 1.320312 -0.21875 1.15625 -0.34375 C 0.988281 -0.46875 0.84375 -0.628906 0.71875 -0.828125 C 0.601562 -1.023438 0.523438 -1.265625 0.484375 -1.546875 C 0.441406 -1.828125 0.453125 -2.15625 0.515625 -2.53125 C 0.585938 -2.925781 0.703125 -3.269531 0.859375 -3.5625 C 1.015625 -3.851562 1.203125 -4.101562 1.421875 -4.3125 C 1.640625 -4.519531 1.875 -4.6875 2.125 -4.8125 C 2.375 -4.945312 2.625 -5.046875 2.875 -5.109375 C 3.125 -5.171875 3.363281 -5.203125 3.59375 -5.203125 C 3.800781 -5.203125 4.019531 -5.171875 4.25 -5.109375 C 4.476562 -5.054688 4.691406 -4.960938 4.890625 -4.828125 C 5.097656 -4.703125 5.273438 -4.535156 5.421875 -4.328125 C 5.578125 -4.117188 5.679688 -3.863281 5.734375 -3.5625 C 5.796875 -3.269531 5.789062 -2.925781 5.71875 -2.53125 C 5.644531 -2.113281 5.519531 -1.75 5.34375 -1.4375 C 5.175781 -1.125 4.972656 -0.863281 4.734375 -0.65625 C 4.503906 -0.457031 4.265625 -0.296875 4.015625 -0.171875 C 3.765625 -0.0546875 3.519531 0.0234375 3.28125 0.078125 C 3.039062 0.128906 2.828125 0.15625 2.640625 0.15625 Z M 2.71875 -0.234375 C 2.90625 -0.234375 3.109375 -0.273438 3.328125 -0.359375 C 3.546875 -0.453125 3.757812 -0.585938 3.96875 -0.765625 C 4.175781 -0.953125 4.359375 -1.191406 4.515625 -1.484375 C 4.679688 -1.773438 4.800781 -2.125 4.875 -2.53125 C 4.96875 -3.007812 4.960938 -3.421875 4.859375 -3.765625 C 4.765625 -4.109375 4.597656 -4.367188 4.359375 -4.546875 C 4.128906 -4.722656 3.851562 -4.8125 3.53125 -4.8125 C 3.207031 -4.8125 2.894531 -4.71875 2.59375 -4.53125 C 2.289062 -4.351562 2.03125 -4.097656 1.8125 -3.765625 C 1.59375 -3.429688 1.441406 -3.03125 1.359375 -2.5625 C 1.285156 -2.144531 1.273438 -1.789062 1.328125 -1.5 C 1.390625 -1.207031 1.492188 -0.96875 1.640625 -0.78125 C 1.785156 -0.59375 1.953125 -0.453125 2.140625 -0.359375 C 2.335938 -0.273438 2.53125 -0.234375 2.71875 -0.234375 Z M 2.71875 -0.234375 "/></g></g><g style="fill:#ffcccc;fill-opacity:1;"><g transform="translate(297.783572, 257.842956)"><path style="stroke:none" d="M 2.625 0.15625 C 2.070312 0.15625 1.679688 0.00390625 1.453125 -0.296875 C 1.222656 -0.609375 1.171875 -1.085938 1.296875 -1.734375 L 1.703125 -4.15625 C 1.734375 -4.320312 1.722656 -4.445312 1.671875 -4.53125 C 1.617188 -4.625 1.515625 -4.671875 1.359375 -4.671875 L 0.796875 -4.671875 L 0.859375 -5.046875 L 2.671875 -5.046875 L 2.09375 -1.75 C 2.007812 -1.28125 2.03125 -0.929688 2.15625 -0.703125 C 2.28125 -0.472656 2.546875 -0.359375 2.953125 -0.359375 C 3.171875 -0.359375 3.390625 -0.414062 3.609375 -0.53125 C 3.828125 -0.644531 4.035156 -0.789062 4.234375 -0.96875 C 4.429688 -1.15625 4.609375 -1.359375 4.765625 -1.578125 C 4.929688 -1.796875 5.066406 -2.003906 5.171875 -2.203125 L 5.515625 -4.15625 C 5.546875 -4.300781 5.539062 -4.421875 5.5 -4.515625 C 5.457031 -4.617188 5.367188 -4.671875 5.234375 -4.671875 L 4.578125 -4.671875 L 4.640625 -5.046875 L 6.484375 -5.046875 L 5.765625 -0.90625 C 5.734375 -0.75 5.742188 -0.625 5.796875 -0.53125 C 5.847656 -0.4375 5.960938 -0.40625 6.140625 -0.4375 L 6.734375 -0.578125 L 6.71875 -0.1875 L 4.765625 0.140625 L 5.046875 -1.453125 C 4.898438 -1.242188 4.734375 -1.039062 4.546875 -0.84375 C 4.359375 -0.65625 4.15625 -0.488281 3.9375 -0.34375 C 3.726562 -0.195312 3.515625 -0.078125 3.296875 0.015625 C 3.078125 0.109375 2.851562 0.15625 2.625 0.15625 Z M 2.625 0.15625 "/></g></g><g style="fill:#ffcccc;fill-opacity:1;"><g transform="translate(305.917665, 257.842956)"><path style="stroke:none" d="M 0.0625 0 L 0.125 -0.375 L 0.703125 -0.375 C 0.890625 -0.375 1.019531 -0.421875 1.09375 -0.515625 C 1.175781 -0.609375 1.234375 -0.738281 1.265625 -0.90625 L 1.828125 -4.0625 C 1.859375 -4.226562 1.84375 -4.359375 1.78125 -4.453125 C 1.726562 -4.546875 1.613281 -4.578125 1.4375 -4.546875 L 0.84375 -4.40625 L 0.859375 -4.78125 L 2.828125 -5.21875 L 2.546875 -3.609375 C 2.691406 -3.816406 2.859375 -4.015625 3.046875 -4.203125 C 3.234375 -4.390625 3.429688 -4.554688 3.640625 -4.703125 C 3.847656 -4.859375 4.0625 -4.976562 4.28125 -5.0625 C 4.507812 -5.15625 4.738281 -5.203125 4.96875 -5.203125 C 5.519531 -5.203125 5.90625 -5.050781 6.125 -4.75 C 6.351562 -4.445312 6.410156 -3.96875 6.296875 -3.3125 L 5.875 -0.90625 C 5.8125 -0.550781 5.929688 -0.375 6.234375 -0.375 L 6.796875 -0.375 L 6.734375 0 L 3.84375 0 L 3.90625 -0.375 L 4.5625 -0.375 C 4.71875 -0.375 4.832031 -0.421875 4.90625 -0.515625 C 4.988281 -0.617188 5.046875 -0.75 5.078125 -0.90625 L 5.5 -3.296875 C 5.582031 -3.773438 5.5625 -4.128906 5.4375 -4.359375 C 5.3125 -4.585938 5.046875 -4.703125 4.640625 -4.703125 C 4.421875 -4.703125 4.203125 -4.644531 3.984375 -4.53125 C 3.765625 -4.414062 3.554688 -4.265625 3.359375 -4.078125 C 3.160156 -3.890625 2.976562 -3.6875 2.8125 -3.46875 C 2.65625 -3.25 2.519531 -3.039062 2.40625 -2.84375 L 2.078125 -0.90625 C 2.046875 -0.757812 2.050781 -0.632812 2.09375 -0.53125 C 2.132812 -0.425781 2.226562 -0.375 2.375 -0.375 L 3.015625 -0.375 L 2.9375 0 Z M 0.0625 0 "/></g></g><g style="fill:#ffcccc;fill-opacity:1;"><g transform="translate(314.111472, 257.842956)"><path style="stroke:none" d="M 2.453125 0.140625 C 2.097656 0.140625 1.785156 0.0703125 1.515625 -0.0625 C 1.242188 -0.207031 1.019531 -0.398438 0.84375 -0.640625 C 0.675781 -0.878906 0.5625 -1.15625 0.5 -1.46875 C 0.4375 -1.789062 0.4375 -2.140625 0.5 -2.515625 C 0.5625 -2.878906 0.664062 -3.207031 0.8125 -3.5 C 0.96875 -3.789062 1.148438 -4.039062 1.359375 -4.25 C 1.566406 -4.457031 1.789062 -4.632812 2.03125 -4.78125 C 2.28125 -4.925781 2.523438 -5.03125 2.765625 -5.09375 C 3.003906 -5.164062 3.234375 -5.203125 3.453125 -5.203125 C 3.640625 -5.203125 3.832031 -5.175781 4.03125 -5.125 C 4.226562 -5.070312 4.414062 -4.992188 4.59375 -4.890625 C 4.78125 -4.785156 4.941406 -4.644531 5.078125 -4.46875 L 5.5625 -7.125 C 5.59375 -7.289062 5.578125 -7.421875 5.515625 -7.515625 C 5.460938 -7.617188 5.34375 -7.65625 5.15625 -7.625 L 4.5625 -7.484375 L 4.578125 -7.859375 L 6.5625 -8.28125 L 5.234375 -0.8125 C 5.210938 -0.695312 5.21875 -0.597656 5.25 -0.515625 C 5.28125 -0.429688 5.363281 -0.390625 5.5 -0.390625 L 6.046875 -0.390625 L 5.984375 0 L 4.375 0 L 4.453125 -0.640625 C 4.171875 -0.429688 3.863281 -0.25 3.53125 -0.09375 C 3.207031 0.0625 2.847656 0.140625 2.453125 0.140625 Z M 2.78125 -0.328125 C 2.957031 -0.328125 3.144531 -0.359375 3.34375 -0.421875 C 3.550781 -0.484375 3.753906 -0.578125 3.953125 -0.703125 C 4.160156 -0.828125 4.347656 -0.984375 4.515625 -1.171875 L 5 -3.984375 C 4.851562 -4.222656 4.660156 -4.40625 4.421875 -4.53125 C 4.179688 -4.664062 3.90625 -4.734375 3.59375 -4.734375 C 3.3125 -4.734375 3.046875 -4.675781 2.796875 -4.5625 C 2.546875 -4.445312 2.320312 -4.285156 2.125 -4.078125 C 1.925781 -3.878906 1.757812 -3.648438 1.625 -3.390625 C 1.488281 -3.128906 1.394531 -2.851562 1.34375 -2.5625 C 1.289062 -2.25 1.285156 -1.957031 1.328125 -1.6875 C 1.367188 -1.414062 1.453125 -1.175781 1.578125 -0.96875 C 1.703125 -0.769531 1.863281 -0.613281 2.0625 -0.5 C 2.269531 -0.382812 2.507812 -0.328125 2.78125 -0.328125 Z M 2.78125 -0.328125 "/></g></g><g style="fill:#ffcccc;fill-opacity:1;"><g transform="translate(321.553005, 257.842956)"><path style="stroke:none" d="M 1.328125 0.125 C 1.046875 0.125 0.820312 0.078125 0.65625 -0.015625 C 0.5 -0.117188 0.390625 -0.253906 0.328125 -0.421875 C 0.273438 -0.597656 0.269531 -0.789062 0.3125 -1 C 0.351562 -1.269531 0.453125 -1.5 0.609375 -1.6875 C 0.773438 -1.875 0.972656 -2.039062 1.203125 -2.1875 C 1.441406 -2.332031 1.703125 -2.46875 1.984375 -2.59375 L 4.203125 -3.59375 C 4.234375 -3.914062 4.21875 -4.164062 4.15625 -4.34375 C 4.09375 -4.519531 3.976562 -4.644531 3.8125 -4.71875 C 3.65625 -4.789062 3.4375 -4.828125 3.15625 -4.828125 C 2.820312 -4.828125 2.550781 -4.78125 2.34375 -4.6875 C 2.132812 -4.59375 1.960938 -4.472656 1.828125 -4.328125 C 1.703125 -4.179688 1.597656 -4.035156 1.515625 -3.890625 C 1.472656 -3.785156 1.414062 -3.703125 1.34375 -3.640625 C 1.28125 -3.578125 1.195312 -3.550781 1.09375 -3.5625 C 0.976562 -3.570312 0.90625 -3.609375 0.875 -3.671875 C 0.84375 -3.742188 0.84375 -3.828125 0.875 -3.921875 C 0.9375 -4.078125 1.023438 -4.226562 1.140625 -4.375 C 1.265625 -4.519531 1.425781 -4.65625 1.625 -4.78125 C 1.820312 -4.90625 2.066406 -5.003906 2.359375 -5.078125 C 2.648438 -5.160156 2.988281 -5.203125 3.375 -5.203125 C 3.664062 -5.203125 3.925781 -5.175781 4.15625 -5.125 C 4.382812 -5.070312 4.566406 -4.976562 4.703125 -4.84375 C 4.847656 -4.71875 4.945312 -4.539062 5 -4.3125 C 5.050781 -4.082031 5.046875 -3.796875 4.984375 -3.453125 L 4.59375 -1.328125 C 4.53125 -0.984375 4.523438 -0.734375 4.578125 -0.578125 C 4.628906 -0.429688 4.738281 -0.359375 4.90625 -0.359375 C 5.039062 -0.359375 5.160156 -0.414062 5.265625 -0.53125 C 5.378906 -0.65625 5.460938 -0.851562 5.515625 -1.125 L 5.84375 -1.125 C 5.769531 -0.707031 5.617188 -0.398438 5.390625 -0.203125 C 5.160156 -0.00390625 4.890625 0.09375 4.578125 0.09375 C 4.253906 0.09375 4.035156 -0.00390625 3.921875 -0.203125 C 3.804688 -0.398438 3.765625 -0.695312 3.796875 -1.09375 C 3.410156 -0.726562 3.003906 -0.429688 2.578125 -0.203125 C 2.160156 0.015625 1.742188 0.125 1.328125 0.125 Z M 1.71875 -0.328125 C 2.03125 -0.328125 2.367188 -0.4375 2.734375 -0.65625 C 3.109375 -0.875 3.476562 -1.179688 3.84375 -1.578125 L 4.140625 -3.1875 L 2.109375 -2.203125 C 1.867188 -2.097656 1.679688 -1.988281 1.546875 -1.875 C 1.410156 -1.757812 1.304688 -1.640625 1.234375 -1.515625 C 1.171875 -1.390625 1.128906 -1.257812 1.109375 -1.125 C 1.066406 -0.875 1.09375 -0.675781 1.1875 -0.53125 C 1.289062 -0.394531 1.46875 -0.328125 1.71875 -0.328125 Z M 1.71875 -0.328125 "/></g></g><g style="fill:#ffcccc;fill-opacity:1;"><g transform="translate(328.630341, 257.842956)"><path style="stroke:none" d="M 2.84375 0.15625 C 2.332031 0.15625 1.953125 0.00390625 1.703125 -0.296875 C 1.453125 -0.597656 1.378906 -1.050781 1.484375 -1.65625 L 2.015625 -4.671875 L 0.8125 -4.671875 L 0.859375 -5.046875 L 1.671875 -5.046875 C 1.921875 -5.046875 2.132812 -5.117188 2.3125 -5.265625 C 2.5 -5.421875 2.613281 -5.625 2.65625 -5.875 L 2.828125 -6.8125 L 3.203125 -6.8125 L 2.875 -5.046875 L 4.859375 -5.046875 L 4.796875 -4.671875 L 2.8125 -4.671875 L 2.296875 -1.75 C 2.210938 -1.28125 2.238281 -0.921875 2.375 -0.671875 C 2.519531 -0.421875 2.773438 -0.296875 3.140625 -0.296875 C 3.367188 -0.296875 3.578125 -0.34375 3.765625 -0.4375 C 3.960938 -0.539062 4.128906 -0.695312 4.265625 -0.90625 L 4.578125 -0.734375 C 4.429688 -0.523438 4.257812 -0.351562 4.0625 -0.21875 C 3.875 -0.09375 3.671875 0 3.453125 0.0625 C 3.242188 0.125 3.039062 0.15625 2.84375 0.15625 Z M 2.84375 0.15625 "/></g></g><g style="fill:#ffcccc;fill-opacity:1;"><g transform="translate(334.459869, 257.842956)"><path style="stroke:none" d="M 2.734375 -6.890625 C 2.609375 -6.890625 2.503906 -6.921875 2.421875 -6.984375 C 2.347656 -7.054688 2.296875 -7.144531 2.265625 -7.25 C 2.234375 -7.351562 2.226562 -7.457031 2.25 -7.5625 C 2.28125 -7.71875 2.359375 -7.84375 2.484375 -7.9375 C 2.617188 -8.039062 2.765625 -8.09375 2.921875 -8.09375 C 3.085938 -8.09375 3.21875 -8.023438 3.3125 -7.890625 C 3.40625 -7.753906 3.4375 -7.597656 3.40625 -7.421875 C 3.375 -7.253906 3.289062 -7.125 3.15625 -7.03125 C 3.019531 -6.9375 2.878906 -6.890625 2.734375 -6.890625 Z M -0.125 0 L -0.046875 -0.375 L 0.546875 -0.375 C 0.722656 -0.375 0.859375 -0.421875 0.953125 -0.515625 C 1.046875 -0.617188 1.109375 -0.757812 1.140625 -0.9375 L 1.765625 -4.140625 C 1.796875 -4.328125 1.785156 -4.457031 1.734375 -4.53125 C 1.679688 -4.601562 1.5625 -4.625 1.375 -4.59375 L 0.75 -4.4375 L 0.765625 -4.828125 L 2.78125 -5.25 L 1.9375 -0.859375 C 1.90625 -0.703125 1.90625 -0.582031 1.9375 -0.5 C 1.976562 -0.414062 2.085938 -0.375 2.265625 -0.375 L 2.78125 -0.375 L 2.703125 0 Z M -0.125 0 "/></g></g><g style="fill:#ffcccc;fill-opacity:1;"><g transform="translate(338.486382, 257.842956)"><path style="stroke:none" d="M 2.640625 0.15625 C 2.523438 0.15625 2.378906 0.140625 2.203125 0.109375 C 2.035156 0.078125 1.859375 0.0234375 1.671875 -0.046875 C 1.492188 -0.117188 1.320312 -0.21875 1.15625 -0.34375 C 0.988281 -0.46875 0.84375 -0.628906 0.71875 -0.828125 C 0.601562 -1.023438 0.523438 -1.265625 0.484375 -1.546875 C 0.441406 -1.828125 0.453125 -2.15625 0.515625 -2.53125 C 0.585938 -2.925781 0.703125 -3.269531 0.859375 -3.5625 C 1.015625 -3.851562 1.203125 -4.101562 1.421875 -4.3125 C 1.640625 -4.519531 1.875 -4.6875 2.125 -4.8125 C 2.375 -4.945312 2.625 -5.046875 2.875 -5.109375 C 3.125 -5.171875 3.363281 -5.203125 3.59375 -5.203125 C 3.800781 -5.203125 4.019531 -5.171875 4.25 -5.109375 C 4.476562 -5.054688 4.691406 -4.960938 4.890625 -4.828125 C 5.097656 -4.703125 5.273438 -4.535156 5.421875 -4.328125 C 5.578125 -4.117188 5.679688 -3.863281 5.734375 -3.5625 C 5.796875 -3.269531 5.789062 -2.925781 5.71875 -2.53125 C 5.644531 -2.113281 5.519531 -1.75 5.34375 -1.4375 C 5.175781 -1.125 4.972656 -0.863281 4.734375 -0.65625 C 4.503906 -0.457031 4.265625 -0.296875 4.015625 -0.171875 C 3.765625 -0.0546875 3.519531 0.0234375 3.28125 0.078125 C 3.039062 0.128906 2.828125 0.15625 2.640625 0.15625 Z M 2.71875 -0.234375 C 2.90625 -0.234375 3.109375 -0.273438 3.328125 -0.359375 C 3.546875 -0.453125 3.757812 -0.585938 3.96875 -0.765625 C 4.175781 -0.953125 4.359375 -1.191406 4.515625 -1.484375 C 4.679688 -1.773438 4.800781 -2.125 4.875 -2.53125 C 4.96875 -3.007812 4.960938 -3.421875 4.859375 -3.765625 C 4.765625 -4.109375 4.597656 -4.367188 4.359375 -4.546875 C 4.128906 -4.722656 3.851562 -4.8125 3.53125 -4.8125 C 3.207031 -4.8125 2.894531 -4.71875 2.59375 -4.53125 C 2.289062 -4.351562 2.03125 -4.097656 1.8125 -3.765625 C 1.59375 -3.429688 1.441406 -3.03125 1.359375 -2.5625 C 1.285156 -2.144531 1.273438 -1.789062 1.328125 -1.5 C 1.390625 -1.207031 1.492188 -0.96875 1.640625 -0.78125 C 1.785156 -0.59375 1.953125 -0.453125 2.140625 -0.359375 C 2.335938 -0.273438 2.53125 -0.234375 2.71875 -0.234375 Z M 2.71875 -0.234375 "/></g></g><g style="fill:#ffcccc;fill-opacity:1;"><g transform="translate(345.33086, 257.842956)"><path style="stroke:none" d="M 0.0625 0 L 0.125 -0.375 L 0.703125 -0.375 C 0.890625 -0.375 1.019531 -0.421875 1.09375 -0.515625 C 1.175781 -0.609375 1.234375 -0.738281 1.265625 -0.90625 L 1.828125 -4.0625 C 1.859375 -4.226562 1.84375 -4.359375 1.78125 -4.453125 C 1.726562 -4.546875 1.613281 -4.578125 1.4375 -4.546875 L 0.84375 -4.40625 L 0.859375 -4.78125 L 2.828125 -5.21875 L 2.546875 -3.609375 C 2.691406 -3.816406 2.859375 -4.015625 3.046875 -4.203125 C 3.234375 -4.390625 3.429688 -4.554688 3.640625 -4.703125 C 3.847656 -4.859375 4.0625 -4.976562 4.28125 -5.0625 C 4.507812 -5.15625 4.738281 -5.203125 4.96875 -5.203125 C 5.519531 -5.203125 5.90625 -5.050781 6.125 -4.75 C 6.351562 -4.445312 6.410156 -3.96875 6.296875 -3.3125 L 5.875 -0.90625 C 5.8125 -0.550781 5.929688 -0.375 6.234375 -0.375 L 6.796875 -0.375 L 6.734375 0 L 3.84375 0 L 3.90625 -0.375 L 4.5625 -0.375 C 4.71875 -0.375 4.832031 -0.421875 4.90625 -0.515625 C 4.988281 -0.617188 5.046875 -0.75 5.078125 -0.90625 L 5.5 -3.296875 C 5.582031 -3.773438 5.5625 -4.128906 5.4375 -4.359375 C 5.3125 -4.585938 5.046875 -4.703125 4.640625 -4.703125 C 4.421875 -4.703125 4.203125 -4.644531 3.984375 -4.53125 C 3.765625 -4.414062 3.554688 -4.265625 3.359375 -4.078125 C 3.160156 -3.890625 2.976562 -3.6875 2.8125 -3.46875 C 2.65625 -3.25 2.519531 -3.039062 2.40625 -2.84375 L 2.078125 -0.90625 C 2.046875 -0.757812 2.050781 -0.632812 2.09375 -0.53125 C 2.132812 -0.425781 2.226562 -0.375 2.375 -0.375 L 3.015625 -0.375 L 2.9375 0 Z M 0.0625 0 "/></g></g></g></svg>