<svg xmlns="http://www.w3.org/2000/svg" xmlns:xlink="http://www.w3.org/1999/xlink" width="8000" zoomAndPan="magnify" viewBox="0 0 6000 2343.749891" height="3125" preserveAspectRatio="xMidYMid meet" version="1.2"><defs/><g id="d622c50a52"><g style="fill:#c24b79;fill-opacity:1;"><g transform="translate(123.406707, 1132.770965)"><path style="stroke:none" d="M 498.484375 -583.671875 C 493.421875 -583.671875 489.203125 -581.984375 485.828125 -578.609375 C 482.453125 -575.234375 480.765625 -571.015625 480.765625 -565.953125 L 480.765625 -21.09375 C 480.765625 -16.03125 482.453125 -11.8125 485.828125 -8.4375 C 489.203125 -5.0625 493.421875 -3.375 498.484375 -3.375 C 500.734375 -3.375 501.859375 -2.25 501.859375 0 C 501.859375 2.25 500.734375 3.375 498.484375 3.375 L 356.78125 3.375 C 355.09375 3.375 354.25 2.25 354.25 0 C 354.25 -2.25 355.09375 -3.375 356.78125 -3.375 C 361.84375 -3.375 366.0625 -5.0625 369.4375 -8.4375 C 372.8125 -11.8125 374.5 -16.03125 374.5 -21.09375 L 374.5 -290.140625 L 182.1875 -290.140625 L 182.1875 -21.09375 C 182.1875 -16.03125 183.875 -11.8125 187.25 -8.4375 C 190.625 -5.0625 194.5625 -3.375 199.0625 -3.375 C 201.300781 -3.375 202.421875 -2.25 202.421875 0 C 202.421875 2.25 201.300781 3.375 199.0625 3.375 L 58.203125 3.375 C 55.953125 3.375 54.828125 2.25 54.828125 0 C 54.828125 -2.25 55.953125 -3.375 58.203125 -3.375 C 63.265625 -3.375 67.476562 -5.0625 70.84375 -8.4375 C 74.21875 -11.8125 75.90625 -16.03125 75.90625 -21.09375 L 75.90625 -565.953125 C 75.90625 -571.015625 74.21875 -575.234375 70.84375 -578.609375 C 67.476562 -581.984375 63.265625 -583.671875 58.203125 -583.671875 C 55.953125 -583.671875 54.828125 -584.796875 54.828125 -587.046875 C 54.828125 -589.296875 55.953125 -590.421875 58.203125 -590.421875 L 199.0625 -590.421875 C 201.300781 -590.421875 202.421875 -589.296875 202.421875 -587.046875 C 202.421875 -584.796875 201.300781 -583.671875 199.0625 -583.671875 C 194.5625 -583.671875 190.625 -581.984375 187.25 -578.609375 C 183.875 -575.234375 182.1875 -571.015625 182.1875 -565.953125 L 182.1875 -296.890625 L 374.5 -296.890625 L 374.5 -565.953125 C 374.5 -571.015625 372.8125 -575.234375 369.4375 -578.609375 C 366.0625 -581.984375 361.84375 -583.671875 356.78125 -583.671875 C 355.09375 -583.671875 354.25 -584.796875 354.25 -587.046875 C 354.25 -589.296875 355.09375 -590.421875 356.78125 -590.421875 L 498.484375 -590.421875 C 500.734375 -590.421875 501.859375 -589.296875 501.859375 -587.046875 C 501.859375 -584.796875 500.734375 -583.671875 498.484375 -583.671875 Z M 498.484375 -583.671875 "/></g></g><g style="fill:#c24b79;fill-opacity:1;"><g transform="translate(653.922343, 1132.770965)"><path style="stroke:none" d="M 385.453125 -61.578125 C 387.140625 -62.703125 388.546875 -62.703125 389.671875 -61.578125 C 391.359375 -59.890625 391.359375 -58.203125 389.671875 -56.515625 C 349.753906 -16.585938 301.675781 3.375 245.4375 3.375 C 188.644531 3.375 140.289062 -16.585938 100.375 -56.515625 C 73.945312 -83.503906 56.234375 -114.425781 47.234375 -149.28125 C 38.234375 -184.144531 38.234375 -219.007812 47.234375 -253.875 C 56.234375 -288.738281 73.945312 -319.664062 100.375 -346.65625 C 126.800781 -373.082031 157.582031 -390.65625 192.71875 -399.375 C 227.863281 -408.09375 262.867188 -408.09375 297.734375 -399.375 C 332.597656 -390.65625 363.242188 -373.082031 389.671875 -346.65625 C 391.359375 -344.96875 391.359375 -343.28125 389.671875 -341.59375 L 210.015625 -161.9375 C 209.453125 -161.375 208.609375 -161.09375 207.484375 -161.09375 C 206.921875 -161.09375 206.359375 -161.375 205.796875 -161.9375 C 204.109375 -163.625 204.109375 -165.03125 205.796875 -166.15625 L 312.921875 -273.28125 C 274.117188 -311.519531 234.476562 -337.101562 194 -350.03125 C 153.507812 -363.53125 123.707031 -360.71875 104.59375 -341.59375 C 92.21875 -328.664062 87.015625 -310.671875 88.984375 -287.609375 C 90.953125 -264.554688 99.382812 -239.253906 114.28125 -211.703125 C 129.1875 -184.148438 149.570312 -157.441406 175.4375 -131.578125 C 214.238281 -92.773438 254.441406 -66.628906 296.046875 -53.140625 C 336.535156 -39.640625 366.335938 -42.453125 385.453125 -61.578125 Z M 385.453125 -61.578125 "/></g></g><g style="fill:#c24b79;fill-opacity:1;"><g transform="translate(1062.984594, 1132.770965)"><path style="stroke:none" d="M 334 -396.421875 C 334 -395.296875 334.28125 -395.015625 334.84375 -395.578125 C 334.84375 -396.140625 334.5625 -396.140625 334 -395.578125 C 333.4375 -394.453125 333.4375 -394.171875 334 -394.734375 L 312.921875 -361.84375 C 311.796875 -360.71875 310.671875 -360.15625 309.546875 -360.15625 C 308.421875 -360.15625 307.578125 -360.71875 307.015625 -361.84375 C 300.828125 -375.332031 290.144531 -384.328125 274.96875 -388.828125 C 259.78125 -393.890625 244.316406 -393.046875 228.578125 -386.296875 C 227.453125 -385.734375 226.1875 -385.171875 224.78125 -384.609375 C 223.375 -384.046875 222.109375 -383.203125 220.984375 -382.078125 C 220.421875 -382.078125 220.140625 -382.078125 220.140625 -382.078125 C 201.585938 -371.960938 185.84375 -357.90625 172.90625 -339.90625 L 172.90625 -21.09375 C 172.90625 -16.03125 174.59375 -11.8125 177.96875 -8.4375 C 181.34375 -5.0625 185.28125 -3.375 189.78125 -3.375 C 192.03125 -3.375 193.15625 -2.25 193.15625 0 C 193.15625 2.25 192.03125 3.375 189.78125 3.375 L 48.921875 3.375 C 46.671875 3.375 45.546875 2.25 45.546875 0 C 45.546875 -2.25 46.671875 -3.375 48.921875 -3.375 C 53.984375 -3.375 58.195312 -5.0625 61.5625 -8.4375 C 64.9375 -11.8125 66.625 -15.75 66.625 -20.25 L 66.625 -323.046875 C 66.625 -326.421875 65.503906 -328.671875 63.265625 -329.796875 C 60.453125 -330.921875 56.234375 -329.515625 50.609375 -325.578125 C 48.921875 -324.453125 47.515625 -324.734375 46.390625 -326.421875 C 44.703125 -328.109375 44.984375 -329.796875 47.234375 -331.484375 L 67.46875 -345.8125 C 67.46875 -346.375 67.46875 -346.65625 67.46875 -346.65625 L 167 -418.359375 C 168.125 -419.484375 169.25 -419.765625 170.375 -419.203125 C 172.0625 -418.640625 172.90625 -417.515625 172.90625 -415.828125 L 172.90625 -350.875 C 184.71875 -365.5 198.773438 -377.585938 215.078125 -387.140625 C 216.203125 -387.703125 216.484375 -387.703125 215.921875 -387.140625 C 215.921875 -387.140625 216.0625 -387.28125 216.34375 -387.5625 C 216.625 -387.84375 216.765625 -387.984375 216.765625 -387.984375 C 217.328125 -387.984375 217.609375 -387.984375 217.609375 -387.984375 C 220.421875 -389.671875 223.234375 -391.078125 226.046875 -392.203125 C 246.285156 -401.765625 267.367188 -406.546875 289.296875 -406.546875 C 303.921875 -406.546875 318.265625 -404.296875 332.328125 -399.796875 C 331.765625 -399.796875 331.765625 -399.796875 332.328125 -399.796875 C 333.441406 -399.234375 333.71875 -399.234375 333.15625 -399.796875 C 333.15625 -399.796875 333.15625 -399.515625 333.15625 -398.953125 C 333.71875 -398.390625 334 -398.109375 334 -398.109375 C 334 -397.546875 334 -396.984375 334 -396.421875 Z M 334 -396.421875 "/></g></g><g style="fill:#c24b79;fill-opacity:1;"><g transform="translate(1414.693926, 1132.770965)"><path style="stroke:none" d="M 498.484375 -3.375 C 500.734375 -3.375 501.859375 -2.25 501.859375 0 C 501.859375 2.25 500.734375 3.375 498.484375 3.375 L 387.140625 3.375 C 380.953125 3.375 374.625 1.125 368.15625 -3.375 C 361.695312 -7.875 356.78125 -13.21875 353.40625 -19.40625 L 240.390625 -249.65625 L 182.1875 -249.65625 L 182.1875 -21.09375 C 182.1875 -16.03125 183.875 -11.8125 187.25 -8.4375 C 190.625 -5.0625 194.5625 -3.375 199.0625 -3.375 C 201.300781 -3.375 202.421875 -2.25 202.421875 0 C 202.421875 2.25 201.300781 3.375 199.0625 3.375 L 58.203125 3.375 C 55.953125 3.375 54.828125 2.25 54.828125 0 C 54.828125 -2.25 55.953125 -3.375 58.203125 -3.375 C 63.265625 -3.375 67.476562 -5.0625 70.84375 -8.4375 C 74.21875 -11.8125 75.90625 -16.03125 75.90625 -21.09375 L 75.90625 -565.953125 C 75.90625 -571.015625 74.21875 -575.234375 70.84375 -578.609375 C 67.476562 -581.984375 63.265625 -583.671875 58.203125 -583.671875 C 55.953125 -583.671875 54.828125 -584.796875 54.828125 -587.046875 C 54.828125 -589.296875 55.953125 -590.421875 58.203125 -590.421875 L 310.390625 -590.421875 C 310.953125 -590.421875 311.515625 -590.421875 312.078125 -590.421875 C 312.640625 -590.421875 313.484375 -590.421875 314.609375 -590.421875 C 315.171875 -590.421875 315.453125 -590.421875 315.453125 -590.421875 C 346.378906 -590.421875 374.773438 -582.6875 400.640625 -567.21875 C 426.503906 -551.757812 447.023438 -531.234375 462.203125 -505.640625 C 477.390625 -480.054688 484.984375 -451.523438 484.984375 -420.046875 C 484.984375 -393.609375 479.359375 -369.003906 468.109375 -346.234375 C 456.867188 -323.460938 441.546875 -304.0625 422.140625 -288.03125 C 402.742188 -272.007812 380.675781 -261.1875 355.9375 -255.5625 L 470.640625 -21.9375 C 472.890625 -16.875 476.828125 -12.515625 482.453125 -8.859375 C 488.078125 -5.203125 493.421875 -3.375 498.484375 -3.375 Z M 182.1875 -583.671875 L 182.1875 -256.40625 L 310.390625 -256.40625 C 322.203125 -256.40625 332.882812 -263.851562 342.4375 -278.75 C 352 -293.65625 359.734375 -313.617188 365.640625 -338.640625 C 371.546875 -363.671875 374.5 -390.804688 374.5 -420.046875 C 374.5 -449.847656 371.546875 -477.117188 365.640625 -501.859375 C 359.734375 -526.597656 352 -546.414062 342.4375 -561.3125 C 332.882812 -576.21875 322.203125 -583.671875 310.390625 -583.671875 Z M 182.1875 -583.671875 "/></g></g><g style="fill:#c24b79;fill-opacity:1;"><g transform="translate(1904.724564, 1132.770965)"><path style="stroke:none" d="M 385.453125 -61.578125 C 387.140625 -62.703125 388.546875 -62.703125 389.671875 -61.578125 C 391.359375 -59.890625 391.359375 -58.203125 389.671875 -56.515625 C 349.753906 -16.585938 301.675781 3.375 245.4375 3.375 C 188.644531 3.375 140.289062 -16.585938 100.375 -56.515625 C 73.945312 -83.503906 56.234375 -114.425781 47.234375 -149.28125 C 38.234375 -184.144531 38.234375 -219.007812 47.234375 -253.875 C 56.234375 -288.738281 73.945312 -319.664062 100.375 -346.65625 C 126.800781 -373.082031 157.582031 -390.65625 192.71875 -399.375 C 227.863281 -408.09375 262.867188 -408.09375 297.734375 -399.375 C 332.597656 -390.65625 363.242188 -373.082031 389.671875 -346.65625 C 391.359375 -344.96875 391.359375 -343.28125 389.671875 -341.59375 L 210.015625 -161.9375 C 209.453125 -161.375 208.609375 -161.09375 207.484375 -161.09375 C 206.921875 -161.09375 206.359375 -161.375 205.796875 -161.9375 C 204.109375 -163.625 204.109375 -165.03125 205.796875 -166.15625 L 312.921875 -273.28125 C 274.117188 -311.519531 234.476562 -337.101562 194 -350.03125 C 153.507812 -363.53125 123.707031 -360.71875 104.59375 -341.59375 C 92.21875 -328.664062 87.015625 -310.671875 88.984375 -287.609375 C 90.953125 -264.554688 99.382812 -239.253906 114.28125 -211.703125 C 129.1875 -184.148438 149.570312 -157.441406 175.4375 -131.578125 C 214.238281 -92.773438 254.441406 -66.628906 296.046875 -53.140625 C 336.535156 -39.640625 366.335938 -42.453125 385.453125 -61.578125 Z M 385.453125 -61.578125 "/></g></g><g style="fill:#c24b79;fill-opacity:1;"><g transform="translate(2313.786814, 1132.770965)"><path style="stroke:none" d="M 450.40625 -70.84375 C 452.65625 -70.84375 453.78125 -69.71875 453.78125 -67.46875 C 453.78125 -48.351562 446.75 -31.765625 432.6875 -17.703125 C 418.632812 -3.648438 402.046875 3.375 382.921875 3.375 C 363.242188 3.375 346.375 -3.648438 332.3125 -17.703125 C 318.257812 -31.765625 311.234375 -48.351562 311.234375 -67.46875 L 311.234375 -255.5625 C 311.234375 -298.863281 306.59375 -333.726562 297.3125 -360.15625 C 288.039062 -386.582031 278.0625 -399.796875 267.375 -399.796875 C 248.820312 -399.796875 231.53125 -396.5625 215.5 -390.09375 C 199.476562 -383.625 185.28125 -374.769531 172.90625 -363.53125 L 172.90625 -21.09375 C 172.90625 -16.03125 174.59375 -11.8125 177.96875 -8.4375 C 181.34375 -5.0625 185.28125 -3.375 189.78125 -3.375 C 192.03125 -3.375 193.15625 -2.25 193.15625 0 C 193.15625 2.25 192.03125 3.375 189.78125 3.375 L 48.921875 3.375 C 46.671875 3.375 45.546875 2.25 45.546875 0 C 45.546875 -2.25 46.671875 -3.375 48.921875 -3.375 C 53.421875 -3.375 57.492188 -5.0625 61.140625 -8.4375 C 64.796875 -11.8125 66.625 -16.03125 66.625 -21.09375 L 66.625 -323.046875 C 66.625 -326.421875 65.503906 -328.671875 63.265625 -329.796875 C 60.453125 -330.921875 56.234375 -329.515625 50.609375 -325.578125 C 48.921875 -324.453125 47.515625 -324.734375 46.390625 -326.421875 C 44.703125 -328.109375 44.984375 -329.796875 47.234375 -331.484375 L 67.46875 -345.8125 C 67.46875 -346.375 67.46875 -346.65625 67.46875 -346.65625 L 167 -418.359375 C 168.125 -419.484375 169.25 -419.765625 170.375 -419.203125 C 172.0625 -418.640625 172.90625 -417.515625 172.90625 -415.828125 L 172.90625 -372.8125 C 185.84375 -382.925781 200.320312 -390.9375 216.34375 -396.84375 C 232.375 -402.75 249.382812 -405.703125 267.375 -405.703125 C 294.925781 -405.703125 320.085938 -398.953125 342.859375 -385.453125 C 365.640625 -371.960938 383.773438 -353.828125 397.265625 -331.046875 C 410.765625 -308.273438 417.515625 -283.113281 417.515625 -255.5625 L 417.515625 -199.0625 L 418.359375 -68.3125 C 418.359375 -63.820312 419.757812 -60.171875 422.5625 -57.359375 C 425.375 -54.546875 428.75 -53.140625 432.6875 -53.140625 C 436.625 -53.140625 440 -54.546875 442.8125 -57.359375 C 445.625 -60.171875 447.03125 -63.539062 447.03125 -67.46875 C 447.03125 -69.71875 448.15625 -70.84375 450.40625 -70.84375 Z M 450.40625 -70.84375 "/></g></g><g style="fill:#c24b79;fill-opacity:1;"><g transform="translate(2789.479748, 1132.770965)"><path style="stroke:none" d="M 401.484375 -70.84375 C 403.734375 -70.84375 404.859375 -69.71875 404.859375 -67.46875 C 404.859375 -48.351562 397.828125 -31.765625 383.765625 -17.703125 C 369.710938 -3.648438 352.84375 3.375 333.15625 3.375 C 314.601562 3.375 298.578125 -2.804688 285.078125 -15.171875 C 271.585938 -27.546875 264 -42.734375 262.3125 -60.734375 C 253.3125 -42.171875 239.535156 -26.84375 220.984375 -14.75 C 202.429688 -2.664062 181.90625 3.375 159.40625 3.375 C 138.039062 3.375 118.640625 -1.820312 101.203125 -12.21875 C 83.773438 -22.625 69.859375 -36.539062 59.453125 -53.96875 C 49.054688 -71.40625 43.859375 -90.804688 43.859375 -112.171875 C 43.859375 -133.546875 49.054688 -152.945312 59.453125 -170.375 C 69.859375 -187.8125 83.773438 -201.726562 101.203125 -212.125 C 118.640625 -222.53125 138.039062 -227.734375 159.40625 -227.734375 L 209.171875 -227.734375 C 211.421875 -227.734375 212.546875 -226.609375 212.546875 -224.359375 C 212.546875 -222.109375 211.421875 -220.984375 209.171875 -220.984375 L 160.25 -220.984375 C 158 -218.171875 155.75 -207.34375 153.5 -188.5 C 151.257812 -169.664062 150.140625 -144.222656 150.140625 -112.171875 C 150.140625 -80.128906 151.257812 -54.546875 153.5 -35.421875 C 155.75 -16.304688 158 -5.625 160.25 -3.375 C 183.875 -3.375 204.960938 -10.398438 223.515625 -24.453125 C 242.066406 -38.515625 255 -56.226562 262.3125 -77.59375 L 262.3125 -231.109375 C 262.3125 -262.035156 259.21875 -290.289062 253.03125 -315.875 C 246.851562 -341.457031 238.5625 -361.835938 228.15625 -377.015625 C 217.75 -392.203125 206.082031 -399.796875 193.15625 -399.796875 C 175.71875 -399.796875 158.5625 -395.578125 141.6875 -387.140625 C 124.820312 -378.710938 110.203125 -368.734375 97.828125 -357.203125 C 85.460938 -345.671875 77.59375 -334.847656 74.21875 -324.734375 C 73.65625 -323.609375 72.8125 -323.046875 71.6875 -323.046875 C 71.6875 -323.046875 71.40625 -323.046875 70.84375 -323.046875 C 70.28125 -323.046875 69.71875 -323.328125 69.15625 -323.890625 L 48.078125 -341.59375 C 48.640625 -341.59375 48.640625 -341.59375 48.078125 -341.59375 C 48.078125 -341.59375 48.078125 -341.875 48.078125 -342.4375 C 47.515625 -343.5625 47.234375 -344.125 47.234375 -344.125 C 47.234375 -344.125 47.515625 -344.40625 48.078125 -344.96875 C 48.078125 -345.53125 48.078125 -345.8125 48.078125 -345.8125 C 48.078125 -345.8125 48.078125 -346.09375 48.078125 -346.65625 C 88.003906 -386.582031 136.363281 -406.546875 193.15625 -406.546875 C 225.207031 -406.546875 254.585938 -398.53125 281.296875 -382.5 C 308.003906 -366.476562 329.226562 -345.253906 344.96875 -318.828125 C 360.71875 -292.398438 368.59375 -263.160156 368.59375 -231.109375 L 368.59375 -67.46875 C 368.59375 -63.539062 370.132812 -60.171875 373.21875 -57.359375 C 376.3125 -54.546875 379.828125 -53.140625 383.765625 -53.140625 C 387.703125 -53.140625 391.078125 -54.546875 393.890625 -57.359375 C 396.703125 -60.171875 398.109375 -63.539062 398.109375 -67.46875 C 398.109375 -69.71875 399.234375 -70.84375 401.484375 -70.84375 Z M 401.484375 -70.84375 "/></g></g><g style="fill:#c24b79;fill-opacity:1;"><g transform="translate(3211.193531, 1132.770965)"><path style="stroke:none" d="M 119.765625 -484.140625 C 105.148438 -484.140625 92.640625 -489.335938 82.234375 -499.734375 C 71.828125 -510.140625 66.625 -522.65625 66.625 -537.28125 C 66.625 -551.894531 71.828125 -564.40625 82.234375 -574.8125 C 92.640625 -585.21875 105.148438 -590.421875 119.765625 -590.421875 C 134.390625 -590.421875 146.898438 -585.21875 157.296875 -574.8125 C 167.703125 -564.40625 172.90625 -551.894531 172.90625 -537.28125 C 172.90625 -522.65625 167.703125 -510.140625 157.296875 -499.734375 C 146.898438 -489.335938 134.390625 -484.140625 119.765625 -484.140625 Z M 189.78125 -3.375 C 192.03125 -3.375 193.15625 -2.25 193.15625 0 C 193.15625 2.25 192.03125 3.375 189.78125 3.375 L 48.921875 3.375 C 46.671875 3.375 45.546875 2.25 45.546875 0 C 45.546875 -2.25 46.671875 -3.375 48.921875 -3.375 C 53.421875 -3.375 57.492188 -5.0625 61.140625 -8.4375 C 64.796875 -11.8125 66.625 -16.03125 66.625 -21.09375 L 66.625 -323.046875 C 66.625 -326.421875 65.503906 -328.671875 63.265625 -329.796875 C 60.453125 -330.921875 56.234375 -329.515625 50.609375 -325.578125 C 48.921875 -324.453125 47.515625 -324.734375 46.390625 -326.421875 C 44.703125 -328.109375 44.984375 -329.796875 47.234375 -331.484375 L 67.46875 -345.8125 C 67.46875 -346.375 67.46875 -346.65625 67.46875 -346.65625 L 167 -418.359375 C 168.125 -419.484375 169.25 -419.765625 170.375 -419.203125 C 172.0625 -418.640625 172.90625 -417.515625 172.90625 -415.828125 L 172.90625 -21.09375 C 172.90625 -16.03125 174.59375 -11.8125 177.96875 -8.4375 C 181.34375 -5.0625 185.28125 -3.375 189.78125 -3.375 Z M 189.78125 -3.375 "/></g></g><g style="fill:#c24b79;fill-opacity:1;"><g transform="translate(3433.014588, 1132.770965)"><path style="stroke:none" d="M 250.5 -234.484375 C 274.125 -224.921875 292.960938 -209.734375 307.015625 -188.921875 C 321.078125 -168.117188 328.109375 -145.066406 328.109375 -119.765625 C 328.109375 -97.273438 322.484375 -76.75 311.234375 -58.1875 C 299.984375 -39.632812 285.082031 -24.734375 266.53125 -13.484375 C 247.976562 -2.242188 227.453125 3.375 204.953125 3.375 L 157.71875 3.375 C 116.113281 3.375 78.441406 -8.710938 44.703125 -32.890625 C 43.578125 -33.453125 43.015625 -34.296875 43.015625 -35.421875 C 43.015625 -36.546875 43.578125 -37.390625 44.703125 -37.953125 L 88.5625 -62.421875 C 89.6875 -62.984375 90.53125 -62.984375 91.09375 -62.421875 C 92.21875 -62.421875 93.0625 -61.859375 93.625 -60.734375 C 111.050781 -22.492188 132.414062 -3.375 157.71875 -3.375 L 204.953125 -3.375 C 222.953125 -3.375 238.414062 -9.695312 251.34375 -22.34375 C 264.28125 -35 270.75 -50.601562 270.75 -69.15625 C 270.75 -83.21875 266.390625 -96.007812 257.671875 -107.53125 C 248.953125 -119.0625 237.847656 -127.078125 224.359375 -131.578125 L 145.921875 -159.40625 C 131.296875 -164.46875 116.8125 -170.9375 102.46875 -178.8125 C 88.132812 -186.6875 75.910156 -197.367188 65.796875 -210.859375 C 50.609375 -232.234375 43.015625 -256.132812 43.015625 -282.5625 C 43.015625 -305.613281 48.492188 -326.414062 59.453125 -344.96875 C 70.421875 -363.53125 85.320312 -378.289062 104.15625 -389.25 C 123 -400.21875 143.664062 -405.703125 166.15625 -405.703125 L 213.390625 -405.703125 C 255.003906 -405.703125 292.679688 -393.894531 326.421875 -370.28125 C 327.546875 -369.71875 328.109375 -368.59375 328.109375 -366.90625 C 328.109375 -365.78125 327.546875 -364.9375 326.421875 -364.375 L 282.5625 -340.75 C 282 -340.1875 281.4375 -339.90625 280.875 -339.90625 C 280.3125 -339.90625 280.03125 -339.90625 280.03125 -339.90625 C 278.90625 -340.46875 278.0625 -341.03125 277.5 -341.59375 C 260.0625 -380.394531 238.691406 -399.796875 213.390625 -399.796875 L 166.15625 -399.796875 C 148.164062 -399.796875 132.703125 -393.328125 119.765625 -380.390625 C 106.835938 -367.460938 100.375 -352 100.375 -334 C 100.375 -318.257812 105.429688 -304.484375 115.546875 -292.671875 C 122.296875 -283.679688 131.429688 -276.9375 142.953125 -272.4375 C 154.484375 -267.9375 165.875 -263.71875 177.125 -259.78125 C 179.9375 -259.21875 182.75 -258.515625 185.5625 -257.671875 C 188.375 -256.828125 190.90625 -255.84375 193.15625 -254.71875 Z M 250.5 -234.484375 "/></g></g><g style="fill:#c24b79;fill-opacity:1;"><g transform="translate(3804.122989, 1132.770965)"><path style="stroke:none" d="M 250.5 -234.484375 C 274.125 -224.921875 292.960938 -209.734375 307.015625 -188.921875 C 321.078125 -168.117188 328.109375 -145.066406 328.109375 -119.765625 C 328.109375 -97.273438 322.484375 -76.75 311.234375 -58.1875 C 299.984375 -39.632812 285.082031 -24.734375 266.53125 -13.484375 C 247.976562 -2.242188 227.453125 3.375 204.953125 3.375 L 157.71875 3.375 C 116.113281 3.375 78.441406 -8.710938 44.703125 -32.890625 C 43.578125 -33.453125 43.015625 -34.296875 43.015625 -35.421875 C 43.015625 -36.546875 43.578125 -37.390625 44.703125 -37.953125 L 88.5625 -62.421875 C 89.6875 -62.984375 90.53125 -62.984375 91.09375 -62.421875 C 92.21875 -62.421875 93.0625 -61.859375 93.625 -60.734375 C 111.050781 -22.492188 132.414062 -3.375 157.71875 -3.375 L 204.953125 -3.375 C 222.953125 -3.375 238.414062 -9.695312 251.34375 -22.34375 C 264.28125 -35 270.75 -50.601562 270.75 -69.15625 C 270.75 -83.21875 266.390625 -96.007812 257.671875 -107.53125 C 248.953125 -119.0625 237.847656 -127.078125 224.359375 -131.578125 L 145.921875 -159.40625 C 131.296875 -164.46875 116.8125 -170.9375 102.46875 -178.8125 C 88.132812 -186.6875 75.910156 -197.367188 65.796875 -210.859375 C 50.609375 -232.234375 43.015625 -256.132812 43.015625 -282.5625 C 43.015625 -305.613281 48.492188 -326.414062 59.453125 -344.96875 C 70.421875 -363.53125 85.320312 -378.289062 104.15625 -389.25 C 123 -400.21875 143.664062 -405.703125 166.15625 -405.703125 L 213.390625 -405.703125 C 255.003906 -405.703125 292.679688 -393.894531 326.421875 -370.28125 C 327.546875 -369.71875 328.109375 -368.59375 328.109375 -366.90625 C 328.109375 -365.78125 327.546875 -364.9375 326.421875 -364.375 L 282.5625 -340.75 C 282 -340.1875 281.4375 -339.90625 280.875 -339.90625 C 280.3125 -339.90625 280.03125 -339.90625 280.03125 -339.90625 C 278.90625 -340.46875 278.0625 -341.03125 277.5 -341.59375 C 260.0625 -380.394531 238.691406 -399.796875 213.390625 -399.796875 L 166.15625 -399.796875 C 148.164062 -399.796875 132.703125 -393.328125 119.765625 -380.390625 C 106.835938 -367.460938 100.375 -352 100.375 -334 C 100.375 -318.257812 105.429688 -304.484375 115.546875 -292.671875 C 122.296875 -283.679688 131.429688 -276.9375 142.953125 -272.4375 C 154.484375 -267.9375 165.875 -263.71875 177.125 -259.78125 C 179.9375 -259.21875 182.75 -258.515625 185.5625 -257.671875 C 188.375 -256.828125 190.90625 -255.84375 193.15625 -254.71875 Z M 250.5 -234.484375 "/></g></g><g style="fill:#c24b79;fill-opacity:1;"><g transform="translate(4169.327409, 1132.770965)"><path style="stroke:none" d="M 401.484375 -70.84375 C 403.734375 -70.84375 404.859375 -69.71875 404.859375 -67.46875 C 404.859375 -48.351562 397.828125 -31.765625 383.765625 -17.703125 C 369.710938 -3.648438 352.84375 3.375 333.15625 3.375 C 314.601562 3.375 298.578125 -2.804688 285.078125 -15.171875 C 271.585938 -27.546875 264 -42.734375 262.3125 -60.734375 C 253.3125 -42.171875 239.535156 -26.84375 220.984375 -14.75 C 202.429688 -2.664062 181.90625 3.375 159.40625 3.375 C 138.039062 3.375 118.640625 -1.820312 101.203125 -12.21875 C 83.773438 -22.625 69.859375 -36.539062 59.453125 -53.96875 C 49.054688 -71.40625 43.859375 -90.804688 43.859375 -112.171875 C 43.859375 -133.546875 49.054688 -152.945312 59.453125 -170.375 C 69.859375 -187.8125 83.773438 -201.726562 101.203125 -212.125 C 118.640625 -222.53125 138.039062 -227.734375 159.40625 -227.734375 L 209.171875 -227.734375 C 211.421875 -227.734375 212.546875 -226.609375 212.546875 -224.359375 C 212.546875 -222.109375 211.421875 -220.984375 209.171875 -220.984375 L 160.25 -220.984375 C 158 -218.171875 155.75 -207.34375 153.5 -188.5 C 151.257812 -169.664062 150.140625 -144.222656 150.140625 -112.171875 C 150.140625 -80.128906 151.257812 -54.546875 153.5 -35.421875 C 155.75 -16.304688 158 -5.625 160.25 -3.375 C 183.875 -3.375 204.960938 -10.398438 223.515625 -24.453125 C 242.066406 -38.515625 255 -56.226562 262.3125 -77.59375 L 262.3125 -231.109375 C 262.3125 -262.035156 259.21875 -290.289062 253.03125 -315.875 C 246.851562 -341.457031 238.5625 -361.835938 228.15625 -377.015625 C 217.75 -392.203125 206.082031 -399.796875 193.15625 -399.796875 C 175.71875 -399.796875 158.5625 -395.578125 141.6875 -387.140625 C 124.820312 -378.710938 110.203125 -368.734375 97.828125 -357.203125 C 85.460938 -345.671875 77.59375 -334.847656 74.21875 -324.734375 C 73.65625 -323.609375 72.8125 -323.046875 71.6875 -323.046875 C 71.6875 -323.046875 71.40625 -323.046875 70.84375 -323.046875 C 70.28125 -323.046875 69.71875 -323.328125 69.15625 -323.890625 L 48.078125 -341.59375 C 48.640625 -341.59375 48.640625 -341.59375 48.078125 -341.59375 C 48.078125 -341.59375 48.078125 -341.875 48.078125 -342.4375 C 47.515625 -343.5625 47.234375 -344.125 47.234375 -344.125 C 47.234375 -344.125 47.515625 -344.40625 48.078125 -344.96875 C 48.078125 -345.53125 48.078125 -345.8125 48.078125 -345.8125 C 48.078125 -345.8125 48.078125 -346.09375 48.078125 -346.65625 C 88.003906 -386.582031 136.363281 -406.546875 193.15625 -406.546875 C 225.207031 -406.546875 254.585938 -398.53125 281.296875 -382.5 C 308.003906 -366.476562 329.226562 -345.253906 344.96875 -318.828125 C 360.71875 -292.398438 368.59375 -263.160156 368.59375 -231.109375 L 368.59375 -67.46875 C 368.59375 -63.539062 370.132812 -60.171875 373.21875 -57.359375 C 376.3125 -54.546875 379.828125 -53.140625 383.765625 -53.140625 C 387.703125 -53.140625 391.078125 -54.546875 393.890625 -57.359375 C 396.703125 -60.171875 398.109375 -63.539062 398.109375 -67.46875 C 398.109375 -69.71875 399.234375 -70.84375 401.484375 -70.84375 Z M 401.484375 -70.84375 "/></g></g><g style="fill:#c24b79;fill-opacity:1;"><g transform="translate(4591.040717, 1132.770965)"><path style="stroke:none" d="M 450.40625 -70.84375 C 452.65625 -70.84375 453.78125 -69.71875 453.78125 -67.46875 C 453.78125 -48.351562 446.75 -31.765625 432.6875 -17.703125 C 418.632812 -3.648438 402.046875 3.375 382.921875 3.375 C 363.242188 3.375 346.375 -3.648438 332.3125 -17.703125 C 318.257812 -31.765625 311.234375 -48.351562 311.234375 -67.46875 L 311.234375 -255.5625 C 311.234375 -298.863281 306.59375 -333.726562 297.3125 -360.15625 C 288.039062 -386.582031 278.0625 -399.796875 267.375 -399.796875 C 248.820312 -399.796875 231.53125 -396.5625 215.5 -390.09375 C 199.476562 -383.625 185.28125 -374.769531 172.90625 -363.53125 L 172.90625 -21.09375 C 172.90625 -16.03125 174.59375 -11.8125 177.96875 -8.4375 C 181.34375 -5.0625 185.28125 -3.375 189.78125 -3.375 C 192.03125 -3.375 193.15625 -2.25 193.15625 0 C 193.15625 2.25 192.03125 3.375 189.78125 3.375 L 48.921875 3.375 C 46.671875 3.375 45.546875 2.25 45.546875 0 C 45.546875 -2.25 46.671875 -3.375 48.921875 -3.375 C 53.421875 -3.375 57.492188 -5.0625 61.140625 -8.4375 C 64.796875 -11.8125 66.625 -16.03125 66.625 -21.09375 L 66.625 -323.046875 C 66.625 -326.421875 65.503906 -328.671875 63.265625 -329.796875 C 60.453125 -330.921875 56.234375 -329.515625 50.609375 -325.578125 C 48.921875 -324.453125 47.515625 -324.734375 46.390625 -326.421875 C 44.703125 -328.109375 44.984375 -329.796875 47.234375 -331.484375 L 67.46875 -345.8125 C 67.46875 -346.375 67.46875 -346.65625 67.46875 -346.65625 L 167 -418.359375 C 168.125 -419.484375 169.25 -419.765625 170.375 -419.203125 C 172.0625 -418.640625 172.90625 -417.515625 172.90625 -415.828125 L 172.90625 -372.8125 C 185.84375 -382.925781 200.320312 -390.9375 216.34375 -396.84375 C 232.375 -402.75 249.382812 -405.703125 267.375 -405.703125 C 294.925781 -405.703125 320.085938 -398.953125 342.859375 -385.453125 C 365.640625 -371.960938 383.773438 -353.828125 397.265625 -331.046875 C 410.765625 -308.273438 417.515625 -283.113281 417.515625 -255.5625 L 417.515625 -199.0625 L 418.359375 -68.3125 C 418.359375 -63.820312 419.757812 -60.171875 422.5625 -57.359375 C 425.375 -54.546875 428.75 -53.140625 432.6875 -53.140625 C 436.625 -53.140625 440 -54.546875 442.8125 -57.359375 C 445.625 -60.171875 447.03125 -63.539062 447.03125 -67.46875 C 447.03125 -69.71875 448.15625 -70.84375 450.40625 -70.84375 Z M 450.40625 -70.84375 "/></g></g><g style="fill:#c24b79;fill-opacity:1;"><g transform="translate(5059.986345, 1132.770965)"><path style="stroke:none" d="M 385.453125 -61.578125 C 387.140625 -62.703125 388.546875 -62.703125 389.671875 -61.578125 C 391.359375 -59.890625 391.359375 -58.203125 389.671875 -56.515625 C 349.753906 -16.585938 301.675781 3.375 245.4375 3.375 C 188.644531 3.375 140.289062 -16.585938 100.375 -56.515625 C 73.945312 -83.503906 56.234375 -114.425781 47.234375 -149.28125 C 38.234375 -184.144531 38.234375 -219.007812 47.234375 -253.875 C 56.234375 -288.738281 73.945312 -319.664062 100.375 -346.65625 C 126.800781 -373.082031 157.582031 -390.65625 192.71875 -399.375 C 227.863281 -408.09375 262.867188 -408.09375 297.734375 -399.375 C 332.597656 -390.65625 363.242188 -373.082031 389.671875 -346.65625 C 391.359375 -344.96875 391.359375 -343.28125 389.671875 -341.59375 L 319.671875 -271.59375 C 317.984375 -269.90625 316.296875 -269.90625 314.609375 -271.59375 C 289.304688 -296.894531 262.878906 -316.992188 235.328125 -331.890625 C 207.773438 -346.796875 182.328125 -355.375 158.984375 -357.625 C 135.648438 -359.875 117.519531 -354.53125 104.59375 -341.59375 C 92.21875 -328.664062 87.015625 -310.671875 88.984375 -287.609375 C 90.953125 -264.554688 99.382812 -239.253906 114.28125 -211.703125 C 129.1875 -184.148438 149.570312 -157.441406 175.4375 -131.578125 C 214.238281 -92.773438 254.441406 -66.628906 296.046875 -53.140625 C 336.535156 -39.640625 366.335938 -42.453125 385.453125 -61.578125 Z M 385.453125 -61.578125 "/></g></g><g style="fill:#c24b79;fill-opacity:1;"><g transform="translate(5453.023309, 1132.770965)"><path style="stroke:none" d="M 385.453125 -61.578125 C 387.140625 -62.703125 388.546875 -62.703125 389.671875 -61.578125 C 391.359375 -59.890625 391.359375 -58.203125 389.671875 -56.515625 C 349.753906 -16.585938 301.675781 3.375 245.4375 3.375 C 188.644531 3.375 140.289062 -16.585938 100.375 -56.515625 C 73.945312 -83.503906 56.234375 -114.425781 47.234375 -149.28125 C 38.234375 -184.144531 38.234375 -219.007812 47.234375 -253.875 C 56.234375 -288.738281 73.945312 -319.664062 100.375 -346.65625 C 126.800781 -373.082031 157.582031 -390.65625 192.71875 -399.375 C 227.863281 -408.09375 262.867188 -408.09375 297.734375 -399.375 C 332.597656 -390.65625 363.242188 -373.082031 389.671875 -346.65625 C 391.359375 -344.96875 391.359375 -343.28125 389.671875 -341.59375 L 210.015625 -161.9375 C 209.453125 -161.375 208.609375 -161.09375 207.484375 -161.09375 C 206.921875 -161.09375 206.359375 -161.375 205.796875 -161.9375 C 204.109375 -163.625 204.109375 -165.03125 205.796875 -166.15625 L 312.921875 -273.28125 C 274.117188 -311.519531 234.476562 -337.101562 194 -350.03125 C 153.507812 -363.53125 123.707031 -360.71875 104.59375 -341.59375 C 92.21875 -328.664062 87.015625 -310.671875 88.984375 -287.609375 C 90.953125 -264.554688 99.382812 -239.253906 114.28125 -211.703125 C 129.1875 -184.148438 149.570312 -157.441406 175.4375 -131.578125 C 214.238281 -92.773438 254.441406 -66.628906 296.046875 -53.140625 C 336.535156 -39.640625 366.335938 -42.453125 385.453125 -61.578125 Z M 385.453125 -61.578125 "/></g></g><path style="fill:none;stroke-width:2;stroke-linecap:butt;stroke-linejoin:miter;stroke:#c24b79;stroke-opacity:1;stroke-miterlimit:4;" d="M -0.0000125166 1.000038 L 358.026357 1.000038 " transform="matrix(15.343078,0,0,15.343078,253.265817,1370.632902)"/><g style="fill:#ffcccc;fill-opacity:1;"><g transform="translate(1476.765834, 1868.071228)"><path style="stroke:none" d="M 215.3125 -158.8125 C 213.875 -151.695312 211.425781 -145.476562 207.96875 -140.15625 C 204.507812 -134.84375 200.429688 -130.300781 195.734375 -126.53125 C 191.035156 -122.769531 186.003906 -119.703125 180.640625 -117.328125 C 175.273438 -114.953125 170.015625 -113.195312 164.859375 -112.0625 C 170.941406 -110.625 176.769531 -108.457031 182.34375 -105.5625 C 187.914062 -102.675781 192.789062 -98.960938 196.96875 -94.421875 C 201.15625 -89.878906 204.148438 -84.460938 205.953125 -78.171875 C 207.753906 -71.878906 207.832031 -64.550781 206.1875 -56.1875 C 204.53125 -47.832031 201.613281 -40.554688 197.4375 -34.359375 C 193.257812 -28.171875 188.175781 -22.882812 182.1875 -18.5 C 176.207031 -14.113281 169.679688 -10.578125 162.609375 -7.890625 C 155.535156 -5.210938 148.234375 -3.253906 140.703125 -2.015625 C 133.171875 -0.773438 125.742188 -0.15625 118.421875 -0.15625 L 16.40625 -0.15625 L 18.109375 -10.0625 L 34.515625 -10.0625 C 39.054688 -10.0625 42.4375 -11.425781 44.65625 -14.15625 C 46.875 -16.894531 48.394531 -20.484375 49.21875 -24.921875 L 77.390625 -184.203125 C 78.015625 -188.429688 77.757812 -191.9375 76.625 -194.71875 C 75.488281 -197.507812 72.859375 -198.90625 68.734375 -198.90625 L 51.390625 -198.90625 L 53.25 -209.28125 L 157.578125 -208.96875 C 171.921875 -208.96875 183.734375 -206.925781 193.015625 -202.84375 C 202.304688 -198.769531 208.859375 -192.992188 212.671875 -185.515625 C 216.492188 -178.035156 217.375 -169.132812 215.3125 -158.8125 Z M 191.171875 -157.421875 C 194.054688 -171.253906 191.472656 -181.726562 183.421875 -188.84375 C 175.378906 -195.96875 162.738281 -199.53125 145.5 -199.53125 L 102.15625 -199.53125 L 87.765625 -117.015625 L 133.59375 -117.015625 C 150.71875 -117.015625 163.867188 -120.238281 173.046875 -126.6875 C 182.234375 -133.144531 188.273438 -143.390625 191.171875 -157.421875 Z M 182.34375 -57.734375 C 184.71875 -69.597656 183.992188 -79.09375 180.171875 -86.21875 C 176.359375 -93.34375 170.164062 -98.53125 161.59375 -101.78125 C 153.03125 -105.03125 142.816406 -106.65625 130.953125 -106.65625 L 85.90625 -106.65625 L 71.515625 -24.765625 C 71.097656 -22.597656 70.992188 -20.429688 71.203125 -18.265625 C 71.410156 -16.097656 72.179688 -14.289062 73.515625 -12.84375 C 74.859375 -11.40625 76.976562 -10.6875 79.875 -10.6875 L 118.578125 -10.6875 C 130.753906 -10.6875 141.28125 -12.75 150.15625 -16.875 C 159.03125 -21 166.175781 -26.617188 171.59375 -33.734375 C 177.007812 -40.859375 180.59375 -48.859375 182.34375 -57.734375 Z M 182.34375 -57.734375 "/></g></g><g style="fill:#ffcccc;fill-opacity:1;"><g transform="translate(1712.732104, 1868.071228)"><path style="stroke:none" d="M 19.5 72.59375 C 16.300781 72.800781 13.847656 72.078125 12.140625 70.421875 C 10.441406 68.773438 9.75 66.660156 10.0625 64.078125 C 10.570312 60.984375 12.066406 58.789062 14.546875 57.5 C 17.023438 56.21875 19.242188 55.367188 21.203125 54.953125 C 27.398438 53.609375 33.410156 51.539062 39.234375 48.75 C 45.066406 45.96875 50.847656 41.921875 56.578125 36.609375 C 62.304688 31.296875 68.109375 24.097656 73.984375 15.015625 L 82.5 1.390625 L 39.625 -109.75 C 38.175781 -114.082031 36.601562 -117.046875 34.90625 -118.640625 C 33.207031 -120.242188 30.859375 -121.046875 27.859375 -121.046875 L 19.96875 -121.046875 L 21.515625 -130.953125 L 85.453125 -130.953125 L 83.890625 -121.046875 L 71.515625 -121.046875 C 66.972656 -121.046875 64.160156 -119.726562 63.078125 -117.09375 C 61.992188 -114.46875 62.125 -111.191406 63.46875 -107.265625 L 96.59375 -20.125 L 150.296875 -104.328125 C 153.191406 -109.179688 154.664062 -113.179688 154.71875 -116.328125 C 154.769531 -119.472656 152.367188 -121.046875 147.515625 -121.046875 L 133.28125 -121.046875 L 134.984375 -130.953125 L 186.0625 -130.953125 L 184.359375 -121.046875 L 180.328125 -121.046875 C 177.234375 -121.046875 174.367188 -120.09375 171.734375 -118.1875 C 169.109375 -116.28125 166.144531 -112.488281 162.84375 -106.8125 L 81.265625 21.203125 C 74.046875 32.453125 67.179688 41.660156 60.671875 48.828125 C 54.171875 56.003906 47.59375 61.472656 40.9375 65.234375 C 34.28125 69.003906 27.132812 71.457031 19.5 72.59375 Z M 19.5 72.59375 "/></g></g><g style="fill:#ffcccc;fill-opacity:1;"><g transform="translate(1894.675696, 1868.071228)"><path style="stroke:none" d=""/></g></g><g style="fill:#ffcccc;fill-opacity:1;"><g transform="translate(1988.696998, 1868.071228)"><path style="stroke:none" d="M 16.40625 0 L 18.109375 -9.90625 L 41.015625 -9.90625 C 46.796875 -9.90625 50.875 -11.191406 53.25 -13.765625 C 55.625 -16.347656 57.273438 -20.015625 58.203125 -24.765625 L 86.21875 -184.671875 C 87.144531 -189.410156 86.859375 -193.070312 85.359375 -195.65625 C 83.867188 -198.238281 80.234375 -199.53125 74.453125 -199.53125 L 51.546875 -199.53125 L 53.25 -209.4375 L 150.296875 -209.4375 L 148.59375 -199.53125 L 126 -199.53125 C 120.21875 -199.53125 116.085938 -198.316406 113.609375 -195.890625 C 111.140625 -193.460938 109.441406 -189.722656 108.515625 -184.671875 L 80.5 -24.765625 C 79.457031 -19.710938 79.738281 -15.972656 81.34375 -13.546875 C 82.945312 -11.117188 86.632812 -9.90625 92.40625 -9.90625 L 115.171875 -9.90625 L 113.46875 0 Z M 16.40625 0 "/></g></g><g style="fill:#ffcccc;fill-opacity:1;"><g transform="translate(2143.706662, 1868.071228)"><path style="stroke:none" d="M 34.203125 5.109375 C 29.460938 5.109375 25.644531 3.378906 22.75 -0.078125 C 19.863281 -3.535156 18.832031 -7.738281 19.65625 -12.6875 C 20.28125 -15.988281 21.625 -18.984375 23.6875 -21.671875 C 25.75 -24.359375 28.25 -26.5 31.1875 -28.09375 C 34.132812 -29.695312 37.207031 -30.5 40.40625 -30.5 C 45.25 -30.5 49.0625 -28.769531 51.84375 -25.3125 C 54.632812 -21.851562 55.566406 -17.644531 54.640625 -12.6875 C 54.128906 -9.382812 52.835938 -6.390625 50.765625 -3.703125 C 48.703125 -1.023438 46.222656 1.109375 43.328125 2.703125 C 40.441406 4.304688 37.398438 5.109375 34.203125 5.109375 Z M 34.203125 5.109375 "/></g></g><g style="fill:#ffcccc;fill-opacity:1;"><g transform="translate(2252.742833, 1868.071228)"><path style="stroke:none" d="M 221.046875 -155.25 L 211.296875 -154.796875 L 213 -185.59375 C 212.582031 -191.0625 211.109375 -194.617188 208.578125 -196.265625 C 206.054688 -197.921875 202.367188 -198.75 197.515625 -198.75 L 105.109375 -198.75 L 90.40625 -115.015625 L 151.078125 -115.015625 C 154.898438 -115.015625 158.332031 -115.8125 161.375 -117.40625 C 164.414062 -119.007812 166.242188 -121.875 166.859375 -126 L 170.125 -144.421875 L 180.171875 -144.421875 L 167.484375 -73.21875 L 157.578125 -73.21875 L 160.984375 -92.40625 C 161.804688 -97.15625 161.054688 -100.351562 158.734375 -102 C 156.410156 -103.65625 153.289062 -104.484375 149.375 -104.484375 L 88.546875 -104.484375 L 74.765625 -26.625 C 73.835938 -21.769531 73.992188 -17.847656 75.234375 -14.859375 C 76.472656 -11.867188 79.925781 -10.375 85.59375 -10.375 L 168.421875 -10.375 C 175.429688 -10.375 180.613281 -11.535156 183.96875 -13.859375 C 187.320312 -16.179688 189.976562 -19.710938 191.9375 -24.453125 L 206.34375 -69.1875 L 216.09375 -68.734375 L 199.0625 0 L 16.40625 0 L 18.109375 -9.90625 L 36.375 -9.90625 C 41.4375 -9.90625 45.148438 -11.269531 47.515625 -14 C 49.890625 -16.738281 51.488281 -20.328125 52.3125 -24.765625 L 80.34375 -184.515625 C 81.164062 -189.359375 80.828125 -193.046875 79.328125 -195.578125 C 77.835938 -198.109375 74.304688 -199.375 68.734375 -199.375 L 51.546875 -199.375 L 53.25 -209.28125 L 227.390625 -209.28125 Z M 221.046875 -155.25 "/></g></g><g style="fill:#ffcccc;fill-opacity:1;"><g transform="translate(2500.318511, 1868.071228)"><path style="stroke:none" d="M 34.203125 5.109375 C 29.460938 5.109375 25.644531 3.378906 22.75 -0.078125 C 19.863281 -3.535156 18.832031 -7.738281 19.65625 -12.6875 C 20.28125 -15.988281 21.625 -18.984375 23.6875 -21.671875 C 25.75 -24.359375 28.25 -26.5 31.1875 -28.09375 C 34.132812 -29.695312 37.207031 -30.5 40.40625 -30.5 C 45.25 -30.5 49.0625 -28.769531 51.84375 -25.3125 C 54.632812 -21.851562 55.566406 -17.644531 54.640625 -12.6875 C 54.128906 -9.382812 52.835938 -6.390625 50.765625 -3.703125 C 48.703125 -1.023438 46.222656 1.109375 43.328125 2.703125 C 40.441406 4.304688 37.398438 5.109375 34.203125 5.109375 Z M 34.203125 5.109375 "/></g></g><g style="fill:#ffcccc;fill-opacity:1;"><g transform="translate(2609.354683, 1868.071228)"><path style="stroke:none" d=""/></g></g><g style="fill:#ffcccc;fill-opacity:1;"><g transform="translate(2703.376051, 1868.071228)"><path style="stroke:none" d="M 16.5625 0 L 18.265625 -9.90625 L 35.453125 -9.90625 C 40.921875 -9.90625 44.835938 -11.164062 47.203125 -13.6875 C 49.578125 -16.21875 51.28125 -19.910156 52.3125 -24.765625 L 80.34375 -184.515625 C 81.269531 -189.460938 80.929688 -193.175781 79.328125 -195.65625 C 77.734375 -198.132812 74.148438 -199.375 68.578125 -199.375 L 51.546875 -199.375 L 53.25 -209.28125 L 226.46875 -209.28125 L 219.65625 -154.796875 L 209.75 -154.328125 L 212.0625 -184.359375 C 211.851562 -188.691406 210.875 -191.890625 209.125 -193.953125 C 207.375 -196.015625 205.3125 -197.328125 202.9375 -197.890625 C 200.5625 -198.460938 198.132812 -198.75 195.65625 -198.75 L 105.109375 -198.75 L 90.40625 -115.171875 L 150.15625 -115.171875 C 154.28125 -115.171875 157.734375 -116.148438 160.515625 -118.109375 C 163.304688 -120.066406 165.0625 -123.421875 165.78125 -128.171875 L 168.71875 -144.578125 L 178.46875 -144.578125 L 165.78125 -73.0625 L 156.03125 -73.0625 L 159.125 -90.859375 C 159.945312 -95.398438 159.503906 -98.859375 157.796875 -101.234375 C 156.097656 -103.609375 152.828125 -104.796875 147.984375 -104.796875 L 88.390625 -104.796875 L 74.453125 -24.765625 C 73.628906 -20.222656 73.960938 -16.609375 75.453125 -13.921875 C 76.953125 -11.242188 80.644531 -9.90625 86.53125 -9.90625 L 107.421875 -9.90625 L 105.71875 0 Z M 16.5625 0 "/></g></g><g style="fill:#ffcccc;fill-opacity:1;"><g transform="translate(2916.433009, 1868.071228)"><path style="stroke:none" d="M 68.578125 3.875 C 65.378906 3.875 61.585938 3.507812 57.203125 2.78125 C 52.816406 2.0625 48.25 0.773438 43.5 -1.078125 C 38.75 -2.941406 34.234375 -5.523438 29.953125 -8.828125 C 25.671875 -12.128906 21.976562 -16.359375 18.875 -21.515625 C 15.78125 -26.671875 13.691406 -32.882812 12.609375 -40.15625 C 11.523438 -47.4375 11.8125 -55.976562 13.46875 -65.78125 C 15.21875 -75.789062 18.15625 -84.613281 22.28125 -92.25 C 26.414062 -99.894531 31.296875 -106.398438 36.921875 -111.765625 C 42.546875 -117.128906 48.582031 -121.515625 55.03125 -124.921875 C 61.476562 -128.328125 67.953125 -130.828125 74.453125 -132.421875 C 80.953125 -134.023438 87.144531 -134.828125 93.03125 -134.828125 C 98.5 -134.828125 104.171875 -134.050781 110.046875 -132.5 C 115.929688 -130.957031 121.53125 -128.535156 126.84375 -125.234375 C 132.164062 -121.929688 136.757812 -117.59375 140.625 -112.21875 C 144.5 -106.851562 147.179688 -100.328125 148.671875 -92.640625 C 150.171875 -84.953125 149.992188 -76 148.140625 -65.78125 C 146.179688 -54.738281 142.984375 -45.21875 138.546875 -37.21875 C 134.109375 -29.226562 128.894531 -22.570312 122.90625 -17.25 C 116.914062 -11.9375 110.644531 -7.734375 104.09375 -4.640625 C 97.539062 -1.546875 91.164062 0.644531 84.96875 1.9375 C 78.78125 3.226562 73.316406 3.875 68.578125 3.875 Z M 70.4375 -6.1875 C 75.28125 -6.1875 80.539062 -7.296875 86.21875 -9.515625 C 91.894531 -11.734375 97.441406 -15.242188 102.859375 -20.046875 C 108.273438 -24.847656 113.097656 -31.015625 117.328125 -38.546875 C 121.554688 -46.078125 124.601562 -55.101562 126.46875 -65.625 C 128.738281 -78.113281 128.582031 -88.769531 126 -97.59375 C 123.414062 -106.414062 119.101562 -113.148438 113.0625 -117.796875 C 107.03125 -122.441406 99.785156 -124.765625 91.328125 -124.765625 C 82.972656 -124.765625 74.925781 -122.414062 67.1875 -117.71875 C 59.445312 -113.019531 52.738281 -106.3125 47.0625 -97.59375 C 41.382812 -88.875 37.460938 -78.476562 35.296875 -66.40625 C 33.429688 -55.675781 33.25 -46.488281 34.75 -38.84375 C 36.25 -31.207031 38.878906 -24.988281 42.640625 -20.1875 C 46.410156 -15.394531 50.742188 -11.863281 55.640625 -9.59375 C 60.546875 -7.320312 65.476562 -6.1875 70.4375 -6.1875 Z M 70.4375 -6.1875 "/></g></g><g style="fill:#ffcccc;fill-opacity:1;"><g transform="translate(3093.887599, 1868.071228)"><path style="stroke:none" d="M 68.109375 3.875 C 53.867188 3.875 43.78125 -0.046875 37.84375 -7.890625 C 31.914062 -15.734375 30.445312 -28.117188 33.4375 -45.046875 L 44.265625 -107.578125 C 45.097656 -111.910156 44.816406 -115.238281 43.421875 -117.5625 C 42.023438 -119.882812 39.265625 -121.046875 35.140625 -121.046875 L 20.59375 -121.046875 L 22.296875 -130.953125 L 69.34375 -130.953125 L 54.171875 -45.359375 C 52.109375 -33.179688 52.675781 -24.125 55.875 -18.1875 C 59.070312 -12.25 65.988281 -9.28125 76.625 -9.28125 C 82.300781 -9.28125 87.953125 -10.75 93.578125 -13.6875 C 99.203125 -16.632812 104.566406 -20.503906 109.671875 -25.296875 C 114.773438 -30.097656 119.414062 -35.3125 123.59375 -40.9375 C 127.78125 -46.5625 131.316406 -52.003906 134.203125 -57.265625 L 143.03125 -107.578125 C 143.75 -111.398438 143.566406 -114.597656 142.484375 -117.171875 C 141.398438 -119.753906 139.050781 -121.046875 135.4375 -121.046875 L 118.578125 -121.046875 L 120.28125 -130.953125 L 168.109375 -130.953125 L 149.21875 -23.53125 C 148.5 -19.40625 148.804688 -16.128906 150.140625 -13.703125 C 151.484375 -11.273438 154.476562 -10.421875 159.125 -11.140625 L 174.609375 -14.859375 L 174.296875 -4.953125 L 123.53125 3.5625 L 130.796875 -37.453125 C 126.878906 -32.191406 122.519531 -27.082031 117.71875 -22.125 C 112.914062 -17.175781 107.78125 -12.765625 102.3125 -8.890625 C 96.84375 -5.023438 91.21875 -1.929688 85.4375 0.390625 C 79.664062 2.710938 73.890625 3.875 68.109375 3.875 Z M 68.109375 3.875 "/></g></g><g style="fill:#ffcccc;fill-opacity:1;"><g transform="translate(3304.777411, 1868.071228)"><path style="stroke:none" d="M 1.546875 0 L 3.25 -9.90625 L 18.421875 -9.90625 C 23.171875 -9.90625 26.578125 -11.117188 28.640625 -13.546875 C 30.703125 -15.972656 32.144531 -19.25 32.96875 -23.375 L 47.21875 -105.265625 C 48.039062 -109.492188 47.753906 -112.84375 46.359375 -115.3125 C 44.960938 -117.789062 41.945312 -118.617188 37.3125 -117.796875 L 21.828125 -114.078125 L 22.140625 -123.984375 L 73.375 -135.28125 L 65.9375 -93.65625 C 69.863281 -98.914062 74.222656 -103.992188 79.015625 -108.890625 C 83.816406 -113.796875 88.953125 -118.207031 94.421875 -122.125 C 99.890625 -126.050781 105.515625 -129.148438 111.296875 -131.421875 C 117.078125 -133.691406 122.851562 -134.828125 128.625 -134.828125 C 142.976562 -134.828125 153.066406 -130.90625 158.890625 -123.0625 C 164.722656 -115.21875 166.144531 -102.832031 163.15625 -85.90625 L 152.3125 -23.375 C 150.5625 -14.394531 153.609375 -9.90625 161.453125 -9.90625 L 176.15625 -9.90625 L 174.453125 0 L 99.6875 0 L 101.390625 -9.90625 L 118.421875 -9.90625 C 122.234375 -9.90625 125.195312 -11.144531 127.3125 -13.625 C 129.425781 -16.101562 130.898438 -19.40625 131.734375 -23.53125 L 142.5625 -85.59375 C 144.625 -97.875 144.054688 -106.984375 140.859375 -112.921875 C 137.660156 -118.859375 130.75 -121.828125 120.125 -121.828125 C 114.445312 -121.828125 108.796875 -120.328125 103.171875 -117.328125 C 97.546875 -114.335938 92.148438 -110.441406 86.984375 -105.640625 C 81.828125 -100.847656 77.160156 -95.640625 72.984375 -90.015625 C 68.804688 -84.390625 65.269531 -78.945312 62.375 -73.6875 L 53.71875 -23.375 C 52.988281 -19.65625 53.191406 -16.476562 54.328125 -13.84375 C 55.460938 -11.21875 57.835938 -9.90625 61.453125 -9.90625 L 78.015625 -9.90625 L 76.3125 0 Z M 1.546875 0 "/></g></g><g style="fill:#ffcccc;fill-opacity:1;"><g transform="translate(3517.215199, 1868.071228)"><path style="stroke:none" d="M 63.625 3.5625 C 54.4375 3.5625 46.332031 1.78125 39.3125 -1.78125 C 32.300781 -5.34375 26.550781 -10.269531 22.0625 -16.5625 C 17.570312 -22.851562 14.5 -30.125 12.84375 -38.375 C 11.195312 -46.632812 11.195312 -55.515625 12.84375 -65.015625 C 14.5 -74.503906 17.3125 -83.015625 21.28125 -90.546875 C 25.257812 -98.085938 29.957031 -104.617188 35.375 -110.140625 C 40.789062 -115.660156 46.617188 -120.25 52.859375 -123.90625 C 59.109375 -127.570312 65.378906 -130.304688 71.671875 -132.109375 C 77.960938 -133.921875 83.894531 -134.828125 89.46875 -134.828125 C 94.320312 -134.828125 99.328125 -134.179688 104.484375 -132.890625 C 109.640625 -131.597656 114.59375 -129.582031 119.34375 -126.84375 C 124.09375 -124.113281 128.222656 -120.476562 131.734375 -115.9375 L 143.953125 -184.828125 C 144.785156 -189.054688 144.476562 -192.429688 143.03125 -194.953125 C 141.582031 -197.484375 138.4375 -198.335938 133.59375 -197.515625 L 118.421875 -193.796875 L 118.71875 -203.546875 L 169.96875 -214.546875 L 135.75 -21.046875 C 135.238281 -18.160156 135.34375 -15.632812 136.0625 -13.46875 C 136.78125 -11.300781 138.894531 -10.21875 142.40625 -10.21875 L 156.65625 -10.21875 L 154.953125 0 L 113.46875 0 L 115.46875 -16.71875 C 108.25 -11.144531 100.351562 -6.367188 91.78125 -2.390625 C 83.21875 1.578125 73.832031 3.5625 63.625 3.5625 Z M 71.984375 -8.671875 C 76.722656 -8.671875 81.722656 -9.441406 86.984375 -10.984375 C 92.253906 -12.535156 97.492188 -14.910156 102.703125 -18.109375 C 107.910156 -21.304688 112.632812 -25.382812 116.875 -30.34375 L 129.5625 -103.40625 C 125.84375 -109.382812 120.863281 -114.101562 114.625 -117.5625 C 108.382812 -121.019531 101.238281 -122.75 93.1875 -122.75 C 85.851562 -122.75 78.960938 -121.25 72.515625 -118.25 C 66.066406 -115.257812 60.257812 -111.160156 55.09375 -105.953125 C 49.9375 -100.742188 45.628906 -94.734375 42.171875 -87.921875 C 38.722656 -81.109375 36.273438 -73.882812 34.828125 -66.25 C 33.378906 -58.195312 33.195312 -50.660156 34.28125 -43.640625 C 35.363281 -36.628906 37.554688 -30.515625 40.859375 -25.296875 C 44.160156 -20.085938 48.441406 -16.015625 53.703125 -13.078125 C 58.972656 -10.140625 65.066406 -8.671875 71.984375 -8.671875 Z M 71.984375 -8.671875 "/></g></g><g style="fill:#ffcccc;fill-opacity:1;"><g transform="translate(3710.149064, 1868.071228)"><path style="stroke:none" d="M 34.515625 3.09375 C 27.085938 3.09375 21.28125 1.832031 17.09375 -0.6875 C 12.914062 -3.21875 10.128906 -6.675781 8.734375 -11.0625 C 7.347656 -15.445312 7.117188 -20.375 8.046875 -25.84375 C 9.285156 -32.863281 11.941406 -38.820312 16.015625 -43.71875 C 20.097656 -48.625 25.179688 -52.957031 31.265625 -56.71875 C 37.359375 -60.488281 44.117188 -64.023438 51.546875 -67.328125 L 108.8125 -93.03125 C 109.75 -101.382812 109.414062 -107.859375 107.8125 -112.453125 C 106.207031 -117.046875 103.265625 -120.269531 98.984375 -122.125 C 94.703125 -123.988281 88.953125 -124.921875 81.734375 -124.921875 C 73.160156 -124.921875 66.140625 -123.734375 60.671875 -121.359375 C 55.203125 -118.984375 50.816406 -115.9375 47.515625 -112.21875 C 44.210938 -108.507812 41.476562 -104.640625 39.3125 -100.609375 C 38.28125 -98.140625 36.882812 -96.101562 35.125 -94.5 C 33.375 -92.90625 31.054688 -92.207031 28.171875 -92.40625 C 25.285156 -92.613281 23.425781 -93.617188 22.59375 -95.421875 C 21.769531 -97.234375 21.769531 -99.328125 22.59375 -101.703125 C 24.144531 -105.617188 26.519531 -109.507812 29.71875 -113.375 C 32.914062 -117.25 37.09375 -120.8125 42.25 -124.0625 C 47.414062 -127.3125 53.710938 -129.914062 61.140625 -131.875 C 68.566406 -133.84375 77.390625 -134.828125 87.609375 -134.828125 C 95.035156 -134.828125 101.691406 -134.128906 107.578125 -132.734375 C 113.460938 -131.335938 118.285156 -128.960938 122.046875 -125.609375 C 125.816406 -122.253906 128.347656 -117.632812 129.640625 -111.75 C 130.929688 -105.875 130.75 -98.5 129.09375 -89.625 L 119.03125 -34.515625 C 117.382812 -25.535156 117.253906 -19.082031 118.640625 -15.15625 C 120.035156 -11.238281 122.800781 -9.28125 126.9375 -9.28125 C 130.644531 -9.28125 133.890625 -10.851562 136.671875 -14 C 139.460938 -17.15625 141.53125 -22.1875 142.875 -29.09375 L 151.546875 -29.09375 C 149.578125 -18.46875 145.648438 -10.546875 139.765625 -5.328125 C 133.890625 -0.117188 126.875 2.484375 118.71875 2.484375 C 110.363281 2.484375 104.710938 -0.117188 101.765625 -5.328125 C 98.828125 -10.546875 97.722656 -18.210938 98.453125 -28.328125 C 88.441406 -18.929688 77.941406 -11.34375 66.953125 -5.5625 C 55.960938 0.207031 45.148438 3.09375 34.515625 3.09375 Z M 44.421875 -8.671875 C 52.679688 -8.671875 61.582031 -11.484375 71.125 -17.109375 C 80.675781 -22.734375 90.144531 -30.648438 99.53125 -40.859375 L 107.109375 -82.65625 L 54.640625 -57.265625 C 48.554688 -54.378906 43.734375 -51.441406 40.171875 -48.453125 C 36.609375 -45.460938 33.945312 -42.390625 32.1875 -39.234375 C 30.4375 -36.085938 29.253906 -32.757812 28.640625 -29.25 C 27.503906 -22.644531 28.273438 -17.5625 30.953125 -14 C 33.640625 -10.445312 38.128906 -8.671875 44.421875 -8.671875 Z M 44.421875 -8.671875 "/></g></g><g style="fill:#ffcccc;fill-opacity:1;"><g transform="translate(3893.640623, 1868.071228)"><path style="stroke:none" d="M 73.6875 3.875 C 60.375 3.875 50.515625 -0.0195312 44.109375 -7.8125 C 37.710938 -15.601562 35.804688 -27.289062 38.390625 -42.875 L 52.3125 -121.046875 L 20.890625 -121.046875 L 22.4375 -130.953125 L 43.5 -130.953125 C 49.789062 -130.953125 55.3125 -132.859375 60.0625 -136.671875 C 64.8125 -140.492188 67.75 -145.65625 68.875 -152.15625 L 73.21875 -176.625 L 82.8125 -176.625 L 74.609375 -130.953125 L 126 -130.953125 L 124.296875 -121.046875 L 72.90625 -121.046875 L 59.59375 -45.515625 C 57.425781 -33.128906 58.125 -23.734375 61.6875 -17.328125 C 65.25 -10.929688 71.878906 -7.734375 81.578125 -7.734375 C 87.359375 -7.734375 92.722656 -9 97.671875 -11.53125 C 102.628906 -14.0625 106.960938 -18.007812 110.671875 -23.375 L 118.578125 -19.1875 C 114.960938 -13.613281 110.648438 -9.125 105.640625 -5.71875 C 100.640625 -2.320312 95.378906 0.125 89.859375 1.625 C 84.335938 3.125 78.945312 3.875 73.6875 3.875 Z M 73.6875 3.875 "/></g></g><g style="fill:#ffcccc;fill-opacity:1;"><g transform="translate(4044.780334, 1868.071228)"><path style="stroke:none" d="M 70.890625 -178.46875 C 67.585938 -178.46875 64.90625 -179.367188 62.84375 -181.171875 C 60.78125 -182.984375 59.382812 -185.226562 58.65625 -187.90625 C 57.9375 -190.59375 57.785156 -193.28125 58.203125 -195.96875 C 59.023438 -199.882812 61.113281 -203.160156 64.46875 -205.796875 C 67.820312 -208.429688 71.507812 -209.75 75.53125 -209.75 C 79.96875 -209.75 83.425781 -208.019531 85.90625 -204.5625 C 88.382812 -201.101562 89.210938 -197.050781 88.390625 -192.40625 C 87.460938 -187.96875 85.269531 -184.535156 81.8125 -182.109375 C 78.351562 -179.679688 74.710938 -178.46875 70.890625 -178.46875 Z M -3.09375 0 L -1.078125 -9.90625 L 14.09375 -9.90625 C 18.726562 -9.90625 22.234375 -11.144531 24.609375 -13.625 C 26.984375 -16.101562 28.632812 -19.660156 29.5625 -24.296875 L 45.65625 -107.265625 C 46.59375 -112.117188 46.335938 -115.472656 44.890625 -117.328125 C 43.441406 -119.191406 40.296875 -119.707031 35.453125 -118.875 L 19.34375 -115.171875 L 19.96875 -124.921875 L 72.140625 -135.90625 L 50.15625 -22.4375 C 49.332031 -18.3125 49.4375 -15.191406 50.46875 -13.078125 C 51.5 -10.960938 54.234375 -9.90625 58.671875 -9.90625 L 72.140625 -9.90625 L 70.125 0 Z M -3.09375 0 "/></g></g><g style="fill:#ffcccc;fill-opacity:1;"><g transform="translate(4149.17283, 1868.071228)"><path style="stroke:none" d="M 68.578125 3.875 C 65.378906 3.875 61.585938 3.507812 57.203125 2.78125 C 52.816406 2.0625 48.25 0.773438 43.5 -1.078125 C 38.75 -2.941406 34.234375 -5.523438 29.953125 -8.828125 C 25.671875 -12.128906 21.976562 -16.359375 18.875 -21.515625 C 15.78125 -26.671875 13.691406 -32.882812 12.609375 -40.15625 C 11.523438 -47.4375 11.8125 -55.976562 13.46875 -65.78125 C 15.21875 -75.789062 18.15625 -84.613281 22.28125 -92.25 C 26.414062 -99.894531 31.296875 -106.398438 36.921875 -111.765625 C 42.546875 -117.128906 48.582031 -121.515625 55.03125 -124.921875 C 61.476562 -128.328125 67.953125 -130.828125 74.453125 -132.421875 C 80.953125 -134.023438 87.144531 -134.828125 93.03125 -134.828125 C 98.5 -134.828125 104.171875 -134.050781 110.046875 -132.5 C 115.929688 -130.957031 121.53125 -128.535156 126.84375 -125.234375 C 132.164062 -121.929688 136.757812 -117.59375 140.625 -112.21875 C 144.5 -106.851562 147.179688 -100.328125 148.671875 -92.640625 C 150.171875 -84.953125 149.992188 -76 148.140625 -65.78125 C 146.179688 -54.738281 142.984375 -45.21875 138.546875 -37.21875 C 134.109375 -29.226562 128.894531 -22.570312 122.90625 -17.25 C 116.914062 -11.9375 110.644531 -7.734375 104.09375 -4.640625 C 97.539062 -1.546875 91.164062 0.644531 84.96875 1.9375 C 78.78125 3.226562 73.316406 3.875 68.578125 3.875 Z M 70.4375 -6.1875 C 75.28125 -6.1875 80.539062 -7.296875 86.21875 -9.515625 C 91.894531 -11.734375 97.441406 -15.242188 102.859375 -20.046875 C 108.273438 -24.847656 113.097656 -31.015625 117.328125 -38.546875 C 121.554688 -46.078125 124.601562 -55.101562 126.46875 -65.625 C 128.738281 -78.113281 128.582031 -88.769531 126 -97.59375 C 123.414062 -106.414062 119.101562 -113.148438 113.0625 -117.796875 C 107.03125 -122.441406 99.785156 -124.765625 91.328125 -124.765625 C 82.972656 -124.765625 74.925781 -122.414062 67.1875 -117.71875 C 59.445312 -113.019531 52.738281 -106.3125 47.0625 -97.59375 C 41.382812 -88.875 37.460938 -78.476562 35.296875 -66.40625 C 33.429688 -55.675781 33.25 -46.488281 34.75 -38.84375 C 36.25 -31.207031 38.878906 -24.988281 42.640625 -20.1875 C 46.410156 -15.394531 50.742188 -11.863281 55.640625 -9.59375 C 60.546875 -7.320312 65.476562 -6.1875 70.4375 -6.1875 Z M 70.4375 -6.1875 "/></g></g><g style="fill:#ffcccc;fill-opacity:1;"><g transform="translate(4326.62742, 1868.071228)"><path style="stroke:none" d="M 1.546875 0 L 3.25 -9.90625 L 18.421875 -9.90625 C 23.171875 -9.90625 26.578125 -11.117188 28.640625 -13.546875 C 30.703125 -15.972656 32.144531 -19.25 32.96875 -23.375 L 47.21875 -105.265625 C 48.039062 -109.492188 47.753906 -112.84375 46.359375 -115.3125 C 44.960938 -117.789062 41.945312 -118.617188 37.3125 -117.796875 L 21.828125 -114.078125 L 22.140625 -123.984375 L 73.375 -135.28125 L 65.9375 -93.65625 C 69.863281 -98.914062 74.222656 -103.992188 79.015625 -108.890625 C 83.816406 -113.796875 88.953125 -118.207031 94.421875 -122.125 C 99.890625 -126.050781 105.515625 -129.148438 111.296875 -131.421875 C 117.078125 -133.691406 122.851562 -134.828125 128.625 -134.828125 C 142.976562 -134.828125 153.066406 -130.90625 158.890625 -123.0625 C 164.722656 -115.21875 166.144531 -102.832031 163.15625 -85.90625 L 152.3125 -23.375 C 150.5625 -14.394531 153.609375 -9.90625 161.453125 -9.90625 L 176.15625 -9.90625 L 174.453125 0 L 99.6875 0 L 101.390625 -9.90625 L 118.421875 -9.90625 C 122.234375 -9.90625 125.195312 -11.144531 127.3125 -13.625 C 129.425781 -16.101562 130.898438 -19.40625 131.734375 -23.53125 L 142.5625 -85.59375 C 144.625 -97.875 144.054688 -106.984375 140.859375 -112.921875 C 137.660156 -118.859375 130.75 -121.828125 120.125 -121.828125 C 114.445312 -121.828125 108.796875 -120.328125 103.171875 -117.328125 C 97.546875 -114.335938 92.148438 -110.441406 86.984375 -105.640625 C 81.828125 -100.847656 77.160156 -95.640625 72.984375 -90.015625 C 68.804688 -84.390625 65.269531 -78.945312 62.375 -73.6875 L 53.71875 -23.375 C 52.988281 -19.65625 53.191406 -16.476562 54.328125 -13.84375 C 55.460938 -11.21875 57.835938 -9.90625 61.453125 -9.90625 L 78.015625 -9.90625 L 76.3125 0 Z M 1.546875 0 "/></g></g></g></svg>